<svg width="16" height="16" viewBox="0 0 16 16" fill="none" xmlns="http://www.w3.org/2000/svg">
<path fill-rule="evenodd" clip-rule="evenodd" d="M3.72001 3.71991C3.86064 3.57946 4.05126 3.50057 4.25001 3.50057C4.44876 3.50057 4.63939 3.57946 4.78001 3.71991L8.00001 6.93991L11.22 3.71991C11.2887 3.64622 11.3715 3.58712 11.4635 3.54613C11.5555 3.50514 11.6548 3.48309 11.7555 3.48132C11.8562 3.47954 11.9562 3.49807 12.0496 3.53579C12.143 3.57351 12.2278 3.62965 12.299 3.70087C12.3703 3.77209 12.4264 3.85692 12.4641 3.95031C12.5019 4.0437 12.5204 4.14373 12.5186 4.24443C12.5168 4.34513 12.4948 4.44445 12.4538 4.53645C12.4128 4.62845 12.3537 4.71125 12.28 4.77991L9.06001 7.99991L12.28 11.2199C12.3537 11.2886 12.4128 11.3714 12.4538 11.4634C12.4948 11.5554 12.5168 11.6547 12.5186 11.7554C12.5204 11.8561 12.5019 11.9561 12.4641 12.0495C12.4264 12.1429 12.3703 12.2277 12.299 12.2989C12.2278 12.3702 12.143 12.4263 12.0496 12.464C11.9562 12.5018 11.8562 12.5203 11.7555 12.5185C11.6548 12.5167 11.5555 12.4947 11.4635 12.4537C11.3715 12.4127 11.2887 12.3536 11.22 12.2799L8.00001 9.05991L4.78001 12.2799C4.63784 12.4124 4.44979 12.4845 4.25549 12.4811C4.06119 12.4777 3.8758 12.3989 3.73839 12.2615C3.60098 12.1241 3.52226 11.9387 3.51884 11.7444C3.51541 11.5501 3.58753 11.3621 3.72001 11.2199L6.94001 7.99991L3.72001 4.77991C3.57956 4.63928 3.50067 4.44866 3.50067 4.24991C3.50067 4.05116 3.57956 3.86053 3.72001 3.71991Z" fill="#282C37"/>
</svg>
