<svg width="45" height="45" viewBox="0 0 45 45" fill="none" xmlns="http://www.w3.org/2000/svg">
<circle cx="22.5" cy="22.5" r="22.5" fill="#63C667"/>
<path fill-rule="evenodd" clip-rule="evenodd" d="M28.78 19.2201C28.9205 19.3607 28.9994 19.5513 28.9994 19.7501C28.9994 19.9488 28.9205 20.1394 28.78 20.2801L21.53 27.5301C21.3894 27.6705 21.1988 27.7494 21 27.7494C20.8013 27.7494 20.6107 27.6705 20.47 27.5301L17.22 24.2801C17.0875 24.1379 17.0154 23.9499 17.0189 23.7556C17.0223 23.5612 17.101 23.3759 17.2384 23.2385C17.3758 23.101 17.5612 23.0223 17.7555 23.0189C17.9498 23.0155 18.1379 23.0876 18.28 23.2201L21 25.9401L27.72 19.2201C27.8607 19.0796 28.0513 19.0007 28.25 19.0007C28.4488 19.0007 28.6394 19.0796 28.78 19.2201Z" fill="white"/>
</svg>
