<svg width="45" height="45" viewBox="0 0 45 45" fill="none" xmlns="http://www.w3.org/2000/svg">
<circle cx="22.5" cy="22.5" r="22.5" fill="#DF2C2C"/>
<path fill-rule="evenodd" clip-rule="evenodd" d="M18.72 18.7199C18.8606 18.5795 19.0512 18.5006 19.25 18.5006C19.4487 18.5006 19.6393 18.5795 19.78 18.7199L23 21.9399L26.22 18.7199C26.2886 18.6462 26.3714 18.5871 26.4634 18.5461C26.5554 18.5051 26.6547 18.4831 26.7554 18.4813C26.8561 18.4795 26.9562 18.4981 27.0495 18.5358C27.1429 18.5735 27.2278 18.6297 27.299 18.7009C27.3702 18.7721 27.4264 18.8569 27.4641 18.9503C27.5018 19.0437 27.5203 19.1437 27.5185 19.2444C27.5168 19.3451 27.4947 19.4444 27.4537 19.5364C27.4127 19.6284 27.3536 19.7112 27.28 19.7799L24.06 22.9999L27.28 26.2199C27.3536 26.2886 27.4127 26.3714 27.4537 26.4634C27.4947 26.5554 27.5168 26.6547 27.5185 26.7554C27.5203 26.8561 27.5018 26.9561 27.4641 27.0495C27.4264 27.1429 27.3702 27.2277 27.299 27.2989C27.2278 27.3702 27.1429 27.4263 27.0495 27.464C26.9562 27.5018 26.8561 27.5203 26.7554 27.5185C26.6547 27.5167 26.5554 27.4947 26.4634 27.4537C26.3714 27.4127 26.2886 27.3536 26.22 27.2799L23 24.0599L19.78 27.2799C19.6378 27.4124 19.4497 27.4845 19.2554 27.4811C19.0611 27.4777 18.8757 27.3989 18.7383 27.2615C18.6009 27.1241 18.5222 26.9387 18.5188 26.7444C18.5153 26.5501 18.5875 26.3621 18.72 26.2199L21.94 22.9999L18.72 19.7799C18.5795 19.6393 18.5006 19.4487 18.5006 19.2499C18.5006 19.0512 18.5795 18.8605 18.72 18.7199Z" fill="white"/>
</svg>
