<svg width="45" height="45" viewBox="0 0 45 45" fill="none" xmlns="http://www.w3.org/2000/svg">
<circle cx="22.5" cy="22.5" r="22.5" fill="#2B90D9"/>
<g clip-path="url(#clip0)">
<path fill-rule="evenodd" clip-rule="evenodd" d="M19.75 16.5C19.4185 16.5 19.1005 16.6317 18.8661 16.8661C18.6317 17.1005 18.5 17.4185 18.5 17.75C18.5 18.0815 18.6317 18.3995 18.8661 18.6339C19.1005 18.8683 19.4185 19 19.75 19H22.059C21.826 18.182 21.517 17.599 21.181 17.207C20.751 16.705 20.266 16.5 19.75 16.5ZM17 17.75C17 18.2 17.108 18.625 17.3 19H16.75C16.2859 19 15.8408 19.1844 15.5126 19.5126C15.1844 19.8408 15 20.2859 15 20.75V22.75C15 23.448 15.409 24.05 16 24.332V29.25C16 30.216 16.784 31 17.75 31H28.25C28.7141 31 29.1592 30.8156 29.4874 30.4874C29.8156 30.1592 30 29.7141 30 29.25V24.332C30.591 24.051 31 23.448 31 22.75V20.75C31 20.5202 30.9547 20.2926 30.8668 20.0803C30.7788 19.868 30.6499 19.6751 30.4874 19.5126C30.3249 19.3501 30.132 19.2212 29.9197 19.1332C29.7074 19.0453 29.4798 19 29.25 19H28.7C28.914 18.5807 29.0167 18.1135 28.9984 17.6432C28.9802 17.1728 28.8414 16.715 28.5956 16.3136C28.3497 15.9122 28.0049 15.5807 27.5943 15.3507C27.1836 15.1207 26.7207 14.9999 26.25 15C25.266 15 24.376 15.42 23.68 16.23C23.4114 16.5488 23.183 16.8994 23 17.274C22.8168 16.9001 22.5885 16.5502 22.32 16.232C21.623 15.42 20.733 15 19.75 15C19.0207 15 18.3212 15.2897 17.8055 15.8055C17.2897 16.3212 17 17.0207 17 17.75ZM23.941 19H26.25C26.5815 19 26.8995 18.8683 27.1339 18.6339C27.3683 18.3995 27.5 18.0815 27.5 17.75C27.5 17.4185 27.3683 17.1005 27.1339 16.8661C26.8995 16.6317 26.5815 16.5 26.25 16.5C25.734 16.5 25.25 16.705 24.82 17.207C24.483 17.599 24.174 18.182 23.941 19ZM22.101 20.5H16.75C16.6837 20.5 16.6201 20.5263 16.5732 20.5732C16.5263 20.6201 16.5 20.6837 16.5 20.75V22.75C16.5 22.888 16.612 23 16.75 23H22.25V20.5H22.101ZM23.75 20.5V23H29.25C29.3163 23 29.3799 22.9737 29.4268 22.9268C29.4737 22.8799 29.5 22.8163 29.5 22.75V20.75C29.5 20.6837 29.4737 20.6201 29.4268 20.5732C29.3799 20.5263 29.3163 20.5 29.25 20.5H23.75ZM23.75 24.5H28.5V29.25C28.5 29.3163 28.4737 29.3799 28.4268 29.4268C28.3799 29.4737 28.3163 29.5 28.25 29.5H23.75V24.5ZM22.25 24.5V29.5H17.75C17.6837 29.5 17.6201 29.4737 17.5732 29.4268C17.5263 29.3799 17.5 29.3163 17.5 29.25V24.5H22.25Z" fill="white"/>
</g>
<defs>
<clipPath id="clip0">
<rect width="16" height="16" fill="white" transform="translate(15 15)"/>
</clipPath>
</defs>
</svg>
