<svg width="80" height="80" viewBox="0 0 80 80" fill="none" xmlns="http://www.w3.org/2000/svg">
<path d="M39.9998 66.6667C41.8408 66.6667 43.3332 65.1743 43.3332 63.3333C43.3332 61.4924 41.8408 60 39.9998 60C38.1589 60 36.6665 61.4924 36.6665 63.3333C36.6665 65.1743 38.1589 66.6667 39.9998 66.6667Z" fill="white"/>
<path d="M41.4666 36.6664L35.1333 30.3664L26.9333 22.2331L21.7666 17.0664L15.7 10.9664C15.3892 10.6556 15.0202 10.4091 14.6141 10.2409C14.2081 10.0727 13.7728 9.98608 13.3333 9.98608C12.8938 9.98608 12.4585 10.0727 12.0525 10.2409C11.6464 10.4091 11.2774 10.6556 10.9666 10.9664C10.339 11.5941 9.98633 12.4454 9.98633 13.3331C9.98633 14.2207 10.339 15.072 10.9666 15.6997L15.5666 20.2664L20.4333 25.1331L27.8666 32.5997L33.0333 37.7331L42.1666 46.8664L51.4666 56.1997L64.3 69.0331C64.6098 69.3455 64.9785 69.5935 65.3847 69.7627C65.7909 69.9319 66.2266 70.0191 66.6666 70.0191C67.1067 70.0191 67.5424 69.9319 67.9486 69.7627C68.3548 69.5935 68.7234 69.3455 69.0333 69.0331C69.3457 68.7232 69.5937 68.3545 69.7629 67.9483C69.9322 67.5421 70.0193 67.1064 70.0193 66.6664C70.0193 66.2264 69.9322 65.7907 69.7629 65.3845C69.5937 64.9783 69.3457 64.6096 69.0333 64.2997L41.4666 36.6664ZM72.4 26.4331C63.7181 18.0136 52.0938 13.3137 40 13.3331C34.9682 13.3467 29.9712 14.1683 25.2 15.7664L30.6 21.1664C37.1393 19.5324 43.9873 19.5932 50.4966 21.343C57.0059 23.0928 62.9613 26.4738 67.8 31.1664C68.4179 31.762 69.2417 32.0963 70.1 32.0997C70.549 32.098 70.993 32.0056 71.4054 31.828C71.8179 31.6505 72.1901 31.3914 72.5 31.0664C73.0875 30.432 73.4056 29.594 73.3869 28.7295C73.3682 27.865 73.0144 27.0415 72.4 26.4331ZM12.7333 22.1664C10.9247 23.4671 9.20942 24.8928 7.59997 26.4331C7.03743 27.0586 6.73221 27.8737 6.74554 28.7148C6.75886 29.556 7.08975 30.361 7.67182 30.9684C8.2539 31.5757 9.0441 31.9406 9.88393 31.9897C10.7238 32.0388 11.5511 31.7685 12.2 31.2331C13.8623 29.6622 15.6456 28.2244 17.5333 26.9331L12.7333 22.1664ZM56.6666 43.7997C56.9753 44.1147 57.3435 44.3652 57.7497 44.5369C58.156 44.7086 58.5923 44.7979 59.0333 44.7997C59.6847 44.7972 60.3211 44.604 60.8639 44.2438C61.4066 43.8835 61.8319 43.3722 62.0872 42.7729C62.3426 42.1736 62.4167 41.5127 62.3005 40.8717C62.1843 40.2307 61.8828 39.6379 61.4333 39.1664C58.6531 36.2856 55.3244 33.9904 51.6434 32.4161C47.9624 30.8418 44.0035 30.0202 40 29.9997H39.4666L47.3 37.8331C50.8569 39.0391 54.0701 41.086 56.6666 43.7997ZM24.7666 34.1997C22.4373 35.5564 20.3062 37.2277 18.4333 39.1664C17.8189 39.8162 17.4878 40.6834 17.5128 41.5773C17.5378 42.4713 17.9169 43.3186 18.5666 43.9331C19.2164 44.5475 20.0837 44.8786 20.9776 44.8536C21.8715 44.8286 22.7189 44.4495 23.3333 43.7997C25.2752 41.8691 27.5291 40.2801 30 39.0997L24.7666 34.1997ZM28.4333 51.3331C27.7968 51.9475 27.4304 52.7896 27.4148 53.6741C27.407 54.1121 27.4856 54.5473 27.6461 54.9549C27.8066 55.3625 28.0457 55.7346 28.35 56.0497C28.6542 56.3649 29.0175 56.6171 29.4192 56.7918C29.8209 56.9666 30.2531 57.0605 30.691 57.0682C31.5756 57.0839 32.4301 56.7475 33.0666 56.1331C34.7827 54.5504 36.9897 53.6042 39.3192 53.4525C41.6488 53.3009 43.9599 53.9529 45.8666 55.2997L37.4666 46.8997C34.0707 47.4115 30.9157 48.9599 28.4333 51.3331Z" fill="white"/>
</svg>
