<svg width="24" height="24" viewBox="0 0 24 24" fill="none" xmlns="http://www.w3.org/2000/svg">
<path d="M8.70741 22.4398C8.55392 22.375 8.42638 22.2609 8.3449 22.1156C8.26341 21.9703 8.23263 21.802 8.25741 21.6373L9.62241 12.7498H5.99991C5.88506 12.7529 5.77104 12.7295 5.66665 12.6816C5.56225 12.6336 5.47027 12.5623 5.3978 12.4732C5.32532 12.384 5.2743 12.2794 5.24866 12.1674C5.22301 12.0555 5.22344 11.9391 5.24991 11.8273L7.49991 2.07728C7.5395 1.90948 7.63569 1.76045 7.77229 1.65526C7.9089 1.55008 8.07756 1.49517 8.24991 1.49978H15.7499C15.862 1.4994 15.9727 1.52413 16.0739 1.57215C16.1751 1.62017 16.2643 1.69026 16.3349 1.77728C16.4065 1.86528 16.4572 1.96837 16.4832 2.07879C16.5091 2.18922 16.5097 2.30409 16.4849 2.41478L15.1874 8.24978H18.7499C18.8905 8.2495 19.0283 8.28873 19.1476 8.36299C19.267 8.43725 19.3631 8.54355 19.4249 8.66978C19.4787 8.79093 19.4993 8.92417 19.4848 9.05591C19.4703 9.18765 19.4212 9.31321 19.3424 9.41978L9.59241 22.1698C9.52651 22.2675 9.43853 22.3482 9.33559 22.4056C9.23265 22.4629 9.11765 22.4952 8.99991 22.4998C8.89955 22.4979 8.8004 22.4776 8.70741 22.4398Z" fill="white"/>
</svg>
