<svg width="79" height="79" viewBox="0 0 79 79" fill="none" xmlns="http://www.w3.org/2000/svg">
<path d="M71.9132 35.9993L63.0319 30.8456C71.589 23.5525 62.9994 9.93886 52.7244 14.574L49.9044 15.7733L49.5478 12.6616C49.2237 9.16093 47.4085 6.66509 45.0099 5.20648C39.6941 2.11747 31.5907 4.23408 30.2942 11.9485L21.3805 6.82716C18.2688 5.012 14.3143 6.08165 12.5316 9.19335L9.29024 14.8009C8.38266 16.3567 8.93369 18.334 10.4895 19.2415L35.7397 33.8276L40.6017 25.4001L46.2092 28.6415L41.3472 37.069L66.5973 51.6551C68.1532 52.4654 70.1628 52.0116 71.038 50.4558L74.2794 44.8482C76.0621 41.7365 75.0249 37.7821 71.9132 35.9993ZM40.6989 16.8105C37.879 17.6209 35.61 14.6064 37.0362 12.1106C37.879 10.5547 39.921 10.0361 41.4769 10.9113C43.9727 12.3699 43.4865 16.1298 40.6989 16.8105ZM57.5216 26.5346C54.734 27.3449 52.465 24.3305 53.8912 21.8346C54.7664 20.2788 56.776 19.7602 58.2995 20.6353C60.7953 22.0939 60.3091 25.8539 57.5216 26.5346ZM68.2504 55.3178C69.5794 55.3178 70.8435 54.864 71.9132 54.0861V65.4308C71.9132 69.0287 69.0284 71.9135 65.4305 71.9135H13.5688C11.8495 71.9135 10.2006 71.2305 8.98486 70.0148C7.76912 68.799 7.08612 67.1501 7.08612 65.4308V36.2586H33.5031L36.2583 37.8793V65.4308H42.741V41.6069L65.0091 54.4426C65.9815 55.0261 67.0511 55.3178 68.2504 55.3178Z" fill="white"/>
</svg>
