<svg width="24" height="25" viewBox="0 0 24 25" fill="none" xmlns="http://www.w3.org/2000/svg">
<path d="M11.998 3C10.1864 2.99976 8.41245 3.51737 6.88523 4.49181C5.358 5.46626 4.14113 6.85695 3.37802 8.5H5.75002C5.94893 8.5 6.13969 8.57902 6.28035 8.71967C6.421 8.86032 6.50002 9.05109 6.50002 9.25C6.50002 9.44891 6.421 9.63968 6.28035 9.78033C6.13969 9.92098 5.94893 10 5.75002 10H2.00001C1.7348 10 1.48044 9.89464 1.29291 9.70711C1.10537 9.51957 1.00001 9.26522 1.00001 9V5.25C1.00001 5.05109 1.07903 4.86032 1.21968 4.71967C1.36034 4.57902 1.5511 4.5 1.75001 4.5C1.94893 4.5 2.13969 4.57902 2.28035 4.71967C2.421 4.86032 2.50001 5.05109 2.50002 5.25V6.947C3.46951 5.28859 4.85651 3.91308 6.52293 2.95741C8.18934 2.00174 10.077 1.49926 11.998 1.5C18.074 1.5 23 6.425 23 12.5C23 18.575 18.074 23.5 11.998 23.5C6.01402 23.5 1.14601 18.723 1.00001 12.775C0.995108 12.5761 1.06942 12.3834 1.2066 12.2393C1.34379 12.0951 1.5326 12.0114 1.73151 12.0065C1.93043 12.0016 2.12314 12.0759 2.26726 12.2131C2.41139 12.3503 2.49511 12.5391 2.50002 12.738C2.56211 15.2157 3.59007 17.5711 5.36455 19.3015C7.13903 21.0319 9.5195 22.0003 11.998 22C17.246 22 21.5 17.747 21.5 12.5C21.5 7.253 17.246 3 11.998 3Z" fill="#2B90D9"/>
<path d="M12.5 7.75C12.5 7.55109 12.421 7.36032 12.2803 7.21967C12.1397 7.07902 11.9489 7 11.75 7C11.5511 7 11.3603 7.07902 11.2197 7.21967C11.079 7.36032 11 7.55109 11 7.75V13.25C11 13.52 11.144 13.768 11.378 13.901L14.878 15.901C15.0503 15.9941 15.2522 16.0161 15.4405 15.9624C15.6288 15.9086 15.7886 15.7833 15.8858 15.6133C15.9829 15.4433 16.0097 15.242 15.9604 15.0524C15.9111 14.8629 15.7897 14.7002 15.622 14.599L12.5 12.815V7.75Z" fill="#2B90D9"/>
</svg>
