<svg width="18" height="20" viewBox="0 0 18 20" fill="none" xmlns="http://www.w3.org/2000/svg">
<path d="M9.97 1.08997C9.69901 0.86023 9.35527 0.734131 9 0.734131C8.64473 0.734131 8.30099 0.86023 8.03 1.08997L0.53 7.45297C0.363925 7.59377 0.230492 7.76903 0.138968 7.96658C0.0474437 8.16414 2.30915e-05 8.37925 0 8.59697V18C0 18.3978 0.158035 18.7793 0.43934 19.0606C0.720644 19.3419 1.10218 19.5 1.5 19.5H6.25C6.44891 19.5 6.63968 19.421 6.78033 19.2803C6.92098 19.1397 7 18.9489 7 18.75V12.5H11V18.75C11 19.164 11.336 19.5 11.75 19.5H16.5C16.8978 19.5 17.2794 19.3419 17.5607 19.0606C17.842 18.7793 18 18.3978 18 18V8.59697C18 8.37925 17.9526 8.16414 17.861 7.96658C17.7695 7.76903 17.6361 7.59377 17.47 7.45297L9.97 1.08997Z" fill="#2B90D9"/>
</svg>
