<svg width="18" height="19" viewBox="0 0 18 19" fill="none" xmlns="http://www.w3.org/2000/svg">
<path fill-rule="evenodd" clip-rule="evenodd" d="M8.03 0.589972C8.30099 0.36023 8.64473 0.234131 9 0.234131C9.35527 0.234131 9.69901 0.36023 9.97 0.589972L17.47 6.95297C17.6361 7.09377 17.7695 7.26903 17.861 7.46658C17.9526 7.66414 18 7.87925 18 8.09697V17.5C18 17.8978 17.842 18.2793 17.5607 18.5606C17.2794 18.8419 16.8978 19 16.5 19H10.75C10.5511 19 10.3603 18.921 10.2197 18.7803C10.079 18.6397 10 18.4489 10 18.25V12H8V18.25C8 18.4489 7.92098 18.6397 7.78033 18.7803C7.63968 18.921 7.44891 19 7.25 19H1.5C1.10218 19 0.720644 18.8419 0.43934 18.5606C0.158035 18.2793 0 17.8978 0 17.5V8.09697C0 7.65697 0.194 7.23797 0.53 6.95297L8.03 0.589972ZM9 1.73397L1.5 8.09697V17.5H6.5V11.25C6.5 11.0511 6.57902 10.8603 6.71967 10.7196C6.86032 10.579 7.05109 10.5 7.25 10.5H10.75C10.9489 10.5 11.1397 10.579 11.2803 10.7196C11.421 10.8603 11.5 11.0511 11.5 11.25V17.5H16.5V8.09697L9 1.73397Z" fill="black" fill-opacity="0.87"/>
</svg>
