<svg width="20" height="22" viewBox="0 0 20 22" fill="none" xmlns="http://www.w3.org/2000/svg">
<path fill-rule="evenodd" clip-rule="evenodd" d="M10 0.5C6.318 0.5 3 3.065 3 6.5V11.039C2.99999 11.6807 2.81001 12.3081 2.454 12.842L0.253998 16.141C0.101776 16.3697 0.0144909 16.6355 0.00144985 16.91C-0.0115912 17.1844 0.050101 17.4572 0.179948 17.6994C0.309794 17.9415 0.502926 18.1439 0.738748 18.2849C0.97457 18.4259 1.24424 18.5002 1.519 18.5H6.5C6.5 18.9596 6.59053 19.4148 6.76642 19.8394C6.94231 20.264 7.20012 20.6499 7.52512 20.9749C7.85013 21.2999 8.23597 21.5577 8.66061 21.7336C9.08525 21.9095 9.54037 22 10 22C10.4596 22 10.9147 21.9095 11.3394 21.7336C11.764 21.5577 12.1499 21.2999 12.4749 20.9749C12.7999 20.6499 13.0577 20.264 13.2336 19.8394C13.4095 19.4148 13.5 18.9596 13.5 18.5H18.482C18.7567 18.5 19.0263 18.4254 19.262 18.2842C19.4977 18.143 19.6907 17.9405 19.8203 17.6983C19.9499 17.456 20.0114 17.1831 19.9981 16.9087C19.9849 16.6343 19.8974 16.3686 19.745 16.14L17.545 12.842C17.1893 12.308 16.9997 11.6806 17 11.039V6.5C17 3.065 13.681 0.5 10 0.5ZM4.5 6.5C4.5 4.136 6.883 2 10 2C13.117 2 15.5 4.136 15.5 6.5V11.039C15.5 11.977 15.778 12.893 16.298 13.674L18.497 16.973C18.499 16.9759 18.5001 16.9794 18.5 16.983L18.499 16.989L18.495 16.995L18.489 16.999L18.482 17H1.518L1.511 16.999L1.505 16.995L1.501 16.989L1.5 16.982L1.503 16.972L3.703 13.674C4.22294 12.8936 4.50026 11.9767 4.5 11.039V6.5ZM12 18.5H8C8 19.0304 8.21071 19.5391 8.58578 19.9142C8.96086 20.2893 9.46956 20.5 10 20.5C10.5304 20.5 11.0391 20.2893 11.4142 19.9142C11.7893 19.5391 12 19.0304 12 18.5Z" fill="black" fill-opacity="0.87"/>
</svg>
