<svg width="25" height="25" viewBox="0 0 25 25" fill="none" xmlns="http://www.w3.org/2000/svg">
<g clip-path="url(#clip0)">
<path fill-rule="evenodd" clip-rule="evenodd" d="M3.75106 8.50007C3.75125 7.55199 3.99653 6.62005 4.46308 5.79471C4.92962 4.96936 5.6016 4.27862 6.41379 3.78954C7.22599 3.30045 8.15082 3.02963 9.09854 3.00334C10.0463 2.97705 10.9847 3.19619 11.8228 3.63949C12.6608 4.0828 13.37 4.73522 13.8816 5.53343C14.3932 6.33165 14.6898 7.24855 14.7425 8.19517C14.7953 9.14178 14.6025 10.086 14.1827 10.9361C13.763 11.7862 13.1307 12.5134 12.3471 13.0471C14.0346 13.666 15.4982 14.7758 16.5497 16.2336C17.6012 17.6914 18.1923 19.4305 18.2471 21.2271C18.25 21.3256 18.2335 21.4237 18.1986 21.5158C18.1636 21.6079 18.1109 21.6923 18.0433 21.764C17.9069 21.9089 17.7185 21.9936 17.5196 21.9996C17.3206 22.0055 17.1275 21.9322 16.9826 21.7958C16.8378 21.6594 16.753 21.471 16.7471 21.2721C16.6875 19.3235 15.8716 17.4747 14.4722 16.1175C13.0729 14.7602 11.2 14.0012 9.25056 14.0012C7.3011 14.0012 5.42825 14.7602 4.02888 16.1175C2.62952 17.4747 1.81361 19.3235 1.75406 21.2721C1.74404 21.4679 1.65773 21.652 1.51362 21.785C1.3695 21.918 1.17904 21.9892 0.98303 21.9835C0.787026 21.9777 0.601069 21.8954 0.464998 21.7542C0.328927 21.613 0.253565 21.4242 0.255057 21.2281C0.309608 19.4313 0.900664 17.692 1.95214 16.234C3.00362 14.776 4.4674 13.6661 6.15506 13.0471C5.41376 12.5428 4.80713 11.8648 4.3881 11.0723C3.96906 10.2797 3.75035 9.39661 3.75106 8.50007ZM9.25106 4.50007C8.19019 4.50007 7.17278 4.9215 6.42263 5.67165C5.67248 6.42179 5.25106 7.43921 5.25106 8.50007C5.25106 9.56094 5.67248 10.5784 6.42263 11.3285C7.17278 12.0786 8.19019 12.5001 9.25106 12.5001C10.3119 12.5001 11.3293 12.0786 12.0795 11.3285C12.8296 10.5784 13.2511 9.56094 13.2511 8.50007C13.2511 7.43921 12.8296 6.42179 12.0795 5.67165C11.3293 4.9215 10.3119 4.50007 9.25106 4.50007Z" fill="black" fill-opacity="0.87"/>
<path d="M17.54 8.49989C17.392 8.49989 17.248 8.50989 17.106 8.52989C17.0069 8.54764 16.9052 8.54524 16.807 8.52284C16.7088 8.50043 16.6161 8.45848 16.5345 8.39948C16.4529 8.34048 16.384 8.26564 16.3319 8.17943C16.2798 8.09322 16.2456 7.99741 16.2314 7.8977C16.2171 7.79799 16.2231 7.69644 16.249 7.5991C16.2748 7.50175 16.32 7.41061 16.3819 7.33112C16.4437 7.25162 16.5209 7.1854 16.6089 7.13639C16.6969 7.08739 16.7939 7.05661 16.894 7.04589C17.8886 6.90209 18.9028 7.09309 19.7769 7.58882C20.651 8.08454 21.3355 8.85686 21.7226 9.78422C22.1097 10.7116 22.1775 11.7413 21.9153 12.7114C21.653 13.6815 21.0757 14.5369 20.274 15.1429C21.4524 15.6705 22.4529 16.5279 23.1549 17.6115C23.8569 18.6952 24.2303 19.9588 24.23 21.2499C24.23 21.4488 24.151 21.6396 24.0104 21.7802C23.8697 21.9209 23.6789 21.9999 23.48 21.9999C23.2811 21.9999 23.0904 21.9209 22.9497 21.7802C22.809 21.6396 22.73 21.4488 22.73 21.2499C22.7299 20.134 22.3704 19.0479 21.7047 18.1524C21.039 17.2568 20.1025 16.5996 19.034 16.2779L18.5 16.1179V14.4419L18.91 14.2329C19.5178 13.925 20.0041 13.4213 20.2903 12.8031C20.5766 12.1849 20.6462 11.4883 20.4879 10.8256C20.3295 10.163 19.9525 9.5731 19.4176 9.15112C18.8828 8.72913 18.2213 8.49971 17.54 8.49989Z" fill="black" fill-opacity="0.87"/>
</g>
<defs>
<clipPath id="clip0">
<rect width="24" height="24" fill="white" transform="translate(0.25 0.5)"/>
</clipPath>
</defs>
</svg>
