<svg width="32" height="32" viewBox="0 0 32 32" fill="none" xmlns="http://www.w3.org/2000/svg">
<circle cx="16" cy="16" r="16" transform="rotate(90 16 16)" fill="white"/>
<path fill-rule="evenodd" clip-rule="evenodd" d="M11.47 15.78C11.3295 15.6394 11.2506 15.4488 11.2506 15.25C11.2506 15.0513 11.3295 14.8606 11.47 14.72L15.72 10.47C15.8606 10.3296 16.0512 10.2507 16.25 10.2507C16.4487 10.2507 16.6393 10.3296 16.78 10.47L21.03 14.72C21.1624 14.8622 21.2346 15.0502 21.2311 15.2445C21.2277 15.4388 21.149 15.6242 21.0116 15.7616C20.8742 15.899 20.6888 15.9778 20.4945 15.9812C20.3002 15.9846 20.1121 15.9125 19.97 15.78L17 12.81V20.25C17 20.4489 16.9209 20.6397 16.7803 20.7803C16.6396 20.921 16.4489 21 16.25 21C16.051 21 15.8603 20.921 15.7196 20.7803C15.579 20.6397 15.5 20.4489 15.5 20.25V12.81L12.53 15.78C12.3893 15.9205 12.1987 15.9994 12 15.9994C11.8012 15.9994 11.6106 15.9205 11.47 15.78Z" fill="#2B90D9"/>
</svg>
