<svg width="16" height="16" viewBox="0 0 16 16" fill="none" xmlns="http://www.w3.org/2000/svg">
<path d="M7.4666 1.59998L2.13327 1.59998M15.4666 13.3333L15.4666 4.79998C15.4666 4.21087 14.989 3.73331 14.3999 3.73331L1.59993 3.73331C1.01083 3.73331 0.533265 4.21087 0.533265 4.79998L0.533264 13.3333C0.533264 13.9224 1.01083 14.4 1.59993 14.4L14.3999 14.4C14.989 14.4 15.4666 13.9224 15.4666 13.3333ZM10.1333 11.2C8.95506 11.2 7.99993 10.2449 7.99993 9.06664C7.99993 7.88844 8.95506 6.93331 10.1333 6.93331C11.3115 6.93331 12.2666 7.88844 12.2666 9.06664C12.2666 10.2449 11.3115 11.2 10.1333 11.2Z" stroke="#282C37"/>
</svg>
