<svg width="13" height="3" viewBox="0 0 13 3" fill="none" xmlns="http://www.w3.org/2000/svg">
<path d="M2 1.5C2 1.77614 1.77614 2 1.5 2C1.22386 2 1 1.77614 1 1.5C1 1.22386 1.22386 1 1.5 1C1.77614 1 2 1.22386 2 1.5Z" stroke="white"/>
<path d="M7 1.5C7 1.77614 6.77614 2 6.5 2C6.22386 2 6 1.77614 6 1.5C6 1.22386 6.22386 1 6.5 1C6.77614 1 7 1.22386 7 1.5Z" stroke="white"/>
<path d="M12 1.5C12 1.77614 11.7761 2 11.5 2C11.2239 2 11 1.77614 11 1.5C11 1.22386 11.2239 1 11.5 1C11.7761 1 12 1.22386 12 1.5Z" stroke="white"/>
</svg>
