<svg width="41" height="25" viewBox="0 0 41 25" fill="none" xmlns="http://www.w3.org/2000/svg">
<rect width="41" height="25" rx="12.5" fill="white"/>
<path d="M16 12.5C16 12.7761 15.7761 13 15.5 13C15.2239 13 15 12.7761 15 12.5C15 12.2239 15.2239 12 15.5 12C15.7761 12 16 12.2239 16 12.5Z" stroke="#282C37"/>
<path d="M21 12.5C21 12.7761 20.7761 13 20.5 13C20.2239 13 20 12.7761 20 12.5C20 12.2239 20.2239 12 20.5 12C20.7761 12 21 12.2239 21 12.5Z" stroke="#282C37"/>
<path d="M26 12.5C26 12.7761 25.7761 13 25.5 13C25.2239 13 25 12.7761 25 12.5C25 12.2239 25.2239 12 25.5 12C25.7761 12 26 12.2239 26 12.5Z" stroke="#282C37"/>
</svg>
