<svg width="17" height="16" viewBox="0 0 17 16" fill="none" xmlns="http://www.w3.org/2000/svg">
<g clip-path="url(#clip0)">
<g clip-path="url(#clip1)">
<g clip-path="url(#clip2)">
<g clip-path="url(#clip3)">
<path d="M9.83341 13.6054C9.50541 13.8107 9.23141 13.9694 9.03875 14.0781C8.93675 14.1354 8.83341 14.1914 8.73008 14.2461H8.72875C8.65801 14.2825 8.57962 14.3014 8.50008 14.3014C8.42054 14.3014 8.34215 14.2825 8.27141 14.2461C8.1672 14.1917 8.06386 14.1357 7.96141 14.0781C6.82659 13.438 5.75453 12.6925 4.75941 11.8514C3.03341 10.3814 1.16675 8.22075 1.16675 5.67541C1.16675 3.36808 3.05275 1.66675 4.99075 1.66675C6.52008 1.66675 7.75408 2.48408 8.50008 3.73675C9.24675 2.48408 10.4801 1.66675 12.0094 1.66675C13.9467 1.66675 15.8334 3.36808 15.8334 5.67608C15.8334 8.22142 13.9661 10.3827 12.2407 11.8507C11.4813 12.4925 10.6768 13.0789 9.83341 13.6054Z" fill="white"/>
</g>
</g>
</g>
</g>
<defs>
<clipPath id="clip0">
<rect width="16" height="16" fill="white" transform="translate(0.5)"/>
</clipPath>
<clipPath id="clip1">
<rect width="16" height="16" fill="white" transform="translate(0.5)"/>
</clipPath>
<clipPath id="clip2">
<rect width="16" height="16" fill="white" transform="translate(0.5)"/>
</clipPath>
<clipPath id="clip3">
<rect width="16" height="16" fill="white" transform="translate(0.5)"/>
</clipPath>
</defs>
</svg>
