<svg width="45" height="45" viewBox="0 0 45 45" fill="none" xmlns="http://www.w3.org/2000/svg">
<circle cx="22.5" cy="22.5" r="22.5" fill="white"/>
<path d="M24.3333 28.6054C24.0053 28.8107 23.7313 28.9694 23.5386 29.0781C23.4366 29.1354 23.3333 29.1914 23.23 29.2461H23.2286C23.1579 29.2825 23.0795 29.3014 23 29.3014C22.9204 29.3014 22.842 29.2825 22.7713 29.2461C22.6671 29.1917 22.5637 29.1357 22.4613 29.0781C21.3265 28.438 20.2544 27.6925 19.2593 26.8514C17.5333 25.3814 15.6666 23.2207 15.6666 20.6754C15.6666 18.3681 17.5526 16.6667 19.4906 16.6667C21.02 16.6667 22.254 17.4841 23 18.7367C23.7466 17.4841 24.98 16.6667 26.5093 16.6667C28.4466 16.6667 30.3333 18.3681 30.3333 20.6761C30.3333 23.2214 28.466 25.3827 26.7406 26.8507C25.9812 27.4925 25.1767 28.0789 24.3333 28.6054Z" fill="#2B90D9"/>
</svg>
