<svg width="32" height="32" viewBox="0 0 32 32" fill="none" xmlns="http://www.w3.org/2000/svg">
<circle cx="16" cy="16" r="16" fill="#2B90D9"/>
<path fill-rule="evenodd" clip-rule="evenodd" d="M12.25 10.5C10.914 10.5 9.5 11.664 9.5 13.5C9.5 15.65 11.08 17.644 12.865 19.182C13.8388 20.0151 14.8884 20.7553 16 21.393C17.1116 20.7553 18.1612 20.0151 19.135 19.182C20.92 17.644 22.5 15.65 22.5 13.5C22.5 11.664 21.086 10.5 19.75 10.5C18.377 10.5 17.141 11.486 16.721 12.956C16.6761 13.1126 16.5815 13.2503 16.4514 13.3484C16.3214 13.4464 16.1629 13.4995 16 13.4995C15.8371 13.4995 15.6786 13.4464 15.5486 13.3484C15.4185 13.2503 15.3239 13.1126 15.279 12.956C14.859 11.486 13.623 10.5 12.25 10.5ZM16 22.25L15.655 22.916L15.653 22.915L15.647 22.912L15.629 22.902C15.5244 22.8477 15.421 22.791 15.319 22.732C14.1003 22.0382 12.9504 21.2299 11.885 20.318C10.045 18.731 8 16.35 8 13.5C8 10.836 10.086 9 12.25 9C13.797 9 15.153 9.802 16 11.02C16.847 9.802 18.203 9 19.75 9C21.914 9 24 10.836 24 13.5C24 16.35 21.955 18.731 20.115 20.318C18.9593 21.3059 17.7046 22.1719 16.371 22.902L16.353 22.912L16.347 22.915H16.345L16 22.25ZM16 22.25L16.345 22.916C16.2383 22.9711 16.12 22.9998 16 22.9998C15.88 22.9998 15.7617 22.9711 15.655 22.916L16 22.25Z" fill="white"/>
</svg>
