<svg width="45" height="45" viewBox="0 0 45 45" fill="none" xmlns="http://www.w3.org/2000/svg">
<circle cx="22.5" cy="22.5" r="22.5" fill="white"/>
<path fill-rule="evenodd" clip-rule="evenodd" d="M23 14.25C23.1401 14.2499 23.2773 14.289 23.3962 14.3629C23.5152 14.4368 23.6111 14.5425 23.673 14.668L25.555 18.483L29.765 19.095C29.9035 19.1151 30.0336 19.1736 30.1406 19.2637C30.2476 19.3539 30.3272 19.4722 30.3705 19.6052C30.4137 19.7383 30.4189 19.8808 30.3855 20.0167C30.352 20.1525 30.2812 20.2763 30.181 20.374L27.135 23.344L27.854 27.536C27.8778 27.6739 27.8624 27.8157 27.8097 27.9454C27.757 28.0751 27.6691 28.1874 27.5559 28.2697C27.4427 28.352 27.3087 28.401 27.1692 28.4111C27.0296 28.4212 26.8899 28.3921 26.766 28.327L23 26.347L19.234 28.327C19.1102 28.392 18.9707 28.4211 18.8312 28.411C18.6918 28.4009 18.5579 28.352 18.4447 28.2699C18.3316 28.1877 18.2436 28.0755 18.1909 27.946C18.1381 27.8165 18.1226 27.6749 18.146 27.537L18.866 23.343L15.818 20.374C15.7176 20.2763 15.6465 20.1525 15.6129 20.0165C15.5792 19.8805 15.5844 19.7378 15.6277 19.6045C15.671 19.4713 15.7507 19.3528 15.8579 19.2626C15.9651 19.1724 16.0954 19.114 16.234 19.094L20.444 18.483L22.327 14.668C22.389 14.5425 22.4849 14.4368 22.6038 14.3629C22.7228 14.289 22.86 14.2499 23 14.25Z" fill="#2B90D9"/>
</svg>
