<svg width="16" height="16" viewBox="0 0 16 16" fill="none" xmlns="http://www.w3.org/2000/svg">
<path d="M1.63802 8.0379L8.00011 14.4L14.3622 8.0379C15.0695 7.33066 15.4668 6.37143 15.4668 5.37123C15.4668 3.28844 13.7783 1.6 11.6955 1.6C10.6953 1.6 9.73612 1.99732 9.02888 2.70457L8.00011 3.73333L6.97135 2.70457C6.26411 1.99732 5.30488 1.6 4.30468 1.6C2.22189 1.6 0.533447 3.28844 0.533447 5.37123C0.533447 6.37143 0.930771 7.33066 1.63802 8.0379Z" fill="#2B90D9"/>
<path d="M8.00011 14.4L7.64656 14.7535C7.84182 14.9488 8.1584 14.9488 8.35367 14.7535L8.00011 14.4ZM1.63802 8.0379L1.28446 8.39145L1.28446 8.39145L1.63802 8.0379ZM6.97135 2.70457L6.6178 3.05812L6.97135 2.70457ZM8.00011 3.73333L7.64656 4.08688C7.84182 4.28215 8.1584 4.28215 8.35367 4.08688L8.00011 3.73333ZM9.02888 2.70457L8.67532 2.35101V2.35101L9.02888 2.70457ZM8.35367 14.0464L1.99157 7.68435L1.28446 8.39145L7.64656 14.7535L8.35367 14.0464ZM14.0087 7.68435L7.64656 14.0464L8.35367 14.7535L14.7158 8.39145L14.0087 7.68435ZM6.6178 3.05812L7.64656 4.08688L8.35367 3.37978L7.3249 2.35101L6.6178 3.05812ZM8.35367 4.08688L9.38243 3.05812L8.67532 2.35101L7.64656 3.37978L8.35367 4.08688ZM11.6955 1.1C10.5627 1.1 9.47634 1.55 8.67532 2.35101L9.38243 3.05812C9.99591 2.44464 10.828 2.1 11.6955 2.1V1.1ZM14.9668 5.37123C14.9668 6.23882 14.6221 7.07087 14.0087 7.68435L14.7158 8.39145C15.5168 7.59044 15.9668 6.50404 15.9668 5.37123H14.9668ZM15.9668 5.37123C15.9668 3.0123 14.0545 1.1 11.6955 1.1V2.1C13.5022 2.1 14.9668 3.56458 14.9668 5.37123H15.9668ZM4.30468 2.1C5.17227 2.1 6.00432 2.44465 6.6178 3.05812L7.3249 2.35101C6.52389 1.55 5.43749 1.1 4.30468 1.1V2.1ZM1.03345 5.37123C1.03345 3.56458 2.49803 2.1 4.30468 2.1V1.1C1.94574 1.1 0.0334473 3.0123 0.0334473 5.37123H1.03345ZM1.99157 7.68435C1.37809 7.07087 1.03345 6.23882 1.03345 5.37123H0.0334473C0.0334473 6.50404 0.48345 7.59044 1.28446 8.39145L1.99157 7.68435Z" fill="#2B90D9"/>
</svg>
