<svg width="45" height="45" viewBox="0 0 45 45" fill="none" xmlns="http://www.w3.org/2000/svg">
<circle cx="22.5" cy="22.5" r="22.5" fill="white"/>
<path fill-rule="evenodd" clip-rule="evenodd" d="M22.9999 14.25C23.1399 14.2499 23.2772 14.289 23.3961 14.3629C23.5151 14.4368 23.6109 14.5425 23.6729 14.668L25.5549 18.483L29.7649 19.095C29.9034 19.1151 30.0335 19.1736 30.1404 19.2637C30.2474 19.3539 30.3271 19.4722 30.3703 19.6052C30.4136 19.7383 30.4188 19.8808 30.3853 20.0167C30.3519 20.1525 30.2811 20.2763 30.1809 20.374L27.1349 23.344L27.8539 27.536C27.8776 27.6739 27.8623 27.8157 27.8096 27.9454C27.7569 28.0751 27.669 28.1874 27.5558 28.2697C27.4426 28.352 27.3086 28.401 27.169 28.4111C27.0294 28.4212 26.8898 28.3921 26.7659 28.327L22.9999 26.347L19.2339 28.327C19.1101 28.392 18.9706 28.4211 18.8311 28.411C18.6916 28.4009 18.5578 28.352 18.4446 28.2699C18.3314 28.1877 18.2435 28.0755 18.1907 27.946C18.138 27.8165 18.1224 27.6749 18.1459 27.537L18.8659 23.343L15.8179 20.374C15.7175 20.2763 15.6464 20.1525 15.6128 20.0165C15.5791 19.8805 15.5842 19.7378 15.6275 19.6045C15.6708 19.4713 15.7506 19.3528 15.8578 19.2626C15.9649 19.1724 16.0953 19.114 16.2339 19.094L20.4439 18.483L22.3269 14.668C22.3889 14.5425 22.4848 14.4368 22.6037 14.3629C22.7227 14.289 22.8599 14.2499 22.9999 14.25Z" fill="#2B90D9"/>
</svg>
