<svg width="80" height="80" viewBox="0 0 80 80" fill="none" xmlns="http://www.w3.org/2000/svg">
<g filter="url(#filter0_dd)">
<circle cx="40" cy="24" r="16" fill="#2B90D9"/>
</g>
<path d="M40 31.4L39.6465 31.7536C39.8417 31.9488 40.1583 31.9488 40.3536 31.7536L40 31.4ZM33.6379 25.0379L33.2844 25.3915L33.2844 25.3915L33.6379 25.0379ZM38.9712 19.7046L38.6177 20.0581L38.6177 20.0581L38.9712 19.7046ZM40 20.7333L39.6465 21.0869C39.8417 21.2822 40.1583 21.2822 40.3536 21.0869L40 20.7333ZM41.0288 19.7046L40.6752 19.351L40.6752 19.351L41.0288 19.7046ZM40.3536 31.0465L33.9915 24.6844L33.2844 25.3915L39.6465 31.7536L40.3536 31.0465ZM46.0086 24.6844L39.6465 31.0465L40.3536 31.7536L46.7157 25.3915L46.0086 24.6844ZM38.6177 20.0581L39.6465 21.0869L40.3536 20.3798L39.3248 19.351L38.6177 20.0581ZM40.3536 21.0869L41.3823 20.0581L40.6752 19.351L39.6465 20.3798L40.3536 21.0869ZM43.6954 18.1C42.5626 18.1 41.4762 18.55 40.6752 19.351L41.3823 20.0581C41.9958 19.4447 42.8279 19.1 43.6954 19.1V18.1ZM46.9667 22.3712C46.9667 23.2388 46.622 24.0709 46.0086 24.6844L46.7157 25.3915C47.5167 24.5904 47.9667 23.504 47.9667 22.3712H46.9667ZM47.9667 22.3712C47.9667 20.0123 46.0544 18.1 43.6954 18.1V19.1C45.5021 19.1 46.9667 20.5646 46.9667 22.3712H47.9667ZM36.3046 19.1C37.1722 19.1 38.0042 19.4447 38.6177 20.0581L39.3248 19.351C38.5238 18.55 37.4374 18.1 36.3046 18.1V19.1ZM33.0333 22.3712C33.0333 20.5646 34.4979 19.1 36.3046 19.1V18.1C33.9456 18.1 32.0333 20.0123 32.0333 22.3712H33.0333ZM33.9915 24.6844C33.378 24.0709 33.0333 23.2388 33.0333 22.3712H32.0333C32.0333 23.504 32.4833 24.5904 33.2844 25.3915L33.9915 24.6844Z" fill="white"/>
<defs>
<filter id="filter0_dd" x="0" y="0" width="80" height="80" filterUnits="userSpaceOnUse" color-interpolation-filters="sRGB">
<feFlood flood-opacity="0" result="BackgroundImageFix"/>
<feColorMatrix in="SourceAlpha" type="matrix" values="0 0 0 0 0 0 0 0 0 0 0 0 0 0 0 0 0 0 127 0"/>
<feOffset dy="2"/>
<feGaussianBlur stdDeviation="3"/>
<feColorMatrix type="matrix" values="0 0 0 0 0 0 0 0 0 0 0 0 0 0 0 0 0 0 0.04 0"/>
<feBlend mode="normal" in2="BackgroundImageFix" result="effect1_dropShadow"/>
<feColorMatrix in="SourceAlpha" type="matrix" values="0 0 0 0 0 0 0 0 0 0 0 0 0 0 0 0 0 0 127 0"/>
<feOffset dy="16"/>
<feGaussianBlur stdDeviation="12"/>
<feColorMatrix type="matrix" values="0 0 0 0 0 0 0 0 0 0 0 0 0 0 0 0 0 0 0.06 0"/>
<feBlend mode="normal" in2="effect1_dropShadow" result="effect2_dropShadow"/>
<feBlend mode="normal" in="SourceGraphic" in2="effect2_dropShadow" result="shape"/>
</filter>
</defs>
</svg>
