<svg width="32" height="32" viewBox="0 0 32 32" fill="none" xmlns="http://www.w3.org/2000/svg">
<circle cx="16" cy="16" r="16" fill="#2B90D9"/>
<path fill-rule="evenodd" clip-rule="evenodd" d="M12.4906 10.6667C11.1046 10.6667 9.66663 11.9201 9.66663 13.6761C9.66663 15.7474 11.216 17.6494 12.9073 19.0894C13.8534 19.8888 14.8726 20.5974 15.9513 21.2061L16 21.2334L16.0486 21.2067C16.2293 21.1047 16.4893 20.9534 16.802 20.7574C17.4286 20.3654 18.262 19.7967 19.0926 19.0894C20.784 17.6494 22.3333 15.7474 22.3333 13.6761C22.3333 11.9201 20.8953 10.6667 19.5093 10.6667C18.1053 10.6667 16.9753 11.5927 16.474 13.0954C16.4406 13.1947 16.3769 13.2811 16.2919 13.3422C16.2068 13.4034 16.1047 13.4363 16 13.4363C15.8952 13.4363 15.7931 13.4034 15.708 13.3422C15.623 13.2811 15.5593 13.1947 15.526 13.0954C15.0246 11.5927 13.894 10.6667 12.4906 10.6667ZM16 21.8021L16.2286 22.2467C16.1579 22.2831 16.0795 22.3021 16 22.3021C15.9204 22.3021 15.842 22.2831 15.7713 22.2467L16 21.8021ZM8.66663 13.6754C8.66663 11.3687 10.5526 9.66675 12.4906 9.66675C14.02 9.66675 15.254 10.4841 16 11.7367C16.7466 10.4841 17.98 9.66675 19.5093 9.66675C21.4466 9.66675 23.3333 11.3681 23.3333 13.6761C23.3333 16.2214 21.466 18.3827 19.7406 19.8507C18.6618 20.762 17.4929 21.5608 16.252 22.2347L16.2353 22.2434L16.2306 22.2454L16.2286 22.2467L16 21.8021L15.7713 22.2467L15.7693 22.2454L15.7646 22.2434L15.748 22.2347C15.3809 22.0366 15.0203 21.8267 14.6666 21.6054C13.8232 21.0789 13.0187 20.4925 12.2593 19.8507C10.5333 18.3821 8.66663 16.2207 8.66663 13.6754Z" fill="white"/>
<path d="M17.3333 21.6054C17.0053 21.8107 16.7313 21.9694 16.5386 22.0781C16.4366 22.1354 16.3333 22.1914 16.23 22.2461H16.2286C16.1579 22.2825 16.0795 22.3014 16 22.3014C15.9204 22.3014 15.842 22.2825 15.7713 22.2461C15.6671 22.1917 15.5637 22.1357 15.4613 22.0781C14.3265 21.438 13.2544 20.6925 12.2593 19.8514C10.5333 18.3814 8.66663 16.2207 8.66663 13.6754C8.66663 11.3681 10.5526 9.66675 12.4906 9.66675C14.02 9.66675 15.254 10.4841 16 11.7367C16.7466 10.4841 17.98 9.66675 19.5093 9.66675C21.4466 9.66675 23.3333 11.3681 23.3333 13.6761C23.3333 16.2214 21.466 18.3827 19.7406 19.8507C18.9812 20.4925 18.1767 21.0789 17.3333 21.6054Z" fill="white"/>
</svg>
