<svg width="53" height="53" viewBox="0 0 53 53" fill="none" xmlns="http://www.w3.org/2000/svg">
<g filter="url(#filter0_d)">
<circle cx="26.5" cy="25.5" r="22.5" fill="white"/>
</g>
<rect width="16" height="16" transform="translate(19 18)" fill="white"/>
<path d="M20.638 26.0379L27.0001 32.4L33.3622 26.0379C34.0695 25.3307 34.4668 24.3714 34.4668 23.3712C34.4668 21.2884 32.7783 19.6 30.6955 19.6C29.6953 19.6 28.7361 19.9973 28.0289 20.7046L27.0001 21.7333L25.9713 20.7046C25.2641 19.9973 24.3049 19.6 23.3047 19.6C21.2219 19.6 19.5334 21.2884 19.5334 23.3712C19.5334 24.3714 19.9308 25.3307 20.638 26.0379Z" fill="#2B90D9"/>
<path d="M27.0001 32.4L26.6466 32.7535C26.8418 32.9488 27.1584 32.9488 27.3537 32.7535L27.0001 32.4ZM20.638 26.0379L20.2845 26.3915L20.2845 26.3915L20.638 26.0379ZM25.9713 20.7046L25.6178 21.0581L25.6178 21.0581L25.9713 20.7046ZM27.0001 21.7333L26.6466 22.0869C26.8418 22.2821 27.1584 22.2821 27.3537 22.0869L27.0001 21.7333ZM28.0289 20.7046L27.6753 20.351L27.6753 20.351L28.0289 20.7046ZM27.3537 32.0464L20.9916 25.6843L20.2845 26.3915L26.6466 32.7535L27.3537 32.0464ZM33.0087 25.6843L26.6466 32.0464L27.3537 32.7535L33.7158 26.3915L33.0087 25.6843ZM25.6178 21.0581L26.6466 22.0869L27.3537 21.3798L26.3249 20.351L25.6178 21.0581ZM27.3537 22.0869L28.3824 21.0581L27.6753 20.351L26.6466 21.3798L27.3537 22.0869ZM30.6955 19.1C29.5627 19.1 28.4763 19.55 27.6753 20.351L28.3824 21.0581C28.9959 20.4446 29.828 20.1 30.6955 20.1V19.1ZM33.9668 23.3712C33.9668 24.2388 33.6221 25.0709 33.0087 25.6843L33.7158 26.3915C34.5168 25.5904 34.9668 24.504 34.9668 23.3712H33.9668ZM34.9668 23.3712C34.9668 21.0123 33.0545 19.1 30.6955 19.1V20.1C32.5022 20.1 33.9668 21.5646 33.9668 23.3712H34.9668ZM23.3047 20.1C24.1723 20.1 25.0043 20.4446 25.6178 21.0581L26.3249 20.351C25.5239 19.55 24.4375 19.1 23.3047 19.1V20.1ZM20.0334 23.3712C20.0334 21.5646 21.498 20.1 23.3047 20.1V19.1C20.9457 19.1 19.0334 21.0123 19.0334 23.3712H20.0334ZM20.9916 25.6843C20.3781 25.0709 20.0334 24.2388 20.0334 23.3712H19.0334C19.0334 24.504 19.4834 25.5904 20.2845 26.3915L20.9916 25.6843Z" fill="#2B90D9"/>
<defs>
<filter id="filter0_d" x="0" y="0" width="53" height="53" filterUnits="userSpaceOnUse" color-interpolation-filters="sRGB">
<feFlood flood-opacity="0" result="BackgroundImageFix"/>
<feColorMatrix in="SourceAlpha" type="matrix" values="0 0 0 0 0 0 0 0 0 0 0 0 0 0 0 0 0 0 127 0"/>
<feOffset dy="1"/>
<feGaussianBlur stdDeviation="2"/>
<feColorMatrix type="matrix" values="0 0 0 0 0 0 0 0 0 0 0 0 0 0 0 0 0 0 0.25 0"/>
<feBlend mode="normal" in2="BackgroundImageFix" result="effect1_dropShadow"/>
<feBlend mode="normal" in="SourceGraphic" in2="effect1_dropShadow" result="shape"/>
</filter>
</defs>
</svg>
