<svg width="15" height="16" viewBox="0 0 15 16" fill="none" xmlns="http://www.w3.org/2000/svg">
<path d="M13.537 6.69437H13V6.66671H7V9.33337H10.7677C10.218 10.8857 8.741 12 7 12C4.791 12 2.99999 10.209 2.99999 8.00004C2.99999 5.79104 4.791 4.00004 7 4.00004C8.01966 4.00004 8.94733 4.38471 9.65366 5.01304L11.5393 3.12737C10.3487 2.01771 8.75599 1.33337 7 1.33337C3.31833 1.33337 0.333328 4.31837 0.333328 8.00004C0.333328 11.6817 3.31833 14.6667 7 14.6667C10.6817 14.6667 13.6667 11.6817 13.6667 8.00004C13.6667 7.55304 13.6207 7.11671 13.537 6.69437Z" fill="#FFC107"/>
<path d="M1.10199 4.89704L3.29232 6.50337C3.88499 5.03604 5.32032 4.00004 6.99999 4.00004C8.01966 4.00004 8.94732 4.38471 9.65366 5.01304L11.5393 3.12737C10.3487 2.01771 8.75599 1.33337 6.99999 1.33337C4.43932 1.33337 2.21866 2.77904 1.10199 4.89704Z" fill="#FF3D00"/>
<path d="M7 14.6667C8.722 14.6667 10.2867 14.0077 11.4697 12.936L9.40634 11.19C8.71452 11.7161 7.86916 12.0007 7 12C5.266 12 3.79367 10.8943 3.239 9.35132L1.065 11.0263C2.16834 13.1853 4.409 14.6667 7 14.6667Z" fill="#4CAF50"/>
<path d="M13.537 6.69429H13V6.66663H7V9.33329H10.7677C10.5047 10.0721 10.0311 10.7177 9.40533 11.1903L9.40633 11.1896L11.4697 12.9356C11.3237 13.0683 13.6667 11.3333 13.6667 7.99996C13.6667 7.55296 13.6207 7.11663 13.537 6.69429Z" fill="#1976D2"/>
</svg>
