<svg width="16" height="16" viewBox="0 0 16 16" fill="none" xmlns="http://www.w3.org/2000/svg">
<path fill-rule="evenodd" clip-rule="evenodd" d="M8.00004 0.25C8.14006 0.24991 8.2773 0.289014 8.39624 0.362887C8.51518 0.43676 8.61106 0.542452 8.67304 0.668L10.555 4.483L14.765 5.095C14.9035 5.11511 15.0336 5.17355 15.1406 5.26372C15.2476 5.35388 15.3272 5.47218 15.3705 5.60523C15.4137 5.73829 15.4189 5.8808 15.3855 6.01665C15.352 6.1525 15.2812 6.27628 15.181 6.374L12.135 9.344L12.854 13.536C12.8778 13.6739 12.8624 13.8157 12.8097 13.9454C12.757 14.0751 12.6691 14.1874 12.5559 14.2697C12.4427 14.352 12.3087 14.401 12.1692 14.4111C12.0296 14.4212 11.8899 14.3921 11.766 14.327L8.00004 12.347L4.23404 14.327C4.11023 14.392 3.97071 14.4211 3.83123 14.411C3.69176 14.4009 3.55788 14.352 3.44472 14.2699C3.33157 14.1877 3.24363 14.0755 3.19086 13.946C3.13808 13.8165 3.12256 13.6749 3.14604 13.537L3.86604 9.343L0.818042 6.374C0.717609 6.27632 0.646542 6.15247 0.612894 6.01647C0.579247 5.88047 0.584364 5.73777 0.627667 5.60453C0.67097 5.47129 0.750726 5.35284 0.857898 5.26261C0.965071 5.17238 1.09537 5.11397 1.23404 5.094L5.44404 4.483L7.32704 0.668C7.38902 0.542452 7.48491 0.43676 7.60385 0.362887C7.72279 0.289014 7.86003 0.24991 8.00004 0.25Z" fill="#2B90D9"/>
</svg>
