<svg width="16" height="16" viewBox="0 0 16 16" fill="none" xmlns="http://www.w3.org/2000/svg">
<path d="M1.63789 8.0379L7.99999 14.4L14.3621 8.0379C15.0693 7.33066 15.4667 6.37143 15.4667 5.37123C15.4667 3.28844 13.7782 1.6 11.6954 1.6C10.6952 1.6 9.736 1.99732 9.02876 2.70457L7.99999 3.73333L6.97123 2.70457C6.26398 1.99732 5.30475 1.6 4.30456 1.6C2.22176 1.6 0.533325 3.28844 0.533325 5.37123C0.533325 6.37143 0.930649 7.33066 1.63789 8.0379Z" fill="#2B90D9"/>
<path d="M7.99999 14.4L7.64644 14.7535C7.8417 14.9488 8.15828 14.9488 8.35354 14.7535L7.99999 14.4ZM1.63789 8.0379L1.28434 8.39145L1.28434 8.39145L1.63789 8.0379ZM6.97123 2.70457L6.61767 3.05812L6.97123 2.70457ZM7.99999 3.73333L7.64644 4.08688C7.8417 4.28215 8.15828 4.28215 8.35354 4.08688L7.99999 3.73333ZM9.02876 2.70457L8.6752 2.35101V2.35101L9.02876 2.70457ZM8.35354 14.0464L1.99145 7.68435L1.28434 8.39145L7.64644 14.7535L8.35354 14.0464ZM14.0085 7.68435L7.64644 14.0464L8.35354 14.7535L14.7156 8.39145L14.0085 7.68435ZM6.61767 3.05812L7.64644 4.08688L8.35354 3.37978L7.32478 2.35101L6.61767 3.05812ZM8.35354 4.08688L9.38231 3.05812L8.6752 2.35101L7.64644 3.37978L8.35354 4.08688ZM11.6954 1.1C10.5626 1.1 9.47622 1.55 8.6752 2.35101L9.38231 3.05812C9.99578 2.44464 10.8278 2.1 11.6954 2.1V1.1ZM14.9667 5.37123C14.9667 6.23882 14.622 7.07087 14.0085 7.68435L14.7156 8.39145C15.5167 7.59044 15.9667 6.50404 15.9667 5.37123H14.9667ZM15.9667 5.37123C15.9667 3.0123 14.0544 1.1 11.6954 1.1V2.1C13.5021 2.1 14.9667 3.56458 14.9667 5.37123H15.9667ZM4.30456 2.1C5.17215 2.1 6.0042 2.44465 6.61767 3.05812L7.32478 2.35101C6.52377 1.55 5.43736 1.1 4.30456 1.1V2.1ZM1.03333 5.37123C1.03333 3.56458 2.49791 2.1 4.30456 2.1V1.1C1.94562 1.1 0.0333252 3.0123 0.0333252 5.37123H1.03333ZM1.99145 7.68435C1.37797 7.07087 1.03333 6.23882 1.03333 5.37123H0.0333252C0.0333252 6.50404 0.483328 7.59044 1.28434 8.39145L1.99145 7.68435Z" fill="#2B90D9"/>
</svg>
