<svg width="16" height="16" viewBox="0 0 16 16" fill="none" xmlns="http://www.w3.org/2000/svg">
<path d="M9.33333 13.6054C9.00533 13.8107 8.73133 13.9694 8.53866 14.0781C8.43666 14.1354 8.33333 14.1914 8.23 14.2461H8.22866C8.15793 14.2825 8.07954 14.3014 8 14.3014C7.92046 14.3014 7.84206 14.2825 7.77133 14.2461C7.66712 14.1917 7.56377 14.1357 7.46133 14.0781C6.3265 13.438 5.25444 12.6925 4.25933 11.8514C2.53333 10.3814 0.666664 8.22075 0.666664 5.67541C0.666664 3.36808 2.55266 1.66675 4.49066 1.66675C6.02 1.66675 7.254 2.48408 8 3.73675C8.74666 2.48408 9.98 1.66675 11.5093 1.66675C13.4467 1.66675 15.3333 3.36808 15.3333 5.67608C15.3333 8.22142 13.466 10.3827 11.7407 11.8507C10.9813 12.4925 10.1768 13.0789 9.33333 13.6054Z" fill="#2B90D9"/>
</svg>
