<svg width="24" height="25" viewBox="0 0 24 25" fill="none" xmlns="http://www.w3.org/2000/svg">
<path d="M11.998 3C10.1864 2.99976 8.41242 3.51737 6.8852 4.49181C5.35797 5.46626 4.1411 6.85695 3.37798 8.5H5.74998C5.9489 8.5 6.13966 8.57902 6.28031 8.71967C6.42097 8.86032 6.49998 9.05109 6.49998 9.25C6.49998 9.44891 6.42097 9.63968 6.28031 9.78033C6.13966 9.92098 5.9489 10 5.74998 10H1.99998C1.73477 10 1.48041 9.89464 1.29288 9.70711C1.10534 9.51957 0.999984 9.26522 0.999984 9V5.25C0.999984 5.05109 1.079 4.86032 1.21965 4.71967C1.36031 4.57902 1.55107 4.5 1.74998 4.5C1.9489 4.5 2.13966 4.57902 2.28031 4.71967C2.42097 4.86032 2.49998 5.05109 2.49998 5.25V6.947C3.46948 5.28859 4.85648 3.91308 6.52289 2.95741C8.18931 2.00174 10.077 1.49926 11.998 1.5C18.074 1.5 23 6.425 23 12.5C23 18.575 18.074 23.5 11.998 23.5C6.01399 23.5 1.14598 18.723 0.999984 12.775C0.995078 12.5761 1.06939 12.3834 1.20657 12.2393C1.34376 12.0951 1.53257 12.0114 1.73148 12.0065C1.9304 12.0016 2.12311 12.0759 2.26723 12.2131C2.41135 12.3503 2.49508 12.5391 2.49998 12.738C2.56208 15.2157 3.59004 17.5711 5.36452 19.3015C7.139 21.0319 9.51947 22.0003 11.998 22C17.246 22 21.5 17.747 21.5 12.5C21.5 7.253 17.246 3 11.998 3Z" fill="#282C37"/>
<path d="M12.5 7.75C12.5 7.55109 12.421 7.36032 12.2803 7.21967C12.1397 7.07902 11.9489 7 11.75 7C11.5511 7 11.3603 7.07902 11.2197 7.21967C11.079 7.36032 11 7.55109 11 7.75V13.25C11 13.52 11.144 13.768 11.378 13.901L14.878 15.901C15.0503 15.9941 15.2522 16.0161 15.4405 15.9624C15.6288 15.9086 15.7886 15.7833 15.8858 15.6133C15.9829 15.4433 16.0097 15.242 15.9604 15.0524C15.9112 14.8629 15.7897 14.7002 15.622 14.599L12.5 12.815V7.75Z" fill="#282C37"/>
</svg>
