<svg width="21" height="21" viewBox="0 0 21 21" fill="none" xmlns="http://www.w3.org/2000/svg">
<path d="M4.16667 16.7054L4.90692 16.033L4.89417 16.019L4.88091 16.0055L4.16667 16.7054ZM5.43333 18.1V19.1H6.43333V18.1H5.43333ZM9.86667 19.3444L9.90181 18.345L9.79626 20.3419L9.86667 19.3444ZM10.5 10.5H9.5C9.5 10.7652 9.60536 11.0196 9.79289 11.2071L10.5 10.5ZM18.3667 10.5C18.3667 14.8446 14.8446 18.3667 10.5 18.3667V20.3667C15.9492 20.3667 20.3667 15.9492 20.3667 10.5H18.3667ZM10.5 2.63333C14.8446 2.63333 18.3667 6.15536 18.3667 10.5H20.3667C20.3667 5.05079 15.9492 0.633331 10.5 0.633331V2.63333ZM10.5 0.633331C5.05079 0.633331 0.633333 5.05079 0.633333 10.5H2.63333C2.63333 6.15536 6.15536 2.63333 10.5 2.63333V0.633331ZM4.88091 16.0055C3.48954 14.5856 2.63333 12.6438 2.63333 10.5H0.633333C0.633333 13.188 1.70958 15.6267 3.45243 17.4053L4.88091 16.0055ZM3.42642 17.3777L4.69308 18.7723L6.17358 17.4277L4.90692 16.033L3.42642 17.3777ZM10.5 18.3667C10.3106 18.3667 10.1228 18.36 9.93707 18.3469L9.79626 20.3419C10.0289 20.3583 10.2635 20.3667 10.5 20.3667V18.3667ZM10.5351 18.3673L9.90181 18.345L9.83152 20.3438L10.4649 20.366L10.5351 18.3673ZM9.5 4.8V10.5H11.5V4.8H9.5ZM9.79289 11.2071L13.5929 15.0071L15.0071 13.5929L11.2071 9.79289L9.79289 11.2071ZM1 19.1H5.43333V17.1H1V19.1ZM6.43333 18.1V13.6667H4.43333V18.1H6.43333Z" fill="#2B90D9"/>
</svg>
