<svg width="54" height="54" viewBox="0 0 54 54" fill="none" xmlns="http://www.w3.org/2000/svg">
<path d="M9 44.6363L10.1104 43.6278L10.0913 43.6068L10.0714 43.5865L9 44.6363ZM12.6 48.6V50.1H14.1V48.6H12.6ZM25.2 52.1367L25.2527 50.6376L25.0944 53.633L25.2 52.1367ZM27 27H25.5C25.5 27.3978 25.658 27.7794 25.9393 28.0607L27 27ZM50.7 27C50.7 40.0891 40.0891 50.7 27 50.7V53.7C41.746 53.7 53.7 41.746 53.7 27H50.7ZM27 3.3C40.0891 3.3 50.7 13.9109 50.7 27H53.7C53.7 12.254 41.746 0.299999 27 0.299999V3.3ZM27 0.299999C12.254 0.299999 0.3 12.254 0.3 27H3.3C3.3 13.9109 13.9109 3.3 27 3.3V0.299999ZM10.0714 43.5865C5.8811 39.3104 3.3 33.4581 3.3 27H0.3C0.3 34.2745 3.21116 40.872 7.92864 45.6862L10.0714 43.5865ZM7.88963 45.6448L11.4896 49.6085L13.7104 47.5915L10.1104 43.6278L7.88963 45.6448ZM27 50.7C26.43 50.7 25.865 50.6799 25.3056 50.6404L25.0944 53.633C25.7241 53.6774 26.3595 53.7 27 53.7V50.7ZM27.0527 50.7009L25.2527 50.6376L25.1473 53.6358L26.9473 53.6991L27.0527 50.7009ZM25.5 10.8V27H28.5V10.8H25.5ZM25.9393 28.0607L36.7393 38.8607L38.8607 36.7393L28.0607 25.9393L25.9393 28.0607ZM0 50.1H12.6V47.1H0V50.1ZM14.1 48.6V36H11.1V48.6H14.1Z" fill="white"/>
</svg>
