<svg width="45" height="45" viewBox="0 0 45 45" fill="none" xmlns="http://www.w3.org/2000/svg">
<circle cx="22.5" cy="22.5" r="22.5" fill="white"/>
<path d="M23 14.25L22.9997 14.75C22.953 14.75 22.9073 14.763 22.8677 14.7876C22.828 14.8122 22.7961 14.8475 22.7754 14.8893C22.7754 14.8893 22.7754 14.8893 22.7754 14.8893L20.8924 18.7043L20.776 18.9401L20.5159 18.9778L16.3059 19.5888L16.3053 19.5889C16.2591 19.5956 16.2157 19.615 16.1799 19.6451C16.1442 19.6752 16.1176 19.7147 16.1032 19.7591C16.0887 19.8035 16.087 19.8511 16.0983 19.8964C16.1095 19.9417 16.1332 19.983 16.1666 20.0156L16.1669 20.0158L19.2149 22.9848L19.4033 23.1684L19.3588 23.4276L18.6389 27.621C18.6389 27.6211 18.6389 27.6211 18.6389 27.6212C18.6311 27.6671 18.6363 27.7142 18.6539 27.7573C18.6715 27.8005 18.7008 27.8379 18.7385 27.8653C18.7762 27.8927 18.8208 27.9089 18.8673 27.9123C18.9138 27.9157 18.9602 27.906 19.0014 27.8844C19.0015 27.8844 19.0016 27.8843 19.0016 27.8843L22.7674 25.9044L23 25.7821L23.2327 25.9044L26.9986 27.8844C26.9986 27.8844 26.9987 27.8844 26.9987 27.8844C27.04 27.9061 27.0865 27.9158 27.133 27.9124C27.1795 27.909 27.2242 27.8927 27.2619 27.8653C27.2996 27.8378 27.3289 27.8004 27.3465 27.7572C27.3641 27.714 27.3692 27.6667 27.3613 27.6207L27.3612 27.6205L26.6422 23.4285L26.5978 23.1695L26.786 22.986L29.8318 20.0161L23 14.25ZM23 14.25L23.0004 14.75C23.047 14.75 23.0928 14.763 23.1324 14.7876C23.172 14.8122 23.204 14.8474 23.2246 14.8892C23.2247 14.8892 23.2247 14.8893 23.2247 14.8893L25.1066 18.7042L25.2229 18.94L25.4831 18.9778L29.6931 19.5898L29.6932 19.5898C29.7393 19.5965 29.7827 19.616 29.8184 19.646C29.854 19.6761 29.8806 19.7155 29.895 19.7599C29.9094 19.8042 29.9111 19.8517 29.9 19.897C29.8888 19.9422 29.8653 19.9835 29.832 20.016L23 14.25Z" stroke="#2B90D9"/>
</svg>
