<svg width="16" height="16" viewBox="0 0 16 16" fill="none" xmlns="http://www.w3.org/2000/svg">
<path d="M9.0681 13.1816L9.06865 13.1813C9.89153 12.6676 10.6765 12.0955 11.4174 11.4694C13.1258 10.0156 14.8334 7.98409 14.8334 5.67608C14.8334 3.64422 13.1706 2.16675 11.5094 2.16675C10.1788 2.16675 9.09823 2.87096 8.42957 3.99275L7.99989 4.71362L7.57049 3.99258C6.90259 2.87106 5.82149 2.16675 4.49075 2.16675C2.82889 2.16675 1.16675 3.64422 1.16675 5.67541C1.16675 7.98341 2.8736 10.0142 4.58282 11.4701C5.55364 12.2905 6.5995 13.0178 7.70658 13.6423L9.0681 13.1816ZM9.0681 13.1816C8.7483 13.3818 8.48126 13.5365 8.29351 13.6424M9.0681 13.1816L8.29351 13.6424M8.29351 13.6424C8.2101 13.6892 8.12526 13.7355 8.03964 13.7811L8.00009 13.8014C7.90159 13.75 7.8039 13.6971 7.70706 13.6426L8.29351 13.6424Z" stroke="#2B90D9"/>
</svg>
