<svg width="45" height="45" viewBox="0 0 45 45" fill="none" xmlns="http://www.w3.org/2000/svg">
<circle cx="22.5" cy="22.5" r="22.5" fill="white"/>
<path d="M24.0685 28.1813L24.068 28.1816C23.748 28.382 23.4808 28.5367 23.293 28.6426L23.5386 29.078L23.2936 28.6422C23.2101 28.6891 23.1252 28.7354 23.0395 28.7811L23 28.8014C22.9014 28.75 22.8036 28.697 22.7067 28.6424C21.5996 28.0179 20.5537 27.2907 19.5828 26.4702C17.8736 25.0143 16.1666 22.9835 16.1666 20.6754C16.1666 18.6442 17.8288 17.1667 19.4906 17.1667C20.8214 17.1667 21.9025 17.8711 22.5704 18.9926L22.9998 19.7136L23.4294 18.9928C24.0981 17.871 25.1787 17.1667 26.5093 17.1667C28.1705 17.1667 29.8333 18.6442 29.8333 20.6761C29.8333 22.984 28.1258 25.0155 26.4174 26.4692C25.6765 27.0954 24.8915 27.6676 24.0685 28.1813Z" stroke="#2B90D9"/>
</svg>
