<svg width="93" height="93" viewBox="0 0 93 93" fill="none" xmlns="http://www.w3.org/2000/svg">
<g filter="url(#filter0_dd)">
<circle cx="46.5" cy="30.5" r="22.5" fill="white"/>
</g>
<path d="M47 37.4L46.6465 37.7536C46.8417 37.9488 47.1583 37.9488 47.3536 37.7536L47 37.4ZM40.6379 31.0379L40.2844 31.3915L40.2844 31.3915L40.6379 31.0379ZM45.9712 25.7046L45.6177 26.0581L45.6177 26.0581L45.9712 25.7046ZM47 26.7333L46.6465 27.0869C46.8417 27.2822 47.1583 27.2822 47.3536 27.0869L47 26.7333ZM48.0288 25.7046L47.6752 25.351L47.6752 25.351L48.0288 25.7046ZM47.3536 37.0465L40.9915 30.6844L40.2844 31.3915L46.6465 37.7536L47.3536 37.0465ZM53.0086 30.6844L46.6465 37.0465L47.3536 37.7536L53.7157 31.3915L53.0086 30.6844ZM45.6177 26.0581L46.6465 27.0869L47.3536 26.3798L46.3248 25.351L45.6177 26.0581ZM47.3536 27.0869L48.3823 26.0581L47.6752 25.351L46.6465 26.3798L47.3536 27.0869ZM50.6954 24.1C49.5626 24.1 48.4762 24.55 47.6752 25.351L48.3823 26.0581C48.9958 25.4447 49.8279 25.1 50.6954 25.1V24.1ZM53.9667 28.3712C53.9667 29.2388 53.622 30.0709 53.0086 30.6844L53.7157 31.3915C54.5167 30.5904 54.9667 29.504 54.9667 28.3712H53.9667ZM54.9667 28.3712C54.9667 26.0123 53.0544 24.1 50.6954 24.1V25.1C52.5021 25.1 53.9667 26.5646 53.9667 28.3712H54.9667ZM43.3046 25.1C44.1722 25.1 45.0042 25.4447 45.6177 26.0581L46.3248 25.351C45.5238 24.55 44.4374 24.1 43.3046 24.1V25.1ZM40.0333 28.3712C40.0333 26.5646 41.4979 25.1 43.3046 25.1V24.1C40.9456 24.1 39.0333 26.0123 39.0333 28.3712H40.0333ZM40.9915 30.6844C40.378 30.0709 40.0333 29.2388 40.0333 28.3712H39.0333C39.0333 29.504 39.4833 30.5904 40.2844 31.3915L40.9915 30.6844Z" fill="#86888D"/>
<defs>
<filter id="filter0_dd" x="0" y="0" width="93" height="93" filterUnits="userSpaceOnUse" color-interpolation-filters="sRGB">
<feFlood flood-opacity="0" result="BackgroundImageFix"/>
<feColorMatrix in="SourceAlpha" type="matrix" values="0 0 0 0 0 0 0 0 0 0 0 0 0 0 0 0 0 0 127 0"/>
<feOffset dy="2"/>
<feGaussianBlur stdDeviation="3"/>
<feColorMatrix type="matrix" values="0 0 0 0 0 0 0 0 0 0 0 0 0 0 0 0 0 0 0.04 0"/>
<feBlend mode="normal" in2="BackgroundImageFix" result="effect1_dropShadow"/>
<feColorMatrix in="SourceAlpha" type="matrix" values="0 0 0 0 0 0 0 0 0 0 0 0 0 0 0 0 0 0 127 0"/>
<feOffset dy="16"/>
<feGaussianBlur stdDeviation="12"/>
<feColorMatrix type="matrix" values="0 0 0 0 0 0 0 0 0 0 0 0 0 0 0 0 0 0 0.06 0"/>
<feBlend mode="normal" in2="effect1_dropShadow" result="effect2_dropShadow"/>
<feBlend mode="normal" in="SourceGraphic" in2="effect2_dropShadow" result="shape"/>
</filter>
</defs>
</svg>
