<svg width="20" height="22" viewBox="0 0 20 22" fill="none" xmlns="http://www.w3.org/2000/svg">
<path fill-rule="evenodd" clip-rule="evenodd" d="M10 0.5C6.31801 0.5 3.00001 3.065 3.00001 6.5V11.039C3.00001 11.6807 2.81003 12.3081 2.45401 12.842L0.254015 16.141C0.101793 16.3697 0.0145081 16.6355 0.00146702 16.91C-0.011574 17.1844 0.0501182 17.4572 0.179965 17.6994C0.309811 17.9415 0.502943 18.1439 0.738765 18.2849C0.974587 18.4259 1.24426 18.5002 1.51901 18.5H6.50001C6.50001 18.9596 6.59054 19.4148 6.76644 19.8394C6.94233 20.264 7.20014 20.6499 7.52514 20.9749C7.85015 21.2999 8.23598 21.5577 8.66062 21.7336C9.08526 21.9095 9.54039 22 10 22C10.4596 22 10.9148 21.9095 11.3394 21.7336C11.764 21.5577 12.1499 21.2999 12.4749 20.9749C12.7999 20.6499 13.0577 20.264 13.2336 19.8394C13.4095 19.4148 13.5 18.9596 13.5 18.5H18.482C18.7568 18.5 19.0264 18.4254 19.262 18.2842C19.4977 18.143 19.6907 17.9405 19.8203 17.6983C19.95 17.456 20.0114 17.1831 19.9982 16.9087C19.9849 16.6343 19.8974 16.3686 19.745 16.14L17.545 12.842C17.1894 12.308 16.9997 11.6806 17 11.039V6.5C17 3.065 13.681 0.5 10 0.5ZM4.50001 6.5C4.50001 4.136 6.88301 2 10 2C13.117 2 15.5 4.136 15.5 6.5V11.039C15.5 11.977 15.778 12.893 16.298 13.674L18.497 16.973C18.499 16.9759 18.5001 16.9794 18.5 16.983L18.499 16.989L18.495 16.995L18.489 16.999L18.482 17H1.51801L1.51101 16.999L1.50501 16.995L1.50101 16.989L1.50001 16.982L1.50301 16.972L3.70301 13.674C4.22296 12.8936 4.50027 11.9767 4.50001 11.039V6.5ZM12 18.5H8.00001C8.00001 19.0304 8.21073 19.5391 8.5858 19.9142C8.96087 20.2893 9.46958 20.5 10 20.5C10.5304 20.5 11.0392 20.2893 11.4142 19.9142C11.7893 19.5391 12 19.0304 12 18.5Z" fill="#282C37"/>
</svg>
