<svg width="25" height="25" viewBox="0 0 25 25" fill="none" xmlns="http://www.w3.org/2000/svg">
<g clip-path="url(#clip0)">
<path fill-rule="evenodd" clip-rule="evenodd" d="M3.75115 8.49998C3.75135 7.5519 3.99662 6.61996 4.46317 5.79461C4.92971 4.96927 5.60169 4.27853 6.41389 3.78945C7.22608 3.30036 8.15091 3.02953 9.09864 3.00324C10.0464 2.97695 10.9848 3.1961 11.8228 3.6394C12.6609 4.08271 13.3701 4.73513 13.8817 5.53334C14.3933 6.33155 14.6899 7.24846 14.7426 8.19508C14.7954 9.14169 14.6025 10.0859 14.1828 10.936C13.7631 11.7861 13.1308 12.5133 12.3471 13.047C14.0347 13.6659 15.4983 14.7757 16.5498 16.2335C17.6013 17.6913 18.1924 19.4304 18.2471 21.227C18.2501 21.3255 18.2336 21.4236 18.1987 21.5157C18.1637 21.6078 18.1109 21.6922 18.0434 21.7639C17.907 21.9088 17.7186 21.9935 17.5196 21.9995C17.3207 22.0055 17.1276 21.9322 16.9827 21.7957C16.8379 21.6593 16.7531 21.4709 16.7471 21.272C16.6876 19.3234 15.8717 17.4746 14.4723 16.1174C13.073 14.7601 11.2001 14.0011 9.25065 14.0011C7.3012 14.0011 5.42834 14.7601 4.02898 16.1174C2.62961 17.4746 1.8137 19.3234 1.75415 21.272C1.74414 21.4678 1.65783 21.6519 1.51371 21.7849C1.36959 21.9179 1.17913 21.9891 0.983122 21.9834C0.787117 21.9776 0.60116 21.8953 0.46509 21.7541C0.329019 21.6129 0.253657 21.4241 0.255149 21.228C0.3097 19.4312 0.900756 17.6919 1.95223 16.2339C3.00371 14.7759 4.46749 13.666 6.15515 13.047C5.41386 12.5427 4.80722 11.8648 4.38819 11.0722C3.96915 10.2796 3.75044 9.39652 3.75115 8.49998ZM9.25115 4.49998C8.19028 4.49998 7.17287 4.92141 6.42272 5.67156C5.67258 6.4217 5.25115 7.43912 5.25115 8.49998C5.25115 9.56085 5.67258 10.5783 6.42272 11.3284C7.17287 12.0786 8.19028 12.5 9.25115 12.5C10.312 12.5 11.3294 12.0786 12.0796 11.3284C12.8297 10.5783 13.2511 9.56085 13.2511 8.49998C13.2511 7.43912 12.8297 6.4217 12.0796 5.67156C11.3294 4.92141 10.312 4.49998 9.25115 4.49998Z" fill="#282C37"/>
<path d="M17.5401 8.49998C17.3921 8.49998 17.2481 8.50998 17.1061 8.52998C17.0069 8.54773 16.9052 8.54534 16.807 8.52293C16.7088 8.50052 16.6162 8.45857 16.5345 8.39957C16.4529 8.34057 16.384 8.26573 16.3319 8.17952C16.2798 8.09331 16.2457 7.9975 16.2314 7.89779C16.2172 7.79808 16.2232 7.69653 16.249 7.59919C16.2749 7.50184 16.3201 7.41071 16.3819 7.33121C16.4438 7.25171 16.521 7.18549 16.609 7.13648C16.697 7.08748 16.7939 7.0567 16.8941 7.04598C17.8886 6.90219 18.9028 7.09318 19.7769 7.58891C20.6511 8.08463 21.3356 8.85695 21.7227 9.78431C22.1098 10.7117 22.1776 11.7414 21.9153 12.7115C21.6531 13.6816 21.0757 14.537 20.2741 15.143C21.4525 15.6706 22.453 16.528 23.1549 17.6116C23.8569 18.6953 24.2303 19.9589 24.2301 21.25C24.2301 21.4489 24.1511 21.6397 24.0104 21.7803C23.8697 21.921 23.679 22 23.4801 22C23.2812 22 23.0904 21.921 22.9497 21.7803C22.8091 21.6397 22.7301 21.4489 22.7301 21.25C22.7299 20.1341 22.3704 19.048 21.7047 18.1525C21.039 17.2569 20.1026 16.5997 19.0341 16.278L18.5001 16.118V14.442L18.9101 14.233C19.5178 13.9251 20.0041 13.4214 20.2904 12.8032C20.5767 12.185 20.6462 11.4884 20.4879 10.8257C20.3296 10.1631 19.9525 9.57319 19.4177 9.15121C18.8828 8.72922 18.2213 8.4998 17.5401 8.49998Z" fill="#282C37"/>
</g>
<defs>
<clipPath id="clip0">
<rect width="24" height="24" fill="white" transform="translate(0.25 0.5)"/>
</clipPath>
</defs>
</svg>
