<svg width="16" height="16" viewBox="0 0 16 16" fill="none" xmlns="http://www.w3.org/2000/svg">
<path d="M6.33337 10.3893V5.61061C6.33347 5.55082 6.34965 5.49216 6.38022 5.44077C6.41078 5.38938 6.4546 5.34716 6.50709 5.31853C6.55958 5.2899 6.6188 5.27592 6.67855 5.27804C6.7383 5.28017 6.79639 5.29832 6.84671 5.33061L10.564 7.71928C10.6111 7.74943 10.6498 7.79095 10.6767 7.83999C10.7035 7.88904 10.7175 7.94404 10.7175 7.99994C10.7175 8.05585 10.7035 8.11085 10.6767 8.1599C10.6498 8.20894 10.6111 8.25045 10.564 8.28061L6.84671 10.6699C6.79639 10.7022 6.7383 10.7204 6.67855 10.7225C6.6188 10.7246 6.55958 10.7107 6.50709 10.682C6.4546 10.6534 6.41078 10.6112 6.38022 10.5598C6.34965 10.5084 6.33347 10.4497 6.33337 10.3899V10.3893Z" fill="white"/>
<path fill-rule="evenodd" clip-rule="evenodd" d="M7.99996 1.66675C6.32025 1.66675 4.70935 2.33401 3.52162 3.52174C2.33389 4.70947 1.66663 6.32038 1.66663 8.00008C1.66663 9.67979 2.33389 11.2907 3.52162 12.4784C4.70935 13.6662 6.32025 14.3334 7.99996 14.3334C9.67966 14.3334 11.2906 13.6662 12.4783 12.4784C13.666 11.2907 14.3333 9.67979 14.3333 8.00008C14.3333 6.32038 13.666 4.70947 12.4783 3.52174C11.2906 2.33401 9.67966 1.66675 7.99996 1.66675ZM0.666626 8.00008C0.666626 3.95008 3.94996 0.666748 7.99996 0.666748C12.05 0.666748 15.3333 3.95008 15.3333 8.00008C15.3333 12.0501 12.05 15.3334 7.99996 15.3334C3.94996 15.3334 0.666626 12.0501 0.666626 8.00008Z" fill="white"/>
</svg>
