<svg width="26" height="26" viewBox="0 0 26 26" fill="none" xmlns="http://www.w3.org/2000/svg">
<path d="M20.2 14.6H14.6V20.2M23.4 14.6H25M20.2 24.2H13.8M18.6 19.4H24.2V25M5.80005 6.59999H7.40005M18.6 6.59999H20.2M5.80005 19.4H7.40005M3.40005 1.79999H9.80005C10.6837 1.79999 11.4 2.51633 11.4 3.39999V9.79999C11.4 10.6836 10.6837 11.4 9.80005 11.4H3.40005C2.51639 11.4 1.80005 10.6836 1.80005 9.79999V3.39999C1.80005 2.51633 2.51639 1.79999 3.40005 1.79999ZM16.2 1.79999H22.6C23.4837 1.79999 24.2 2.51633 24.2 3.39999V9.79999C24.2 10.6836 23.4837 11.4 22.6 11.4H16.2C15.3164 11.4 14.6 10.6836 14.6 9.79999V3.39999C14.6 2.51633 15.3164 1.79999 16.2 1.79999ZM3.40005 14.6H9.80005C10.6837 14.6 11.4 15.3163 11.4 16.2V22.6C11.4 23.4836 10.6837 24.2 9.80005 24.2H3.40005C2.51639 24.2 1.80005 23.4836 1.80005 22.6V16.2C1.80005 15.3163 2.51639 14.6 3.40005 14.6Z" stroke="white" stroke-width="2"/>
</svg>
