<svg width="55" height="55" viewBox="0 0 55 55" fill="none" xmlns="http://www.w3.org/2000/svg">
<path d="M43.4 30.8H30.8V43.4M50.6 30.8H54.2M43.4 52.4H29M39.8 41.6H52.4V54.2M11 12.8H14.6M39.8 12.8H43.4M11 41.6H14.6M5.6 2H20C21.9882 2 23.6 3.61178 23.6 5.6V20C23.6 21.9882 21.9882 23.6 20 23.6H5.6C3.61178 23.6 2 21.9882 2 20V5.6C2 3.61178 3.61178 2 5.6 2ZM34.4 2H48.8C50.7882 2 52.4 3.61178 52.4 5.6V20C52.4 21.9882 50.7882 23.6 48.8 23.6H34.4C32.4118 23.6 30.8 21.9882 30.8 20V5.6C30.8 3.61178 32.4118 2 34.4 2ZM5.6 30.8H20C21.9882 30.8 23.6 32.4118 23.6 34.4V48.8C23.6 50.7882 21.9882 52.4 20 52.4H5.6C3.61178 52.4 2 50.7882 2 48.8V34.4C2 32.4118 3.61178 30.8 5.6 30.8Z" stroke="white" stroke-width="3"/>
</svg>
