<svg width="16" height="16" viewBox="0 0 16 16" fill="none" xmlns="http://www.w3.org/2000/svg">
<path fill-rule="evenodd" clip-rule="evenodd" d="M4.47 0.22C4.61052 0.0793075 4.80115 0.000175052 5 0L11 0C11.1988 0.000175052 11.3895 0.0793075 11.53 0.22L15.78 4.47C15.921 4.61 16 4.801 16 5V11C15.9998 11.1988 15.9207 11.3895 15.78 11.53L11.53 15.78C11.3895 15.9207 11.1988 15.9998 11 16H5C4.80115 15.9998 4.61052 15.9207 4.47 15.78L0.22 11.53C0.0793075 11.3895 0.000175052 11.1988 0 11L0 5C0.000175052 4.80115 0.0793075 4.61052 0.22 4.47L4.47 0.22ZM5.31 1.5L1.5 5.31V10.69L5.31 14.5H10.69L14.5 10.69V5.31L10.69 1.5H5.31ZM8 4C8.19891 4 8.38968 4.07902 8.53033 4.21967C8.67098 4.36032 8.75 4.55109 8.75 4.75V8.25C8.75 8.44891 8.67098 8.63968 8.53033 8.78033C8.38968 8.92098 8.19891 9 8 9C7.80109 9 7.61032 8.92098 7.46967 8.78033C7.32902 8.63968 7.25 8.44891 7.25 8.25V4.75C7.25 4.55109 7.32902 4.36032 7.46967 4.21967C7.61032 4.07902 7.80109 4 8 4ZM8 12C8.26522 12 8.51957 11.8946 8.70711 11.7071C8.89464 11.5196 9 11.2652 9 11C9 10.7348 8.89464 10.4804 8.70711 10.2929C8.51957 10.1054 8.26522 10 8 10C7.73478 10 7.48043 10.1054 7.29289 10.2929C7.10536 10.4804 7 10.7348 7 11C7 11.2652 7.10536 11.5196 7.29289 11.7071C7.48043 11.8946 7.73478 12 8 12Z" fill="black" fill-opacity="0.87"/>
</svg>
