<svg width="16" height="16" viewBox="0 0 16 16" fill="none" xmlns="http://www.w3.org/2000/svg">
<path fill-rule="evenodd" clip-rule="evenodd" d="M13.3332 3.66655C13.3333 4.13519 13.1922 4.59299 12.9284 4.98033C12.6646 5.36766 12.2903 5.66658 11.8542 5.83816C11.4181 6.00974 10.9404 6.04602 10.4834 5.94228C10.0264 5.83855 9.61118 5.59959 9.29189 5.25655L5.88389 7.27055C6.03992 7.74425 6.03992 8.25551 5.88389 8.72921L9.29189 10.7432C9.68429 10.3225 10.2183 10.0615 10.7913 10.0105C11.3644 9.95948 11.9361 10.122 12.3967 10.4668C12.8572 10.8115 13.1742 11.3143 13.2866 11.8786C13.3991 12.4428 13.2991 13.0287 13.0059 13.5237C12.7128 14.0187 12.247 14.3879 11.6982 14.5605C11.1494 14.7331 10.5562 14.6968 10.0324 14.4587C9.50872 14.2206 9.09145 13.7973 8.86075 13.2703C8.63006 12.7432 8.60221 12.1495 8.78256 11.6032L5.37456 9.58988C5.05525 9.93283 4.64009 10.1717 4.18312 10.2754C3.72615 10.3791 3.24855 10.3428 2.81251 10.1712C2.37646 9.99962 2.00217 9.70074 1.73838 9.31347C1.47458 8.92619 1.3335 8.46846 1.3335 7.99988C1.3335 7.5313 1.47458 7.07357 1.73838 6.68629C2.00217 6.29902 2.37646 6.00014 2.81251 5.82857C3.24855 5.65701 3.72615 5.6207 4.18312 5.72438C4.64009 5.82807 5.05525 6.06693 5.37456 6.40988L8.78256 4.39588V4.39655C8.67751 4.07593 8.64323 3.73635 8.6821 3.40121C8.72096 3.06607 8.83204 2.74334 9.00769 2.45528C9.18333 2.16722 9.41935 1.92067 9.69948 1.73264C9.97961 1.54461 10.2972 1.41956 10.6303 1.36612C10.9634 1.31269 11.3042 1.33213 11.6291 1.4231C11.954 1.51408 12.2553 1.67443 12.5122 1.8931C12.7691 2.11177 12.9756 2.38356 13.1173 2.68973C13.2591 2.9959 13.3327 3.32916 13.3332 3.66655V3.66655ZM12.3332 3.66655C12.3332 4.02017 12.1927 4.35931 11.9427 4.60936C11.6927 4.8594 11.3535 4.99988 10.9999 4.99988C10.6463 4.99988 10.3071 4.8594 10.0571 4.60936C9.80704 4.35931 9.66656 4.02017 9.66656 3.66655C9.66656 3.31293 9.80704 2.97379 10.0571 2.72374C10.3071 2.47369 10.6463 2.33321 10.9999 2.33321C11.3535 2.33321 11.6927 2.47369 11.9427 2.72374C12.1927 2.97379 12.3332 3.31293 12.3332 3.66655V3.66655ZM3.66656 9.33321C4.02018 9.33321 4.35932 9.19274 4.60937 8.94269C4.85942 8.69264 4.99989 8.3535 4.99989 7.99988C4.99989 7.64626 4.85942 7.30712 4.60937 7.05707C4.35932 6.80702 4.02018 6.66655 3.66656 6.66655C3.31294 6.66655 2.9738 6.80702 2.72375 7.05707C2.4737 7.30712 2.33323 7.64626 2.33323 7.99988C2.33323 8.3535 2.4737 8.69264 2.72375 8.94269C2.9738 9.19274 3.31294 9.33321 3.66656 9.33321V9.33321ZM12.3332 12.3332C12.3332 12.6868 12.1927 13.026 11.9427 13.276C11.6927 13.5261 11.3535 13.6665 10.9999 13.6665C10.6463 13.6665 10.3071 13.5261 10.0571 13.276C9.80704 13.026 9.66656 12.6868 9.66656 12.3332C9.66656 11.9796 9.80704 11.6405 10.0571 11.3904C10.3071 11.1404 10.6463 10.9999 10.9999 10.9999C11.3535 10.9999 11.6927 11.1404 11.9427 11.3904C12.1927 11.6405 12.3332 11.9796 12.3332 12.3332V12.3332Z" fill="white"/>
</svg>
