<svg width="16" height="16" viewBox="0 0 16 16" fill="none" xmlns="http://www.w3.org/2000/svg">
<path fill-rule="evenodd" clip-rule="evenodd" d="M2 2.75C2 1.784 2.784 1 3.75 1H6.25C6.44891 1 6.63968 1.07902 6.78033 1.21967C6.92098 1.36032 7 1.55109 7 1.75C7 1.94891 6.92098 2.13968 6.78033 2.28033C6.63968 2.42098 6.44891 2.5 6.25 2.5H3.75C3.6837 2.5 3.62011 2.52634 3.57322 2.57322C3.52634 2.62011 3.5 2.6837 3.5 2.75V13.25C3.5 13.388 3.612 13.5 3.75 13.5H6.25C6.44891 13.5 6.63968 13.579 6.78033 13.7197C6.92098 13.8603 7 14.0511 7 14.25C7 14.4489 6.92098 14.6397 6.78033 14.7803C6.63968 14.921 6.44891 15 6.25 15H3.75C3.28587 15 2.84075 14.8156 2.51256 14.4874C2.18437 14.1592 2 13.7141 2 13.25V2.75ZM8.56 7.25L10.53 5.28C10.6037 5.21134 10.6628 5.12854 10.7038 5.03654C10.7448 4.94454 10.7668 4.84523 10.7686 4.74452C10.7704 4.64382 10.7518 4.54379 10.7141 4.4504C10.6764 4.35701 10.6203 4.27218 10.549 4.20096C10.4778 4.12974 10.393 4.0736 10.2996 4.03588C10.2062 3.99816 10.1062 3.97963 10.0055 3.98141C9.90478 3.98319 9.80546 4.00523 9.71346 4.04622C9.62146 4.08721 9.53866 4.14631 9.47 4.22L6.22 7.47C6.07955 7.61063 6.00066 7.80125 6.00066 8C6.00066 8.19875 6.07955 8.38937 6.22 8.53L9.47 11.78C9.53866 11.8537 9.62146 11.9128 9.71346 11.9538C9.80546 11.9948 9.90478 12.0168 10.0055 12.0186C10.1062 12.0204 10.2062 12.0018 10.2996 11.9641C10.393 11.9264 10.4778 11.8703 10.549 11.799C10.6203 11.7278 10.6764 11.643 10.7141 11.5496C10.7518 11.4562 10.7704 11.3562 10.7686 11.2555C10.7668 11.1548 10.7448 11.0555 10.7038 10.9635C10.6628 10.8715 10.6037 10.7887 10.53 10.72L8.56 8.75H14.25C14.4489 8.75 14.6397 8.67098 14.7803 8.53033C14.921 8.38968 15 8.19891 15 8C15 7.80109 14.921 7.61032 14.7803 7.46967C14.6397 7.32902 14.4489 7.25 14.25 7.25H8.56Z" fill="black" fill-opacity="0.87"/>
</svg>
