<svg width="16" height="16" viewBox="0 0 16 16" fill="none" xmlns="http://www.w3.org/2000/svg">
<g clip-path="url(#clip0)">
<path fill-rule="evenodd" clip-rule="evenodd" d="M6.5 5.5C6.50035 4.65387 6.76899 3.82965 7.26732 3.14583C7.76565 2.46202 8.46798 1.95384 9.27334 1.69436C10.0787 1.43488 10.9456 1.43748 11.7494 1.70176C12.5532 1.96605 13.2525 2.47842 13.7467 3.1652C14.2409 3.85198 14.5047 4.6778 14.4999 5.52392C14.4952 6.37003 14.2223 7.19286 13.7205 7.87409C13.2186 8.55532 12.5137 9.05987 11.707 9.31519C10.9003 9.5705 10.0334 9.56343 9.231 9.295C9.0989 9.25071 8.95708 9.24409 8.82142 9.27588C8.68577 9.30767 8.56166 9.37662 8.463 9.475L7.44 10.5H6.25C6.05109 10.5 5.86032 10.579 5.71967 10.7197C5.57902 10.8603 5.5 11.0511 5.5 11.25V12.44L5.44 12.5H4.25C4.05109 12.5 3.86032 12.579 3.71967 12.7197C3.57902 12.8603 3.5 13.0511 3.5 13.25V14.44L3.44 14.5H1.75C1.6837 14.5 1.62011 14.4737 1.57322 14.4268C1.52634 14.3799 1.5 14.3163 1.5 14.25V12.56L6.524 7.537C6.62255 7.43845 6.69169 7.31438 6.72366 7.17873C6.75563 7.04307 6.74917 6.90119 6.705 6.769C6.56861 6.35984 6.49939 5.93129 6.5 5.5ZM10.5 8.02579e-08C9.66809 -0.000142027 8.84699 0.188434 8.09851 0.551531C7.35002 0.914629 6.69366 1.44279 6.17882 2.09625C5.66398 2.74971 5.30409 3.51145 5.12623 4.32412C4.94837 5.13679 4.95718 5.97923 5.152 6.788L0.22 11.72C0.0793075 11.8605 0.000175052 12.0512 0 12.25L0 14.25C0 15.216 0.784 16 1.75 16H3.75C3.94885 15.9998 4.13948 15.9207 4.28 15.78L4.78 15.28C4.92069 15.1395 4.99983 14.9488 5 14.75V14H5.75C5.94885 13.9998 6.13948 13.9207 6.28 13.78L6.78 13.28C6.92069 13.1395 6.99983 12.9488 7 12.75V12H7.75C7.94885 11.9998 8.13948 11.9207 8.28 11.78L9.212 10.848C9.96721 11.0293 10.7523 11.0487 11.5155 10.9047C12.2787 10.7608 13.0028 10.4568 13.64 10.0128C14.2773 9.56886 14.8133 8.99496 15.2128 8.3289C15.6123 7.66284 15.8662 6.91972 15.9577 6.14847C16.0493 5.37721 15.9765 4.59531 15.7441 3.85422C15.5117 3.11314 15.1249 2.42968 14.6094 1.84883C14.0938 1.26798 13.461 0.802922 12.7527 0.484257C12.0444 0.165593 11.2767 0.000552554 10.5 8.02579e-08ZM11 6C11.2652 6 11.5196 5.89464 11.7071 5.70711C11.8946 5.51957 12 5.26522 12 5C12 4.73478 11.8946 4.48043 11.7071 4.29289C11.5196 4.10536 11.2652 4 11 4C10.7348 4 10.4804 4.10536 10.2929 4.29289C10.1054 4.48043 10 4.73478 10 5C10 5.26522 10.1054 5.51957 10.2929 5.70711C10.4804 5.89464 10.7348 6 11 6Z" fill="black" fill-opacity="0.6"/>
</g>
<defs>
<clipPath id="clip0">
<rect width="16" height="16" fill="white"/>
</clipPath>
</defs>
</svg>
