<svg width="21" height="21" viewBox="0 0 21 21" fill="none" xmlns="http://www.w3.org/2000/svg">
<path d="M14.5714 19.9876V20.9876H15.5714V19.9876H14.5714ZM1 19.9876H0V20.9876H1V19.9876ZM20 20V21H21V20H20ZM10.8571 5.06877C10.8571 6.76319 9.48283 8.13755 7.78571 8.13755V10.1375C10.5862 10.1375 12.8571 7.86899 12.8571 5.06877H10.8571ZM7.78571 8.13755C6.0886 8.13755 4.71429 6.76319 4.71429 5.06877H2.71429C2.71429 7.86899 4.98526 10.1375 7.78571 10.1375V8.13755ZM4.71429 5.06877C4.71429 3.37435 6.0886 2 7.78571 2V0C4.98526 0 2.71429 2.26856 2.71429 5.06877H4.71429ZM7.78571 2C9.48283 2 10.8571 3.37435 10.8571 5.06877H12.8571C12.8571 2.26856 10.5862 0 7.78571 0V2ZM14.5714 18.9876H1V20.9876H14.5714V18.9876ZM2 19.9876C2 19.9857 2 19.9839 2 19.982C2 19.9801 2 19.9782 2 19.9763C2 19.9745 2 19.9726 2 19.9707C2 19.9688 2 19.9669 2 19.965C2 19.9632 2 19.9613 2 19.9594C2 19.9575 2 19.9556 2 19.9538C2 19.9519 2 19.95 2 19.9481C2 19.9462 2 19.9444 2 19.9425C2 19.9406 2 19.9387 2 19.9369C2 19.935 2 19.9331 2 19.9312C2 19.9293 2 19.9275 2 19.9256C2 19.9237 2 19.9218 2 19.9199C2 19.9181 2 19.9162 2 19.9143C2 19.9124 2 19.9106 2 19.9087C2 19.9068 2 19.9049 2 19.9031C2 19.9012 2 19.8993 2 19.8974C2 19.8955 2 19.8937 2 19.8918C2 19.8899 2 19.888 2 19.8862C2 19.8843 2 19.8824 2 19.8805C2 19.8787 2 19.8768 2 19.8749C2 19.873 2 19.8712 2 19.8693C2 19.8674 2 19.8655 2 19.8637C2 19.8618 2 19.8599 2 19.858C2 19.8562 2 19.8543 2 19.8524C2 19.8506 2 19.8487 2 19.8468C2 19.8449 2 19.8431 2 19.8412C2 19.8393 2 19.8374 2 19.8356C2 19.8337 2 19.8318 2 19.83C2 19.8281 2 19.8262 2 19.8243C2 19.8225 2 19.8206 2 19.8187C2 19.8169 2 19.815 2 19.8131C2 19.8112 2 19.8094 2 19.8075C2 19.8056 2 19.8038 2 19.8019C2 19.8 2 19.7982 2 19.7963C2 19.7944 2 19.7925 2 19.7907C2 19.7888 2 19.7869 2 19.7851C2 19.7832 2 19.7813 2 19.7795C2 19.7776 2 19.7757 2 19.7739C2 19.772 2 19.7701 2 19.7683C2 19.7664 2 19.7645 2 19.7626C2 19.7608 2 19.7589 2 19.757C2 19.7552 2 19.7533 2 19.7514C2 19.7496 2 19.7477 2 19.7458C2 19.744 2 19.7421 2 19.7403C2 19.7384 2 19.7365 2 19.7347C2 19.7328 2 19.7309 2 19.7291C2 19.7272 2 19.7253 2 19.7235C2 19.7216 2 19.7197 2 19.7179C2 19.716 2 19.7141 2 19.7123C2 19.7104 2 19.7086 2 19.7067C2 19.7048 2 19.703 2 19.7011C2 19.6992 2 19.6974 2 19.6955C2 19.6936 2 19.6918 2 19.6899C2 19.6881 2 19.6862 2 19.6843C2 19.6825 2 19.6806 2 19.6788C2 19.6769 2 19.675 2 19.6732C2 19.6713 2 19.6694 2 19.6676C2 19.6657 2 19.6639 2 19.662C2 19.6601 2 19.6583 2 19.6564C2 19.6546 2 19.6527 2 19.6508C2 19.649 2 19.6471 2 19.6453C2 19.6434 2 19.6415 2 19.6397C2 19.6378 2 19.636 2 19.6341C2 19.6323 2 19.6304 2 19.6285C2 19.6267 2 19.6248 2 19.623C2 19.6211 2 19.6192 2 19.6174C2 19.6155 2 19.6137 2 19.6118C2 19.61 2 19.6081 2 19.6063C2 19.6044 2 19.6025 2 19.6007C2 19.5988 2 19.597 2 19.5951C2 19.5933 2 19.5914 2 19.5895C2 19.5877 2 19.5858 2 19.584C2 19.5821 2 19.5803 2 19.5784C2 19.5766 2 19.5747 2 19.5729C2 19.571 2 19.5691 2 19.5673C2 19.5654 2 19.5636 2 19.5617C2 19.5599 2 19.558 2 19.5562C2 19.5543 2 19.5525 2 19.5506C2 19.5488 2 19.5469 2 19.5451C2 19.5432 2 19.5414 2 19.5395C2 19.5377 2 19.5358 2 19.534C2 19.5321 2 19.5303 2 19.5284C2 19.5265 2 19.5247 2 19.5228C2 19.521 2 19.5191 2 19.5173C2 19.5154 2 19.5136 2 19.5117C2 19.5099 2 19.508 2 19.5062C2 19.5044 2 19.5025 2 19.5007C2 19.4988 2 19.497 2 19.4951C2 19.4933 2 19.4914 2 19.4896C2 19.4877 2 19.4859 2 19.484C2 19.4822 2 19.4803 2 19.4785C2 19.4766 2 19.4748 2 19.4729C2 19.4711 2 19.4692 2 19.4674C2 19.4656 2 19.4637 2 19.4619C2 19.46 2 19.4582 2 19.4563C2 19.4545 2 19.4526 2 19.4508C2 19.4489 2 19.4471 2 19.4453C2 19.4434 2 19.4416 2 19.4397C2 19.4379 2 19.436 2 19.4342C2 19.4323 2 19.4305 2 19.4287C2 19.4268 2 19.425 2 19.4231C2 19.4213 2 19.4194 2 19.4176C2 19.4158 2 19.4139 2 19.4121C2 19.4102 2 19.4084 2 19.4065C2 19.4047 2 19.4029 2 19.401C2 19.3992 2 19.3973 2 19.3955C2 19.3937 2 19.3918 2 19.39C2 19.3881 2 19.3863 2 19.3845C2 19.3826 2 19.3808 2 19.3789C2 19.3771 2 19.3753 2 19.3734C2 19.3716 2 19.3697 2 19.3679C2 19.3661 2 19.3642 2 19.3624C2 19.3605 2 19.3587 2 19.3569C2 19.355 2 19.3532 2 19.3514C2 19.3495 2 19.3477 2 19.3458C2 19.344 2 19.3422 2 19.3403C2 19.3385 2 19.3367 2 19.3348C2 19.333 2 19.3312 2 19.3293C2 19.3275 2 19.3256 2 19.3238C2 19.322 2 19.3201 2 19.3183C2 19.3165 2 19.3146 2 19.3128C2 19.311 2 19.3091 2 19.3073C2 19.3055 2 19.3036 2 19.3018C2 19.3 2 19.2981 2 19.2963C2 19.2945 2 19.2926 2 19.2908C2 19.289 2 19.2871 2 19.2853C2 19.2835 2 19.2816 2 19.2798C2 19.278 2 19.2761 2 19.2743C2 19.2725 2 19.2706 2 19.2688C2 19.267 2 19.2652 2 19.2633C2 19.2615 2 19.2597 2 19.2578C2 19.256 2 19.2542 2 19.2523C2 19.2505 2 19.2487 2 19.2469C2 19.245 2 19.2432 2 19.2414C2 19.2395 2 19.2377 2 19.2359C2 19.2341 2 19.2322 2 19.2304C2 19.2286 2 19.2267 2 19.2249C2 19.2231 2 19.2213 2 19.2194C2 19.2176 2 19.2158 2 19.214C2 19.2121 2 19.2103 2 19.2085C2 19.2066 2 19.2048 2 19.203C2 19.2012 2 19.1993 2 19.1975C2 19.1957 2 19.1939 2 19.192C2 19.1902 2 19.1884 2 19.1866C2 19.1847 2 19.1829 2 19.1811C2 19.1793 2 19.1774 2 19.1756C2 19.1738 2 19.172 2 19.1702C2 19.1683 2 19.1665 2 19.1647C2 19.1629 2 19.161 2 19.1592C2 19.1574 2 19.1556 2 19.1538C2 19.1519 2 19.1501 2 19.1483C2 19.1465 2 19.1446 2 19.1428C2 19.141 2 19.1392 2 19.1374C2 19.1355 2 19.1337 2 19.1319C2 19.1301 2 19.1283 2 19.1264C2 19.1246 2 19.1228 2 19.121C2 19.1192 2 19.1173 2 19.1155C2 19.1137 2 19.1119 2 19.1101C2 19.1083 2 19.1064 2 19.1046C2 19.1028 2 19.101 2 19.0992C2 19.0973 2 19.0955 2 19.0937C2 19.0919 2 19.0901 2 19.0883C2 19.0864 2 19.0846 2 19.0828C2 19.081 2 19.0792 2 19.0774C2 19.0756 2 19.0737 2 19.0719C2 19.0701 2 19.0683 2 19.0665C2 19.0647 2 19.0629 2 19.061C2 19.0592 2 19.0574 2 19.0556C2 19.0538 2 19.052 2 19.0502C2 19.0483 2 19.0465 2 19.0447C2 19.0429 2 19.0411 2 19.0393C2 19.0375 2 19.0357 2 19.0338C2 19.032 2 19.0302 2 19.0284C2 19.0266 2 19.0248 2 19.023C2 19.0212 2 19.0194 2 19.0175C2 19.0157 2 19.0139 2 19.0121C2 19.0103 2 19.0085 2 19.0067C2 19.0049 2 19.0031 2 19.0013C2 18.9994 2 18.9976 2 18.9958C2 18.994 2 18.9922 2 18.9904C2 18.9886 2 18.9868 2 18.985C2 18.9832 2 18.9814 2 18.9796C2 18.9777 2 18.9759 2 18.9741C2 18.9723 2 18.9705 2 18.9687C2 18.9669 2 18.9651 2 18.9633C2 18.9615 2 18.9597 2 18.9579C2 18.9561 2 18.9543 2 18.9525C2 18.9507 2 18.9489 2 18.9471C2 18.9452 2 18.9434 2 18.9416C2 18.9398 2 18.938 2 18.9362C2 18.9344 2 18.9326 2 18.9308C2 18.929 2 18.9272 2 18.9254C2 18.9236 2 18.9218 2 18.92C2 18.9182 2 18.9164 2 18.9146C2 18.9128 2 18.911 2 18.9092C2 18.9074 2 18.9056 2 18.9038C2 18.902 2 18.9002 2 18.8984C2 18.8966 2 18.8948 2 18.893C2 18.8912 2 18.8894 2 18.8876C2 18.8858 2 18.884 2 18.8822C2 18.8804 2 18.8786 2 18.8768C2 18.875 2 18.8732 2 18.8714C2 18.8696 2 18.8678 2 18.866C2 18.8642 2 18.8624 2 18.8606C2 18.8588 2 18.857 2 18.8552C2 18.8534 2 18.8516 2 18.8498C2 18.848 2 18.8463 2 18.8445C2 18.8427 2 18.8409 2 18.8391C2 18.8373 2 18.8355 2 18.8337C2 18.8319 2 18.8301 2 18.8283C2 18.8265 2 18.8247 2 18.8229C2 18.8211 2 18.8193 2 18.8175C2 18.8158 2 18.814 2 18.8122C2 18.8104 2 18.8086 2 18.8068C2 18.805 2 18.8032 2 18.8014C2 18.7996 2 18.7978 2 18.796C2 18.7943 2 18.7925 2 18.7907C2 18.7889 2 18.7871 2 18.7853C2 18.7835 2 18.7817 2 18.7799C2 18.7781 2 18.7764 2 18.7746C2 18.7728 2 18.771 2 18.7692C2 18.7674 2 18.7656 2 18.7638C2 18.762 2 18.7603 2 18.7585C2 18.7567 2 18.7549 2 18.7531C2 18.7513 2 18.7495 2 18.7477C2 18.746 2 18.7442 2 18.7424C2 18.7406 2 18.7388 2 18.737C2 18.7352 2 18.7335 2 18.7317C2 18.7299 2 18.7281 2 18.7263C2 18.7245 2 18.7227 2 18.721C2 18.7192 2 18.7174 2 18.7156C2 18.7138 2 18.712 2 18.7103C2 18.7085 2 18.7067 2 18.7049C2 18.7031 2 18.7013 2 18.6996C2 18.6978 2 18.696 2 18.6942C2 18.6924 2 18.6907 2 18.6889C2 18.6871 2 18.6853 2 18.6835C2 18.6817 2 18.68 2 18.6782C2 18.6764 2 18.6746 2 18.6728C2 18.6711 2 18.6693 2 18.6675C2 18.6657 2 18.664 2 18.6622C2 18.6604 2 18.6586 2 18.6568C2 18.6551 2 18.6533 2 18.6515C2 18.6497 2 18.6479 2 18.6462C2 18.6444 2 18.6426 2 18.6408C2 18.6391 2 18.6373 2 18.6355C2 18.6337 2 18.632 2 18.6302C2 18.6284 2 18.6266 2 18.6249C2 18.6231 2 18.6213 2 18.6195C2 18.6178 2 18.616 2 18.6142C2 18.6124 2 18.6107 2 18.6089C2 18.6071 2 18.6053 2 18.6036C2 18.6018 2 18.6 2 18.5982C2 18.5965 2 18.5947 2 18.5929C2 18.5912 2 18.5894 2 18.5876C2 18.5858 2 18.5841 2 18.5823C2 18.5805 2 18.5788 2 18.577C2 18.5752 2 18.5734 2 18.5717C2 18.5699 2 18.5681 2 18.5664C2 18.5646 2 18.5628 2 18.5611C2 18.5593 2 18.5575 2 18.5558C2 18.554 2 18.5522 2 18.5504C2 18.5487 2 18.5469 2 18.5451C2 18.5434 2 18.5416 2 18.5398C2 18.5381 2 18.5363 2 18.5345C2 18.5328 2 18.531 2 18.5292C2 18.5275 2 18.5257 2 18.5239C2 18.5222 2 18.5204 2 18.5187C2 18.5169 2 18.5151 2 18.5134C2 18.5116 2 18.5098 2 18.5081C2 18.5063 2 18.5045 2 18.5028C2 18.501 2 18.4992 2 18.4975C2 18.4957 2 18.494 2 18.4922C2 18.4904 2 18.4887 2 18.4869C2 18.4851 2 18.4834 2 18.4816C2 18.4799 2 18.4781 2 18.4763C2 18.4746 2 18.4728 2 18.4711C2 18.4693 2 18.4675 2 18.4658C2 18.464 2 18.4623 2 18.4605C2 18.4587 2 18.457 2 18.4552C2 18.4535 2 18.4517 2 18.4499C2 18.4482 2 18.4464 2 18.4447C2 18.4429 2 18.4412 2 18.4394C2 18.4376 2 18.4359 2 18.4341C2 18.4324 2 18.4306 2 18.4289C2 18.4271 2 18.4253 2 18.4236C2 18.4218 2 18.4201 2 18.4183C2 18.4166 2 18.4148 2 18.4131C2 18.4113 2 18.4096 2 18.4078C2 18.406 2 18.4043 2 18.4025C2 18.4008 2 18.399 2 18.3973C2 18.3955 2 18.3938 2 18.392C2 18.3903 2 18.3885 2 18.3868C2 18.385 2 18.3833 2 18.3815C2 18.3798 2 18.378 2 18.3763C2 18.3745 2 18.3728 2 18.371C2 18.3693 2 18.3675 2 18.3658C2 18.364 2 18.3623 2 18.3605C2 18.3588 2 18.357 2 18.3553C2 18.3535 2 18.3518 2 18.35C2 18.3483 2 18.3465 2 18.3448C2 18.343 2 18.3413 2 18.3395C2 18.3378 2 18.336 2 18.3343C2 18.3325 2 18.3308 2 18.329C2 18.3273 2 18.3256 2 18.3238C2 18.3221 2 18.3203 2 18.3186C2 18.3168 2 18.3151 2 18.3133C2 18.3116 2 18.3099 2 18.3081C2 18.3064 2 18.3046 2 18.3029C2 18.3011 2 18.2994 2 18.2976C2 18.2959 2 18.2942 2 18.2924C2 18.2907 2 18.2889 2 18.2872C2 18.2855 2 18.2837 2 18.282C2 18.2802 2 18.2785 2 18.2767C2 18.275 2 18.2733 2 18.2715C2 18.2698 2 18.268 2 18.2663C2 18.2646 2 18.2628 2 18.2611C2 18.2594 2 18.2576 2 18.2559C2 18.2541 2 18.2524 2 18.2507C2 18.2489 2 18.2472 2 18.2454C2 18.2437 2 18.242 2 18.2402C2 18.2385 2 18.2368 2 18.235C2 18.2333 2 18.2316 2 18.2298C2 18.2281 2 18.2263 2 18.2246C2 18.2229 2 18.2211 2 18.2194C2 18.2177 2 18.2159 2 18.2142C2 18.2125 2 18.2107 2 18.209C2 18.2073 2 18.2055 2 18.2038C2 18.2021 2 18.2003 2 18.1986C2 18.1969 2 18.1951 2 18.1934C2 18.1917 2 18.1899 2 18.1882C2 18.1865 2 18.1848 2 18.183C2 18.1813 2 18.1796 2 18.1778C2 18.1761 2 18.1744 2 18.1726C2 18.1709 2 18.1692 2 18.1675C2 18.1657 2 18.164 2 18.1623C2 18.1605 2 18.1588 2 18.1571C2 18.1554 2 18.1536 2 18.1519C2 18.1502 2 18.1484 2 18.1467C2 18.145 2 18.1433 2 18.1415C2 18.1398 2 18.1381 2 18.1364C2 18.1346 2 18.1329 2 18.1312C2 18.1295 2 18.1277 2 18.126C2 18.1243 2 18.1226 2 18.1208C2 18.1191 2 18.1174 2 18.1157C2 18.1139 2 18.1122 2 18.1105C2 18.1088 2 18.107 2 18.1053C2 18.1036 2 18.1019 2 18.1002C2 18.0984 2 18.0967 2 18.095C2 18.0933 2 18.0916 2 18.0898C2 18.0881 2 18.0864 2 18.0847C2 18.083 2 18.0812 2 18.0795C2 18.0778 2 18.0761 2 18.0744C2 18.0726 2 18.0709 2 18.0692C2 18.0675 2 18.0658 2 18.064C2 18.0623 2 18.0606 2 18.0589C2 18.0572 2 18.0555 2 18.0537C2 18.052 2 18.0503 2 18.0486C2 18.0469 2 18.0452 2 18.0434C2 18.0417 2 18.04 2 18.0383C2 18.0366 2 18.0349 2 18.0332C2 18.0314 2 18.0297 2 18.028C2 18.0263 2 18.0246 2 18.0229C2 18.0212 2 18.0194 2 18.0177C2 18.016 2 18.0143 2 18.0126C2 18.0109 2 18.0092 2 18.0075C2 18.0057 2 18.004 2 18.0023C2 18.0006 2 17.9989 2 17.9972C2 17.9955 2 17.9938 2 17.9921C2 17.9904 2 17.9886 2 17.9869C2 17.9852 2 17.9835 2 17.9818C2 17.9801 2 17.9784 2 17.9767C2 17.975 2 17.9733 2 17.9716C2 17.9698 2 17.9681 2 17.9664C2 17.9647 2 17.963 2 17.9613C2 17.9596 2 17.9579 2 17.9562C2 17.9545 2 17.9528 2 17.9511C2 17.9494 2 17.9477 2 17.946C2 17.9443 2 17.9426 2 17.9409C2 17.9391 2 17.9374 2 17.9357C2 17.934 2 17.9323 2 17.9306C2 17.9289 2 17.9272 2 17.9255C2 17.9238 2 17.9221 2 17.9204C2 17.9187 2 17.917 2 17.9153C2 17.9136 2 17.9119 2 17.9102C2 17.9085 2 17.9068 2 17.9051C2 17.9034 2 17.9017 2 17.9C2 17.8983 2 17.8966 2 17.8949C2 17.8932 2 17.8915 2 17.8898C2 17.8881 2 17.8864 2 17.8847C2 17.883 2 17.8813 2 17.8796C2 17.8779 2 17.8762 2 17.8745C2 17.8728 2 17.8711 2 17.8695C2 17.8678 2 17.8661 2 17.8644C2 17.8627 2 17.861 2 17.8593C2 17.8576 2 17.8559 2 17.8542C2 17.8525 2 17.8508 2 17.8491C2 17.8474 2 17.8457 2 17.844C2 17.8423 2 17.8407 2 17.839C2 17.8373 2 17.8356 2 17.8339C2 17.8322 2 17.8305 2 17.8288C2 17.8271 2 17.8254 2 17.8237C2 17.822 2 17.8204 2 17.8187C2 17.817 2 17.8153 2 17.8136C2 17.8119 2 17.8102 2 17.8085C2 17.8068 2 17.8052 2 17.8035C2 17.8018 2 17.8001 2 17.7984C2 17.7967 2 17.795 2 17.7933C2 17.7917 2 17.79 2 17.7883C2 17.7866 2 17.7849 2 17.7832C2 17.7815 2 17.7799 2 17.7782C2 17.7765 2 17.7748 2 17.7731C2 17.7714 2 17.7697 2 17.7681C2 17.7664 2 17.7647 2 17.763C2 17.7613 2 17.7596 2 17.758C2 17.7563 2 17.7546 2 17.7529C2 17.7512 2 17.7495 2 17.7479C2 17.7462 2 17.7445 2 17.7428C2 17.7411 2 17.7395 2 17.7378C2 17.7361 2 17.7344 2 17.7327C2 17.7311 2 17.7294 2 17.7277C2 17.726 2 17.7243 2 17.7227C2 17.721 2 17.7193 2 17.7176C2 17.716 2 17.7143 2 17.7126C2 17.7109 2 17.7092 2 17.7076C2 17.7059 2 17.7042 2 17.7025C2 17.7009 2 17.6992 2 17.6975C2 17.6958 2 17.6942 2 17.6925C2 17.6908 2 17.6891 2 17.6875C2 17.6858 2 17.6841 2 17.6824C2 17.6808 2 17.6791 2 17.6774C2 17.6757 2 17.6741 2 17.6724C2 17.6707 2 17.6691 2 17.6674C2 17.6657 2 17.664 2 17.6624C2 17.6607 2 17.659 2 17.6574C2 17.6557 2 17.654 2 17.6523C2 17.6507 2 17.649 2 17.6473C2 17.6457 2 17.644 2 17.6423C2 17.6407 2 17.639 2 17.6373C2 17.6357 2 17.634 2 17.6323C2 17.6307 2 17.629 2 17.6273C2 17.6257 2 17.624 2 17.6223C2 17.6207 2 17.619 2 17.6173C2 17.6157 2 17.614 2 17.6123C2 17.6107 2 17.609 2 17.6073C2 17.6057 2 17.604 2 17.6023C2 17.6007 2 17.599 2 17.5974C2 17.5957 2 17.594 2 17.5924C2 17.5907 2 17.589 2 17.5874C2 17.5857 2 17.5841 2 17.5824C2 17.5807 2 17.5791 2 17.5774C2 17.5758 2 17.5741 2 17.5724C2 17.5708 2 17.5691 2 17.5674C2 17.5658 2 17.5641 2 17.5625C2 17.5608 2 17.5592 2 17.5575C2 17.5558 2 17.5542 2 17.5525C2 17.5509 2 17.5492 2 17.5476C2 17.5459 2 17.5442 2 17.5426C2 17.5409 2 17.5393 2 17.5376C2 17.536 2 17.5343 2 17.5326C2 17.531 2 17.5293 2 17.5277C2 17.526 2 17.5244 2 17.5227C2 17.5211 2 17.5194 2 17.5178C2 17.5161 2 17.5145 2 17.5128C2 17.5112 2 17.5095 2 17.5078C2 17.5062 2 17.5045 2 17.5029C2 17.5012 2 17.4996 2 17.4979C2 17.4963 2 17.4946 2 17.493C2 17.4913 2 17.4897 2 17.488C2 17.4864 2 17.4847 2 17.4831C2 17.4814 2 17.4798 2 17.4781C2 17.4765 2 17.4749 2 17.4732C2 17.4716 2 17.4699 2 17.4683C2 17.4666 2 17.465 2 17.4633C2 17.4617 2 17.46 2 17.4584C2 17.4567 2 17.4551 2 17.4535C2 17.4518 2 17.4502 2 17.4485C2 17.4469 2 17.4452 2 17.4436C2 17.4419 2 17.4403 2 17.4387C2 17.437 2 17.4354 2 17.4337C2 17.4321 2 17.4304 2 17.4288C2 17.4272 2 17.4255 2 17.4239C2 17.4222 2 17.4206 2 17.419C2 17.4173 2 17.4157 2 17.414C2 17.4124 2 17.4108 2 17.4091C2 17.4075 2 17.4058 2 17.4042C2 17.4026 2 17.4009 2 17.3993C2 17.3977 2 17.396 2 17.3944C2 17.3927 2 17.3911 2 17.3895C2 17.3878 2 17.3862 2 17.3846C2 17.3829 2 17.3813 2 17.3797C2 17.378 2 17.3764 2 17.3747C2 17.3731 2 17.3715 2 17.3698C2 17.3682 2 17.3666 2 17.3649C2 17.3633 2 17.3617 2 17.36C2 17.3584 2 17.3568 2 17.3551C2 17.3535 2 17.3519 2 17.3503C2 17.3486 2 17.347 2 17.3454C2 17.3437 2 17.3421 2 17.3405C2 17.3388 2 17.3372 2 17.3356C2 17.334 2 17.3323 2 17.3307C2 17.3291 2 17.3274 2 17.3258C2 17.3242 2 17.3226 2 17.3209C2 17.3193 2 17.3177 2 17.316C2 17.3144 2 17.3128 2 17.3112C2 17.3095 2 17.3079 2 17.3063C2 17.3047 2 17.303 2 17.3014C2 17.2998 2 17.2982 2 17.2965C2 17.2949 2 17.2933 2 17.2917C2 17.29 2 17.2884 2 17.2868C2 17.2852 2 17.2836 2 17.2819C2 17.2803 2 17.2787 2 17.2771H0C0 17.2787 0 17.2803 0 17.2819C0 17.2836 0 17.2852 0 17.2868C0 17.2884 0 17.29 0 17.2917C0 17.2933 0 17.2949 0 17.2965C0 17.2982 0 17.2998 0 17.3014C0 17.303 0 17.3047 0 17.3063C0 17.3079 0 17.3095 0 17.3112C0 17.3128 0 17.3144 0 17.316C0 17.3177 0 17.3193 0 17.3209C0 17.3226 0 17.3242 0 17.3258C0 17.3274 0 17.3291 0 17.3307C0 17.3323 0 17.334 0 17.3356C0 17.3372 0 17.3388 0 17.3405C0 17.3421 0 17.3437 0 17.3454C0 17.347 0 17.3486 0 17.3503C0 17.3519 0 17.3535 0 17.3551C0 17.3568 0 17.3584 0 17.36C0 17.3617 0 17.3633 0 17.3649C0 17.3666 0 17.3682 0 17.3698C0 17.3715 0 17.3731 0 17.3747C0 17.3764 0 17.378 0 17.3797C0 17.3813 0 17.3829 0 17.3846C0 17.3862 0 17.3878 0 17.3895C0 17.3911 0 17.3927 0 17.3944C0 17.396 0 17.3977 0 17.3993C0 17.4009 0 17.4026 0 17.4042C0 17.4058 0 17.4075 0 17.4091C0 17.4108 0 17.4124 0 17.414C0 17.4157 0 17.4173 0 17.419C0 17.4206 0 17.4222 0 17.4239C0 17.4255 0 17.4272 0 17.4288C0 17.4304 0 17.4321 0 17.4337C0 17.4354 0 17.437 0 17.4387C0 17.4403 0 17.4419 0 17.4436C0 17.4452 0 17.4469 0 17.4485C0 17.4502 0 17.4518 0 17.4535C0 17.4551 0 17.4567 0 17.4584C0 17.46 0 17.4617 0 17.4633C0 17.465 0 17.4666 0 17.4683C0 17.4699 0 17.4716 0 17.4732C0 17.4749 0 17.4765 0 17.4781C0 17.4798 0 17.4814 0 17.4831C0 17.4847 0 17.4864 0 17.488C0 17.4897 0 17.4913 0 17.493C0 17.4946 0 17.4963 0 17.4979C0 17.4996 0 17.5012 0 17.5029C0 17.5045 0 17.5062 0 17.5078C0 17.5095 0 17.5112 0 17.5128C0 17.5145 0 17.5161 0 17.5178C0 17.5194 0 17.5211 0 17.5227C0 17.5244 0 17.526 0 17.5277C0 17.5293 0 17.531 0 17.5326C0 17.5343 0 17.536 0 17.5376C0 17.5393 0 17.5409 0 17.5426C0 17.5442 0 17.5459 0 17.5476C0 17.5492 0 17.5509 0 17.5525C0 17.5542 0 17.5558 0 17.5575C0 17.5592 0 17.5608 0 17.5625C0 17.5641 0 17.5658 0 17.5674C0 17.5691 0 17.5708 0 17.5724C0 17.5741 0 17.5758 0 17.5774C0 17.5791 0 17.5807 0 17.5824C0 17.5841 0 17.5857 0 17.5874C0 17.589 0 17.5907 0 17.5924C0 17.594 0 17.5957 0 17.5974C0 17.599 0 17.6007 0 17.6023C0 17.604 0 17.6057 0 17.6073C0 17.609 0 17.6107 0 17.6123C0 17.614 0 17.6157 0 17.6173C0 17.619 0 17.6207 0 17.6223C0 17.624 0 17.6257 0 17.6273C0 17.629 0 17.6307 0 17.6323C0 17.634 0 17.6357 0 17.6373C0 17.639 0 17.6407 0 17.6423C0 17.644 0 17.6457 0 17.6473C0 17.649 0 17.6507 0 17.6523C0 17.654 0 17.6557 0 17.6574C0 17.659 0 17.6607 0 17.6624C0 17.664 0 17.6657 0 17.6674C0 17.6691 0 17.6707 0 17.6724C0 17.6741 0 17.6757 0 17.6774C0 17.6791 0 17.6808 0 17.6824C0 17.6841 0 17.6858 0 17.6875C0 17.6891 0 17.6908 0 17.6925C0 17.6942 0 17.6958 0 17.6975C0 17.6992 0 17.7009 0 17.7025C0 17.7042 0 17.7059 0 17.7076C0 17.7092 0 17.7109 0 17.7126C0 17.7143 0 17.716 0 17.7176C0 17.7193 0 17.721 0 17.7227C0 17.7243 0 17.726 0 17.7277C0 17.7294 0 17.7311 0 17.7327C0 17.7344 0 17.7361 0 17.7378C0 17.7395 0 17.7411 0 17.7428C0 17.7445 0 17.7462 0 17.7479C0 17.7495 0 17.7512 0 17.7529C0 17.7546 0 17.7563 0 17.758C0 17.7596 0 17.7613 0 17.763C0 17.7647 0 17.7664 0 17.7681C0 17.7697 0 17.7714 0 17.7731C0 17.7748 0 17.7765 0 17.7782C0 17.7799 0 17.7815 0 17.7832C0 17.7849 0 17.7866 0 17.7883C0 17.79 0 17.7917 0 17.7933C0 17.795 0 17.7967 0 17.7984C0 17.8001 0 17.8018 0 17.8035C0 17.8052 0 17.8068 0 17.8085C0 17.8102 0 17.8119 0 17.8136C0 17.8153 0 17.817 0 17.8187C0 17.8204 0 17.822 0 17.8237C0 17.8254 0 17.8271 0 17.8288C0 17.8305 0 17.8322 0 17.8339C0 17.8356 0 17.8373 0 17.839C0 17.8407 0 17.8423 0 17.844C0 17.8457 0 17.8474 0 17.8491C0 17.8508 0 17.8525 0 17.8542C0 17.8559 0 17.8576 0 17.8593C0 17.861 0 17.8627 0 17.8644C0 17.8661 0 17.8678 0 17.8695C0 17.8711 0 17.8728 0 17.8745C0 17.8762 0 17.8779 0 17.8796C0 17.8813 0 17.883 0 17.8847C0 17.8864 0 17.8881 0 17.8898C0 17.8915 0 17.8932 0 17.8949C0 17.8966 0 17.8983 0 17.9C0 17.9017 0 17.9034 0 17.9051C0 17.9068 0 17.9085 0 17.9102C0 17.9119 0 17.9136 0 17.9153C0 17.917 0 17.9187 0 17.9204C0 17.9221 0 17.9238 0 17.9255C0 17.9272 0 17.9289 0 17.9306C0 17.9323 0 17.934 0 17.9357C0 17.9374 0 17.9391 0 17.9409C0 17.9426 0 17.9443 0 17.946C0 17.9477 0 17.9494 0 17.9511C0 17.9528 0 17.9545 0 17.9562C0 17.9579 0 17.9596 0 17.9613C0 17.963 0 17.9647 0 17.9664C0 17.9681 0 17.9698 0 17.9716C0 17.9733 0 17.975 0 17.9767C0 17.9784 0 17.9801 0 17.9818C0 17.9835 0 17.9852 0 17.9869C0 17.9886 0 17.9904 0 17.9921C0 17.9938 0 17.9955 0 17.9972C0 17.9989 0 18.0006 0 18.0023C0 18.004 0 18.0057 0 18.0075C0 18.0092 0 18.0109 0 18.0126C0 18.0143 0 18.016 0 18.0177C0 18.0194 0 18.0212 0 18.0229C0 18.0246 0 18.0263 0 18.028C0 18.0297 0 18.0314 0 18.0332C0 18.0349 0 18.0366 0 18.0383C0 18.04 0 18.0417 0 18.0434C0 18.0452 0 18.0469 0 18.0486C0 18.0503 0 18.052 0 18.0537C0 18.0555 0 18.0572 0 18.0589C0 18.0606 0 18.0623 0 18.064C0 18.0658 0 18.0675 0 18.0692C0 18.0709 0 18.0726 0 18.0744C0 18.0761 0 18.0778 0 18.0795C0 18.0812 0 18.083 0 18.0847C0 18.0864 0 18.0881 0 18.0898C0 18.0916 0 18.0933 0 18.095C0 18.0967 0 18.0984 0 18.1002C0 18.1019 0 18.1036 0 18.1053C0 18.107 0 18.1088 0 18.1105C0 18.1122 0 18.1139 0 18.1157C0 18.1174 0 18.1191 0 18.1208C0 18.1226 0 18.1243 0 18.126C0 18.1277 0 18.1295 0 18.1312C0 18.1329 0 18.1346 0 18.1364C0 18.1381 0 18.1398 0 18.1415C0 18.1433 0 18.145 0 18.1467C0 18.1484 0 18.1502 0 18.1519C0 18.1536 0 18.1554 0 18.1571C0 18.1588 0 18.1605 0 18.1623C0 18.164 0 18.1657 0 18.1675C0 18.1692 0 18.1709 0 18.1726C0 18.1744 0 18.1761 0 18.1778C0 18.1796 0 18.1813 0 18.183C0 18.1848 0 18.1865 0 18.1882C0 18.1899 0 18.1917 0 18.1934C0 18.1951 0 18.1969 0 18.1986C0 18.2003 0 18.2021 0 18.2038C0 18.2055 0 18.2073 0 18.209C0 18.2107 0 18.2125 0 18.2142C0 18.2159 0 18.2177 0 18.2194C0 18.2211 0 18.2229 0 18.2246C0 18.2263 0 18.2281 0 18.2298C0 18.2316 0 18.2333 0 18.235C0 18.2368 0 18.2385 0 18.2402C0 18.242 0 18.2437 0 18.2454C0 18.2472 0 18.2489 0 18.2507C0 18.2524 0 18.2541 0 18.2559C0 18.2576 0 18.2594 0 18.2611C0 18.2628 0 18.2646 0 18.2663C0 18.268 0 18.2698 0 18.2715C0 18.2733 0 18.275 0 18.2767C0 18.2785 0 18.2802 0 18.282C0 18.2837 0 18.2855 0 18.2872C0 18.2889 0 18.2907 0 18.2924C0 18.2942 0 18.2959 0 18.2976C0 18.2994 0 18.3011 0 18.3029C0 18.3046 0 18.3064 0 18.3081C0 18.3099 0 18.3116 0 18.3133C0 18.3151 0 18.3168 0 18.3186C0 18.3203 0 18.3221 0 18.3238C0 18.3256 0 18.3273 0 18.329C0 18.3308 0 18.3325 0 18.3343C0 18.336 0 18.3378 0 18.3395C0 18.3413 0 18.343 0 18.3448C0 18.3465 0 18.3483 0 18.35C0 18.3518 0 18.3535 0 18.3553C0 18.357 0 18.3588 0 18.3605C0 18.3623 0 18.364 0 18.3658C0 18.3675 0 18.3693 0 18.371C0 18.3728 0 18.3745 0 18.3763C0 18.378 0 18.3798 0 18.3815C0 18.3833 0 18.385 0 18.3868C0 18.3885 0 18.3903 0 18.392C0 18.3938 0 18.3955 0 18.3973C0 18.399 0 18.4008 0 18.4025C0 18.4043 0 18.406 0 18.4078C0 18.4096 0 18.4113 0 18.4131C0 18.4148 0 18.4166 0 18.4183C0 18.4201 0 18.4218 0 18.4236C0 18.4253 0 18.4271 0 18.4289C0 18.4306 0 18.4324 0 18.4341C0 18.4359 0 18.4376 0 18.4394C0 18.4412 0 18.4429 0 18.4447C0 18.4464 0 18.4482 0 18.4499C0 18.4517 0 18.4535 0 18.4552C0 18.457 0 18.4587 0 18.4605C0 18.4623 0 18.464 0 18.4658C0 18.4675 0 18.4693 0 18.4711C0 18.4728 0 18.4746 0 18.4763C0 18.4781 0 18.4799 0 18.4816C0 18.4834 0 18.4851 0 18.4869C0 18.4887 0 18.4904 0 18.4922C0 18.494 0 18.4957 0 18.4975C0 18.4992 0 18.501 0 18.5028C0 18.5045 0 18.5063 0 18.5081C0 18.5098 0 18.5116 0 18.5134C0 18.5151 0 18.5169 0 18.5187C0 18.5204 0 18.5222 0 18.5239C0 18.5257 0 18.5275 0 18.5292C0 18.531 0 18.5328 0 18.5345C0 18.5363 0 18.5381 0 18.5398C0 18.5416 0 18.5434 0 18.5451C0 18.5469 0 18.5487 0 18.5504C0 18.5522 0 18.554 0 18.5558C0 18.5575 0 18.5593 0 18.5611C0 18.5628 0 18.5646 0 18.5664C0 18.5681 0 18.5699 0 18.5717C0 18.5734 0 18.5752 0 18.577C0 18.5788 0 18.5805 0 18.5823C0 18.5841 0 18.5858 0 18.5876C0 18.5894 0 18.5912 0 18.5929C0 18.5947 0 18.5965 0 18.5982C0 18.6 0 18.6018 0 18.6036C0 18.6053 0 18.6071 0 18.6089C0 18.6107 0 18.6124 0 18.6142C0 18.616 0 18.6178 0 18.6195C0 18.6213 0 18.6231 0 18.6249C0 18.6266 0 18.6284 0 18.6302C0 18.632 0 18.6337 0 18.6355C0 18.6373 0 18.6391 0 18.6408C0 18.6426 0 18.6444 0 18.6462C0 18.6479 0 18.6497 0 18.6515C0 18.6533 0 18.6551 0 18.6568C0 18.6586 0 18.6604 0 18.6622C0 18.664 0 18.6657 0 18.6675C0 18.6693 0 18.6711 0 18.6728C0 18.6746 0 18.6764 0 18.6782C0 18.68 0 18.6817 0 18.6835C0 18.6853 0 18.6871 0 18.6889C0 18.6907 0 18.6924 0 18.6942C0 18.696 0 18.6978 0 18.6996C0 18.7013 0 18.7031 0 18.7049C0 18.7067 0 18.7085 0 18.7103C0 18.712 0 18.7138 0 18.7156C0 18.7174 0 18.7192 0 18.721C0 18.7227 0 18.7245 0 18.7263C0 18.7281 0 18.7299 0 18.7317C0 18.7335 0 18.7352 0 18.737C0 18.7388 0 18.7406 0 18.7424C0 18.7442 0 18.746 0 18.7477C0 18.7495 0 18.7513 0 18.7531C0 18.7549 0 18.7567 0 18.7585C0 18.7603 0 18.762 0 18.7638C0 18.7656 0 18.7674 0 18.7692C0 18.771 0 18.7728 0 18.7746C0 18.7764 0 18.7781 0 18.7799C0 18.7817 0 18.7835 0 18.7853C0 18.7871 0 18.7889 0 18.7907C0 18.7925 0 18.7943 0 18.796C0 18.7978 0 18.7996 0 18.8014C0 18.8032 0 18.805 0 18.8068C0 18.8086 0 18.8104 0 18.8122C0 18.814 0 18.8158 0 18.8175C0 18.8193 0 18.8211 0 18.8229C0 18.8247 0 18.8265 0 18.8283C0 18.8301 0 18.8319 0 18.8337C0 18.8355 0 18.8373 0 18.8391C0 18.8409 0 18.8427 0 18.8445C0 18.8463 0 18.848 0 18.8498C0 18.8516 0 18.8534 0 18.8552C0 18.857 0 18.8588 0 18.8606C0 18.8624 0 18.8642 0 18.866C0 18.8678 0 18.8696 0 18.8714C0 18.8732 0 18.875 0 18.8768C0 18.8786 0 18.8804 0 18.8822C0 18.884 0 18.8858 0 18.8876C0 18.8894 0 18.8912 0 18.893C0 18.8948 0 18.8966 0 18.8984C0 18.9002 0 18.902 0 18.9038C0 18.9056 0 18.9074 0 18.9092C0 18.911 0 18.9128 0 18.9146C0 18.9164 0 18.9182 0 18.92C0 18.9218 0 18.9236 0 18.9254C0 18.9272 0 18.929 0 18.9308C0 18.9326 0 18.9344 0 18.9362C0 18.938 0 18.9398 0 18.9416C0 18.9434 0 18.9452 0 18.9471C0 18.9489 0 18.9507 0 18.9525C0 18.9543 0 18.9561 0 18.9579C0 18.9597 0 18.9615 0 18.9633C0 18.9651 0 18.9669 0 18.9687C0 18.9705 0 18.9723 0 18.9741C0 18.9759 0 18.9777 0 18.9796C0 18.9814 0 18.9832 0 18.985C0 18.9868 0 18.9886 0 18.9904C0 18.9922 0 18.994 0 18.9958C0 18.9976 0 18.9994 0 19.0013C0 19.0031 0 19.0049 0 19.0067C0 19.0085 0 19.0103 0 19.0121C0 19.0139 0 19.0157 0 19.0175C0 19.0194 0 19.0212 0 19.023C0 19.0248 0 19.0266 0 19.0284C0 19.0302 0 19.032 0 19.0338C0 19.0357 0 19.0375 0 19.0393C0 19.0411 0 19.0429 0 19.0447C0 19.0465 0 19.0483 0 19.0502C0 19.052 0 19.0538 0 19.0556C0 19.0574 0 19.0592 0 19.061C0 19.0629 0 19.0647 0 19.0665C0 19.0683 0 19.0701 0 19.0719C0 19.0737 0 19.0756 0 19.0774C0 19.0792 0 19.081 0 19.0828C0 19.0846 0 19.0864 0 19.0883C0 19.0901 0 19.0919 0 19.0937C0 19.0955 0 19.0973 0 19.0992C0 19.101 0 19.1028 0 19.1046C0 19.1064 0 19.1083 0 19.1101C0 19.1119 0 19.1137 0 19.1155C0 19.1173 0 19.1192 0 19.121C0 19.1228 0 19.1246 0 19.1264C0 19.1283 0 19.1301 0 19.1319C0 19.1337 0 19.1355 0 19.1374C0 19.1392 0 19.141 0 19.1428C0 19.1446 0 19.1465 0 19.1483C0 19.1501 0 19.1519 0 19.1538C0 19.1556 0 19.1574 0 19.1592C0 19.161 0 19.1629 0 19.1647C0 19.1665 0 19.1683 0 19.1702C0 19.172 0 19.1738 0 19.1756C0 19.1774 0 19.1793 0 19.1811C0 19.1829 0 19.1847 0 19.1866C0 19.1884 0 19.1902 0 19.192C0 19.1939 0 19.1957 0 19.1975C0 19.1993 0 19.2012 0 19.203C0 19.2048 0 19.2066 0 19.2085C0 19.2103 0 19.2121 0 19.214C0 19.2158 0 19.2176 0 19.2194C0 19.2213 0 19.2231 0 19.2249C0 19.2267 0 19.2286 0 19.2304C0 19.2322 0 19.2341 0 19.2359C0 19.2377 0 19.2395 0 19.2414C0 19.2432 0 19.245 0 19.2469C0 19.2487 0 19.2505 0 19.2523C0 19.2542 0 19.256 0 19.2578C0 19.2597 0 19.2615 0 19.2633C0 19.2652 0 19.267 0 19.2688C0 19.2706 0 19.2725 0 19.2743C0 19.2761 0 19.278 0 19.2798C0 19.2816 0 19.2835 0 19.2853C0 19.2871 0 19.289 0 19.2908C0 19.2926 0 19.2945 0 19.2963C0 19.2981 0 19.3 0 19.3018C0 19.3036 0 19.3055 0 19.3073C0 19.3091 0 19.311 0 19.3128C0 19.3146 0 19.3165 0 19.3183C0 19.3201 0 19.322 0 19.3238C0 19.3256 0 19.3275 0 19.3293C0 19.3312 0 19.333 0 19.3348C0 19.3367 0 19.3385 0 19.3403C0 19.3422 0 19.344 0 19.3458C0 19.3477 0 19.3495 0 19.3514C0 19.3532 0 19.355 0 19.3569C0 19.3587 0 19.3605 0 19.3624C0 19.3642 0 19.3661 0 19.3679C0 19.3697 0 19.3716 0 19.3734C0 19.3753 0 19.3771 0 19.3789C0 19.3808 0 19.3826 0 19.3845C0 19.3863 0 19.3881 0 19.39C0 19.3918 0 19.3937 0 19.3955C0 19.3973 0 19.3992 0 19.401C0 19.4029 0 19.4047 0 19.4065C0 19.4084 0 19.4102 0 19.4121C0 19.4139 0 19.4158 0 19.4176C0 19.4194 0 19.4213 0 19.4231C0 19.425 0 19.4268 0 19.4287C0 19.4305 0 19.4323 0 19.4342C0 19.436 0 19.4379 0 19.4397C0 19.4416 0 19.4434 0 19.4453C0 19.4471 0 19.4489 0 19.4508C0 19.4526 0 19.4545 0 19.4563C0 19.4582 0 19.46 0 19.4619C0 19.4637 0 19.4656 0 19.4674C0 19.4692 0 19.4711 0 19.4729C0 19.4748 0 19.4766 0 19.4785C0 19.4803 0 19.4822 0 19.484C0 19.4859 0 19.4877 0 19.4896C0 19.4914 0 19.4933 0 19.4951C0 19.497 0 19.4988 0 19.5007C0 19.5025 0 19.5044 0 19.5062C0 19.508 0 19.5099 0 19.5117C0 19.5136 0 19.5154 0 19.5173C0 19.5191 0 19.521 0 19.5228C0 19.5247 0 19.5265 0 19.5284C0 19.5303 0 19.5321 0 19.534C0 19.5358 0 19.5377 0 19.5395C0 19.5414 0 19.5432 0 19.5451C0 19.5469 0 19.5488 0 19.5506C0 19.5525 0 19.5543 0 19.5562C0 19.558 0 19.5599 0 19.5617C0 19.5636 0 19.5654 0 19.5673C0 19.5691 0 19.571 0 19.5729C0 19.5747 0 19.5766 0 19.5784C0 19.5803 0 19.5821 0 19.584C0 19.5858 0 19.5877 0 19.5895C0 19.5914 0 19.5933 0 19.5951C0 19.597 0 19.5988 0 19.6007C0 19.6025 0 19.6044 0 19.6063C0 19.6081 0 19.61 0 19.6118C0 19.6137 0 19.6155 0 19.6174C0 19.6192 0 19.6211 0 19.623C0 19.6248 0 19.6267 0 19.6285C0 19.6304 0 19.6323 0 19.6341C0 19.636 0 19.6378 0 19.6397C0 19.6415 0 19.6434 0 19.6453C0 19.6471 0 19.649 0 19.6508C0 19.6527 0 19.6546 0 19.6564C0 19.6583 0 19.6601 0 19.662C0 19.6639 0 19.6657 0 19.6676C0 19.6694 0 19.6713 0 19.6732C0 19.675 0 19.6769 0 19.6788C0 19.6806 0 19.6825 0 19.6843C0 19.6862 0 19.6881 0 19.6899C0 19.6918 0 19.6936 0 19.6955C0 19.6974 0 19.6992 0 19.7011C0 19.703 0 19.7048 0 19.7067C0 19.7086 0 19.7104 0 19.7123C0 19.7141 0 19.716 0 19.7179C0 19.7197 0 19.7216 0 19.7235C0 19.7253 0 19.7272 0 19.7291C0 19.7309 0 19.7328 0 19.7347C0 19.7365 0 19.7384 0 19.7403C0 19.7421 0 19.744 0 19.7458C0 19.7477 0 19.7496 0 19.7514C0 19.7533 0 19.7552 0 19.757C0 19.7589 0 19.7608 0 19.7626C0 19.7645 0 19.7664 0 19.7683C0 19.7701 0 19.772 0 19.7739C0 19.7757 0 19.7776 0 19.7795C0 19.7813 0 19.7832 0 19.7851C0 19.7869 0 19.7888 0 19.7907C0 19.7925 0 19.7944 0 19.7963C0 19.7982 0 19.8 0 19.8019C0 19.8038 0 19.8056 0 19.8075C0 19.8094 0 19.8112 0 19.8131C0 19.815 0 19.8169 0 19.8187C0 19.8206 0 19.8225 0 19.8243C0 19.8262 0 19.8281 0 19.83C0 19.8318 0 19.8337 0 19.8356C0 19.8374 0 19.8393 0 19.8412C0 19.8431 0 19.8449 0 19.8468C0 19.8487 0 19.8506 0 19.8524C0 19.8543 0 19.8562 0 19.858C0 19.8599 0 19.8618 0 19.8637C0 19.8655 0 19.8674 0 19.8693C0 19.8712 0 19.873 0 19.8749C0 19.8768 0 19.8787 0 19.8805C0 19.8824 0 19.8843 0 19.8862C0 19.888 0 19.8899 0 19.8918C0 19.8937 0 19.8955 0 19.8974C0 19.8993 0 19.9012 0 19.9031C0 19.9049 0 19.9068 0 19.9087C0 19.9106 0 19.9124 0 19.9143C0 19.9162 0 19.9181 0 19.9199C0 19.9218 0 19.9237 0 19.9256C0 19.9275 0 19.9293 0 19.9312C0 19.9331 0 19.935 0 19.9369C0 19.9387 0 19.9406 0 19.9425C0 19.9444 0 19.9462 0 19.9481C0 19.95 0 19.9519 0 19.9538C0 19.9556 0 19.9575 0 19.9594C0 19.9613 0 19.9632 0 19.965C0 19.9669 0 19.9688 0 19.9707C0 19.9726 0 19.9745 0 19.9763C0 19.9782 0 19.9801 0 19.982C0 19.9839 0 19.9857 0 19.9876H2ZM5.07143 14.2063H10.5V12.2063H5.07143V14.2063ZM13.5714 17.2771C13.5714 17.2787 13.5714 17.2803 13.5714 17.2819C13.5714 17.2836 13.5714 17.2852 13.5714 17.2868C13.5714 17.2884 13.5714 17.29 13.5714 17.2917C13.5714 17.2933 13.5714 17.2949 13.5714 17.2965C13.5714 17.2982 13.5714 17.2998 13.5714 17.3014C13.5714 17.303 13.5714 17.3047 13.5714 17.3063C13.5714 17.3079 13.5714 17.3095 13.5714 17.3112C13.5714 17.3128 13.5714 17.3144 13.5714 17.316C13.5714 17.3177 13.5714 17.3193 13.5714 17.3209C13.5714 17.3226 13.5714 17.3242 13.5714 17.3258C13.5714 17.3274 13.5714 17.3291 13.5714 17.3307C13.5714 17.3323 13.5714 17.334 13.5714 17.3356C13.5714 17.3372 13.5714 17.3388 13.5714 17.3405C13.5714 17.3421 13.5714 17.3437 13.5714 17.3454C13.5714 17.347 13.5714 17.3486 13.5714 17.3503C13.5714 17.3519 13.5714 17.3535 13.5714 17.3551C13.5714 17.3568 13.5714 17.3584 13.5714 17.36C13.5714 17.3617 13.5714 17.3633 13.5714 17.3649C13.5714 17.3666 13.5714 17.3682 13.5714 17.3698C13.5714 17.3715 13.5714 17.3731 13.5714 17.3747C13.5714 17.3764 13.5714 17.378 13.5714 17.3797C13.5714 17.3813 13.5714 17.3829 13.5714 17.3846C13.5714 17.3862 13.5714 17.3878 13.5714 17.3895C13.5714 17.3911 13.5714 17.3927 13.5714 17.3944C13.5714 17.396 13.5714 17.3977 13.5714 17.3993C13.5714 17.4009 13.5714 17.4026 13.5714 17.4042C13.5714 17.4058 13.5714 17.4075 13.5714 17.4091C13.5714 17.4108 13.5714 17.4124 13.5714 17.414C13.5714 17.4157 13.5714 17.4173 13.5714 17.419C13.5714 17.4206 13.5714 17.4222 13.5714 17.4239C13.5714 17.4255 13.5714 17.4272 13.5714 17.4288C13.5714 17.4304 13.5714 17.4321 13.5714 17.4337C13.5714 17.4354 13.5714 17.437 13.5714 17.4387C13.5714 17.4403 13.5714 17.4419 13.5714 17.4436C13.5714 17.4452 13.5714 17.4469 13.5714 17.4485C13.5714 17.4502 13.5714 17.4518 13.5714 17.4535C13.5714 17.4551 13.5714 17.4567 13.5714 17.4584C13.5714 17.46 13.5714 17.4617 13.5714 17.4633C13.5714 17.465 13.5714 17.4666 13.5714 17.4683C13.5714 17.4699 13.5714 17.4716 13.5714 17.4732C13.5714 17.4749 13.5714 17.4765 13.5714 17.4781C13.5714 17.4798 13.5714 17.4814 13.5714 17.4831C13.5714 17.4847 13.5714 17.4864 13.5714 17.488C13.5714 17.4897 13.5714 17.4913 13.5714 17.493C13.5714 17.4946 13.5714 17.4963 13.5714 17.4979C13.5714 17.4996 13.5714 17.5012 13.5714 17.5029C13.5714 17.5045 13.5714 17.5062 13.5714 17.5078C13.5714 17.5095 13.5714 17.5112 13.5714 17.5128C13.5714 17.5145 13.5714 17.5161 13.5714 17.5178C13.5714 17.5194 13.5714 17.5211 13.5714 17.5227C13.5714 17.5244 13.5714 17.526 13.5714 17.5277C13.5714 17.5293 13.5714 17.531 13.5714 17.5326C13.5714 17.5343 13.5714 17.536 13.5714 17.5376C13.5714 17.5393 13.5714 17.5409 13.5714 17.5426C13.5714 17.5442 13.5714 17.5459 13.5714 17.5476C13.5714 17.5492 13.5714 17.5509 13.5714 17.5525C13.5714 17.5542 13.5714 17.5558 13.5714 17.5575C13.5714 17.5592 13.5714 17.5608 13.5714 17.5625C13.5714 17.5641 13.5714 17.5658 13.5714 17.5674C13.5714 17.5691 13.5714 17.5708 13.5714 17.5724C13.5714 17.5741 13.5714 17.5758 13.5714 17.5774C13.5714 17.5791 13.5714 17.5807 13.5714 17.5824C13.5714 17.5841 13.5714 17.5857 13.5714 17.5874C13.5714 17.589 13.5714 17.5907 13.5714 17.5924C13.5714 17.594 13.5714 17.5957 13.5714 17.5974C13.5714 17.599 13.5714 17.6007 13.5714 17.6023C13.5714 17.604 13.5714 17.6057 13.5714 17.6073C13.5714 17.609 13.5714 17.6107 13.5714 17.6123C13.5714 17.614 13.5714 17.6157 13.5714 17.6173C13.5714 17.619 13.5714 17.6207 13.5714 17.6223C13.5714 17.624 13.5714 17.6257 13.5714 17.6273C13.5714 17.629 13.5714 17.6307 13.5714 17.6323C13.5714 17.634 13.5714 17.6357 13.5714 17.6373C13.5714 17.639 13.5714 17.6407 13.5714 17.6423C13.5714 17.644 13.5714 17.6457 13.5714 17.6473C13.5714 17.649 13.5714 17.6507 13.5714 17.6523C13.5714 17.654 13.5714 17.6557 13.5714 17.6574C13.5714 17.659 13.5714 17.6607 13.5714 17.6624C13.5714 17.664 13.5714 17.6657 13.5714 17.6674C13.5714 17.6691 13.5714 17.6707 13.5714 17.6724C13.5714 17.6741 13.5714 17.6757 13.5714 17.6774C13.5714 17.6791 13.5714 17.6808 13.5714 17.6824C13.5714 17.6841 13.5714 17.6858 13.5714 17.6875C13.5714 17.6891 13.5714 17.6908 13.5714 17.6925C13.5714 17.6942 13.5714 17.6958 13.5714 17.6975C13.5714 17.6992 13.5714 17.7009 13.5714 17.7025C13.5714 17.7042 13.5714 17.7059 13.5714 17.7076C13.5714 17.7092 13.5714 17.7109 13.5714 17.7126C13.5714 17.7143 13.5714 17.716 13.5714 17.7176C13.5714 17.7193 13.5714 17.721 13.5714 17.7227C13.5714 17.7243 13.5714 17.726 13.5714 17.7277C13.5714 17.7294 13.5714 17.7311 13.5714 17.7327C13.5714 17.7344 13.5714 17.7361 13.5714 17.7378C13.5714 17.7395 13.5714 17.7411 13.5714 17.7428C13.5714 17.7445 13.5714 17.7462 13.5714 17.7479C13.5714 17.7495 13.5714 17.7512 13.5714 17.7529C13.5714 17.7546 13.5714 17.7563 13.5714 17.758C13.5714 17.7596 13.5714 17.7613 13.5714 17.763C13.5714 17.7647 13.5714 17.7664 13.5714 17.7681C13.5714 17.7697 13.5714 17.7714 13.5714 17.7731C13.5714 17.7748 13.5714 17.7765 13.5714 17.7782C13.5714 17.7799 13.5714 17.7815 13.5714 17.7832C13.5714 17.7849 13.5714 17.7866 13.5714 17.7883C13.5714 17.79 13.5714 17.7917 13.5714 17.7933C13.5714 17.795 13.5714 17.7967 13.5714 17.7984C13.5714 17.8001 13.5714 17.8018 13.5714 17.8035C13.5714 17.8052 13.5714 17.8068 13.5714 17.8085C13.5714 17.8102 13.5714 17.8119 13.5714 17.8136C13.5714 17.8153 13.5714 17.817 13.5714 17.8187C13.5714 17.8204 13.5714 17.822 13.5714 17.8237C13.5714 17.8254 13.5714 17.8271 13.5714 17.8288C13.5714 17.8305 13.5714 17.8322 13.5714 17.8339C13.5714 17.8356 13.5714 17.8373 13.5714 17.839C13.5714 17.8407 13.5714 17.8423 13.5714 17.844C13.5714 17.8457 13.5714 17.8474 13.5714 17.8491C13.5714 17.8508 13.5714 17.8525 13.5714 17.8542C13.5714 17.8559 13.5714 17.8576 13.5714 17.8593C13.5714 17.861 13.5714 17.8627 13.5714 17.8644C13.5714 17.8661 13.5714 17.8678 13.5714 17.8695C13.5714 17.8711 13.5714 17.8728 13.5714 17.8745C13.5714 17.8762 13.5714 17.8779 13.5714 17.8796C13.5714 17.8813 13.5714 17.883 13.5714 17.8847C13.5714 17.8864 13.5714 17.8881 13.5714 17.8898C13.5714 17.8915 13.5714 17.8932 13.5714 17.8949C13.5714 17.8966 13.5714 17.8983 13.5714 17.9C13.5714 17.9017 13.5714 17.9034 13.5714 17.9051C13.5714 17.9068 13.5714 17.9085 13.5714 17.9102C13.5714 17.9119 13.5714 17.9136 13.5714 17.9153C13.5714 17.917 13.5714 17.9187 13.5714 17.9204C13.5714 17.9221 13.5714 17.9238 13.5714 17.9255C13.5714 17.9272 13.5714 17.9289 13.5714 17.9306C13.5714 17.9323 13.5714 17.934 13.5714 17.9357C13.5714 17.9374 13.5714 17.9391 13.5714 17.9409C13.5714 17.9426 13.5714 17.9443 13.5714 17.946C13.5714 17.9477 13.5714 17.9494 13.5714 17.9511C13.5714 17.9528 13.5714 17.9545 13.5714 17.9562C13.5714 17.9579 13.5714 17.9596 13.5714 17.9613C13.5714 17.963 13.5714 17.9647 13.5714 17.9664C13.5714 17.9681 13.5714 17.9698 13.5714 17.9716C13.5714 17.9733 13.5714 17.975 13.5714 17.9767C13.5714 17.9784 13.5714 17.9801 13.5714 17.9818C13.5714 17.9835 13.5714 17.9852 13.5714 17.9869C13.5714 17.9886 13.5714 17.9904 13.5714 17.9921C13.5714 17.9938 13.5714 17.9955 13.5714 17.9972C13.5714 17.9989 13.5714 18.0006 13.5714 18.0023C13.5714 18.004 13.5714 18.0057 13.5714 18.0075C13.5714 18.0092 13.5714 18.0109 13.5714 18.0126C13.5714 18.0143 13.5714 18.016 13.5714 18.0177C13.5714 18.0194 13.5714 18.0212 13.5714 18.0229C13.5714 18.0246 13.5714 18.0263 13.5714 18.028C13.5714 18.0297 13.5714 18.0314 13.5714 18.0332C13.5714 18.0349 13.5714 18.0366 13.5714 18.0383C13.5714 18.04 13.5714 18.0417 13.5714 18.0434C13.5714 18.0452 13.5714 18.0469 13.5714 18.0486C13.5714 18.0503 13.5714 18.052 13.5714 18.0537C13.5714 18.0555 13.5714 18.0572 13.5714 18.0589C13.5714 18.0606 13.5714 18.0623 13.5714 18.064C13.5714 18.0658 13.5714 18.0675 13.5714 18.0692C13.5714 18.0709 13.5714 18.0726 13.5714 18.0744C13.5714 18.0761 13.5714 18.0778 13.5714 18.0795C13.5714 18.0812 13.5714 18.083 13.5714 18.0847C13.5714 18.0864 13.5714 18.0881 13.5714 18.0898C13.5714 18.0916 13.5714 18.0933 13.5714 18.095C13.5714 18.0967 13.5714 18.0984 13.5714 18.1002C13.5714 18.1019 13.5714 18.1036 13.5714 18.1053C13.5714 18.107 13.5714 18.1088 13.5714 18.1105C13.5714 18.1122 13.5714 18.1139 13.5714 18.1157C13.5714 18.1174 13.5714 18.1191 13.5714 18.1208C13.5714 18.1226 13.5714 18.1243 13.5714 18.126C13.5714 18.1277 13.5714 18.1295 13.5714 18.1312C13.5714 18.1329 13.5714 18.1346 13.5714 18.1364C13.5714 18.1381 13.5714 18.1398 13.5714 18.1415C13.5714 18.1433 13.5714 18.145 13.5714 18.1467C13.5714 18.1484 13.5714 18.1502 13.5714 18.1519C13.5714 18.1536 13.5714 18.1554 13.5714 18.1571C13.5714 18.1588 13.5714 18.1605 13.5714 18.1623C13.5714 18.164 13.5714 18.1657 13.5714 18.1675C13.5714 18.1692 13.5714 18.1709 13.5714 18.1726C13.5714 18.1744 13.5714 18.1761 13.5714 18.1778C13.5714 18.1796 13.5714 18.1813 13.5714 18.183C13.5714 18.1848 13.5714 18.1865 13.5714 18.1882C13.5714 18.1899 13.5714 18.1917 13.5714 18.1934C13.5714 18.1951 13.5714 18.1969 13.5714 18.1986C13.5714 18.2003 13.5714 18.2021 13.5714 18.2038C13.5714 18.2055 13.5714 18.2073 13.5714 18.209C13.5714 18.2107 13.5714 18.2125 13.5714 18.2142C13.5714 18.2159 13.5714 18.2177 13.5714 18.2194C13.5714 18.2211 13.5714 18.2229 13.5714 18.2246C13.5714 18.2263 13.5714 18.2281 13.5714 18.2298C13.5714 18.2316 13.5714 18.2333 13.5714 18.235C13.5714 18.2368 13.5714 18.2385 13.5714 18.2402C13.5714 18.242 13.5714 18.2437 13.5714 18.2454C13.5714 18.2472 13.5714 18.2489 13.5714 18.2507C13.5714 18.2524 13.5714 18.2541 13.5714 18.2559C13.5714 18.2576 13.5714 18.2594 13.5714 18.2611C13.5714 18.2628 13.5714 18.2646 13.5714 18.2663C13.5714 18.268 13.5714 18.2698 13.5714 18.2715C13.5714 18.2733 13.5714 18.275 13.5714 18.2767C13.5714 18.2785 13.5714 18.2802 13.5714 18.282C13.5714 18.2837 13.5714 18.2855 13.5714 18.2872C13.5714 18.2889 13.5714 18.2907 13.5714 18.2924C13.5714 18.2942 13.5714 18.2959 13.5714 18.2976C13.5714 18.2994 13.5714 18.3011 13.5714 18.3029C13.5714 18.3046 13.5714 18.3064 13.5714 18.3081C13.5714 18.3099 13.5714 18.3116 13.5714 18.3133C13.5714 18.3151 13.5714 18.3168 13.5714 18.3186C13.5714 18.3203 13.5714 18.3221 13.5714 18.3238C13.5714 18.3256 13.5714 18.3273 13.5714 18.329C13.5714 18.3308 13.5714 18.3325 13.5714 18.3343C13.5714 18.336 13.5714 18.3378 13.5714 18.3395C13.5714 18.3413 13.5714 18.343 13.5714 18.3448C13.5714 18.3465 13.5714 18.3483 13.5714 18.35C13.5714 18.3518 13.5714 18.3535 13.5714 18.3553C13.5714 18.357 13.5714 18.3588 13.5714 18.3605C13.5714 18.3623 13.5714 18.364 13.5714 18.3658C13.5714 18.3675 13.5714 18.3693 13.5714 18.371C13.5714 18.3728 13.5714 18.3745 13.5714 18.3763C13.5714 18.378 13.5714 18.3798 13.5714 18.3815C13.5714 18.3833 13.5714 18.385 13.5714 18.3868C13.5714 18.3885 13.5714 18.3903 13.5714 18.392C13.5714 18.3938 13.5714 18.3955 13.5714 18.3973C13.5714 18.399 13.5714 18.4008 13.5714 18.4025C13.5714 18.4043 13.5714 18.406 13.5714 18.4078C13.5714 18.4096 13.5714 18.4113 13.5714 18.4131C13.5714 18.4148 13.5714 18.4166 13.5714 18.4183C13.5714 18.4201 13.5714 18.4218 13.5714 18.4236C13.5714 18.4253 13.5714 18.4271 13.5714 18.4289C13.5714 18.4306 13.5714 18.4324 13.5714 18.4341C13.5714 18.4359 13.5714 18.4376 13.5714 18.4394C13.5714 18.4412 13.5714 18.4429 13.5714 18.4447C13.5714 18.4464 13.5714 18.4482 13.5714 18.4499C13.5714 18.4517 13.5714 18.4535 13.5714 18.4552C13.5714 18.457 13.5714 18.4587 13.5714 18.4605C13.5714 18.4623 13.5714 18.464 13.5714 18.4658C13.5714 18.4675 13.5714 18.4693 13.5714 18.4711C13.5714 18.4728 13.5714 18.4746 13.5714 18.4763C13.5714 18.4781 13.5714 18.4799 13.5714 18.4816C13.5714 18.4834 13.5714 18.4851 13.5714 18.4869C13.5714 18.4887 13.5714 18.4904 13.5714 18.4922C13.5714 18.494 13.5714 18.4957 13.5714 18.4975C13.5714 18.4992 13.5714 18.501 13.5714 18.5028C13.5714 18.5045 13.5714 18.5063 13.5714 18.5081C13.5714 18.5098 13.5714 18.5116 13.5714 18.5134C13.5714 18.5151 13.5714 18.5169 13.5714 18.5187C13.5714 18.5204 13.5714 18.5222 13.5714 18.5239C13.5714 18.5257 13.5714 18.5275 13.5714 18.5292C13.5714 18.531 13.5714 18.5328 13.5714 18.5345C13.5714 18.5363 13.5714 18.5381 13.5714 18.5398C13.5714 18.5416 13.5714 18.5434 13.5714 18.5451C13.5714 18.5469 13.5714 18.5487 13.5714 18.5504C13.5714 18.5522 13.5714 18.554 13.5714 18.5558C13.5714 18.5575 13.5714 18.5593 13.5714 18.5611C13.5714 18.5628 13.5714 18.5646 13.5714 18.5664C13.5714 18.5681 13.5714 18.5699 13.5714 18.5717C13.5714 18.5734 13.5714 18.5752 13.5714 18.577C13.5714 18.5788 13.5714 18.5805 13.5714 18.5823C13.5714 18.5841 13.5714 18.5858 13.5714 18.5876C13.5714 18.5894 13.5714 18.5912 13.5714 18.5929C13.5714 18.5947 13.5714 18.5965 13.5714 18.5982C13.5714 18.6 13.5714 18.6018 13.5714 18.6036C13.5714 18.6053 13.5714 18.6071 13.5714 18.6089C13.5714 18.6107 13.5714 18.6124 13.5714 18.6142C13.5714 18.616 13.5714 18.6178 13.5714 18.6195C13.5714 18.6213 13.5714 18.6231 13.5714 18.6249C13.5714 18.6266 13.5714 18.6284 13.5714 18.6302C13.5714 18.632 13.5714 18.6337 13.5714 18.6355C13.5714 18.6373 13.5714 18.6391 13.5714 18.6408C13.5714 18.6426 13.5714 18.6444 13.5714 18.6462C13.5714 18.6479 13.5714 18.6497 13.5714 18.6515C13.5714 18.6533 13.5714 18.6551 13.5714 18.6568C13.5714 18.6586 13.5714 18.6604 13.5714 18.6622C13.5714 18.664 13.5714 18.6657 13.5714 18.6675C13.5714 18.6693 13.5714 18.6711 13.5714 18.6728C13.5714 18.6746 13.5714 18.6764 13.5714 18.6782C13.5714 18.68 13.5714 18.6817 13.5714 18.6835C13.5714 18.6853 13.5714 18.6871 13.5714 18.6889C13.5714 18.6907 13.5714 18.6924 13.5714 18.6942C13.5714 18.696 13.5714 18.6978 13.5714 18.6996C13.5714 18.7013 13.5714 18.7031 13.5714 18.7049C13.5714 18.7067 13.5714 18.7085 13.5714 18.7103C13.5714 18.712 13.5714 18.7138 13.5714 18.7156C13.5714 18.7174 13.5714 18.7192 13.5714 18.721C13.5714 18.7227 13.5714 18.7245 13.5714 18.7263C13.5714 18.7281 13.5714 18.7299 13.5714 18.7317C13.5714 18.7335 13.5714 18.7352 13.5714 18.737C13.5714 18.7388 13.5714 18.7406 13.5714 18.7424C13.5714 18.7442 13.5714 18.746 13.5714 18.7477C13.5714 18.7495 13.5714 18.7513 13.5714 18.7531C13.5714 18.7549 13.5714 18.7567 13.5714 18.7585C13.5714 18.7603 13.5714 18.762 13.5714 18.7638C13.5714 18.7656 13.5714 18.7674 13.5714 18.7692C13.5714 18.771 13.5714 18.7728 13.5714 18.7746C13.5714 18.7764 13.5714 18.7781 13.5714 18.7799C13.5714 18.7817 13.5714 18.7835 13.5714 18.7853C13.5714 18.7871 13.5714 18.7889 13.5714 18.7907C13.5714 18.7925 13.5714 18.7943 13.5714 18.796C13.5714 18.7978 13.5714 18.7996 13.5714 18.8014C13.5714 18.8032 13.5714 18.805 13.5714 18.8068C13.5714 18.8086 13.5714 18.8104 13.5714 18.8122C13.5714 18.814 13.5714 18.8158 13.5714 18.8175C13.5714 18.8193 13.5714 18.8211 13.5714 18.8229C13.5714 18.8247 13.5714 18.8265 13.5714 18.8283C13.5714 18.8301 13.5714 18.8319 13.5714 18.8337C13.5714 18.8355 13.5714 18.8373 13.5714 18.8391C13.5714 18.8409 13.5714 18.8427 13.5714 18.8445C13.5714 18.8463 13.5714 18.848 13.5714 18.8498C13.5714 18.8516 13.5714 18.8534 13.5714 18.8552C13.5714 18.857 13.5714 18.8588 13.5714 18.8606C13.5714 18.8624 13.5714 18.8642 13.5714 18.866C13.5714 18.8678 13.5714 18.8696 13.5714 18.8714C13.5714 18.8732 13.5714 18.875 13.5714 18.8768C13.5714 18.8786 13.5714 18.8804 13.5714 18.8822C13.5714 18.884 13.5714 18.8858 13.5714 18.8876C13.5714 18.8894 13.5714 18.8912 13.5714 18.893C13.5714 18.8948 13.5714 18.8966 13.5714 18.8984C13.5714 18.9002 13.5714 18.902 13.5714 18.9038C13.5714 18.9056 13.5714 18.9074 13.5714 18.9092C13.5714 18.911 13.5714 18.9128 13.5714 18.9146C13.5714 18.9164 13.5714 18.9182 13.5714 18.92C13.5714 18.9218 13.5714 18.9236 13.5714 18.9254C13.5714 18.9272 13.5714 18.929 13.5714 18.9308C13.5714 18.9326 13.5714 18.9344 13.5714 18.9362C13.5714 18.938 13.5714 18.9398 13.5714 18.9416C13.5714 18.9434 13.5714 18.9452 13.5714 18.9471C13.5714 18.9489 13.5714 18.9507 13.5714 18.9525C13.5714 18.9543 13.5714 18.9561 13.5714 18.9579C13.5714 18.9597 13.5714 18.9615 13.5714 18.9633C13.5714 18.9651 13.5714 18.9669 13.5714 18.9687C13.5714 18.9705 13.5714 18.9723 13.5714 18.9741C13.5714 18.9759 13.5714 18.9777 13.5714 18.9796C13.5714 18.9814 13.5714 18.9832 13.5714 18.985C13.5714 18.9868 13.5714 18.9886 13.5714 18.9904C13.5714 18.9922 13.5714 18.994 13.5714 18.9958C13.5714 18.9976 13.5714 18.9994 13.5714 19.0013C13.5714 19.0031 13.5714 19.0049 13.5714 19.0067C13.5714 19.0085 13.5714 19.0103 13.5714 19.0121C13.5714 19.0139 13.5714 19.0157 13.5714 19.0175C13.5714 19.0194 13.5714 19.0212 13.5714 19.023C13.5714 19.0248 13.5714 19.0266 13.5714 19.0284C13.5714 19.0302 13.5714 19.032 13.5714 19.0338C13.5714 19.0357 13.5714 19.0375 13.5714 19.0393C13.5714 19.0411 13.5714 19.0429 13.5714 19.0447C13.5714 19.0465 13.5714 19.0483 13.5714 19.0502C13.5714 19.052 13.5714 19.0538 13.5714 19.0556C13.5714 19.0574 13.5714 19.0592 13.5714 19.061C13.5714 19.0629 13.5714 19.0647 13.5714 19.0665C13.5714 19.0683 13.5714 19.0701 13.5714 19.0719C13.5714 19.0737 13.5714 19.0756 13.5714 19.0774C13.5714 19.0792 13.5714 19.081 13.5714 19.0828C13.5714 19.0846 13.5714 19.0864 13.5714 19.0883C13.5714 19.0901 13.5714 19.0919 13.5714 19.0937C13.5714 19.0955 13.5714 19.0973 13.5714 19.0992C13.5714 19.101 13.5714 19.1028 13.5714 19.1046C13.5714 19.1064 13.5714 19.1083 13.5714 19.1101C13.5714 19.1119 13.5714 19.1137 13.5714 19.1155C13.5714 19.1173 13.5714 19.1192 13.5714 19.121C13.5714 19.1228 13.5714 19.1246 13.5714 19.1264C13.5714 19.1283 13.5714 19.1301 13.5714 19.1319C13.5714 19.1337 13.5714 19.1355 13.5714 19.1374C13.5714 19.1392 13.5714 19.141 13.5714 19.1428C13.5714 19.1446 13.5714 19.1465 13.5714 19.1483C13.5714 19.1501 13.5714 19.1519 13.5714 19.1538C13.5714 19.1556 13.5714 19.1574 13.5714 19.1592C13.5714 19.161 13.5714 19.1629 13.5714 19.1647C13.5714 19.1665 13.5714 19.1683 13.5714 19.1702C13.5714 19.172 13.5714 19.1738 13.5714 19.1756C13.5714 19.1774 13.5714 19.1793 13.5714 19.1811C13.5714 19.1829 13.5714 19.1847 13.5714 19.1866C13.5714 19.1884 13.5714 19.1902 13.5714 19.192C13.5714 19.1939 13.5714 19.1957 13.5714 19.1975C13.5714 19.1993 13.5714 19.2012 13.5714 19.203C13.5714 19.2048 13.5714 19.2066 13.5714 19.2085C13.5714 19.2103 13.5714 19.2121 13.5714 19.214C13.5714 19.2158 13.5714 19.2176 13.5714 19.2194C13.5714 19.2213 13.5714 19.2231 13.5714 19.2249C13.5714 19.2267 13.5714 19.2286 13.5714 19.2304C13.5714 19.2322 13.5714 19.2341 13.5714 19.2359C13.5714 19.2377 13.5714 19.2395 13.5714 19.2414C13.5714 19.2432 13.5714 19.245 13.5714 19.2469C13.5714 19.2487 13.5714 19.2505 13.5714 19.2523C13.5714 19.2542 13.5714 19.256 13.5714 19.2578C13.5714 19.2597 13.5714 19.2615 13.5714 19.2633C13.5714 19.2652 13.5714 19.267 13.5714 19.2688C13.5714 19.2706 13.5714 19.2725 13.5714 19.2743C13.5714 19.2761 13.5714 19.278 13.5714 19.2798C13.5714 19.2816 13.5714 19.2835 13.5714 19.2853C13.5714 19.2871 13.5714 19.289 13.5714 19.2908C13.5714 19.2926 13.5714 19.2945 13.5714 19.2963C13.5714 19.2981 13.5714 19.3 13.5714 19.3018C13.5714 19.3036 13.5714 19.3055 13.5714 19.3073C13.5714 19.3091 13.5714 19.311 13.5714 19.3128C13.5714 19.3146 13.5714 19.3165 13.5714 19.3183C13.5714 19.3201 13.5714 19.322 13.5714 19.3238C13.5714 19.3256 13.5714 19.3275 13.5714 19.3293C13.5714 19.3312 13.5714 19.333 13.5714 19.3348C13.5714 19.3367 13.5714 19.3385 13.5714 19.3403C13.5714 19.3422 13.5714 19.344 13.5714 19.3458C13.5714 19.3477 13.5714 19.3495 13.5714 19.3514C13.5714 19.3532 13.5714 19.355 13.5714 19.3569C13.5714 19.3587 13.5714 19.3605 13.5714 19.3624C13.5714 19.3642 13.5714 19.3661 13.5714 19.3679C13.5714 19.3697 13.5714 19.3716 13.5714 19.3734C13.5714 19.3753 13.5714 19.3771 13.5714 19.3789C13.5714 19.3808 13.5714 19.3826 13.5714 19.3845C13.5714 19.3863 13.5714 19.3881 13.5714 19.39C13.5714 19.3918 13.5714 19.3937 13.5714 19.3955C13.5714 19.3973 13.5714 19.3992 13.5714 19.401C13.5714 19.4029 13.5714 19.4047 13.5714 19.4065C13.5714 19.4084 13.5714 19.4102 13.5714 19.4121C13.5714 19.4139 13.5714 19.4158 13.5714 19.4176C13.5714 19.4194 13.5714 19.4213 13.5714 19.4231C13.5714 19.425 13.5714 19.4268 13.5714 19.4287C13.5714 19.4305 13.5714 19.4323 13.5714 19.4342C13.5714 19.436 13.5714 19.4379 13.5714 19.4397C13.5714 19.4416 13.5714 19.4434 13.5714 19.4453C13.5714 19.4471 13.5714 19.4489 13.5714 19.4508C13.5714 19.4526 13.5714 19.4545 13.5714 19.4563C13.5714 19.4582 13.5714 19.46 13.5714 19.4619C13.5714 19.4637 13.5714 19.4656 13.5714 19.4674C13.5714 19.4692 13.5714 19.4711 13.5714 19.4729C13.5714 19.4748 13.5714 19.4766 13.5714 19.4785C13.5714 19.4803 13.5714 19.4822 13.5714 19.484C13.5714 19.4859 13.5714 19.4877 13.5714 19.4896C13.5714 19.4914 13.5714 19.4933 13.5714 19.4951C13.5714 19.497 13.5714 19.4988 13.5714 19.5007C13.5714 19.5025 13.5714 19.5044 13.5714 19.5062C13.5714 19.508 13.5714 19.5099 13.5714 19.5117C13.5714 19.5136 13.5714 19.5154 13.5714 19.5173C13.5714 19.5191 13.5714 19.521 13.5714 19.5228C13.5714 19.5247 13.5714 19.5265 13.5714 19.5284C13.5714 19.5303 13.5714 19.5321 13.5714 19.534C13.5714 19.5358 13.5714 19.5377 13.5714 19.5395C13.5714 19.5414 13.5714 19.5432 13.5714 19.5451C13.5714 19.5469 13.5714 19.5488 13.5714 19.5506C13.5714 19.5525 13.5714 19.5543 13.5714 19.5562C13.5714 19.558 13.5714 19.5599 13.5714 19.5617C13.5714 19.5636 13.5714 19.5654 13.5714 19.5673C13.5714 19.5691 13.5714 19.571 13.5714 19.5729C13.5714 19.5747 13.5714 19.5766 13.5714 19.5784C13.5714 19.5803 13.5714 19.5821 13.5714 19.584C13.5714 19.5858 13.5714 19.5877 13.5714 19.5895C13.5714 19.5914 13.5714 19.5933 13.5714 19.5951C13.5714 19.597 13.5714 19.5988 13.5714 19.6007C13.5714 19.6025 13.5714 19.6044 13.5714 19.6063C13.5714 19.6081 13.5714 19.61 13.5714 19.6118C13.5714 19.6137 13.5714 19.6155 13.5714 19.6174C13.5714 19.6192 13.5714 19.6211 13.5714 19.623C13.5714 19.6248 13.5714 19.6267 13.5714 19.6285C13.5714 19.6304 13.5714 19.6323 13.5714 19.6341C13.5714 19.636 13.5714 19.6378 13.5714 19.6397C13.5714 19.6415 13.5714 19.6434 13.5714 19.6453C13.5714 19.6471 13.5714 19.649 13.5714 19.6508C13.5714 19.6527 13.5714 19.6546 13.5714 19.6564C13.5714 19.6583 13.5714 19.6601 13.5714 19.662C13.5714 19.6639 13.5714 19.6657 13.5714 19.6676C13.5714 19.6694 13.5714 19.6713 13.5714 19.6732C13.5714 19.675 13.5714 19.6769 13.5714 19.6788C13.5714 19.6806 13.5714 19.6825 13.5714 19.6843C13.5714 19.6862 13.5714 19.6881 13.5714 19.6899C13.5714 19.6918 13.5714 19.6936 13.5714 19.6955C13.5714 19.6974 13.5714 19.6992 13.5714 19.7011C13.5714 19.703 13.5714 19.7048 13.5714 19.7067C13.5714 19.7086 13.5714 19.7104 13.5714 19.7123C13.5714 19.7141 13.5714 19.716 13.5714 19.7179C13.5714 19.7197 13.5714 19.7216 13.5714 19.7235C13.5714 19.7253 13.5714 19.7272 13.5714 19.7291C13.5714 19.7309 13.5714 19.7328 13.5714 19.7347C13.5714 19.7365 13.5714 19.7384 13.5714 19.7403C13.5714 19.7421 13.5714 19.744 13.5714 19.7458C13.5714 19.7477 13.5714 19.7496 13.5714 19.7514C13.5714 19.7533 13.5714 19.7552 13.5714 19.757C13.5714 19.7589 13.5714 19.7608 13.5714 19.7626C13.5714 19.7645 13.5714 19.7664 13.5714 19.7683C13.5714 19.7701 13.5714 19.772 13.5714 19.7739C13.5714 19.7757 13.5714 19.7776 13.5714 19.7795C13.5714 19.7813 13.5714 19.7832 13.5714 19.7851C13.5714 19.7869 13.5714 19.7888 13.5714 19.7907C13.5714 19.7925 13.5714 19.7944 13.5714 19.7963C13.5714 19.7982 13.5714 19.8 13.5714 19.8019C13.5714 19.8038 13.5714 19.8056 13.5714 19.8075C13.5714 19.8094 13.5714 19.8112 13.5714 19.8131C13.5714 19.815 13.5714 19.8169 13.5714 19.8187C13.5714 19.8206 13.5714 19.8225 13.5714 19.8243C13.5714 19.8262 13.5714 19.8281 13.5714 19.83C13.5714 19.8318 13.5714 19.8337 13.5714 19.8356C13.5714 19.8374 13.5714 19.8393 13.5714 19.8412C13.5714 19.8431 13.5714 19.8449 13.5714 19.8468C13.5714 19.8487 13.5714 19.8506 13.5714 19.8524C13.5714 19.8543 13.5714 19.8562 13.5714 19.858C13.5714 19.8599 13.5714 19.8618 13.5714 19.8637C13.5714 19.8655 13.5714 19.8674 13.5714 19.8693C13.5714 19.8712 13.5714 19.873 13.5714 19.8749C13.5714 19.8768 13.5714 19.8787 13.5714 19.8805C13.5714 19.8824 13.5714 19.8843 13.5714 19.8862C13.5714 19.888 13.5714 19.8899 13.5714 19.8918C13.5714 19.8937 13.5714 19.8955 13.5714 19.8974C13.5714 19.8993 13.5714 19.9012 13.5714 19.9031C13.5714 19.9049 13.5714 19.9068 13.5714 19.9087C13.5714 19.9106 13.5714 19.9124 13.5714 19.9143C13.5714 19.9162 13.5714 19.9181 13.5714 19.9199C13.5714 19.9218 13.5714 19.9237 13.5714 19.9256C13.5714 19.9275 13.5714 19.9293 13.5714 19.9312C13.5714 19.9331 13.5714 19.935 13.5714 19.9369C13.5714 19.9387 13.5714 19.9406 13.5714 19.9425C13.5714 19.9444 13.5714 19.9462 13.5714 19.9481C13.5714 19.95 13.5714 19.9519 13.5714 19.9538C13.5714 19.9556 13.5714 19.9575 13.5714 19.9594C13.5714 19.9613 13.5714 19.9632 13.5714 19.965C13.5714 19.9669 13.5714 19.9688 13.5714 19.9707C13.5714 19.9726 13.5714 19.9745 13.5714 19.9763C13.5714 19.9782 13.5714 19.9801 13.5714 19.982C13.5714 19.9839 13.5714 19.9857 13.5714 19.9876H15.5714C15.5714 19.9857 15.5714 19.9839 15.5714 19.982C15.5714 19.9801 15.5714 19.9782 15.5714 19.9763C15.5714 19.9745 15.5714 19.9726 15.5714 19.9707C15.5714 19.9688 15.5714 19.9669 15.5714 19.965C15.5714 19.9632 15.5714 19.9613 15.5714 19.9594C15.5714 19.9575 15.5714 19.9556 15.5714 19.9538C15.5714 19.9519 15.5714 19.95 15.5714 19.9481C15.5714 19.9462 15.5714 19.9444 15.5714 19.9425C15.5714 19.9406 15.5714 19.9387 15.5714 19.9369C15.5714 19.935 15.5714 19.9331 15.5714 19.9312C15.5714 19.9293 15.5714 19.9275 15.5714 19.9256C15.5714 19.9237 15.5714 19.9218 15.5714 19.9199C15.5714 19.9181 15.5714 19.9162 15.5714 19.9143C15.5714 19.9124 15.5714 19.9106 15.5714 19.9087C15.5714 19.9068 15.5714 19.9049 15.5714 19.9031C15.5714 19.9012 15.5714 19.8993 15.5714 19.8974C15.5714 19.8955 15.5714 19.8937 15.5714 19.8918C15.5714 19.8899 15.5714 19.888 15.5714 19.8862C15.5714 19.8843 15.5714 19.8824 15.5714 19.8805C15.5714 19.8787 15.5714 19.8768 15.5714 19.8749C15.5714 19.873 15.5714 19.8712 15.5714 19.8693C15.5714 19.8674 15.5714 19.8655 15.5714 19.8637C15.5714 19.8618 15.5714 19.8599 15.5714 19.858C15.5714 19.8562 15.5714 19.8543 15.5714 19.8524C15.5714 19.8506 15.5714 19.8487 15.5714 19.8468C15.5714 19.8449 15.5714 19.8431 15.5714 19.8412C15.5714 19.8393 15.5714 19.8374 15.5714 19.8356C15.5714 19.8337 15.5714 19.8318 15.5714 19.83C15.5714 19.8281 15.5714 19.8262 15.5714 19.8243C15.5714 19.8225 15.5714 19.8206 15.5714 19.8187C15.5714 19.8169 15.5714 19.815 15.5714 19.8131C15.5714 19.8112 15.5714 19.8094 15.5714 19.8075C15.5714 19.8056 15.5714 19.8038 15.5714 19.8019C15.5714 19.8 15.5714 19.7982 15.5714 19.7963C15.5714 19.7944 15.5714 19.7925 15.5714 19.7907C15.5714 19.7888 15.5714 19.7869 15.5714 19.7851C15.5714 19.7832 15.5714 19.7813 15.5714 19.7795C15.5714 19.7776 15.5714 19.7757 15.5714 19.7739C15.5714 19.772 15.5714 19.7701 15.5714 19.7683C15.5714 19.7664 15.5714 19.7645 15.5714 19.7626C15.5714 19.7608 15.5714 19.7589 15.5714 19.757C15.5714 19.7552 15.5714 19.7533 15.5714 19.7514C15.5714 19.7496 15.5714 19.7477 15.5714 19.7458C15.5714 19.744 15.5714 19.7421 15.5714 19.7403C15.5714 19.7384 15.5714 19.7365 15.5714 19.7347C15.5714 19.7328 15.5714 19.7309 15.5714 19.7291C15.5714 19.7272 15.5714 19.7253 15.5714 19.7235C15.5714 19.7216 15.5714 19.7197 15.5714 19.7179C15.5714 19.716 15.5714 19.7141 15.5714 19.7123C15.5714 19.7104 15.5714 19.7086 15.5714 19.7067C15.5714 19.7048 15.5714 19.703 15.5714 19.7011C15.5714 19.6992 15.5714 19.6974 15.5714 19.6955C15.5714 19.6936 15.5714 19.6918 15.5714 19.6899C15.5714 19.6881 15.5714 19.6862 15.5714 19.6843C15.5714 19.6825 15.5714 19.6806 15.5714 19.6788C15.5714 19.6769 15.5714 19.675 15.5714 19.6732C15.5714 19.6713 15.5714 19.6694 15.5714 19.6676C15.5714 19.6657 15.5714 19.6639 15.5714 19.662C15.5714 19.6601 15.5714 19.6583 15.5714 19.6564C15.5714 19.6546 15.5714 19.6527 15.5714 19.6508C15.5714 19.649 15.5714 19.6471 15.5714 19.6453C15.5714 19.6434 15.5714 19.6415 15.5714 19.6397C15.5714 19.6378 15.5714 19.636 15.5714 19.6341C15.5714 19.6323 15.5714 19.6304 15.5714 19.6285C15.5714 19.6267 15.5714 19.6248 15.5714 19.623C15.5714 19.6211 15.5714 19.6192 15.5714 19.6174C15.5714 19.6155 15.5714 19.6137 15.5714 19.6118C15.5714 19.61 15.5714 19.6081 15.5714 19.6063C15.5714 19.6044 15.5714 19.6025 15.5714 19.6007C15.5714 19.5988 15.5714 19.597 15.5714 19.5951C15.5714 19.5933 15.5714 19.5914 15.5714 19.5895C15.5714 19.5877 15.5714 19.5858 15.5714 19.584C15.5714 19.5821 15.5714 19.5803 15.5714 19.5784C15.5714 19.5766 15.5714 19.5747 15.5714 19.5729C15.5714 19.571 15.5714 19.5691 15.5714 19.5673C15.5714 19.5654 15.5714 19.5636 15.5714 19.5617C15.5714 19.5599 15.5714 19.558 15.5714 19.5562C15.5714 19.5543 15.5714 19.5525 15.5714 19.5506C15.5714 19.5488 15.5714 19.5469 15.5714 19.5451C15.5714 19.5432 15.5714 19.5414 15.5714 19.5395C15.5714 19.5377 15.5714 19.5358 15.5714 19.534C15.5714 19.5321 15.5714 19.5303 15.5714 19.5284C15.5714 19.5265 15.5714 19.5247 15.5714 19.5228C15.5714 19.521 15.5714 19.5191 15.5714 19.5173C15.5714 19.5154 15.5714 19.5136 15.5714 19.5117C15.5714 19.5099 15.5714 19.508 15.5714 19.5062C15.5714 19.5044 15.5714 19.5025 15.5714 19.5007C15.5714 19.4988 15.5714 19.497 15.5714 19.4951C15.5714 19.4933 15.5714 19.4914 15.5714 19.4896C15.5714 19.4877 15.5714 19.4859 15.5714 19.484C15.5714 19.4822 15.5714 19.4803 15.5714 19.4785C15.5714 19.4766 15.5714 19.4748 15.5714 19.4729C15.5714 19.4711 15.5714 19.4692 15.5714 19.4674C15.5714 19.4656 15.5714 19.4637 15.5714 19.4619C15.5714 19.46 15.5714 19.4582 15.5714 19.4563C15.5714 19.4545 15.5714 19.4526 15.5714 19.4508C15.5714 19.4489 15.5714 19.4471 15.5714 19.4453C15.5714 19.4434 15.5714 19.4416 15.5714 19.4397C15.5714 19.4379 15.5714 19.436 15.5714 19.4342C15.5714 19.4323 15.5714 19.4305 15.5714 19.4287C15.5714 19.4268 15.5714 19.425 15.5714 19.4231C15.5714 19.4213 15.5714 19.4194 15.5714 19.4176C15.5714 19.4158 15.5714 19.4139 15.5714 19.4121C15.5714 19.4102 15.5714 19.4084 15.5714 19.4065C15.5714 19.4047 15.5714 19.4029 15.5714 19.401C15.5714 19.3992 15.5714 19.3973 15.5714 19.3955C15.5714 19.3937 15.5714 19.3918 15.5714 19.39C15.5714 19.3881 15.5714 19.3863 15.5714 19.3845C15.5714 19.3826 15.5714 19.3808 15.5714 19.3789C15.5714 19.3771 15.5714 19.3753 15.5714 19.3734C15.5714 19.3716 15.5714 19.3697 15.5714 19.3679C15.5714 19.3661 15.5714 19.3642 15.5714 19.3624C15.5714 19.3605 15.5714 19.3587 15.5714 19.3569C15.5714 19.355 15.5714 19.3532 15.5714 19.3514C15.5714 19.3495 15.5714 19.3477 15.5714 19.3458C15.5714 19.344 15.5714 19.3422 15.5714 19.3403C15.5714 19.3385 15.5714 19.3367 15.5714 19.3348C15.5714 19.333 15.5714 19.3312 15.5714 19.3293C15.5714 19.3275 15.5714 19.3256 15.5714 19.3238C15.5714 19.322 15.5714 19.3201 15.5714 19.3183C15.5714 19.3165 15.5714 19.3146 15.5714 19.3128C15.5714 19.311 15.5714 19.3091 15.5714 19.3073C15.5714 19.3055 15.5714 19.3036 15.5714 19.3018C15.5714 19.3 15.5714 19.2981 15.5714 19.2963C15.5714 19.2945 15.5714 19.2926 15.5714 19.2908C15.5714 19.289 15.5714 19.2871 15.5714 19.2853C15.5714 19.2835 15.5714 19.2816 15.5714 19.2798C15.5714 19.278 15.5714 19.2761 15.5714 19.2743C15.5714 19.2725 15.5714 19.2706 15.5714 19.2688C15.5714 19.267 15.5714 19.2652 15.5714 19.2633C15.5714 19.2615 15.5714 19.2597 15.5714 19.2578C15.5714 19.256 15.5714 19.2542 15.5714 19.2523C15.5714 19.2505 15.5714 19.2487 15.5714 19.2469C15.5714 19.245 15.5714 19.2432 15.5714 19.2414C15.5714 19.2395 15.5714 19.2377 15.5714 19.2359C15.5714 19.2341 15.5714 19.2322 15.5714 19.2304C15.5714 19.2286 15.5714 19.2267 15.5714 19.2249C15.5714 19.2231 15.5714 19.2213 15.5714 19.2194C15.5714 19.2176 15.5714 19.2158 15.5714 19.214C15.5714 19.2121 15.5714 19.2103 15.5714 19.2085C15.5714 19.2066 15.5714 19.2048 15.5714 19.203C15.5714 19.2012 15.5714 19.1993 15.5714 19.1975C15.5714 19.1957 15.5714 19.1939 15.5714 19.192C15.5714 19.1902 15.5714 19.1884 15.5714 19.1866C15.5714 19.1847 15.5714 19.1829 15.5714 19.1811C15.5714 19.1793 15.5714 19.1774 15.5714 19.1756C15.5714 19.1738 15.5714 19.172 15.5714 19.1702C15.5714 19.1683 15.5714 19.1665 15.5714 19.1647C15.5714 19.1629 15.5714 19.161 15.5714 19.1592C15.5714 19.1574 15.5714 19.1556 15.5714 19.1538C15.5714 19.1519 15.5714 19.1501 15.5714 19.1483C15.5714 19.1465 15.5714 19.1446 15.5714 19.1428C15.5714 19.141 15.5714 19.1392 15.5714 19.1374C15.5714 19.1355 15.5714 19.1337 15.5714 19.1319C15.5714 19.1301 15.5714 19.1283 15.5714 19.1264C15.5714 19.1246 15.5714 19.1228 15.5714 19.121C15.5714 19.1192 15.5714 19.1173 15.5714 19.1155C15.5714 19.1137 15.5714 19.1119 15.5714 19.1101C15.5714 19.1083 15.5714 19.1064 15.5714 19.1046C15.5714 19.1028 15.5714 19.101 15.5714 19.0992C15.5714 19.0973 15.5714 19.0955 15.5714 19.0937C15.5714 19.0919 15.5714 19.0901 15.5714 19.0883C15.5714 19.0864 15.5714 19.0846 15.5714 19.0828C15.5714 19.081 15.5714 19.0792 15.5714 19.0774C15.5714 19.0756 15.5714 19.0737 15.5714 19.0719C15.5714 19.0701 15.5714 19.0683 15.5714 19.0665C15.5714 19.0647 15.5714 19.0629 15.5714 19.061C15.5714 19.0592 15.5714 19.0574 15.5714 19.0556C15.5714 19.0538 15.5714 19.052 15.5714 19.0502C15.5714 19.0483 15.5714 19.0465 15.5714 19.0447C15.5714 19.0429 15.5714 19.0411 15.5714 19.0393C15.5714 19.0375 15.5714 19.0357 15.5714 19.0338C15.5714 19.032 15.5714 19.0302 15.5714 19.0284C15.5714 19.0266 15.5714 19.0248 15.5714 19.023C15.5714 19.0212 15.5714 19.0194 15.5714 19.0175C15.5714 19.0157 15.5714 19.0139 15.5714 19.0121C15.5714 19.0103 15.5714 19.0085 15.5714 19.0067C15.5714 19.0049 15.5714 19.0031 15.5714 19.0013C15.5714 18.9994 15.5714 18.9976 15.5714 18.9958C15.5714 18.994 15.5714 18.9922 15.5714 18.9904C15.5714 18.9886 15.5714 18.9868 15.5714 18.985C15.5714 18.9832 15.5714 18.9814 15.5714 18.9796C15.5714 18.9777 15.5714 18.9759 15.5714 18.9741C15.5714 18.9723 15.5714 18.9705 15.5714 18.9687C15.5714 18.9669 15.5714 18.9651 15.5714 18.9633C15.5714 18.9615 15.5714 18.9597 15.5714 18.9579C15.5714 18.9561 15.5714 18.9543 15.5714 18.9525C15.5714 18.9507 15.5714 18.9489 15.5714 18.9471C15.5714 18.9452 15.5714 18.9434 15.5714 18.9416C15.5714 18.9398 15.5714 18.938 15.5714 18.9362C15.5714 18.9344 15.5714 18.9326 15.5714 18.9308C15.5714 18.929 15.5714 18.9272 15.5714 18.9254C15.5714 18.9236 15.5714 18.9218 15.5714 18.92C15.5714 18.9182 15.5714 18.9164 15.5714 18.9146C15.5714 18.9128 15.5714 18.911 15.5714 18.9092C15.5714 18.9074 15.5714 18.9056 15.5714 18.9038C15.5714 18.902 15.5714 18.9002 15.5714 18.8984C15.5714 18.8966 15.5714 18.8948 15.5714 18.893C15.5714 18.8912 15.5714 18.8894 15.5714 18.8876C15.5714 18.8858 15.5714 18.884 15.5714 18.8822C15.5714 18.8804 15.5714 18.8786 15.5714 18.8768C15.5714 18.875 15.5714 18.8732 15.5714 18.8714C15.5714 18.8696 15.5714 18.8678 15.5714 18.866C15.5714 18.8642 15.5714 18.8624 15.5714 18.8606C15.5714 18.8588 15.5714 18.857 15.5714 18.8552C15.5714 18.8534 15.5714 18.8516 15.5714 18.8498C15.5714 18.848 15.5714 18.8463 15.5714 18.8445C15.5714 18.8427 15.5714 18.8409 15.5714 18.8391C15.5714 18.8373 15.5714 18.8355 15.5714 18.8337C15.5714 18.8319 15.5714 18.8301 15.5714 18.8283C15.5714 18.8265 15.5714 18.8247 15.5714 18.8229C15.5714 18.8211 15.5714 18.8193 15.5714 18.8175C15.5714 18.8158 15.5714 18.814 15.5714 18.8122C15.5714 18.8104 15.5714 18.8086 15.5714 18.8068C15.5714 18.805 15.5714 18.8032 15.5714 18.8014C15.5714 18.7996 15.5714 18.7978 15.5714 18.796C15.5714 18.7943 15.5714 18.7925 15.5714 18.7907C15.5714 18.7889 15.5714 18.7871 15.5714 18.7853C15.5714 18.7835 15.5714 18.7817 15.5714 18.7799C15.5714 18.7781 15.5714 18.7764 15.5714 18.7746C15.5714 18.7728 15.5714 18.771 15.5714 18.7692C15.5714 18.7674 15.5714 18.7656 15.5714 18.7638C15.5714 18.762 15.5714 18.7603 15.5714 18.7585C15.5714 18.7567 15.5714 18.7549 15.5714 18.7531C15.5714 18.7513 15.5714 18.7495 15.5714 18.7477C15.5714 18.746 15.5714 18.7442 15.5714 18.7424C15.5714 18.7406 15.5714 18.7388 15.5714 18.737C15.5714 18.7352 15.5714 18.7335 15.5714 18.7317C15.5714 18.7299 15.5714 18.7281 15.5714 18.7263C15.5714 18.7245 15.5714 18.7227 15.5714 18.721C15.5714 18.7192 15.5714 18.7174 15.5714 18.7156C15.5714 18.7138 15.5714 18.712 15.5714 18.7103C15.5714 18.7085 15.5714 18.7067 15.5714 18.7049C15.5714 18.7031 15.5714 18.7013 15.5714 18.6996C15.5714 18.6978 15.5714 18.696 15.5714 18.6942C15.5714 18.6924 15.5714 18.6907 15.5714 18.6889C15.5714 18.6871 15.5714 18.6853 15.5714 18.6835C15.5714 18.6817 15.5714 18.68 15.5714 18.6782C15.5714 18.6764 15.5714 18.6746 15.5714 18.6728C15.5714 18.6711 15.5714 18.6693 15.5714 18.6675C15.5714 18.6657 15.5714 18.664 15.5714 18.6622C15.5714 18.6604 15.5714 18.6586 15.5714 18.6568C15.5714 18.6551 15.5714 18.6533 15.5714 18.6515C15.5714 18.6497 15.5714 18.6479 15.5714 18.6462C15.5714 18.6444 15.5714 18.6426 15.5714 18.6408C15.5714 18.6391 15.5714 18.6373 15.5714 18.6355C15.5714 18.6337 15.5714 18.632 15.5714 18.6302C15.5714 18.6284 15.5714 18.6266 15.5714 18.6249C15.5714 18.6231 15.5714 18.6213 15.5714 18.6195C15.5714 18.6178 15.5714 18.616 15.5714 18.6142C15.5714 18.6124 15.5714 18.6107 15.5714 18.6089C15.5714 18.6071 15.5714 18.6053 15.5714 18.6036C15.5714 18.6018 15.5714 18.6 15.5714 18.5982C15.5714 18.5965 15.5714 18.5947 15.5714 18.5929C15.5714 18.5912 15.5714 18.5894 15.5714 18.5876C15.5714 18.5858 15.5714 18.5841 15.5714 18.5823C15.5714 18.5805 15.5714 18.5788 15.5714 18.577C15.5714 18.5752 15.5714 18.5734 15.5714 18.5717C15.5714 18.5699 15.5714 18.5681 15.5714 18.5664C15.5714 18.5646 15.5714 18.5628 15.5714 18.5611C15.5714 18.5593 15.5714 18.5575 15.5714 18.5558C15.5714 18.554 15.5714 18.5522 15.5714 18.5504C15.5714 18.5487 15.5714 18.5469 15.5714 18.5451C15.5714 18.5434 15.5714 18.5416 15.5714 18.5398C15.5714 18.5381 15.5714 18.5363 15.5714 18.5345C15.5714 18.5328 15.5714 18.531 15.5714 18.5292C15.5714 18.5275 15.5714 18.5257 15.5714 18.5239C15.5714 18.5222 15.5714 18.5204 15.5714 18.5187C15.5714 18.5169 15.5714 18.5151 15.5714 18.5134C15.5714 18.5116 15.5714 18.5098 15.5714 18.5081C15.5714 18.5063 15.5714 18.5045 15.5714 18.5028C15.5714 18.501 15.5714 18.4992 15.5714 18.4975C15.5714 18.4957 15.5714 18.494 15.5714 18.4922C15.5714 18.4904 15.5714 18.4887 15.5714 18.4869C15.5714 18.4851 15.5714 18.4834 15.5714 18.4816C15.5714 18.4799 15.5714 18.4781 15.5714 18.4763C15.5714 18.4746 15.5714 18.4728 15.5714 18.4711C15.5714 18.4693 15.5714 18.4675 15.5714 18.4658C15.5714 18.464 15.5714 18.4623 15.5714 18.4605C15.5714 18.4587 15.5714 18.457 15.5714 18.4552C15.5714 18.4535 15.5714 18.4517 15.5714 18.4499C15.5714 18.4482 15.5714 18.4464 15.5714 18.4447C15.5714 18.4429 15.5714 18.4412 15.5714 18.4394C15.5714 18.4376 15.5714 18.4359 15.5714 18.4341C15.5714 18.4324 15.5714 18.4306 15.5714 18.4289C15.5714 18.4271 15.5714 18.4253 15.5714 18.4236C15.5714 18.4218 15.5714 18.4201 15.5714 18.4183C15.5714 18.4166 15.5714 18.4148 15.5714 18.4131C15.5714 18.4113 15.5714 18.4096 15.5714 18.4078C15.5714 18.406 15.5714 18.4043 15.5714 18.4025C15.5714 18.4008 15.5714 18.399 15.5714 18.3973C15.5714 18.3955 15.5714 18.3938 15.5714 18.392C15.5714 18.3903 15.5714 18.3885 15.5714 18.3868C15.5714 18.385 15.5714 18.3833 15.5714 18.3815C15.5714 18.3798 15.5714 18.378 15.5714 18.3763C15.5714 18.3745 15.5714 18.3728 15.5714 18.371C15.5714 18.3693 15.5714 18.3675 15.5714 18.3658C15.5714 18.364 15.5714 18.3623 15.5714 18.3605C15.5714 18.3588 15.5714 18.357 15.5714 18.3553C15.5714 18.3535 15.5714 18.3518 15.5714 18.35C15.5714 18.3483 15.5714 18.3465 15.5714 18.3448C15.5714 18.343 15.5714 18.3413 15.5714 18.3395C15.5714 18.3378 15.5714 18.336 15.5714 18.3343C15.5714 18.3325 15.5714 18.3308 15.5714 18.329C15.5714 18.3273 15.5714 18.3256 15.5714 18.3238C15.5714 18.3221 15.5714 18.3203 15.5714 18.3186C15.5714 18.3168 15.5714 18.3151 15.5714 18.3133C15.5714 18.3116 15.5714 18.3099 15.5714 18.3081C15.5714 18.3064 15.5714 18.3046 15.5714 18.3029C15.5714 18.3011 15.5714 18.2994 15.5714 18.2976C15.5714 18.2959 15.5714 18.2942 15.5714 18.2924C15.5714 18.2907 15.5714 18.2889 15.5714 18.2872C15.5714 18.2855 15.5714 18.2837 15.5714 18.282C15.5714 18.2802 15.5714 18.2785 15.5714 18.2767C15.5714 18.275 15.5714 18.2733 15.5714 18.2715C15.5714 18.2698 15.5714 18.268 15.5714 18.2663C15.5714 18.2646 15.5714 18.2628 15.5714 18.2611C15.5714 18.2594 15.5714 18.2576 15.5714 18.2559C15.5714 18.2541 15.5714 18.2524 15.5714 18.2507C15.5714 18.2489 15.5714 18.2472 15.5714 18.2454C15.5714 18.2437 15.5714 18.242 15.5714 18.2402C15.5714 18.2385 15.5714 18.2368 15.5714 18.235C15.5714 18.2333 15.5714 18.2316 15.5714 18.2298C15.5714 18.2281 15.5714 18.2263 15.5714 18.2246C15.5714 18.2229 15.5714 18.2211 15.5714 18.2194C15.5714 18.2177 15.5714 18.2159 15.5714 18.2142C15.5714 18.2125 15.5714 18.2107 15.5714 18.209C15.5714 18.2073 15.5714 18.2055 15.5714 18.2038C15.5714 18.2021 15.5714 18.2003 15.5714 18.1986C15.5714 18.1969 15.5714 18.1951 15.5714 18.1934C15.5714 18.1917 15.5714 18.1899 15.5714 18.1882C15.5714 18.1865 15.5714 18.1848 15.5714 18.183C15.5714 18.1813 15.5714 18.1796 15.5714 18.1778C15.5714 18.1761 15.5714 18.1744 15.5714 18.1726C15.5714 18.1709 15.5714 18.1692 15.5714 18.1675C15.5714 18.1657 15.5714 18.164 15.5714 18.1623C15.5714 18.1605 15.5714 18.1588 15.5714 18.1571C15.5714 18.1554 15.5714 18.1536 15.5714 18.1519C15.5714 18.1502 15.5714 18.1484 15.5714 18.1467C15.5714 18.145 15.5714 18.1433 15.5714 18.1415C15.5714 18.1398 15.5714 18.1381 15.5714 18.1364C15.5714 18.1346 15.5714 18.1329 15.5714 18.1312C15.5714 18.1295 15.5714 18.1277 15.5714 18.126C15.5714 18.1243 15.5714 18.1226 15.5714 18.1208C15.5714 18.1191 15.5714 18.1174 15.5714 18.1157C15.5714 18.1139 15.5714 18.1122 15.5714 18.1105C15.5714 18.1088 15.5714 18.107 15.5714 18.1053C15.5714 18.1036 15.5714 18.1019 15.5714 18.1002C15.5714 18.0984 15.5714 18.0967 15.5714 18.095C15.5714 18.0933 15.5714 18.0916 15.5714 18.0898C15.5714 18.0881 15.5714 18.0864 15.5714 18.0847C15.5714 18.083 15.5714 18.0812 15.5714 18.0795C15.5714 18.0778 15.5714 18.0761 15.5714 18.0744C15.5714 18.0726 15.5714 18.0709 15.5714 18.0692C15.5714 18.0675 15.5714 18.0658 15.5714 18.064C15.5714 18.0623 15.5714 18.0606 15.5714 18.0589C15.5714 18.0572 15.5714 18.0555 15.5714 18.0537C15.5714 18.052 15.5714 18.0503 15.5714 18.0486C15.5714 18.0469 15.5714 18.0452 15.5714 18.0434C15.5714 18.0417 15.5714 18.04 15.5714 18.0383C15.5714 18.0366 15.5714 18.0349 15.5714 18.0332C15.5714 18.0314 15.5714 18.0297 15.5714 18.028C15.5714 18.0263 15.5714 18.0246 15.5714 18.0229C15.5714 18.0212 15.5714 18.0194 15.5714 18.0177C15.5714 18.016 15.5714 18.0143 15.5714 18.0126C15.5714 18.0109 15.5714 18.0092 15.5714 18.0075C15.5714 18.0057 15.5714 18.004 15.5714 18.0023C15.5714 18.0006 15.5714 17.9989 15.5714 17.9972C15.5714 17.9955 15.5714 17.9938 15.5714 17.9921C15.5714 17.9904 15.5714 17.9886 15.5714 17.9869C15.5714 17.9852 15.5714 17.9835 15.5714 17.9818C15.5714 17.9801 15.5714 17.9784 15.5714 17.9767C15.5714 17.975 15.5714 17.9733 15.5714 17.9716C15.5714 17.9698 15.5714 17.9681 15.5714 17.9664C15.5714 17.9647 15.5714 17.963 15.5714 17.9613C15.5714 17.9596 15.5714 17.9579 15.5714 17.9562C15.5714 17.9545 15.5714 17.9528 15.5714 17.9511C15.5714 17.9494 15.5714 17.9477 15.5714 17.946C15.5714 17.9443 15.5714 17.9426 15.5714 17.9409C15.5714 17.9391 15.5714 17.9374 15.5714 17.9357C15.5714 17.934 15.5714 17.9323 15.5714 17.9306C15.5714 17.9289 15.5714 17.9272 15.5714 17.9255C15.5714 17.9238 15.5714 17.9221 15.5714 17.9204C15.5714 17.9187 15.5714 17.917 15.5714 17.9153C15.5714 17.9136 15.5714 17.9119 15.5714 17.9102C15.5714 17.9085 15.5714 17.9068 15.5714 17.9051C15.5714 17.9034 15.5714 17.9017 15.5714 17.9C15.5714 17.8983 15.5714 17.8966 15.5714 17.8949C15.5714 17.8932 15.5714 17.8915 15.5714 17.8898C15.5714 17.8881 15.5714 17.8864 15.5714 17.8847C15.5714 17.883 15.5714 17.8813 15.5714 17.8796C15.5714 17.8779 15.5714 17.8762 15.5714 17.8745C15.5714 17.8728 15.5714 17.8711 15.5714 17.8695C15.5714 17.8678 15.5714 17.8661 15.5714 17.8644C15.5714 17.8627 15.5714 17.861 15.5714 17.8593C15.5714 17.8576 15.5714 17.8559 15.5714 17.8542C15.5714 17.8525 15.5714 17.8508 15.5714 17.8491C15.5714 17.8474 15.5714 17.8457 15.5714 17.844C15.5714 17.8423 15.5714 17.8407 15.5714 17.839C15.5714 17.8373 15.5714 17.8356 15.5714 17.8339C15.5714 17.8322 15.5714 17.8305 15.5714 17.8288C15.5714 17.8271 15.5714 17.8254 15.5714 17.8237C15.5714 17.822 15.5714 17.8204 15.5714 17.8187C15.5714 17.817 15.5714 17.8153 15.5714 17.8136C15.5714 17.8119 15.5714 17.8102 15.5714 17.8085C15.5714 17.8068 15.5714 17.8052 15.5714 17.8035C15.5714 17.8018 15.5714 17.8001 15.5714 17.7984C15.5714 17.7967 15.5714 17.795 15.5714 17.7933C15.5714 17.7917 15.5714 17.79 15.5714 17.7883C15.5714 17.7866 15.5714 17.7849 15.5714 17.7832C15.5714 17.7815 15.5714 17.7799 15.5714 17.7782C15.5714 17.7765 15.5714 17.7748 15.5714 17.7731C15.5714 17.7714 15.5714 17.7697 15.5714 17.7681C15.5714 17.7664 15.5714 17.7647 15.5714 17.763C15.5714 17.7613 15.5714 17.7596 15.5714 17.758C15.5714 17.7563 15.5714 17.7546 15.5714 17.7529C15.5714 17.7512 15.5714 17.7495 15.5714 17.7479C15.5714 17.7462 15.5714 17.7445 15.5714 17.7428C15.5714 17.7411 15.5714 17.7395 15.5714 17.7378C15.5714 17.7361 15.5714 17.7344 15.5714 17.7327C15.5714 17.7311 15.5714 17.7294 15.5714 17.7277C15.5714 17.726 15.5714 17.7243 15.5714 17.7227C15.5714 17.721 15.5714 17.7193 15.5714 17.7176C15.5714 17.716 15.5714 17.7143 15.5714 17.7126C15.5714 17.7109 15.5714 17.7092 15.5714 17.7076C15.5714 17.7059 15.5714 17.7042 15.5714 17.7025C15.5714 17.7009 15.5714 17.6992 15.5714 17.6975C15.5714 17.6958 15.5714 17.6942 15.5714 17.6925C15.5714 17.6908 15.5714 17.6891 15.5714 17.6875C15.5714 17.6858 15.5714 17.6841 15.5714 17.6824C15.5714 17.6808 15.5714 17.6791 15.5714 17.6774C15.5714 17.6757 15.5714 17.6741 15.5714 17.6724C15.5714 17.6707 15.5714 17.6691 15.5714 17.6674C15.5714 17.6657 15.5714 17.664 15.5714 17.6624C15.5714 17.6607 15.5714 17.659 15.5714 17.6574C15.5714 17.6557 15.5714 17.654 15.5714 17.6523C15.5714 17.6507 15.5714 17.649 15.5714 17.6473C15.5714 17.6457 15.5714 17.644 15.5714 17.6423C15.5714 17.6407 15.5714 17.639 15.5714 17.6373C15.5714 17.6357 15.5714 17.634 15.5714 17.6323C15.5714 17.6307 15.5714 17.629 15.5714 17.6273C15.5714 17.6257 15.5714 17.624 15.5714 17.6223C15.5714 17.6207 15.5714 17.619 15.5714 17.6173C15.5714 17.6157 15.5714 17.614 15.5714 17.6123C15.5714 17.6107 15.5714 17.609 15.5714 17.6073C15.5714 17.6057 15.5714 17.604 15.5714 17.6023C15.5714 17.6007 15.5714 17.599 15.5714 17.5974C15.5714 17.5957 15.5714 17.594 15.5714 17.5924C15.5714 17.5907 15.5714 17.589 15.5714 17.5874C15.5714 17.5857 15.5714 17.5841 15.5714 17.5824C15.5714 17.5807 15.5714 17.5791 15.5714 17.5774C15.5714 17.5758 15.5714 17.5741 15.5714 17.5724C15.5714 17.5708 15.5714 17.5691 15.5714 17.5674C15.5714 17.5658 15.5714 17.5641 15.5714 17.5625C15.5714 17.5608 15.5714 17.5592 15.5714 17.5575C15.5714 17.5558 15.5714 17.5542 15.5714 17.5525C15.5714 17.5509 15.5714 17.5492 15.5714 17.5476C15.5714 17.5459 15.5714 17.5442 15.5714 17.5426C15.5714 17.5409 15.5714 17.5393 15.5714 17.5376C15.5714 17.536 15.5714 17.5343 15.5714 17.5326C15.5714 17.531 15.5714 17.5293 15.5714 17.5277C15.5714 17.526 15.5714 17.5244 15.5714 17.5227C15.5714 17.5211 15.5714 17.5194 15.5714 17.5178C15.5714 17.5161 15.5714 17.5145 15.5714 17.5128C15.5714 17.5112 15.5714 17.5095 15.5714 17.5078C15.5714 17.5062 15.5714 17.5045 15.5714 17.5029C15.5714 17.5012 15.5714 17.4996 15.5714 17.4979C15.5714 17.4963 15.5714 17.4946 15.5714 17.493C15.5714 17.4913 15.5714 17.4897 15.5714 17.488C15.5714 17.4864 15.5714 17.4847 15.5714 17.4831C15.5714 17.4814 15.5714 17.4798 15.5714 17.4781C15.5714 17.4765 15.5714 17.4749 15.5714 17.4732C15.5714 17.4716 15.5714 17.4699 15.5714 17.4683C15.5714 17.4666 15.5714 17.465 15.5714 17.4633C15.5714 17.4617 15.5714 17.46 15.5714 17.4584C15.5714 17.4567 15.5714 17.4551 15.5714 17.4535C15.5714 17.4518 15.5714 17.4502 15.5714 17.4485C15.5714 17.4469 15.5714 17.4452 15.5714 17.4436C15.5714 17.4419 15.5714 17.4403 15.5714 17.4387C15.5714 17.437 15.5714 17.4354 15.5714 17.4337C15.5714 17.4321 15.5714 17.4304 15.5714 17.4288C15.5714 17.4272 15.5714 17.4255 15.5714 17.4239C15.5714 17.4222 15.5714 17.4206 15.5714 17.419C15.5714 17.4173 15.5714 17.4157 15.5714 17.414C15.5714 17.4124 15.5714 17.4108 15.5714 17.4091C15.5714 17.4075 15.5714 17.4058 15.5714 17.4042C15.5714 17.4026 15.5714 17.4009 15.5714 17.3993C15.5714 17.3977 15.5714 17.396 15.5714 17.3944C15.5714 17.3927 15.5714 17.3911 15.5714 17.3895C15.5714 17.3878 15.5714 17.3862 15.5714 17.3846C15.5714 17.3829 15.5714 17.3813 15.5714 17.3797C15.5714 17.378 15.5714 17.3764 15.5714 17.3747C15.5714 17.3731 15.5714 17.3715 15.5714 17.3698C15.5714 17.3682 15.5714 17.3666 15.5714 17.3649C15.5714 17.3633 15.5714 17.3617 15.5714 17.36C15.5714 17.3584 15.5714 17.3568 15.5714 17.3551C15.5714 17.3535 15.5714 17.3519 15.5714 17.3503C15.5714 17.3486 15.5714 17.347 15.5714 17.3454C15.5714 17.3437 15.5714 17.3421 15.5714 17.3405C15.5714 17.3388 15.5714 17.3372 15.5714 17.3356C15.5714 17.334 15.5714 17.3323 15.5714 17.3307C15.5714 17.3291 15.5714 17.3274 15.5714 17.3258C15.5714 17.3242 15.5714 17.3226 15.5714 17.3209C15.5714 17.3193 15.5714 17.3177 15.5714 17.316C15.5714 17.3144 15.5714 17.3128 15.5714 17.3112C15.5714 17.3095 15.5714 17.3079 15.5714 17.3063C15.5714 17.3047 15.5714 17.303 15.5714 17.3014C15.5714 17.2998 15.5714 17.2982 15.5714 17.2965C15.5714 17.2949 15.5714 17.2933 15.5714 17.2917C15.5714 17.29 15.5714 17.2884 15.5714 17.2868C15.5714 17.2852 15.5714 17.2836 15.5714 17.2819C15.5714 17.2803 15.5714 17.2787 15.5714 17.2771H13.5714ZM10.5 14.2063C12.1965 14.2063 13.5714 15.581 13.5714 17.2771H15.5714C15.5714 14.476 13.3006 12.2063 10.5 12.2063V14.2063ZM2 17.2771C2 15.581 3.3749 14.2063 5.07143 14.2063V12.2063C2.27078 12.2063 0 14.476 0 17.2771H2ZM19 17.9643V20H21V17.9643H19ZM20 19H16.6071V21H20V19ZM16.6071 15.5714C17.9287 15.5714 19 16.6427 19 17.9643H21C21 15.5382 19.0333 13.5714 16.6071 13.5714V15.5714ZM15.9286 10.8571C14.9818 10.8571 14.2143 10.0896 14.2143 9.14286H12.2143C12.2143 11.1942 13.8772 12.8571 15.9286 12.8571V10.8571ZM17.6429 9.14286C17.6429 10.0896 16.8753 10.8571 15.9286 10.8571V12.8571C17.9799 12.8571 19.6429 11.1942 19.6429 9.14286H17.6429ZM15.9286 7.42857C16.8753 7.42857 17.6429 8.19608 17.6429 9.14286H19.6429C19.6429 7.09151 17.9799 5.42857 15.9286 5.42857V7.42857ZM15.9286 5.42857C13.8772 5.42857 12.2143 7.09151 12.2143 9.14286H14.2143C14.2143 8.19608 14.9818 7.42857 15.9286 7.42857V5.42857Z" fill="#282C37"/>
</svg>
