<svg width="54" height="54" viewBox="0 0 54 54" fill="none" xmlns="http://www.w3.org/2000/svg">
<path d="M38 52.3672V53.8672H39.5V52.3672H38ZM2 52.3672H0.5V53.8672H2V52.3672ZM52.4 52.4V53.9H53.9V52.4H52.4ZM29.3 12.793C29.3 17.9249 25.1377 22.0859 20 22.0859V25.0859C26.7927 25.0859 32.3 19.5836 32.3 12.793H29.3ZM20 22.0859C14.8623 22.0859 10.7 17.9249 10.7 12.793H7.7C7.7 19.5836 13.2073 25.0859 20 25.0859V22.0859ZM10.7 12.793C10.7 7.661 14.8623 3.5 20 3.5V0.5C13.2073 0.5 7.7 6.0023 7.7 12.793H10.7ZM20 3.5C25.1377 3.5 29.3 7.661 29.3 12.793H32.3C32.3 6.0023 26.7927 0.5 20 0.5V3.5ZM38 50.8672H2V53.8672H38V50.8672ZM3.5 52.3672C3.5 52.3622 3.5 52.3572 3.5 52.3522C3.5 52.3472 3.5 52.3422 3.5 52.3372C3.5 52.3322 3.5 52.3272 3.5 52.3223C3.5 52.3173 3.5 52.3123 3.5 52.3073C3.5 52.3023 3.5 52.2973 3.5 52.2923C3.5 52.2873 3.5 52.2823 3.5 52.2774C3.5 52.2724 3.5 52.2674 3.5 52.2624C3.5 52.2574 3.5 52.2524 3.5 52.2474C3.5 52.2425 3.5 52.2375 3.5 52.2325C3.5 52.2275 3.5 52.2225 3.5 52.2175C3.5 52.2126 3.5 52.2076 3.5 52.2026C3.5 52.1976 3.5 52.1926 3.5 52.1876C3.5 52.1827 3.5 52.1777 3.5 52.1727C3.5 52.1677 3.5 52.1627 3.5 52.1578C3.5 52.1528 3.5 52.1478 3.5 52.1428C3.5 52.1379 3.5 52.1329 3.5 52.1279C3.5 52.1229 3.5 52.1179 3.5 52.113C3.5 52.108 3.5 52.103 3.5 52.098C3.5 52.0931 3.5 52.0881 3.5 52.0831C3.5 52.0781 3.5 52.0732 3.5 52.0682C3.5 52.0632 3.5 52.0583 3.5 52.0533C3.5 52.0483 3.5 52.0433 3.5 52.0384C3.5 52.0334 3.5 52.0284 3.5 52.0234C3.5 52.0185 3.5 52.0135 3.5 52.0085C3.5 52.0036 3.5 51.9986 3.5 51.9936C3.5 51.9887 3.5 51.9837 3.5 51.9787C3.5 51.9738 3.5 51.9688 3.5 51.9638C3.5 51.9589 3.5 51.9539 3.5 51.9489C3.5 51.944 3.5 51.939 3.5 51.934C3.5 51.9291 3.5 51.9241 3.5 51.9191C3.5 51.9142 3.5 51.9092 3.5 51.9043C3.5 51.8993 3.5 51.8943 3.5 51.8894C3.5 51.8844 3.5 51.8795 3.5 51.8745C3.5 51.8695 3.5 51.8646 3.5 51.8596C3.5 51.8547 3.5 51.8497 3.5 51.8447C3.5 51.8398 3.5 51.8348 3.5 51.8299C3.5 51.8249 3.5 51.8199 3.5 51.815C3.5 51.81 3.5 51.8051 3.5 51.8001C3.5 51.7952 3.5 51.7902 3.5 51.7853C3.5 51.7803 3.5 51.7753 3.5 51.7704C3.5 51.7654 3.5 51.7605 3.5 51.7555C3.5 51.7506 3.5 51.7456 3.5 51.7407C3.5 51.7357 3.5 51.7308 3.5 51.7258C3.5 51.7209 3.5 51.7159 3.5 51.711C3.5 51.706 3.5 51.7011 3.5 51.6961C3.5 51.6912 3.5 51.6862 3.5 51.6813C3.5 51.6763 3.5 51.6714 3.5 51.6665C3.5 51.6615 3.5 51.6566 3.5 51.6516C3.5 51.6467 3.5 51.6417 3.5 51.6368C3.5 51.6318 3.5 51.6269 3.5 51.622C3.5 51.617 3.5 51.6121 3.5 51.6071C3.5 51.6022 3.5 51.5972 3.5 51.5923C3.5 51.5874 3.5 51.5824 3.5 51.5775C3.5 51.5725 3.5 51.5676 3.5 51.5627C3.5 51.5577 3.5 51.5528 3.5 51.5478C3.5 51.5429 3.5 51.538 3.5 51.533C3.5 51.5281 3.5 51.5232 3.5 51.5182C3.5 51.5133 3.5 51.5084 3.5 51.5034C3.5 51.4985 3.5 51.4935 3.5 51.4886C3.5 51.4837 3.5 51.4787 3.5 51.4738C3.5 51.4689 3.5 51.4639 3.5 51.459C3.5 51.4541 3.5 51.4492 3.5 51.4442C3.5 51.4393 3.5 51.4344 3.5 51.4294C3.5 51.4245 3.5 51.4196 3.5 51.4146C3.5 51.4097 3.5 51.4048 3.5 51.3999C3.5 51.3949 3.5 51.39 3.5 51.3851C3.5 51.3802 3.5 51.3752 3.5 51.3703C3.5 51.3654 3.5 51.3605 3.5 51.3555C3.5 51.3506 3.5 51.3457 3.5 51.3408C3.5 51.3358 3.5 51.3309 3.5 51.326C3.5 51.3211 3.5 51.3161 3.5 51.3112C3.5 51.3063 3.5 51.3014 3.5 51.2965C3.5 51.2915 3.5 51.2866 3.5 51.2817C3.5 51.2768 3.5 51.2719 3.5 51.2669C3.5 51.262 3.5 51.2571 3.5 51.2522C3.5 51.2473 3.5 51.2424 3.5 51.2374C3.5 51.2325 3.5 51.2276 3.5 51.2227C3.5 51.2178 3.5 51.2129 3.5 51.208C3.5 51.203 3.5 51.1981 3.5 51.1932C3.5 51.1883 3.5 51.1834 3.5 51.1785C3.5 51.1736 3.5 51.1687 3.5 51.1637C3.5 51.1588 3.5 51.1539 3.5 51.149C3.5 51.1441 3.5 51.1392 3.5 51.1343C3.5 51.1294 3.5 51.1245 3.5 51.1196C3.5 51.1147 3.5 51.1098 3.5 51.1048C3.5 51.0999 3.5 51.095 3.5 51.0901C3.5 51.0852 3.5 51.0803 3.5 51.0754C3.5 51.0705 3.5 51.0656 3.5 51.0607C3.5 51.0558 3.5 51.0509 3.5 51.046C3.5 51.0411 3.5 51.0362 3.5 51.0313C3.5 51.0264 3.5 51.0215 3.5 51.0166C3.5 51.0117 3.5 51.0068 3.5 51.0019C3.5 50.997 3.5 50.9921 3.5 50.9872C3.5 50.9823 3.5 50.9774 3.5 50.9725C3.5 50.9676 3.5 50.9627 3.5 50.9578C3.5 50.9529 3.5 50.948 3.5 50.9431C3.5 50.9382 3.5 50.9334 3.5 50.9285C3.5 50.9236 3.5 50.9187 3.5 50.9138C3.5 50.9089 3.5 50.904 3.5 50.8991C3.5 50.8942 3.5 50.8893 3.5 50.8844C3.5 50.8795 3.5 50.8747 3.5 50.8698C3.5 50.8649 3.5 50.86 3.5 50.8551C3.5 50.8502 3.5 50.8453 3.5 50.8404C3.5 50.8356 3.5 50.8307 3.5 50.8258C3.5 50.8209 3.5 50.816 3.5 50.8111C3.5 50.8062 3.5 50.8014 3.5 50.7965C3.5 50.7916 3.5 50.7867 3.5 50.7818C3.5 50.777 3.5 50.7721 3.5 50.7672C3.5 50.7623 3.5 50.7574 3.5 50.7525C3.5 50.7477 3.5 50.7428 3.5 50.7379C3.5 50.733 3.5 50.7282 3.5 50.7233C3.5 50.7184 3.5 50.7135 3.5 50.7086C3.5 50.7038 3.5 50.6989 3.5 50.694C3.5 50.6891 3.5 50.6843 3.5 50.6794C3.5 50.6745 3.5 50.6696 3.5 50.6648C3.5 50.6599 3.5 50.655 3.5 50.6502C3.5 50.6453 3.5 50.6404 3.5 50.6355C3.5 50.6307 3.5 50.6258 3.5 50.6209C3.5 50.6161 3.5 50.6112 3.5 50.6063C3.5 50.6015 3.5 50.5966 3.5 50.5917C3.5 50.5869 3.5 50.582 3.5 50.5771C3.5 50.5723 3.5 50.5674 3.5 50.5625C3.5 50.5577 3.5 50.5528 3.5 50.5479C3.5 50.5431 3.5 50.5382 3.5 50.5333C3.5 50.5285 3.5 50.5236 3.5 50.5188C3.5 50.5139 3.5 50.509 3.5 50.5042C3.5 50.4993 3.5 50.4944 3.5 50.4896C3.5 50.4847 3.5 50.4799 3.5 50.475C3.5 50.4702 3.5 50.4653 3.5 50.4604C3.5 50.4556 3.5 50.4507 3.5 50.4459C3.5 50.441 3.5 50.4362 3.5 50.4313C3.5 50.4265 3.5 50.4216 3.5 50.4167C3.5 50.4119 3.5 50.407 3.5 50.4022C3.5 50.3973 3.5 50.3925 3.5 50.3876C3.5 50.3828 3.5 50.3779 3.5 50.3731C3.5 50.3682 3.5 50.3634 3.5 50.3585C3.5 50.3537 3.5 50.3488 3.5 50.344C3.5 50.3391 3.5 50.3343 3.5 50.3294C3.5 50.3246 3.5 50.3198 3.5 50.3149C3.5 50.3101 3.5 50.3052 3.5 50.3004C3.5 50.2955 3.5 50.2907 3.5 50.2858C3.5 50.281 3.5 50.2762 3.5 50.2713C3.5 50.2665 3.5 50.2616 3.5 50.2568C3.5 50.2519 3.5 50.2471 3.5 50.2423C3.5 50.2374 3.5 50.2326 3.5 50.2277C3.5 50.2229 3.5 50.2181 3.5 50.2132C3.5 50.2084 3.5 50.2036 3.5 50.1987C3.5 50.1939 3.5 50.1891 3.5 50.1842C3.5 50.1794 3.5 50.1745 3.5 50.1697C3.5 50.1649 3.5 50.16 3.5 50.1552C3.5 50.1504 3.5 50.1456 3.5 50.1407C3.5 50.1359 3.5 50.1311 3.5 50.1262C3.5 50.1214 3.5 50.1166 3.5 50.1117C3.5 50.1069 3.5 50.1021 3.5 50.0973C3.5 50.0924 3.5 50.0876 3.5 50.0828C3.5 50.0779 3.5 50.0731 3.5 50.0683C3.5 50.0635 3.5 50.0586 3.5 50.0538C3.5 50.049 3.5 50.0442 3.5 50.0394C3.5 50.0345 3.5 50.0297 3.5 50.0249C3.5 50.0201 3.5 50.0152 3.5 50.0104C3.5 50.0056 3.5 50.0008 3.5 49.996C3.5 49.9911 3.5 49.9863 3.5 49.9815C3.5 49.9767 3.5 49.9719 3.5 49.9671C3.5 49.9622 3.5 49.9574 3.5 49.9526C3.5 49.9478 3.5 49.943 3.5 49.9382C3.5 49.9333 3.5 49.9285 3.5 49.9237C3.5 49.9189 3.5 49.9141 3.5 49.9093C3.5 49.9045 3.5 49.8997 3.5 49.8948C3.5 49.89 3.5 49.8852 3.5 49.8804C3.5 49.8756 3.5 49.8708 3.5 49.866C3.5 49.8612 3.5 49.8564 3.5 49.8516C3.5 49.8468 3.5 49.8419 3.5 49.8371C3.5 49.8323 3.5 49.8275 3.5 49.8227C3.5 49.8179 3.5 49.8131 3.5 49.8083C3.5 49.8035 3.5 49.7987 3.5 49.7939C3.5 49.7891 3.5 49.7843 3.5 49.7795C3.5 49.7747 3.5 49.7699 3.5 49.7651C3.5 49.7603 3.5 49.7555 3.5 49.7507C3.5 49.7459 3.5 49.7411 3.5 49.7363C3.5 49.7315 3.5 49.7267 3.5 49.7219C3.5 49.7171 3.5 49.7123 3.5 49.7075C3.5 49.7027 3.5 49.6979 3.5 49.6931C3.5 49.6883 3.5 49.6836 3.5 49.6788C3.5 49.674 3.5 49.6692 3.5 49.6644C3.5 49.6596 3.5 49.6548 3.5 49.65C3.5 49.6452 3.5 49.6404 3.5 49.6356C3.5 49.6309 3.5 49.6261 3.5 49.6213C3.5 49.6165 3.5 49.6117 3.5 49.6069C3.5 49.6021 3.5 49.5973 3.5 49.5926C3.5 49.5878 3.5 49.583 3.5 49.5782C3.5 49.5734 3.5 49.5686 3.5 49.5639C3.5 49.5591 3.5 49.5543 3.5 49.5495C3.5 49.5447 3.5 49.5399 3.5 49.5352C3.5 49.5304 3.5 49.5256 3.5 49.5208C3.5 49.5161 3.5 49.5113 3.5 49.5065C3.5 49.5017 3.5 49.4969 3.5 49.4922C3.5 49.4874 3.5 49.4826 3.5 49.4778C3.5 49.4731 3.5 49.4683 3.5 49.4635C3.5 49.4587 3.5 49.454 3.5 49.4492C3.5 49.4444 3.5 49.4396 3.5 49.4349C3.5 49.4301 3.5 49.4253 3.5 49.4206C3.5 49.4158 3.5 49.411 3.5 49.4063C3.5 49.4015 3.5 49.3967 3.5 49.392C3.5 49.3872 3.5 49.3824 3.5 49.3777C3.5 49.3729 3.5 49.3681 3.5 49.3634C3.5 49.3586 3.5 49.3538 3.5 49.3491C3.5 49.3443 3.5 49.3395 3.5 49.3348C3.5 49.33 3.5 49.3252 3.5 49.3205C3.5 49.3157 3.5 49.311 3.5 49.3062C3.5 49.3014 3.5 49.2967 3.5 49.2919C3.5 49.2872 3.5 49.2824 3.5 49.2777C3.5 49.2729 3.5 49.2681 3.5 49.2634C3.5 49.2586 3.5 49.2539 3.5 49.2491C3.5 49.2444 3.5 49.2396 3.5 49.2349C3.5 49.2301 3.5 49.2253 3.5 49.2206C3.5 49.2158 3.5 49.2111 3.5 49.2063C3.5 49.2016 3.5 49.1968 3.5 49.1921C3.5 49.1873 3.5 49.1826 3.5 49.1778C3.5 49.1731 3.5 49.1683 3.5 49.1636C3.5 49.1589 3.5 49.1541 3.5 49.1494C3.5 49.1446 3.5 49.1399 3.5 49.1351C3.5 49.1304 3.5 49.1256 3.5 49.1209C3.5 49.1161 3.5 49.1114 3.5 49.1067C3.5 49.1019 3.5 49.0972 3.5 49.0924C3.5 49.0877 3.5 49.083 3.5 49.0782C3.5 49.0735 3.5 49.0687 3.5 49.064C3.5 49.0593 3.5 49.0545 3.5 49.0498C3.5 49.0451 3.5 49.0403 3.5 49.0356C3.5 49.0308 3.5 49.0261 3.5 49.0214C3.5 49.0166 3.5 49.0119 3.5 49.0072C3.5 49.0024 3.5 48.9977 3.5 48.993C3.5 48.9883 3.5 48.9835 3.5 48.9788C3.5 48.9741 3.5 48.9693 3.5 48.9646C3.5 48.9599 3.5 48.9551 3.5 48.9504C3.5 48.9457 3.5 48.941 3.5 48.9362C3.5 48.9315 3.5 48.9268 3.5 48.9221C3.5 48.9173 3.5 48.9126 3.5 48.9079C3.5 48.9032 3.5 48.8984 3.5 48.8937C3.5 48.889 3.5 48.8843 3.5 48.8796C3.5 48.8748 3.5 48.8701 3.5 48.8654C3.5 48.8607 3.5 48.856 3.5 48.8512C3.5 48.8465 3.5 48.8418 3.5 48.8371C3.5 48.8324 3.5 48.8277 3.5 48.8229C3.5 48.8182 3.5 48.8135 3.5 48.8088C3.5 48.8041 3.5 48.7994 3.5 48.7947C3.5 48.7899 3.5 48.7852 3.5 48.7805C3.5 48.7758 3.5 48.7711 3.5 48.7664C3.5 48.7617 3.5 48.757 3.5 48.7523C3.5 48.7475 3.5 48.7428 3.5 48.7381C3.5 48.7334 3.5 48.7287 3.5 48.724C3.5 48.7193 3.5 48.7146 3.5 48.7099C3.5 48.7052 3.5 48.7005 3.5 48.6958C3.5 48.6911 3.5 48.6864 3.5 48.6817C3.5 48.677 3.5 48.6723 3.5 48.6676C3.5 48.6629 3.5 48.6582 3.5 48.6535C3.5 48.6488 3.5 48.6441 3.5 48.6394C3.5 48.6347 3.5 48.63 3.5 48.6253C3.5 48.6206 3.5 48.6159 3.5 48.6112C3.5 48.6065 3.5 48.6018 3.5 48.5971C3.5 48.5924 3.5 48.5877 3.5 48.583C3.5 48.5783 3.5 48.5736 3.5 48.5689C3.5 48.5643 3.5 48.5596 3.5 48.5549C3.5 48.5502 3.5 48.5455 3.5 48.5408C3.5 48.5361 3.5 48.5314 3.5 48.5267C3.5 48.5221 3.5 48.5174 3.5 48.5127C3.5 48.508 3.5 48.5033 3.5 48.4986C3.5 48.4939 3.5 48.4893 3.5 48.4846C3.5 48.4799 3.5 48.4752 3.5 48.4705C3.5 48.4658 3.5 48.4612 3.5 48.4565C3.5 48.4518 3.5 48.4471 3.5 48.4424C3.5 48.4378 3.5 48.4331 3.5 48.4284C3.5 48.4237 3.5 48.4191 3.5 48.4144C3.5 48.4097 3.5 48.405 3.5 48.4003C3.5 48.3957 3.5 48.391 3.5 48.3863C3.5 48.3817 3.5 48.377 3.5 48.3723C3.5 48.3676 3.5 48.363 3.5 48.3583C3.5 48.3536 3.5 48.349 3.5 48.3443C3.5 48.3396 3.5 48.3349 3.5 48.3303C3.5 48.3256 3.5 48.3209 3.5 48.3163C3.5 48.3116 3.5 48.3069 3.5 48.3023C3.5 48.2976 3.5 48.2929 3.5 48.2883C3.5 48.2836 3.5 48.279 3.5 48.2743C3.5 48.2696 3.5 48.265 3.5 48.2603C3.5 48.2556 3.5 48.251 3.5 48.2463C3.5 48.2417 3.5 48.237 3.5 48.2323C3.5 48.2277 3.5 48.223 3.5 48.2184C3.5 48.2137 3.5 48.2091 3.5 48.2044C3.5 48.1997 3.5 48.1951 3.5 48.1904C3.5 48.1858 3.5 48.1811 3.5 48.1765C3.5 48.1718 3.5 48.1672 3.5 48.1625C3.5 48.1579 3.5 48.1532 3.5 48.1486C3.5 48.1439 3.5 48.1393 3.5 48.1346C3.5 48.13 3.5 48.1253 3.5 48.1207C3.5 48.116 3.5 48.1114 3.5 48.1067C3.5 48.1021 3.5 48.0975 3.5 48.0928C3.5 48.0882 3.5 48.0835 3.5 48.0789C3.5 48.0742 3.5 48.0696 3.5 48.0649C3.5 48.0603 3.5 48.0557 3.5 48.051C3.5 48.0464 3.5 48.0417 3.5 48.0371C3.5 48.0325 3.5 48.0278 3.5 48.0232C3.5 48.0186 3.5 48.0139 3.5 48.0093C3.5 48.0047 3.5 48 3.5 47.9954C3.5 47.9907 3.5 47.9861 3.5 47.9815C3.5 47.9768 3.5 47.9722 3.5 47.9676C3.5 47.963 3.5 47.9583 3.5 47.9537C3.5 47.9491 3.5 47.9444 3.5 47.9398C3.5 47.9352 3.5 47.9305 3.5 47.9259C3.5 47.9213 3.5 47.9167 3.5 47.912C3.5 47.9074 3.5 47.9028 3.5 47.8982C3.5 47.8935 3.5 47.8889 3.5 47.8843C3.5 47.8797 3.5 47.875 3.5 47.8704C3.5 47.8658 3.5 47.8612 3.5 47.8566C3.5 47.8519 3.5 47.8473 3.5 47.8427C3.5 47.8381 3.5 47.8335 3.5 47.8288C3.5 47.8242 3.5 47.8196 3.5 47.815C3.5 47.8104 3.5 47.8058 3.5 47.8012C3.5 47.7965 3.5 47.7919 3.5 47.7873C3.5 47.7827 3.5 47.7781 3.5 47.7735C3.5 47.7689 3.5 47.7643 3.5 47.7596C3.5 47.755 3.5 47.7504 3.5 47.7458C3.5 47.7412 3.5 47.7366 3.5 47.732C3.5 47.7274 3.5 47.7228 3.5 47.7182C3.5 47.7136 3.5 47.709 3.5 47.7044C3.5 47.6998 3.5 47.6952 3.5 47.6905C3.5 47.6859 3.5 47.6813 3.5 47.6767C3.5 47.6721 3.5 47.6675 3.5 47.6629C3.5 47.6583 3.5 47.6537 3.5 47.6491C3.5 47.6445 3.5 47.6399 3.5 47.6354C3.5 47.6308 3.5 47.6262 3.5 47.6216C3.5 47.617 3.5 47.6124 3.5 47.6078C3.5 47.6032 3.5 47.5986 3.5 47.594C3.5 47.5894 3.5 47.5848 3.5 47.5802C3.5 47.5756 3.5 47.571 3.5 47.5665C3.5 47.5619 3.5 47.5573 3.5 47.5527C3.5 47.5481 3.5 47.5435 3.5 47.5389C3.5 47.5343 3.5 47.5298 3.5 47.5252C3.5 47.5206 3.5 47.516 3.5 47.5114C3.5 47.5068 3.5 47.5022 3.5 47.4977C3.5 47.4931 3.5 47.4885 3.5 47.4839C3.5 47.4793 3.5 47.4748 3.5 47.4702C3.5 47.4656 3.5 47.461 3.5 47.4564C3.5 47.4519 3.5 47.4473 3.5 47.4427C3.5 47.4381 3.5 47.4336 3.5 47.429C3.5 47.4244 3.5 47.4198 3.5 47.4153C3.5 47.4107 3.5 47.4061 3.5 47.4015C3.5 47.397 3.5 47.3924 3.5 47.3878C3.5 47.3833 3.5 47.3787 3.5 47.3741C3.5 47.3696 3.5 47.365 3.5 47.3604C3.5 47.3559 3.5 47.3513 3.5 47.3467C3.5 47.3422 3.5 47.3376 3.5 47.333C3.5 47.3285 3.5 47.3239 3.5 47.3193C3.5 47.3148 3.5 47.3102 3.5 47.3056C3.5 47.3011 3.5 47.2965 3.5 47.292C3.5 47.2874 3.5 47.2828 3.5 47.2783C3.5 47.2737 3.5 47.2692 3.5 47.2646C3.5 47.2601 3.5 47.2555 3.5 47.2509C3.5 47.2464 3.5 47.2418 3.5 47.2373C3.5 47.2327 3.5 47.2282 3.5 47.2236C3.5 47.2191 3.5 47.2145 3.5 47.21C3.5 47.2054 3.5 47.2009 3.5 47.1963C3.5 47.1918 3.5 47.1872 3.5 47.1827C3.5 47.1781 3.5 47.1736 3.5 47.169C3.5 47.1645 3.5 47.1599 3.5 47.1554C3.5 47.1509 3.5 47.1463 3.5 47.1418C3.5 47.1372 3.5 47.1327 3.5 47.1281C3.5 47.1236 3.5 47.1191 3.5 47.1145C3.5 47.11 3.5 47.1054 3.5 47.1009C3.5 47.0964 3.5 47.0918 3.5 47.0873C3.5 47.0827 3.5 47.0782 3.5 47.0737C3.5 47.0691 3.5 47.0646 3.5 47.0601C3.5 47.0555 3.5 47.051 3.5 47.0465C3.5 47.0419 3.5 47.0374 3.5 47.0329C3.5 47.0283 3.5 47.0238 3.5 47.0193C3.5 47.0148 3.5 47.0102 3.5 47.0057C3.5 47.0012 3.5 46.9966 3.5 46.9921C3.5 46.9876 3.5 46.9831 3.5 46.9785C3.5 46.974 3.5 46.9695 3.5 46.965C3.5 46.9604 3.5 46.9559 3.5 46.9514C3.5 46.9469 3.5 46.9424 3.5 46.9378C3.5 46.9333 3.5 46.9288 3.5 46.9243C3.5 46.9198 3.5 46.9152 3.5 46.9107C3.5 46.9062 3.5 46.9017 3.5 46.8972C3.5 46.8927 3.5 46.8881 3.5 46.8836C3.5 46.8791 3.5 46.8746 3.5 46.8701C3.5 46.8656 3.5 46.8611 3.5 46.8566C3.5 46.852 3.5 46.8475 3.5 46.843C3.5 46.8385 3.5 46.834 3.5 46.8295C3.5 46.825 3.5 46.8205 3.5 46.816C3.5 46.8115 3.5 46.807 3.5 46.8025C3.5 46.798 3.5 46.7935 3.5 46.789C3.5 46.7845 3.5 46.7799 3.5 46.7754C3.5 46.7709 3.5 46.7664 3.5 46.7619C3.5 46.7574 3.5 46.7529 3.5 46.7484C3.5 46.7439 3.5 46.7394 3.5 46.735C3.5 46.7305 3.5 46.726 3.5 46.7215C3.5 46.717 3.5 46.7125 3.5 46.708C3.5 46.7035 3.5 46.699 3.5 46.6945C3.5 46.69 3.5 46.6855 3.5 46.681C3.5 46.6765 3.5 46.672 3.5 46.6676C3.5 46.6631 3.5 46.6586 3.5 46.6541C3.5 46.6496 3.5 46.6451 3.5 46.6406C3.5 46.6361 3.5 46.6317 3.5 46.6272C3.5 46.6227 3.5 46.6182 3.5 46.6137C3.5 46.6092 3.5 46.6048 3.5 46.6003C3.5 46.5958 3.5 46.5913 3.5 46.5868C3.5 46.5824 3.5 46.5779 3.5 46.5734C3.5 46.5689 3.5 46.5644 3.5 46.56C3.5 46.5555 3.5 46.551 3.5 46.5465C3.5 46.5421 3.5 46.5376 3.5 46.5331C3.5 46.5287 3.5 46.5242 3.5 46.5197C3.5 46.5152 3.5 46.5108 3.5 46.5063C3.5 46.5018 3.5 46.4974 3.5 46.4929C3.5 46.4884 3.5 46.484 3.5 46.4795C3.5 46.475 3.5 46.4706 3.5 46.4661C3.5 46.4616 3.5 46.4572 3.5 46.4527C3.5 46.4482 3.5 46.4438 3.5 46.4393C3.5 46.4348 3.5 46.4304 3.5 46.4259C3.5 46.4215 3.5 46.417 3.5 46.4125C3.5 46.4081 3.5 46.4036 3.5 46.3992C3.5 46.3947 3.5 46.3903 3.5 46.3858C3.5 46.3813 3.5 46.3769 3.5 46.3724C3.5 46.368 3.5 46.3635 3.5 46.3591C3.5 46.3546 3.5 46.3502 3.5 46.3457C3.5 46.3413 3.5 46.3368 3.5 46.3324C3.5 46.3279 3.5 46.3235 3.5 46.319C3.5 46.3146 3.5 46.3101 3.5 46.3057C3.5 46.3012 3.5 46.2968 3.5 46.2923C3.5 46.2879 3.5 46.2835 3.5 46.279C3.5 46.2746 3.5 46.2701 3.5 46.2657C3.5 46.2612 3.5 46.2568 3.5 46.2524C3.5 46.2479 3.5 46.2435 3.5 46.2391C3.5 46.2346 3.5 46.2302 3.5 46.2257C3.5 46.2213 3.5 46.2169 3.5 46.2124C3.5 46.208 3.5 46.2036 3.5 46.1991C3.5 46.1947 3.5 46.1903 3.5 46.1858C3.5 46.1814 3.5 46.177 3.5 46.1725C3.5 46.1681 3.5 46.1637 3.5 46.1593C3.5 46.1548 3.5 46.1504 3.5 46.146C3.5 46.1416 3.5 46.1371 3.5 46.1327C3.5 46.1283 3.5 46.1239 3.5 46.1194C3.5 46.115 3.5 46.1106 3.5 46.1062C3.5 46.1017 3.5 46.0973 3.5 46.0929C3.5 46.0885 3.5 46.0841 3.5 46.0796C3.5 46.0752 3.5 46.0708 3.5 46.0664C3.5 46.062 3.5 46.0576 3.5 46.0531C3.5 46.0487 3.5 46.0443 3.5 46.0399C3.5 46.0355 3.5 46.0311 3.5 46.0267C3.5 46.0223 3.5 46.0178 3.5 46.0134C3.5 46.009 3.5 46.0046 3.5 46.0002C3.5 45.9958 3.5 45.9914 3.5 45.987C3.5 45.9826 3.5 45.9782 3.5 45.9738C3.5 45.9694 3.5 45.965 3.5 45.9606C3.5 45.9561 3.5 45.9517 3.5 45.9473C3.5 45.9429 3.5 45.9385 3.5 45.9341C3.5 45.9297 3.5 45.9253 3.5 45.9209C3.5 45.9165 3.5 45.9121 3.5 45.9077C3.5 45.9034 3.5 45.899 3.5 45.8946C3.5 45.8902 3.5 45.8858 3.5 45.8814C3.5 45.877 3.5 45.8726 3.5 45.8682C3.5 45.8638 3.5 45.8594 3.5 45.855C3.5 45.8506 3.5 45.8462 3.5 45.8419C3.5 45.8375 3.5 45.8331 3.5 45.8287C3.5 45.8243 3.5 45.8199 3.5 45.8155C3.5 45.8112 3.5 45.8068 3.5 45.8024C3.5 45.798 3.5 45.7936 3.5 45.7892C3.5 45.7849 3.5 45.7805 3.5 45.7761C3.5 45.7717 3.5 45.7673 3.5 45.763C3.5 45.7586 3.5 45.7542 3.5 45.7498C3.5 45.7455 3.5 45.7411 3.5 45.7367C3.5 45.7323 3.5 45.728 3.5 45.7236C3.5 45.7192 3.5 45.7148 3.5 45.7105C3.5 45.7061 3.5 45.7017 3.5 45.6973C3.5 45.693 3.5 45.6886 3.5 45.6842C3.5 45.6799 3.5 45.6755 3.5 45.6711C3.5 45.6668 3.5 45.6624 3.5 45.658C3.5 45.6537 3.5 45.6493 3.5 45.645C3.5 45.6406 3.5 45.6362 3.5 45.6319C3.5 45.6275 3.5 45.6231 3.5 45.6188C3.5 45.6144 3.5 45.6101 3.5 45.6057C3.5 45.6013 3.5 45.597 3.5 45.5926C3.5 45.5883 3.5 45.5839 3.5 45.5796C3.5 45.5752 3.5 45.5709 3.5 45.5665C3.5 45.5622 3.5 45.5578 3.5 45.5534C3.5 45.5491 3.5 45.5447 3.5 45.5404C3.5 45.536 3.5 45.5317 3.5 45.5274C3.5 45.523 3.5 45.5187 3.5 45.5143C3.5 45.51 3.5 45.5056 3.5 45.5013C3.5 45.4969 3.5 45.4926 3.5 45.4882C3.5 45.4839 3.5 45.4796 3.5 45.4752C3.5 45.4709 3.5 45.4665 3.5 45.4622C3.5 45.4579 3.5 45.4535 3.5 45.4492C3.5 45.4448 3.5 45.4405 3.5 45.4362C3.5 45.4318 3.5 45.4275 3.5 45.4232C3.5 45.4188 3.5 45.4145 3.5 45.4102C3.5 45.4058 3.5 45.4015 3.5 45.3972C3.5 45.3928 3.5 45.3885 3.5 45.3842C3.5 45.3799 3.5 45.3755 3.5 45.3712C3.5 45.3669 3.5 45.3625 3.5 45.3582C3.5 45.3539 3.5 45.3496 3.5 45.3452C3.5 45.3409 3.5 45.3366 3.5 45.3323C3.5 45.328 3.5 45.3236 3.5 45.3193C3.5 45.315 3.5 45.3107 3.5 45.3064C3.5 45.302 3.5 45.2977 3.5 45.2934C3.5 45.2891 3.5 45.2848 3.5 45.2805C3.5 45.2761 3.5 45.2718 3.5 45.2675C3.5 45.2632 3.5 45.2589 3.5 45.2546C3.5 45.2503 3.5 45.246 3.5 45.2416C3.5 45.2373 3.5 45.233 3.5 45.2287C3.5 45.2244 3.5 45.2201 3.5 45.2158C3.5 45.2115 3.5 45.2072 3.5 45.2029C3.5 45.1986 3.5 45.1943 3.5 45.19C3.5 45.1857 3.5 45.1814 3.5 45.1771H0.5C0.5 45.1814 0.5 45.1857 0.5 45.19C0.5 45.1943 0.5 45.1986 0.5 45.2029C0.5 45.2072 0.5 45.2115 0.5 45.2158C0.5 45.2201 0.5 45.2244 0.5 45.2287C0.5 45.233 0.5 45.2373 0.5 45.2416C0.5 45.246 0.5 45.2503 0.5 45.2546C0.5 45.2589 0.5 45.2632 0.5 45.2675C0.5 45.2718 0.5 45.2761 0.5 45.2805C0.5 45.2848 0.5 45.2891 0.5 45.2934C0.5 45.2977 0.5 45.302 0.5 45.3064C0.5 45.3107 0.5 45.315 0.5 45.3193C0.5 45.3236 0.5 45.328 0.5 45.3323C0.5 45.3366 0.5 45.3409 0.5 45.3452C0.5 45.3496 0.5 45.3539 0.5 45.3582C0.5 45.3625 0.5 45.3669 0.5 45.3712C0.5 45.3755 0.5 45.3799 0.5 45.3842C0.5 45.3885 0.5 45.3928 0.5 45.3972C0.5 45.4015 0.5 45.4058 0.5 45.4102C0.5 45.4145 0.5 45.4188 0.5 45.4232C0.5 45.4275 0.5 45.4318 0.5 45.4362C0.5 45.4405 0.5 45.4448 0.5 45.4492C0.5 45.4535 0.5 45.4579 0.5 45.4622C0.5 45.4665 0.5 45.4709 0.5 45.4752C0.5 45.4796 0.5 45.4839 0.5 45.4882C0.5 45.4926 0.5 45.4969 0.5 45.5013C0.5 45.5056 0.5 45.51 0.5 45.5143C0.5 45.5187 0.5 45.523 0.5 45.5274C0.5 45.5317 0.5 45.536 0.5 45.5404C0.5 45.5447 0.5 45.5491 0.5 45.5534C0.5 45.5578 0.5 45.5622 0.5 45.5665C0.5 45.5709 0.5 45.5752 0.5 45.5796C0.5 45.5839 0.5 45.5883 0.5 45.5926C0.5 45.597 0.5 45.6013 0.5 45.6057C0.5 45.6101 0.5 45.6144 0.5 45.6188C0.5 45.6231 0.5 45.6275 0.5 45.6319C0.5 45.6362 0.5 45.6406 0.5 45.645C0.5 45.6493 0.5 45.6537 0.5 45.658C0.5 45.6624 0.5 45.6668 0.5 45.6711C0.5 45.6755 0.5 45.6799 0.5 45.6842C0.5 45.6886 0.5 45.693 0.5 45.6973C0.5 45.7017 0.5 45.7061 0.5 45.7105C0.5 45.7148 0.5 45.7192 0.5 45.7236C0.5 45.728 0.5 45.7323 0.5 45.7367C0.5 45.7411 0.5 45.7455 0.5 45.7498C0.5 45.7542 0.5 45.7586 0.5 45.763C0.5 45.7673 0.5 45.7717 0.5 45.7761C0.5 45.7805 0.5 45.7849 0.5 45.7892C0.5 45.7936 0.5 45.798 0.5 45.8024C0.5 45.8068 0.5 45.8112 0.5 45.8155C0.5 45.8199 0.5 45.8243 0.5 45.8287C0.5 45.8331 0.5 45.8375 0.5 45.8419C0.5 45.8462 0.5 45.8506 0.5 45.855C0.5 45.8594 0.5 45.8638 0.5 45.8682C0.5 45.8726 0.5 45.877 0.5 45.8814C0.5 45.8858 0.5 45.8902 0.5 45.8946C0.5 45.899 0.5 45.9034 0.5 45.9077C0.5 45.9121 0.5 45.9165 0.5 45.9209C0.5 45.9253 0.5 45.9297 0.5 45.9341C0.5 45.9385 0.5 45.9429 0.5 45.9473C0.5 45.9517 0.5 45.9561 0.5 45.9606C0.5 45.965 0.5 45.9694 0.5 45.9738C0.5 45.9782 0.5 45.9826 0.5 45.987C0.5 45.9914 0.5 45.9958 0.5 46.0002C0.5 46.0046 0.5 46.009 0.5 46.0134C0.5 46.0178 0.5 46.0223 0.5 46.0267C0.5 46.0311 0.5 46.0355 0.5 46.0399C0.5 46.0443 0.5 46.0487 0.5 46.0531C0.5 46.0576 0.5 46.062 0.5 46.0664C0.5 46.0708 0.5 46.0752 0.5 46.0796C0.5 46.0841 0.5 46.0885 0.5 46.0929C0.5 46.0973 0.5 46.1017 0.5 46.1062C0.5 46.1106 0.5 46.115 0.5 46.1194C0.5 46.1239 0.5 46.1283 0.5 46.1327C0.5 46.1371 0.5 46.1416 0.5 46.146C0.5 46.1504 0.5 46.1548 0.5 46.1593C0.5 46.1637 0.5 46.1681 0.5 46.1725C0.5 46.177 0.5 46.1814 0.5 46.1858C0.5 46.1903 0.5 46.1947 0.5 46.1991C0.5 46.2036 0.5 46.208 0.5 46.2124C0.5 46.2169 0.5 46.2213 0.5 46.2257C0.5 46.2302 0.5 46.2346 0.5 46.2391C0.5 46.2435 0.5 46.2479 0.5 46.2524C0.5 46.2568 0.5 46.2612 0.5 46.2657C0.5 46.2701 0.5 46.2746 0.5 46.279C0.5 46.2835 0.5 46.2879 0.5 46.2923C0.5 46.2968 0.5 46.3012 0.5 46.3057C0.5 46.3101 0.5 46.3146 0.5 46.319C0.5 46.3235 0.5 46.3279 0.5 46.3324C0.5 46.3368 0.5 46.3413 0.5 46.3457C0.5 46.3502 0.5 46.3546 0.5 46.3591C0.5 46.3635 0.5 46.368 0.5 46.3724C0.5 46.3769 0.5 46.3813 0.5 46.3858C0.5 46.3903 0.5 46.3947 0.5 46.3992C0.5 46.4036 0.5 46.4081 0.5 46.4125C0.5 46.417 0.5 46.4215 0.5 46.4259C0.5 46.4304 0.5 46.4348 0.5 46.4393C0.5 46.4438 0.5 46.4482 0.5 46.4527C0.5 46.4572 0.5 46.4616 0.5 46.4661C0.5 46.4706 0.5 46.475 0.5 46.4795C0.5 46.484 0.5 46.4884 0.5 46.4929C0.5 46.4974 0.5 46.5018 0.5 46.5063C0.5 46.5108 0.5 46.5152 0.5 46.5197C0.5 46.5242 0.5 46.5287 0.5 46.5331C0.5 46.5376 0.5 46.5421 0.5 46.5465C0.5 46.551 0.5 46.5555 0.5 46.56C0.5 46.5644 0.5 46.5689 0.5 46.5734C0.5 46.5779 0.5 46.5824 0.5 46.5868C0.5 46.5913 0.5 46.5958 0.5 46.6003C0.5 46.6048 0.5 46.6092 0.5 46.6137C0.5 46.6182 0.5 46.6227 0.5 46.6272C0.5 46.6317 0.5 46.6361 0.5 46.6406C0.5 46.6451 0.5 46.6496 0.5 46.6541C0.5 46.6586 0.5 46.6631 0.5 46.6676C0.5 46.672 0.5 46.6765 0.5 46.681C0.5 46.6855 0.5 46.69 0.5 46.6945C0.5 46.699 0.5 46.7035 0.5 46.708C0.5 46.7125 0.5 46.717 0.5 46.7215C0.5 46.726 0.5 46.7305 0.5 46.735C0.5 46.7394 0.5 46.7439 0.5 46.7484C0.5 46.7529 0.5 46.7574 0.5 46.7619C0.5 46.7664 0.5 46.7709 0.5 46.7754C0.5 46.7799 0.5 46.7845 0.5 46.789C0.5 46.7935 0.5 46.798 0.5 46.8025C0.5 46.807 0.5 46.8115 0.5 46.816C0.5 46.8205 0.5 46.825 0.5 46.8295C0.5 46.834 0.5 46.8385 0.5 46.843C0.5 46.8475 0.5 46.852 0.5 46.8566C0.5 46.8611 0.5 46.8656 0.5 46.8701C0.5 46.8746 0.5 46.8791 0.5 46.8836C0.5 46.8881 0.5 46.8927 0.5 46.8972C0.5 46.9017 0.5 46.9062 0.5 46.9107C0.5 46.9152 0.5 46.9198 0.5 46.9243C0.5 46.9288 0.5 46.9333 0.5 46.9378C0.5 46.9424 0.5 46.9469 0.5 46.9514C0.5 46.9559 0.5 46.9604 0.5 46.965C0.5 46.9695 0.5 46.974 0.5 46.9785C0.5 46.9831 0.5 46.9876 0.5 46.9921C0.5 46.9966 0.5 47.0012 0.5 47.0057C0.5 47.0102 0.5 47.0148 0.5 47.0193C0.5 47.0238 0.5 47.0283 0.5 47.0329C0.5 47.0374 0.5 47.0419 0.5 47.0465C0.5 47.051 0.5 47.0555 0.5 47.0601C0.5 47.0646 0.5 47.0691 0.5 47.0737C0.5 47.0782 0.5 47.0827 0.5 47.0873C0.5 47.0918 0.5 47.0964 0.5 47.1009C0.5 47.1054 0.5 47.11 0.5 47.1145C0.5 47.1191 0.5 47.1236 0.5 47.1281C0.5 47.1327 0.5 47.1372 0.5 47.1418C0.5 47.1463 0.5 47.1509 0.5 47.1554C0.5 47.1599 0.5 47.1645 0.5 47.169C0.5 47.1736 0.5 47.1781 0.5 47.1827C0.5 47.1872 0.5 47.1918 0.5 47.1963C0.5 47.2009 0.5 47.2054 0.5 47.21C0.5 47.2145 0.5 47.2191 0.5 47.2236C0.5 47.2282 0.5 47.2327 0.5 47.2373C0.5 47.2418 0.5 47.2464 0.5 47.2509C0.5 47.2555 0.5 47.2601 0.5 47.2646C0.5 47.2692 0.5 47.2737 0.5 47.2783C0.5 47.2828 0.5 47.2874 0.5 47.292C0.5 47.2965 0.5 47.3011 0.5 47.3056C0.5 47.3102 0.5 47.3148 0.5 47.3193C0.5 47.3239 0.5 47.3285 0.5 47.333C0.5 47.3376 0.5 47.3422 0.5 47.3467C0.5 47.3513 0.5 47.3559 0.5 47.3604C0.5 47.365 0.5 47.3696 0.5 47.3741C0.5 47.3787 0.5 47.3833 0.5 47.3878C0.5 47.3924 0.5 47.397 0.5 47.4015C0.5 47.4061 0.5 47.4107 0.5 47.4153C0.5 47.4198 0.5 47.4244 0.5 47.429C0.5 47.4336 0.5 47.4381 0.5 47.4427C0.5 47.4473 0.5 47.4519 0.5 47.4564C0.5 47.461 0.5 47.4656 0.5 47.4702C0.5 47.4748 0.5 47.4793 0.5 47.4839C0.5 47.4885 0.5 47.4931 0.5 47.4977C0.5 47.5022 0.5 47.5068 0.5 47.5114C0.5 47.516 0.5 47.5206 0.5 47.5252C0.5 47.5298 0.5 47.5343 0.5 47.5389C0.5 47.5435 0.5 47.5481 0.5 47.5527C0.5 47.5573 0.5 47.5619 0.5 47.5665C0.5 47.571 0.5 47.5756 0.5 47.5802C0.5 47.5848 0.5 47.5894 0.5 47.594C0.5 47.5986 0.5 47.6032 0.5 47.6078C0.5 47.6124 0.5 47.617 0.5 47.6216C0.5 47.6262 0.5 47.6308 0.5 47.6354C0.5 47.6399 0.5 47.6445 0.5 47.6491C0.5 47.6537 0.5 47.6583 0.5 47.6629C0.5 47.6675 0.5 47.6721 0.5 47.6767C0.5 47.6813 0.5 47.6859 0.5 47.6905C0.5 47.6952 0.5 47.6998 0.5 47.7044C0.5 47.709 0.5 47.7136 0.5 47.7182C0.5 47.7228 0.5 47.7274 0.5 47.732C0.5 47.7366 0.5 47.7412 0.5 47.7458C0.5 47.7504 0.5 47.755 0.5 47.7596C0.5 47.7643 0.5 47.7689 0.5 47.7735C0.5 47.7781 0.5 47.7827 0.5 47.7873C0.5 47.7919 0.5 47.7965 0.5 47.8012C0.5 47.8058 0.5 47.8104 0.5 47.815C0.5 47.8196 0.5 47.8242 0.5 47.8288C0.5 47.8335 0.5 47.8381 0.5 47.8427C0.5 47.8473 0.5 47.8519 0.5 47.8566C0.5 47.8612 0.5 47.8658 0.5 47.8704C0.5 47.875 0.5 47.8797 0.5 47.8843C0.5 47.8889 0.5 47.8935 0.5 47.8982C0.5 47.9028 0.5 47.9074 0.5 47.912C0.5 47.9167 0.5 47.9213 0.5 47.9259C0.5 47.9305 0.5 47.9352 0.5 47.9398C0.5 47.9444 0.5 47.9491 0.5 47.9537C0.5 47.9583 0.5 47.963 0.5 47.9676C0.5 47.9722 0.5 47.9768 0.5 47.9815C0.5 47.9861 0.5 47.9907 0.5 47.9954C0.5 48 0.5 48.0047 0.5 48.0093C0.5 48.0139 0.5 48.0186 0.5 48.0232C0.5 48.0278 0.5 48.0325 0.5 48.0371C0.5 48.0417 0.5 48.0464 0.5 48.051C0.5 48.0557 0.5 48.0603 0.5 48.0649C0.5 48.0696 0.5 48.0742 0.5 48.0789C0.5 48.0835 0.5 48.0882 0.5 48.0928C0.5 48.0975 0.5 48.1021 0.5 48.1067C0.5 48.1114 0.5 48.116 0.5 48.1207C0.5 48.1253 0.5 48.13 0.5 48.1346C0.5 48.1393 0.5 48.1439 0.5 48.1486C0.5 48.1532 0.5 48.1579 0.5 48.1625C0.5 48.1672 0.5 48.1718 0.5 48.1765C0.5 48.1811 0.5 48.1858 0.5 48.1904C0.5 48.1951 0.5 48.1997 0.5 48.2044C0.5 48.2091 0.5 48.2137 0.5 48.2184C0.5 48.223 0.5 48.2277 0.5 48.2323C0.5 48.237 0.5 48.2417 0.5 48.2463C0.5 48.251 0.5 48.2556 0.5 48.2603C0.5 48.265 0.5 48.2696 0.5 48.2743C0.5 48.279 0.5 48.2836 0.5 48.2883C0.5 48.2929 0.5 48.2976 0.5 48.3023C0.5 48.3069 0.5 48.3116 0.5 48.3163C0.5 48.3209 0.5 48.3256 0.5 48.3303C0.5 48.3349 0.5 48.3396 0.5 48.3443C0.5 48.349 0.5 48.3536 0.5 48.3583C0.5 48.363 0.5 48.3676 0.5 48.3723C0.5 48.377 0.5 48.3817 0.5 48.3863C0.5 48.391 0.5 48.3957 0.5 48.4003C0.5 48.405 0.5 48.4097 0.5 48.4144C0.5 48.4191 0.5 48.4237 0.5 48.4284C0.5 48.4331 0.5 48.4378 0.5 48.4424C0.5 48.4471 0.5 48.4518 0.5 48.4565C0.5 48.4612 0.5 48.4658 0.5 48.4705C0.5 48.4752 0.5 48.4799 0.5 48.4846C0.5 48.4893 0.5 48.4939 0.5 48.4986C0.5 48.5033 0.5 48.508 0.5 48.5127C0.5 48.5174 0.5 48.5221 0.5 48.5267C0.5 48.5314 0.5 48.5361 0.5 48.5408C0.5 48.5455 0.5 48.5502 0.5 48.5549C0.5 48.5596 0.5 48.5643 0.5 48.5689C0.5 48.5736 0.5 48.5783 0.5 48.583C0.5 48.5877 0.5 48.5924 0.5 48.5971C0.5 48.6018 0.5 48.6065 0.5 48.6112C0.5 48.6159 0.5 48.6206 0.5 48.6253C0.5 48.63 0.5 48.6347 0.5 48.6394C0.5 48.6441 0.5 48.6488 0.5 48.6535C0.5 48.6582 0.5 48.6629 0.5 48.6676C0.5 48.6723 0.5 48.677 0.5 48.6817C0.5 48.6864 0.5 48.6911 0.5 48.6958C0.5 48.7005 0.5 48.7052 0.5 48.7099C0.5 48.7146 0.5 48.7193 0.5 48.724C0.5 48.7287 0.5 48.7334 0.5 48.7381C0.5 48.7428 0.5 48.7475 0.5 48.7523C0.5 48.757 0.5 48.7617 0.5 48.7664C0.5 48.7711 0.5 48.7758 0.5 48.7805C0.5 48.7852 0.5 48.7899 0.5 48.7947C0.5 48.7994 0.5 48.8041 0.5 48.8088C0.5 48.8135 0.5 48.8182 0.5 48.8229C0.5 48.8277 0.5 48.8324 0.5 48.8371C0.5 48.8418 0.5 48.8465 0.5 48.8512C0.5 48.856 0.5 48.8607 0.5 48.8654C0.5 48.8701 0.5 48.8748 0.5 48.8796C0.5 48.8843 0.5 48.889 0.5 48.8937C0.5 48.8984 0.5 48.9032 0.5 48.9079C0.5 48.9126 0.5 48.9173 0.5 48.9221C0.5 48.9268 0.5 48.9315 0.5 48.9362C0.5 48.941 0.5 48.9457 0.5 48.9504C0.5 48.9551 0.5 48.9599 0.5 48.9646C0.5 48.9693 0.5 48.9741 0.5 48.9788C0.5 48.9835 0.5 48.9883 0.5 48.993C0.5 48.9977 0.5 49.0024 0.5 49.0072C0.5 49.0119 0.5 49.0166 0.5 49.0214C0.5 49.0261 0.5 49.0308 0.5 49.0356C0.5 49.0403 0.5 49.0451 0.5 49.0498C0.5 49.0545 0.5 49.0593 0.5 49.064C0.5 49.0687 0.5 49.0735 0.5 49.0782C0.5 49.083 0.5 49.0877 0.5 49.0924C0.5 49.0972 0.5 49.1019 0.5 49.1067C0.5 49.1114 0.5 49.1161 0.5 49.1209C0.5 49.1256 0.5 49.1304 0.5 49.1351C0.5 49.1399 0.5 49.1446 0.5 49.1494C0.5 49.1541 0.5 49.1589 0.5 49.1636C0.5 49.1683 0.5 49.1731 0.5 49.1778C0.5 49.1826 0.5 49.1873 0.5 49.1921C0.5 49.1968 0.5 49.2016 0.5 49.2063C0.5 49.2111 0.5 49.2158 0.5 49.2206C0.5 49.2253 0.5 49.2301 0.5 49.2349C0.5 49.2396 0.5 49.2444 0.5 49.2491C0.5 49.2539 0.5 49.2586 0.5 49.2634C0.5 49.2681 0.5 49.2729 0.5 49.2777C0.5 49.2824 0.5 49.2872 0.5 49.2919C0.5 49.2967 0.5 49.3014 0.5 49.3062C0.5 49.311 0.5 49.3157 0.5 49.3205C0.5 49.3252 0.5 49.33 0.5 49.3348C0.5 49.3395 0.5 49.3443 0.5 49.3491C0.5 49.3538 0.5 49.3586 0.5 49.3634C0.5 49.3681 0.5 49.3729 0.5 49.3777C0.5 49.3824 0.5 49.3872 0.5 49.392C0.5 49.3967 0.5 49.4015 0.5 49.4063C0.5 49.411 0.5 49.4158 0.5 49.4206C0.5 49.4253 0.5 49.4301 0.5 49.4349C0.5 49.4396 0.5 49.4444 0.5 49.4492C0.5 49.454 0.5 49.4587 0.5 49.4635C0.5 49.4683 0.5 49.4731 0.5 49.4778C0.5 49.4826 0.5 49.4874 0.5 49.4922C0.5 49.4969 0.5 49.5017 0.5 49.5065C0.5 49.5113 0.5 49.5161 0.5 49.5208C0.5 49.5256 0.5 49.5304 0.5 49.5352C0.5 49.5399 0.5 49.5447 0.5 49.5495C0.5 49.5543 0.5 49.5591 0.5 49.5639C0.5 49.5686 0.5 49.5734 0.5 49.5782C0.5 49.583 0.5 49.5878 0.5 49.5926C0.5 49.5973 0.5 49.6021 0.5 49.6069C0.5 49.6117 0.5 49.6165 0.5 49.6213C0.5 49.6261 0.5 49.6309 0.5 49.6356C0.5 49.6404 0.5 49.6452 0.5 49.65C0.5 49.6548 0.5 49.6596 0.5 49.6644C0.5 49.6692 0.5 49.674 0.5 49.6788C0.5 49.6836 0.5 49.6883 0.5 49.6931C0.5 49.6979 0.5 49.7027 0.5 49.7075C0.5 49.7123 0.5 49.7171 0.5 49.7219C0.5 49.7267 0.5 49.7315 0.5 49.7363C0.5 49.7411 0.5 49.7459 0.5 49.7507C0.5 49.7555 0.5 49.7603 0.5 49.7651C0.5 49.7699 0.5 49.7747 0.5 49.7795C0.5 49.7843 0.5 49.7891 0.5 49.7939C0.5 49.7987 0.5 49.8035 0.5 49.8083C0.5 49.8131 0.5 49.8179 0.5 49.8227C0.5 49.8275 0.5 49.8323 0.5 49.8371C0.5 49.8419 0.5 49.8468 0.5 49.8516C0.5 49.8564 0.5 49.8612 0.5 49.866C0.5 49.8708 0.5 49.8756 0.5 49.8804C0.5 49.8852 0.5 49.89 0.5 49.8948C0.5 49.8997 0.5 49.9045 0.5 49.9093C0.5 49.9141 0.5 49.9189 0.5 49.9237C0.5 49.9285 0.5 49.9333 0.5 49.9382C0.5 49.943 0.5 49.9478 0.5 49.9526C0.5 49.9574 0.5 49.9622 0.5 49.9671C0.5 49.9719 0.5 49.9767 0.5 49.9815C0.5 49.9863 0.5 49.9911 0.5 49.996C0.5 50.0008 0.5 50.0056 0.5 50.0104C0.5 50.0152 0.5 50.0201 0.5 50.0249C0.5 50.0297 0.5 50.0345 0.5 50.0394C0.5 50.0442 0.5 50.049 0.5 50.0538C0.5 50.0586 0.5 50.0635 0.5 50.0683C0.5 50.0731 0.5 50.0779 0.5 50.0828C0.5 50.0876 0.5 50.0924 0.5 50.0973C0.5 50.1021 0.5 50.1069 0.5 50.1117C0.5 50.1166 0.5 50.1214 0.5 50.1262C0.5 50.1311 0.5 50.1359 0.5 50.1407C0.5 50.1456 0.5 50.1504 0.5 50.1552C0.5 50.16 0.5 50.1649 0.5 50.1697C0.5 50.1745 0.5 50.1794 0.5 50.1842C0.5 50.1891 0.5 50.1939 0.5 50.1987C0.5 50.2036 0.5 50.2084 0.5 50.2132C0.5 50.2181 0.5 50.2229 0.5 50.2277C0.5 50.2326 0.5 50.2374 0.5 50.2423C0.5 50.2471 0.5 50.2519 0.5 50.2568C0.5 50.2616 0.5 50.2665 0.5 50.2713C0.5 50.2762 0.5 50.281 0.5 50.2858C0.5 50.2907 0.5 50.2955 0.5 50.3004C0.5 50.3052 0.5 50.3101 0.5 50.3149C0.5 50.3198 0.5 50.3246 0.5 50.3294C0.5 50.3343 0.5 50.3391 0.5 50.344C0.5 50.3488 0.5 50.3537 0.5 50.3585C0.5 50.3634 0.5 50.3682 0.5 50.3731C0.5 50.3779 0.5 50.3828 0.5 50.3876C0.5 50.3925 0.5 50.3973 0.5 50.4022C0.5 50.407 0.5 50.4119 0.5 50.4167C0.5 50.4216 0.5 50.4265 0.5 50.4313C0.5 50.4362 0.5 50.441 0.5 50.4459C0.5 50.4507 0.5 50.4556 0.5 50.4604C0.5 50.4653 0.5 50.4702 0.5 50.475C0.5 50.4799 0.5 50.4847 0.5 50.4896C0.5 50.4944 0.5 50.4993 0.5 50.5042C0.5 50.509 0.5 50.5139 0.5 50.5188C0.5 50.5236 0.5 50.5285 0.5 50.5333C0.5 50.5382 0.5 50.5431 0.5 50.5479C0.5 50.5528 0.5 50.5577 0.5 50.5625C0.5 50.5674 0.5 50.5723 0.5 50.5771C0.5 50.582 0.5 50.5869 0.5 50.5917C0.5 50.5966 0.5 50.6015 0.5 50.6063C0.5 50.6112 0.5 50.6161 0.5 50.6209C0.5 50.6258 0.5 50.6307 0.5 50.6355C0.5 50.6404 0.5 50.6453 0.5 50.6502C0.5 50.655 0.5 50.6599 0.5 50.6648C0.5 50.6696 0.5 50.6745 0.5 50.6794C0.5 50.6843 0.5 50.6891 0.5 50.694C0.5 50.6989 0.5 50.7038 0.5 50.7086C0.5 50.7135 0.5 50.7184 0.5 50.7233C0.5 50.7282 0.5 50.733 0.5 50.7379C0.5 50.7428 0.5 50.7477 0.5 50.7525C0.5 50.7574 0.5 50.7623 0.5 50.7672C0.5 50.7721 0.5 50.777 0.5 50.7818C0.5 50.7867 0.5 50.7916 0.5 50.7965C0.5 50.8014 0.5 50.8062 0.5 50.8111C0.5 50.816 0.5 50.8209 0.5 50.8258C0.5 50.8307 0.5 50.8356 0.5 50.8404C0.5 50.8453 0.5 50.8502 0.5 50.8551C0.5 50.86 0.5 50.8649 0.5 50.8698C0.5 50.8747 0.5 50.8795 0.5 50.8844C0.5 50.8893 0.5 50.8942 0.5 50.8991C0.5 50.904 0.5 50.9089 0.5 50.9138C0.5 50.9187 0.5 50.9236 0.5 50.9285C0.5 50.9334 0.5 50.9382 0.5 50.9431C0.5 50.948 0.5 50.9529 0.5 50.9578C0.5 50.9627 0.5 50.9676 0.5 50.9725C0.5 50.9774 0.5 50.9823 0.5 50.9872C0.5 50.9921 0.5 50.997 0.5 51.0019C0.5 51.0068 0.5 51.0117 0.5 51.0166C0.5 51.0215 0.5 51.0264 0.5 51.0313C0.5 51.0362 0.5 51.0411 0.5 51.046C0.5 51.0509 0.5 51.0558 0.5 51.0607C0.5 51.0656 0.5 51.0705 0.5 51.0754C0.5 51.0803 0.5 51.0852 0.5 51.0901C0.5 51.095 0.5 51.0999 0.5 51.1048C0.5 51.1098 0.5 51.1147 0.5 51.1196C0.5 51.1245 0.5 51.1294 0.5 51.1343C0.5 51.1392 0.5 51.1441 0.5 51.149C0.5 51.1539 0.5 51.1588 0.5 51.1637C0.5 51.1687 0.5 51.1736 0.5 51.1785C0.5 51.1834 0.5 51.1883 0.5 51.1932C0.5 51.1981 0.5 51.203 0.5 51.208C0.5 51.2129 0.5 51.2178 0.5 51.2227C0.5 51.2276 0.5 51.2325 0.5 51.2374C0.5 51.2424 0.5 51.2473 0.5 51.2522C0.5 51.2571 0.5 51.262 0.5 51.2669C0.5 51.2719 0.5 51.2768 0.5 51.2817C0.5 51.2866 0.5 51.2915 0.5 51.2965C0.5 51.3014 0.5 51.3063 0.5 51.3112C0.5 51.3161 0.5 51.3211 0.5 51.326C0.5 51.3309 0.5 51.3358 0.5 51.3408C0.5 51.3457 0.5 51.3506 0.5 51.3555C0.5 51.3605 0.5 51.3654 0.5 51.3703C0.5 51.3752 0.5 51.3802 0.5 51.3851C0.5 51.39 0.5 51.3949 0.5 51.3999C0.5 51.4048 0.5 51.4097 0.5 51.4146C0.5 51.4196 0.5 51.4245 0.5 51.4294C0.5 51.4344 0.5 51.4393 0.5 51.4442C0.5 51.4492 0.5 51.4541 0.5 51.459C0.5 51.4639 0.5 51.4689 0.5 51.4738C0.5 51.4787 0.5 51.4837 0.5 51.4886C0.5 51.4935 0.5 51.4985 0.5 51.5034C0.5 51.5084 0.5 51.5133 0.5 51.5182C0.5 51.5232 0.5 51.5281 0.5 51.533C0.5 51.538 0.5 51.5429 0.5 51.5478C0.5 51.5528 0.5 51.5577 0.5 51.5627C0.5 51.5676 0.5 51.5725 0.5 51.5775C0.5 51.5824 0.5 51.5874 0.5 51.5923C0.5 51.5972 0.5 51.6022 0.5 51.6071C0.5 51.6121 0.5 51.617 0.5 51.622C0.5 51.6269 0.5 51.6318 0.5 51.6368C0.5 51.6417 0.5 51.6467 0.5 51.6516C0.5 51.6566 0.5 51.6615 0.5 51.6665C0.5 51.6714 0.5 51.6763 0.5 51.6813C0.5 51.6862 0.5 51.6912 0.5 51.6961C0.5 51.7011 0.5 51.706 0.5 51.711C0.5 51.7159 0.5 51.7209 0.5 51.7258C0.5 51.7308 0.5 51.7357 0.5 51.7407C0.5 51.7456 0.5 51.7506 0.5 51.7555C0.5 51.7605 0.5 51.7654 0.5 51.7704C0.5 51.7753 0.5 51.7803 0.5 51.7853C0.5 51.7902 0.5 51.7952 0.5 51.8001C0.5 51.8051 0.5 51.81 0.5 51.815C0.5 51.8199 0.5 51.8249 0.5 51.8299C0.5 51.8348 0.5 51.8398 0.5 51.8447C0.5 51.8497 0.5 51.8547 0.5 51.8596C0.5 51.8646 0.5 51.8695 0.5 51.8745C0.5 51.8795 0.5 51.8844 0.5 51.8894C0.5 51.8943 0.5 51.8993 0.5 51.9043C0.5 51.9092 0.5 51.9142 0.5 51.9191C0.5 51.9241 0.5 51.9291 0.5 51.934C0.5 51.939 0.5 51.944 0.5 51.9489C0.5 51.9539 0.5 51.9589 0.5 51.9638C0.5 51.9688 0.5 51.9738 0.5 51.9787C0.5 51.9837 0.5 51.9887 0.5 51.9936C0.5 51.9986 0.5 52.0036 0.5 52.0085C0.5 52.0135 0.5 52.0185 0.5 52.0234C0.5 52.0284 0.5 52.0334 0.5 52.0384C0.5 52.0433 0.5 52.0483 0.5 52.0533C0.5 52.0583 0.5 52.0632 0.5 52.0682C0.5 52.0732 0.5 52.0781 0.5 52.0831C0.5 52.0881 0.5 52.0931 0.5 52.098C0.5 52.103 0.5 52.108 0.5 52.113C0.5 52.1179 0.5 52.1229 0.5 52.1279C0.5 52.1329 0.5 52.1379 0.5 52.1428C0.5 52.1478 0.5 52.1528 0.5 52.1578C0.5 52.1627 0.5 52.1677 0.5 52.1727C0.5 52.1777 0.5 52.1827 0.5 52.1876C0.5 52.1926 0.5 52.1976 0.5 52.2026C0.5 52.2076 0.5 52.2126 0.5 52.2175C0.5 52.2225 0.5 52.2275 0.5 52.2325C0.5 52.2375 0.5 52.2425 0.5 52.2474C0.5 52.2524 0.5 52.2574 0.5 52.2624C0.5 52.2674 0.5 52.2724 0.5 52.2774C0.5 52.2823 0.5 52.2873 0.5 52.2923C0.5 52.2973 0.5 52.3023 0.5 52.3073C0.5 52.3123 0.5 52.3173 0.5 52.3223C0.5 52.3272 0.5 52.3322 0.5 52.3372C0.5 52.3422 0.5 52.3472 0.5 52.3522C0.5 52.3572 0.5 52.3622 0.5 52.3672H3.5ZM12.8 35.8789H27.2V32.8789H12.8V35.8789ZM36.5 45.1771C36.5 45.1814 36.5 45.1857 36.5 45.19C36.5 45.1943 36.5 45.1986 36.5 45.2029C36.5 45.2072 36.5 45.2115 36.5 45.2158C36.5 45.2201 36.5 45.2244 36.5 45.2287C36.5 45.233 36.5 45.2373 36.5 45.2416C36.5 45.246 36.5 45.2503 36.5 45.2546C36.5 45.2589 36.5 45.2632 36.5 45.2675C36.5 45.2718 36.5 45.2761 36.5 45.2805C36.5 45.2848 36.5 45.2891 36.5 45.2934C36.5 45.2977 36.5 45.302 36.5 45.3064C36.5 45.3107 36.5 45.315 36.5 45.3193C36.5 45.3236 36.5 45.328 36.5 45.3323C36.5 45.3366 36.5 45.3409 36.5 45.3452C36.5 45.3496 36.5 45.3539 36.5 45.3582C36.5 45.3625 36.5 45.3669 36.5 45.3712C36.5 45.3755 36.5 45.3799 36.5 45.3842C36.5 45.3885 36.5 45.3928 36.5 45.3972C36.5 45.4015 36.5 45.4058 36.5 45.4102C36.5 45.4145 36.5 45.4188 36.5 45.4232C36.5 45.4275 36.5 45.4318 36.5 45.4362C36.5 45.4405 36.5 45.4448 36.5 45.4492C36.5 45.4535 36.5 45.4579 36.5 45.4622C36.5 45.4665 36.5 45.4709 36.5 45.4752C36.5 45.4796 36.5 45.4839 36.5 45.4882C36.5 45.4926 36.5 45.4969 36.5 45.5013C36.5 45.5056 36.5 45.51 36.5 45.5143C36.5 45.5187 36.5 45.523 36.5 45.5274C36.5 45.5317 36.5 45.536 36.5 45.5404C36.5 45.5447 36.5 45.5491 36.5 45.5534C36.5 45.5578 36.5 45.5622 36.5 45.5665C36.5 45.5709 36.5 45.5752 36.5 45.5796C36.5 45.5839 36.5 45.5883 36.5 45.5926C36.5 45.597 36.5 45.6013 36.5 45.6057C36.5 45.6101 36.5 45.6144 36.5 45.6188C36.5 45.6231 36.5 45.6275 36.5 45.6319C36.5 45.6362 36.5 45.6406 36.5 45.645C36.5 45.6493 36.5 45.6537 36.5 45.658C36.5 45.6624 36.5 45.6668 36.5 45.6711C36.5 45.6755 36.5 45.6799 36.5 45.6842C36.5 45.6886 36.5 45.693 36.5 45.6973C36.5 45.7017 36.5 45.7061 36.5 45.7105C36.5 45.7148 36.5 45.7192 36.5 45.7236C36.5 45.728 36.5 45.7323 36.5 45.7367C36.5 45.7411 36.5 45.7455 36.5 45.7498C36.5 45.7542 36.5 45.7586 36.5 45.763C36.5 45.7673 36.5 45.7717 36.5 45.7761C36.5 45.7805 36.5 45.7849 36.5 45.7892C36.5 45.7936 36.5 45.798 36.5 45.8024C36.5 45.8068 36.5 45.8112 36.5 45.8155C36.5 45.8199 36.5 45.8243 36.5 45.8287C36.5 45.8331 36.5 45.8375 36.5 45.8419C36.5 45.8462 36.5 45.8506 36.5 45.855C36.5 45.8594 36.5 45.8638 36.5 45.8682C36.5 45.8726 36.5 45.877 36.5 45.8814C36.5 45.8858 36.5 45.8902 36.5 45.8946C36.5 45.899 36.5 45.9034 36.5 45.9077C36.5 45.9121 36.5 45.9165 36.5 45.9209C36.5 45.9253 36.5 45.9297 36.5 45.9341C36.5 45.9385 36.5 45.9429 36.5 45.9473C36.5 45.9517 36.5 45.9561 36.5 45.9606C36.5 45.965 36.5 45.9694 36.5 45.9738C36.5 45.9782 36.5 45.9826 36.5 45.987C36.5 45.9914 36.5 45.9958 36.5 46.0002C36.5 46.0046 36.5 46.009 36.5 46.0134C36.5 46.0178 36.5 46.0223 36.5 46.0267C36.5 46.0311 36.5 46.0355 36.5 46.0399C36.5 46.0443 36.5 46.0487 36.5 46.0531C36.5 46.0576 36.5 46.062 36.5 46.0664C36.5 46.0708 36.5 46.0752 36.5 46.0796C36.5 46.0841 36.5 46.0885 36.5 46.0929C36.5 46.0973 36.5 46.1017 36.5 46.1062C36.5 46.1106 36.5 46.115 36.5 46.1194C36.5 46.1239 36.5 46.1283 36.5 46.1327C36.5 46.1371 36.5 46.1416 36.5 46.146C36.5 46.1504 36.5 46.1548 36.5 46.1593C36.5 46.1637 36.5 46.1681 36.5 46.1725C36.5 46.177 36.5 46.1814 36.5 46.1858C36.5 46.1903 36.5 46.1947 36.5 46.1991C36.5 46.2036 36.5 46.208 36.5 46.2124C36.5 46.2169 36.5 46.2213 36.5 46.2257C36.5 46.2302 36.5 46.2346 36.5 46.2391C36.5 46.2435 36.5 46.2479 36.5 46.2524C36.5 46.2568 36.5 46.2612 36.5 46.2657C36.5 46.2701 36.5 46.2746 36.5 46.279C36.5 46.2835 36.5 46.2879 36.5 46.2923C36.5 46.2968 36.5 46.3012 36.5 46.3057C36.5 46.3101 36.5 46.3146 36.5 46.319C36.5 46.3235 36.5 46.3279 36.5 46.3324C36.5 46.3368 36.5 46.3413 36.5 46.3457C36.5 46.3502 36.5 46.3546 36.5 46.3591C36.5 46.3635 36.5 46.368 36.5 46.3724C36.5 46.3769 36.5 46.3813 36.5 46.3858C36.5 46.3903 36.5 46.3947 36.5 46.3992C36.5 46.4036 36.5 46.4081 36.5 46.4125C36.5 46.417 36.5 46.4215 36.5 46.4259C36.5 46.4304 36.5 46.4348 36.5 46.4393C36.5 46.4438 36.5 46.4482 36.5 46.4527C36.5 46.4572 36.5 46.4616 36.5 46.4661C36.5 46.4706 36.5 46.475 36.5 46.4795C36.5 46.484 36.5 46.4884 36.5 46.4929C36.5 46.4974 36.5 46.5018 36.5 46.5063C36.5 46.5108 36.5 46.5152 36.5 46.5197C36.5 46.5242 36.5 46.5287 36.5 46.5331C36.5 46.5376 36.5 46.5421 36.5 46.5465C36.5 46.551 36.5 46.5555 36.5 46.56C36.5 46.5644 36.5 46.5689 36.5 46.5734C36.5 46.5779 36.5 46.5824 36.5 46.5868C36.5 46.5913 36.5 46.5958 36.5 46.6003C36.5 46.6048 36.5 46.6092 36.5 46.6137C36.5 46.6182 36.5 46.6227 36.5 46.6272C36.5 46.6317 36.5 46.6361 36.5 46.6406C36.5 46.6451 36.5 46.6496 36.5 46.6541C36.5 46.6586 36.5 46.6631 36.5 46.6676C36.5 46.672 36.5 46.6765 36.5 46.681C36.5 46.6855 36.5 46.69 36.5 46.6945C36.5 46.699 36.5 46.7035 36.5 46.708C36.5 46.7125 36.5 46.717 36.5 46.7215C36.5 46.726 36.5 46.7305 36.5 46.735C36.5 46.7394 36.5 46.7439 36.5 46.7484C36.5 46.7529 36.5 46.7574 36.5 46.7619C36.5 46.7664 36.5 46.7709 36.5 46.7754C36.5 46.7799 36.5 46.7845 36.5 46.789C36.5 46.7935 36.5 46.798 36.5 46.8025C36.5 46.807 36.5 46.8115 36.5 46.816C36.5 46.8205 36.5 46.825 36.5 46.8295C36.5 46.834 36.5 46.8385 36.5 46.843C36.5 46.8475 36.5 46.852 36.5 46.8566C36.5 46.8611 36.5 46.8656 36.5 46.8701C36.5 46.8746 36.5 46.8791 36.5 46.8836C36.5 46.8881 36.5 46.8927 36.5 46.8972C36.5 46.9017 36.5 46.9062 36.5 46.9107C36.5 46.9152 36.5 46.9198 36.5 46.9243C36.5 46.9288 36.5 46.9333 36.5 46.9378C36.5 46.9424 36.5 46.9469 36.5 46.9514C36.5 46.9559 36.5 46.9604 36.5 46.965C36.5 46.9695 36.5 46.974 36.5 46.9785C36.5 46.9831 36.5 46.9876 36.5 46.9921C36.5 46.9966 36.5 47.0012 36.5 47.0057C36.5 47.0102 36.5 47.0148 36.5 47.0193C36.5 47.0238 36.5 47.0283 36.5 47.0329C36.5 47.0374 36.5 47.0419 36.5 47.0465C36.5 47.051 36.5 47.0555 36.5 47.0601C36.5 47.0646 36.5 47.0691 36.5 47.0737C36.5 47.0782 36.5 47.0827 36.5 47.0873C36.5 47.0918 36.5 47.0964 36.5 47.1009C36.5 47.1054 36.5 47.11 36.5 47.1145C36.5 47.1191 36.5 47.1236 36.5 47.1281C36.5 47.1327 36.5 47.1372 36.5 47.1418C36.5 47.1463 36.5 47.1509 36.5 47.1554C36.5 47.1599 36.5 47.1645 36.5 47.169C36.5 47.1736 36.5 47.1781 36.5 47.1827C36.5 47.1872 36.5 47.1918 36.5 47.1963C36.5 47.2009 36.5 47.2054 36.5 47.21C36.5 47.2145 36.5 47.2191 36.5 47.2236C36.5 47.2282 36.5 47.2327 36.5 47.2373C36.5 47.2418 36.5 47.2464 36.5 47.2509C36.5 47.2555 36.5 47.2601 36.5 47.2646C36.5 47.2692 36.5 47.2737 36.5 47.2783C36.5 47.2828 36.5 47.2874 36.5 47.292C36.5 47.2965 36.5 47.3011 36.5 47.3056C36.5 47.3102 36.5 47.3148 36.5 47.3193C36.5 47.3239 36.5 47.3285 36.5 47.333C36.5 47.3376 36.5 47.3422 36.5 47.3467C36.5 47.3513 36.5 47.3559 36.5 47.3604C36.5 47.365 36.5 47.3696 36.5 47.3741C36.5 47.3787 36.5 47.3833 36.5 47.3878C36.5 47.3924 36.5 47.397 36.5 47.4015C36.5 47.4061 36.5 47.4107 36.5 47.4153C36.5 47.4198 36.5 47.4244 36.5 47.429C36.5 47.4336 36.5 47.4381 36.5 47.4427C36.5 47.4473 36.5 47.4519 36.5 47.4564C36.5 47.461 36.5 47.4656 36.5 47.4702C36.5 47.4748 36.5 47.4793 36.5 47.4839C36.5 47.4885 36.5 47.4931 36.5 47.4977C36.5 47.5022 36.5 47.5068 36.5 47.5114C36.5 47.516 36.5 47.5206 36.5 47.5252C36.5 47.5298 36.5 47.5343 36.5 47.5389C36.5 47.5435 36.5 47.5481 36.5 47.5527C36.5 47.5573 36.5 47.5619 36.5 47.5665C36.5 47.571 36.5 47.5756 36.5 47.5802C36.5 47.5848 36.5 47.5894 36.5 47.594C36.5 47.5986 36.5 47.6032 36.5 47.6078C36.5 47.6124 36.5 47.617 36.5 47.6216C36.5 47.6262 36.5 47.6308 36.5 47.6354C36.5 47.6399 36.5 47.6445 36.5 47.6491C36.5 47.6537 36.5 47.6583 36.5 47.6629C36.5 47.6675 36.5 47.6721 36.5 47.6767C36.5 47.6813 36.5 47.6859 36.5 47.6905C36.5 47.6952 36.5 47.6998 36.5 47.7044C36.5 47.709 36.5 47.7136 36.5 47.7182C36.5 47.7228 36.5 47.7274 36.5 47.732C36.5 47.7366 36.5 47.7412 36.5 47.7458C36.5 47.7504 36.5 47.755 36.5 47.7596C36.5 47.7643 36.5 47.7689 36.5 47.7735C36.5 47.7781 36.5 47.7827 36.5 47.7873C36.5 47.7919 36.5 47.7965 36.5 47.8012C36.5 47.8058 36.5 47.8104 36.5 47.815C36.5 47.8196 36.5 47.8242 36.5 47.8288C36.5 47.8335 36.5 47.8381 36.5 47.8427C36.5 47.8473 36.5 47.8519 36.5 47.8566C36.5 47.8612 36.5 47.8658 36.5 47.8704C36.5 47.875 36.5 47.8797 36.5 47.8843C36.5 47.8889 36.5 47.8935 36.5 47.8982C36.5 47.9028 36.5 47.9074 36.5 47.912C36.5 47.9167 36.5 47.9213 36.5 47.9259C36.5 47.9305 36.5 47.9352 36.5 47.9398C36.5 47.9444 36.5 47.9491 36.5 47.9537C36.5 47.9583 36.5 47.963 36.5 47.9676C36.5 47.9722 36.5 47.9768 36.5 47.9815C36.5 47.9861 36.5 47.9907 36.5 47.9954C36.5 48 36.5 48.0047 36.5 48.0093C36.5 48.0139 36.5 48.0186 36.5 48.0232C36.5 48.0278 36.5 48.0325 36.5 48.0371C36.5 48.0417 36.5 48.0464 36.5 48.051C36.5 48.0557 36.5 48.0603 36.5 48.0649C36.5 48.0696 36.5 48.0742 36.5 48.0789C36.5 48.0835 36.5 48.0882 36.5 48.0928C36.5 48.0975 36.5 48.1021 36.5 48.1067C36.5 48.1114 36.5 48.116 36.5 48.1207C36.5 48.1253 36.5 48.13 36.5 48.1346C36.5 48.1393 36.5 48.1439 36.5 48.1486C36.5 48.1532 36.5 48.1579 36.5 48.1625C36.5 48.1672 36.5 48.1718 36.5 48.1765C36.5 48.1811 36.5 48.1858 36.5 48.1904C36.5 48.1951 36.5 48.1997 36.5 48.2044C36.5 48.2091 36.5 48.2137 36.5 48.2184C36.5 48.223 36.5 48.2277 36.5 48.2323C36.5 48.237 36.5 48.2417 36.5 48.2463C36.5 48.251 36.5 48.2556 36.5 48.2603C36.5 48.265 36.5 48.2696 36.5 48.2743C36.5 48.279 36.5 48.2836 36.5 48.2883C36.5 48.2929 36.5 48.2976 36.5 48.3023C36.5 48.3069 36.5 48.3116 36.5 48.3163C36.5 48.3209 36.5 48.3256 36.5 48.3303C36.5 48.3349 36.5 48.3396 36.5 48.3443C36.5 48.349 36.5 48.3536 36.5 48.3583C36.5 48.363 36.5 48.3676 36.5 48.3723C36.5 48.377 36.5 48.3817 36.5 48.3863C36.5 48.391 36.5 48.3957 36.5 48.4003C36.5 48.405 36.5 48.4097 36.5 48.4144C36.5 48.4191 36.5 48.4237 36.5 48.4284C36.5 48.4331 36.5 48.4378 36.5 48.4424C36.5 48.4471 36.5 48.4518 36.5 48.4565C36.5 48.4612 36.5 48.4658 36.5 48.4705C36.5 48.4752 36.5 48.4799 36.5 48.4846C36.5 48.4893 36.5 48.4939 36.5 48.4986C36.5 48.5033 36.5 48.508 36.5 48.5127C36.5 48.5174 36.5 48.5221 36.5 48.5267C36.5 48.5314 36.5 48.5361 36.5 48.5408C36.5 48.5455 36.5 48.5502 36.5 48.5549C36.5 48.5596 36.5 48.5643 36.5 48.5689C36.5 48.5736 36.5 48.5783 36.5 48.583C36.5 48.5877 36.5 48.5924 36.5 48.5971C36.5 48.6018 36.5 48.6065 36.5 48.6112C36.5 48.6159 36.5 48.6206 36.5 48.6253C36.5 48.63 36.5 48.6347 36.5 48.6394C36.5 48.6441 36.5 48.6488 36.5 48.6535C36.5 48.6582 36.5 48.6629 36.5 48.6676C36.5 48.6723 36.5 48.677 36.5 48.6817C36.5 48.6864 36.5 48.6911 36.5 48.6958C36.5 48.7005 36.5 48.7052 36.5 48.7099C36.5 48.7146 36.5 48.7193 36.5 48.724C36.5 48.7287 36.5 48.7334 36.5 48.7381C36.5 48.7428 36.5 48.7475 36.5 48.7523C36.5 48.757 36.5 48.7617 36.5 48.7664C36.5 48.7711 36.5 48.7758 36.5 48.7805C36.5 48.7852 36.5 48.7899 36.5 48.7947C36.5 48.7994 36.5 48.8041 36.5 48.8088C36.5 48.8135 36.5 48.8182 36.5 48.8229C36.5 48.8277 36.5 48.8324 36.5 48.8371C36.5 48.8418 36.5 48.8465 36.5 48.8512C36.5 48.856 36.5 48.8607 36.5 48.8654C36.5 48.8701 36.5 48.8748 36.5 48.8796C36.5 48.8843 36.5 48.889 36.5 48.8937C36.5 48.8984 36.5 48.9032 36.5 48.9079C36.5 48.9126 36.5 48.9173 36.5 48.9221C36.5 48.9268 36.5 48.9315 36.5 48.9362C36.5 48.941 36.5 48.9457 36.5 48.9504C36.5 48.9551 36.5 48.9599 36.5 48.9646C36.5 48.9693 36.5 48.9741 36.5 48.9788C36.5 48.9835 36.5 48.9883 36.5 48.993C36.5 48.9977 36.5 49.0024 36.5 49.0072C36.5 49.0119 36.5 49.0166 36.5 49.0214C36.5 49.0261 36.5 49.0308 36.5 49.0356C36.5 49.0403 36.5 49.0451 36.5 49.0498C36.5 49.0545 36.5 49.0593 36.5 49.064C36.5 49.0687 36.5 49.0735 36.5 49.0782C36.5 49.083 36.5 49.0877 36.5 49.0924C36.5 49.0972 36.5 49.1019 36.5 49.1067C36.5 49.1114 36.5 49.1161 36.5 49.1209C36.5 49.1256 36.5 49.1304 36.5 49.1351C36.5 49.1399 36.5 49.1446 36.5 49.1494C36.5 49.1541 36.5 49.1589 36.5 49.1636C36.5 49.1683 36.5 49.1731 36.5 49.1778C36.5 49.1826 36.5 49.1873 36.5 49.1921C36.5 49.1968 36.5 49.2016 36.5 49.2063C36.5 49.2111 36.5 49.2158 36.5 49.2206C36.5 49.2253 36.5 49.2301 36.5 49.2349C36.5 49.2396 36.5 49.2444 36.5 49.2491C36.5 49.2539 36.5 49.2586 36.5 49.2634C36.5 49.2681 36.5 49.2729 36.5 49.2777C36.5 49.2824 36.5 49.2872 36.5 49.2919C36.5 49.2967 36.5 49.3014 36.5 49.3062C36.5 49.311 36.5 49.3157 36.5 49.3205C36.5 49.3252 36.5 49.33 36.5 49.3348C36.5 49.3395 36.5 49.3443 36.5 49.3491C36.5 49.3538 36.5 49.3586 36.5 49.3634C36.5 49.3681 36.5 49.3729 36.5 49.3777C36.5 49.3824 36.5 49.3872 36.5 49.392C36.5 49.3967 36.5 49.4015 36.5 49.4063C36.5 49.411 36.5 49.4158 36.5 49.4206C36.5 49.4253 36.5 49.4301 36.5 49.4349C36.5 49.4397 36.5 49.4444 36.5 49.4492C36.5 49.454 36.5 49.4587 36.5 49.4635C36.5 49.4683 36.5 49.4731 36.5 49.4778C36.5 49.4826 36.5 49.4874 36.5 49.4922C36.5 49.4969 36.5 49.5017 36.5 49.5065C36.5 49.5113 36.5 49.5161 36.5 49.5208C36.5 49.5256 36.5 49.5304 36.5 49.5352C36.5 49.5399 36.5 49.5447 36.5 49.5495C36.5 49.5543 36.5 49.5591 36.5 49.5639C36.5 49.5686 36.5 49.5734 36.5 49.5782C36.5 49.583 36.5 49.5878 36.5 49.5926C36.5 49.5973 36.5 49.6021 36.5 49.6069C36.5 49.6117 36.5 49.6165 36.5 49.6213C36.5 49.6261 36.5 49.6309 36.5 49.6356C36.5 49.6404 36.5 49.6452 36.5 49.65C36.5 49.6548 36.5 49.6596 36.5 49.6644C36.5 49.6692 36.5 49.674 36.5 49.6788C36.5 49.6836 36.5 49.6883 36.5 49.6931C36.5 49.6979 36.5 49.7027 36.5 49.7075C36.5 49.7123 36.5 49.7171 36.5 49.7219C36.5 49.7267 36.5 49.7315 36.5 49.7363C36.5 49.7411 36.5 49.7459 36.5 49.7507C36.5 49.7555 36.5 49.7603 36.5 49.7651C36.5 49.7699 36.5 49.7747 36.5 49.7795C36.5 49.7843 36.5 49.7891 36.5 49.7939C36.5 49.7987 36.5 49.8035 36.5 49.8083C36.5 49.8131 36.5 49.8179 36.5 49.8227C36.5 49.8275 36.5 49.8323 36.5 49.8371C36.5 49.8419 36.5 49.8468 36.5 49.8516C36.5 49.8564 36.5 49.8612 36.5 49.866C36.5 49.8708 36.5 49.8756 36.5 49.8804C36.5 49.8852 36.5 49.89 36.5 49.8948C36.5 49.8997 36.5 49.9045 36.5 49.9093C36.5 49.9141 36.5 49.9189 36.5 49.9237C36.5 49.9285 36.5 49.9333 36.5 49.9382C36.5 49.943 36.5 49.9478 36.5 49.9526C36.5 49.9574 36.5 49.9622 36.5 49.9671C36.5 49.9719 36.5 49.9767 36.5 49.9815C36.5 49.9863 36.5 49.9911 36.5 49.996C36.5 50.0008 36.5 50.0056 36.5 50.0104C36.5 50.0152 36.5 50.0201 36.5 50.0249C36.5 50.0297 36.5 50.0345 36.5 50.0394C36.5 50.0442 36.5 50.049 36.5 50.0538C36.5 50.0586 36.5 50.0635 36.5 50.0683C36.5 50.0731 36.5 50.0779 36.5 50.0828C36.5 50.0876 36.5 50.0924 36.5 50.0973C36.5 50.1021 36.5 50.1069 36.5 50.1117C36.5 50.1166 36.5 50.1214 36.5 50.1262C36.5 50.1311 36.5 50.1359 36.5 50.1407C36.5 50.1456 36.5 50.1504 36.5 50.1552C36.5 50.16 36.5 50.1649 36.5 50.1697C36.5 50.1745 36.5 50.1794 36.5 50.1842C36.5 50.1891 36.5 50.1939 36.5 50.1987C36.5 50.2036 36.5 50.2084 36.5 50.2132C36.5 50.2181 36.5 50.2229 36.5 50.2277C36.5 50.2326 36.5 50.2374 36.5 50.2423C36.5 50.2471 36.5 50.2519 36.5 50.2568C36.5 50.2616 36.5 50.2665 36.5 50.2713C36.5 50.2762 36.5 50.281 36.5 50.2858C36.5 50.2907 36.5 50.2955 36.5 50.3004C36.5 50.3052 36.5 50.3101 36.5 50.3149C36.5 50.3198 36.5 50.3246 36.5 50.3294C36.5 50.3343 36.5 50.3391 36.5 50.344C36.5 50.3488 36.5 50.3537 36.5 50.3585C36.5 50.3634 36.5 50.3682 36.5 50.3731C36.5 50.3779 36.5 50.3828 36.5 50.3876C36.5 50.3925 36.5 50.3973 36.5 50.4022C36.5 50.407 36.5 50.4119 36.5 50.4167C36.5 50.4216 36.5 50.4265 36.5 50.4313C36.5 50.4362 36.5 50.441 36.5 50.4459C36.5 50.4507 36.5 50.4556 36.5 50.4604C36.5 50.4653 36.5 50.4702 36.5 50.475C36.5 50.4799 36.5 50.4847 36.5 50.4896C36.5 50.4944 36.5 50.4993 36.5 50.5042C36.5 50.509 36.5 50.5139 36.5 50.5188C36.5 50.5236 36.5 50.5285 36.5 50.5333C36.5 50.5382 36.5 50.5431 36.5 50.5479C36.5 50.5528 36.5 50.5577 36.5 50.5625C36.5 50.5674 36.5 50.5723 36.5 50.5771C36.5 50.582 36.5 50.5869 36.5 50.5917C36.5 50.5966 36.5 50.6015 36.5 50.6063C36.5 50.6112 36.5 50.6161 36.5 50.6209C36.5 50.6258 36.5 50.6307 36.5 50.6355C36.5 50.6404 36.5 50.6453 36.5 50.6502C36.5 50.655 36.5 50.6599 36.5 50.6648C36.5 50.6696 36.5 50.6745 36.5 50.6794C36.5 50.6843 36.5 50.6891 36.5 50.694C36.5 50.6989 36.5 50.7038 36.5 50.7086C36.5 50.7135 36.5 50.7184 36.5 50.7233C36.5 50.7282 36.5 50.733 36.5 50.7379C36.5 50.7428 36.5 50.7477 36.5 50.7525C36.5 50.7574 36.5 50.7623 36.5 50.7672C36.5 50.7721 36.5 50.777 36.5 50.7818C36.5 50.7867 36.5 50.7916 36.5 50.7965C36.5 50.8014 36.5 50.8062 36.5 50.8111C36.5 50.816 36.5 50.8209 36.5 50.8258C36.5 50.8307 36.5 50.8356 36.5 50.8404C36.5 50.8453 36.5 50.8502 36.5 50.8551C36.5 50.86 36.5 50.8649 36.5 50.8698C36.5 50.8747 36.5 50.8795 36.5 50.8844C36.5 50.8893 36.5 50.8942 36.5 50.8991C36.5 50.904 36.5 50.9089 36.5 50.9138C36.5 50.9187 36.5 50.9236 36.5 50.9285C36.5 50.9334 36.5 50.9382 36.5 50.9431C36.5 50.948 36.5 50.9529 36.5 50.9578C36.5 50.9627 36.5 50.9676 36.5 50.9725C36.5 50.9774 36.5 50.9823 36.5 50.9872C36.5 50.9921 36.5 50.997 36.5 51.0019C36.5 51.0068 36.5 51.0117 36.5 51.0166C36.5 51.0215 36.5 51.0264 36.5 51.0313C36.5 51.0362 36.5 51.0411 36.5 51.046C36.5 51.0509 36.5 51.0558 36.5 51.0607C36.5 51.0656 36.5 51.0705 36.5 51.0754C36.5 51.0803 36.5 51.0852 36.5 51.0901C36.5 51.095 36.5 51.0999 36.5 51.1048C36.5 51.1098 36.5 51.1147 36.5 51.1196C36.5 51.1245 36.5 51.1294 36.5 51.1343C36.5 51.1392 36.5 51.1441 36.5 51.149C36.5 51.1539 36.5 51.1588 36.5 51.1637C36.5 51.1687 36.5 51.1736 36.5 51.1785C36.5 51.1834 36.5 51.1883 36.5 51.1932C36.5 51.1981 36.5 51.203 36.5 51.208C36.5 51.2129 36.5 51.2178 36.5 51.2227C36.5 51.2276 36.5 51.2325 36.5 51.2374C36.5 51.2424 36.5 51.2473 36.5 51.2522C36.5 51.2571 36.5 51.262 36.5 51.2669C36.5 51.2719 36.5 51.2768 36.5 51.2817C36.5 51.2866 36.5 51.2915 36.5 51.2965C36.5 51.3014 36.5 51.3063 36.5 51.3112C36.5 51.3161 36.5 51.3211 36.5 51.326C36.5 51.3309 36.5 51.3358 36.5 51.3408C36.5 51.3457 36.5 51.3506 36.5 51.3555C36.5 51.3605 36.5 51.3654 36.5 51.3703C36.5 51.3752 36.5 51.3802 36.5 51.3851C36.5 51.39 36.5 51.3949 36.5 51.3999C36.5 51.4048 36.5 51.4097 36.5 51.4146C36.5 51.4196 36.5 51.4245 36.5 51.4294C36.5 51.4344 36.5 51.4393 36.5 51.4442C36.5 51.4492 36.5 51.4541 36.5 51.459C36.5 51.4639 36.5 51.4689 36.5 51.4738C36.5 51.4787 36.5 51.4837 36.5 51.4886C36.5 51.4935 36.5 51.4985 36.5 51.5034C36.5 51.5084 36.5 51.5133 36.5 51.5182C36.5 51.5232 36.5 51.5281 36.5 51.533C36.5 51.538 36.5 51.5429 36.5 51.5478C36.5 51.5528 36.5 51.5577 36.5 51.5627C36.5 51.5676 36.5 51.5725 36.5 51.5775C36.5 51.5824 36.5 51.5874 36.5 51.5923C36.5 51.5972 36.5 51.6022 36.5 51.6071C36.5 51.6121 36.5 51.617 36.5 51.622C36.5 51.6269 36.5 51.6318 36.5 51.6368C36.5 51.6417 36.5 51.6467 36.5 51.6516C36.5 51.6566 36.5 51.6615 36.5 51.6665C36.5 51.6714 36.5 51.6763 36.5 51.6813C36.5 51.6862 36.5 51.6912 36.5 51.6961C36.5 51.7011 36.5 51.706 36.5 51.711C36.5 51.7159 36.5 51.7209 36.5 51.7258C36.5 51.7308 36.5 51.7357 36.5 51.7407C36.5 51.7456 36.5 51.7506 36.5 51.7555C36.5 51.7605 36.5 51.7654 36.5 51.7704C36.5 51.7753 36.5 51.7803 36.5 51.7853C36.5 51.7902 36.5 51.7952 36.5 51.8001C36.5 51.8051 36.5 51.81 36.5 51.815C36.5 51.8199 36.5 51.8249 36.5 51.8299C36.5 51.8348 36.5 51.8398 36.5 51.8447C36.5 51.8497 36.5 51.8547 36.5 51.8596C36.5 51.8646 36.5 51.8695 36.5 51.8745C36.5 51.8795 36.5 51.8844 36.5 51.8894C36.5 51.8943 36.5 51.8993 36.5 51.9043C36.5 51.9092 36.5 51.9142 36.5 51.9191C36.5 51.9241 36.5 51.9291 36.5 51.934C36.5 51.939 36.5 51.944 36.5 51.9489C36.5 51.9539 36.5 51.9589 36.5 51.9638C36.5 51.9688 36.5 51.9738 36.5 51.9787C36.5 51.9837 36.5 51.9887 36.5 51.9936C36.5 51.9986 36.5 52.0036 36.5 52.0085C36.5 52.0135 36.5 52.0185 36.5 52.0234C36.5 52.0284 36.5 52.0334 36.5 52.0384C36.5 52.0433 36.5 52.0483 36.5 52.0533C36.5 52.0583 36.5 52.0632 36.5 52.0682C36.5 52.0732 36.5 52.0781 36.5 52.0831C36.5 52.0881 36.5 52.0931 36.5 52.098C36.5 52.103 36.5 52.108 36.5 52.113C36.5 52.1179 36.5 52.1229 36.5 52.1279C36.5 52.1329 36.5 52.1379 36.5 52.1428C36.5 52.1478 36.5 52.1528 36.5 52.1578C36.5 52.1627 36.5 52.1677 36.5 52.1727C36.5 52.1777 36.5 52.1827 36.5 52.1876C36.5 52.1926 36.5 52.1976 36.5 52.2026C36.5 52.2076 36.5 52.2126 36.5 52.2175C36.5 52.2225 36.5 52.2275 36.5 52.2325C36.5 52.2375 36.5 52.2425 36.5 52.2474C36.5 52.2524 36.5 52.2574 36.5 52.2624C36.5 52.2674 36.5 52.2724 36.5 52.2774C36.5 52.2823 36.5 52.2873 36.5 52.2923C36.5 52.2973 36.5 52.3023 36.5 52.3073C36.5 52.3123 36.5 52.3173 36.5 52.3223C36.5 52.3272 36.5 52.3322 36.5 52.3372C36.5 52.3422 36.5 52.3472 36.5 52.3522C36.5 52.3572 36.5 52.3622 36.5 52.3672H39.5C39.5 52.3622 39.5 52.3572 39.5 52.3522C39.5 52.3472 39.5 52.3422 39.5 52.3372C39.5 52.3322 39.5 52.3272 39.5 52.3223C39.5 52.3173 39.5 52.3123 39.5 52.3073C39.5 52.3023 39.5 52.2973 39.5 52.2923C39.5 52.2873 39.5 52.2823 39.5 52.2774C39.5 52.2724 39.5 52.2674 39.5 52.2624C39.5 52.2574 39.5 52.2524 39.5 52.2474C39.5 52.2425 39.5 52.2375 39.5 52.2325C39.5 52.2275 39.5 52.2225 39.5 52.2175C39.5 52.2126 39.5 52.2076 39.5 52.2026C39.5 52.1976 39.5 52.1926 39.5 52.1876C39.5 52.1827 39.5 52.1777 39.5 52.1727C39.5 52.1677 39.5 52.1627 39.5 52.1578C39.5 52.1528 39.5 52.1478 39.5 52.1428C39.5 52.1379 39.5 52.1329 39.5 52.1279C39.5 52.1229 39.5 52.1179 39.5 52.113C39.5 52.108 39.5 52.103 39.5 52.098C39.5 52.0931 39.5 52.0881 39.5 52.0831C39.5 52.0781 39.5 52.0732 39.5 52.0682C39.5 52.0632 39.5 52.0583 39.5 52.0533C39.5 52.0483 39.5 52.0433 39.5 52.0384C39.5 52.0334 39.5 52.0284 39.5 52.0234C39.5 52.0185 39.5 52.0135 39.5 52.0085C39.5 52.0036 39.5 51.9986 39.5 51.9936C39.5 51.9887 39.5 51.9837 39.5 51.9787C39.5 51.9738 39.5 51.9688 39.5 51.9638C39.5 51.9589 39.5 51.9539 39.5 51.9489C39.5 51.944 39.5 51.939 39.5 51.934C39.5 51.9291 39.5 51.9241 39.5 51.9191C39.5 51.9142 39.5 51.9092 39.5 51.9043C39.5 51.8993 39.5 51.8943 39.5 51.8894C39.5 51.8844 39.5 51.8795 39.5 51.8745C39.5 51.8695 39.5 51.8646 39.5 51.8596C39.5 51.8547 39.5 51.8497 39.5 51.8447C39.5 51.8398 39.5 51.8348 39.5 51.8299C39.5 51.8249 39.5 51.8199 39.5 51.815C39.5 51.81 39.5 51.8051 39.5 51.8001C39.5 51.7952 39.5 51.7902 39.5 51.7853C39.5 51.7803 39.5 51.7753 39.5 51.7704C39.5 51.7654 39.5 51.7605 39.5 51.7555C39.5 51.7506 39.5 51.7456 39.5 51.7407C39.5 51.7357 39.5 51.7308 39.5 51.7258C39.5 51.7209 39.5 51.7159 39.5 51.711C39.5 51.706 39.5 51.7011 39.5 51.6961C39.5 51.6912 39.5 51.6862 39.5 51.6813C39.5 51.6763 39.5 51.6714 39.5 51.6665C39.5 51.6615 39.5 51.6566 39.5 51.6516C39.5 51.6467 39.5 51.6417 39.5 51.6368C39.5 51.6318 39.5 51.6269 39.5 51.622C39.5 51.617 39.5 51.6121 39.5 51.6071C39.5 51.6022 39.5 51.5972 39.5 51.5923C39.5 51.5874 39.5 51.5824 39.5 51.5775C39.5 51.5725 39.5 51.5676 39.5 51.5627C39.5 51.5577 39.5 51.5528 39.5 51.5478C39.5 51.5429 39.5 51.538 39.5 51.533C39.5 51.5281 39.5 51.5232 39.5 51.5182C39.5 51.5133 39.5 51.5084 39.5 51.5034C39.5 51.4985 39.5 51.4935 39.5 51.4886C39.5 51.4837 39.5 51.4787 39.5 51.4738C39.5 51.4689 39.5 51.4639 39.5 51.459C39.5 51.4541 39.5 51.4492 39.5 51.4442C39.5 51.4393 39.5 51.4344 39.5 51.4294C39.5 51.4245 39.5 51.4196 39.5 51.4146C39.5 51.4097 39.5 51.4048 39.5 51.3999C39.5 51.3949 39.5 51.39 39.5 51.3851C39.5 51.3802 39.5 51.3752 39.5 51.3703C39.5 51.3654 39.5 51.3605 39.5 51.3555C39.5 51.3506 39.5 51.3457 39.5 51.3408C39.5 51.3358 39.5 51.3309 39.5 51.326C39.5 51.3211 39.5 51.3161 39.5 51.3112C39.5 51.3063 39.5 51.3014 39.5 51.2965C39.5 51.2915 39.5 51.2866 39.5 51.2817C39.5 51.2768 39.5 51.2719 39.5 51.2669C39.5 51.262 39.5 51.2571 39.5 51.2522C39.5 51.2473 39.5 51.2424 39.5 51.2374C39.5 51.2325 39.5 51.2276 39.5 51.2227C39.5 51.2178 39.5 51.2129 39.5 51.208C39.5 51.203 39.5 51.1981 39.5 51.1932C39.5 51.1883 39.5 51.1834 39.5 51.1785C39.5 51.1736 39.5 51.1687 39.5 51.1637C39.5 51.1588 39.5 51.1539 39.5 51.149C39.5 51.1441 39.5 51.1392 39.5 51.1343C39.5 51.1294 39.5 51.1245 39.5 51.1196C39.5 51.1147 39.5 51.1098 39.5 51.1048C39.5 51.0999 39.5 51.095 39.5 51.0901C39.5 51.0852 39.5 51.0803 39.5 51.0754C39.5 51.0705 39.5 51.0656 39.5 51.0607C39.5 51.0558 39.5 51.0509 39.5 51.046C39.5 51.0411 39.5 51.0362 39.5 51.0313C39.5 51.0264 39.5 51.0215 39.5 51.0166C39.5 51.0117 39.5 51.0068 39.5 51.0019C39.5 50.997 39.5 50.9921 39.5 50.9872C39.5 50.9823 39.5 50.9774 39.5 50.9725C39.5 50.9676 39.5 50.9627 39.5 50.9578C39.5 50.9529 39.5 50.948 39.5 50.9431C39.5 50.9382 39.5 50.9334 39.5 50.9285C39.5 50.9236 39.5 50.9187 39.5 50.9138C39.5 50.9089 39.5 50.904 39.5 50.8991C39.5 50.8942 39.5 50.8893 39.5 50.8844C39.5 50.8795 39.5 50.8747 39.5 50.8698C39.5 50.8649 39.5 50.86 39.5 50.8551C39.5 50.8502 39.5 50.8453 39.5 50.8404C39.5 50.8356 39.5 50.8307 39.5 50.8258C39.5 50.8209 39.5 50.816 39.5 50.8111C39.5 50.8062 39.5 50.8014 39.5 50.7965C39.5 50.7916 39.5 50.7867 39.5 50.7818C39.5 50.777 39.5 50.7721 39.5 50.7672C39.5 50.7623 39.5 50.7574 39.5 50.7525C39.5 50.7477 39.5 50.7428 39.5 50.7379C39.5 50.733 39.5 50.7282 39.5 50.7233C39.5 50.7184 39.5 50.7135 39.5 50.7086C39.5 50.7038 39.5 50.6989 39.5 50.694C39.5 50.6891 39.5 50.6843 39.5 50.6794C39.5 50.6745 39.5 50.6696 39.5 50.6648C39.5 50.6599 39.5 50.655 39.5 50.6502C39.5 50.6453 39.5 50.6404 39.5 50.6355C39.5 50.6307 39.5 50.6258 39.5 50.6209C39.5 50.6161 39.5 50.6112 39.5 50.6063C39.5 50.6015 39.5 50.5966 39.5 50.5917C39.5 50.5869 39.5 50.582 39.5 50.5771C39.5 50.5723 39.5 50.5674 39.5 50.5625C39.5 50.5577 39.5 50.5528 39.5 50.5479C39.5 50.5431 39.5 50.5382 39.5 50.5333C39.5 50.5285 39.5 50.5236 39.5 50.5188C39.5 50.5139 39.5 50.509 39.5 50.5042C39.5 50.4993 39.5 50.4944 39.5 50.4896C39.5 50.4847 39.5 50.4799 39.5 50.475C39.5 50.4702 39.5 50.4653 39.5 50.4604C39.5 50.4556 39.5 50.4507 39.5 50.4459C39.5 50.441 39.5 50.4362 39.5 50.4313C39.5 50.4265 39.5 50.4216 39.5 50.4167C39.5 50.4119 39.5 50.407 39.5 50.4022C39.5 50.3973 39.5 50.3925 39.5 50.3876C39.5 50.3828 39.5 50.3779 39.5 50.3731C39.5 50.3682 39.5 50.3634 39.5 50.3585C39.5 50.3537 39.5 50.3488 39.5 50.344C39.5 50.3391 39.5 50.3343 39.5 50.3294C39.5 50.3246 39.5 50.3198 39.5 50.3149C39.5 50.3101 39.5 50.3052 39.5 50.3004C39.5 50.2955 39.5 50.2907 39.5 50.2858C39.5 50.281 39.5 50.2762 39.5 50.2713C39.5 50.2665 39.5 50.2616 39.5 50.2568C39.5 50.2519 39.5 50.2471 39.5 50.2423C39.5 50.2374 39.5 50.2326 39.5 50.2277C39.5 50.2229 39.5 50.2181 39.5 50.2132C39.5 50.2084 39.5 50.2036 39.5 50.1987C39.5 50.1939 39.5 50.1891 39.5 50.1842C39.5 50.1794 39.5 50.1745 39.5 50.1697C39.5 50.1649 39.5 50.16 39.5 50.1552C39.5 50.1504 39.5 50.1456 39.5 50.1407C39.5 50.1359 39.5 50.1311 39.5 50.1262C39.5 50.1214 39.5 50.1166 39.5 50.1117C39.5 50.1069 39.5 50.1021 39.5 50.0973C39.5 50.0924 39.5 50.0876 39.5 50.0828C39.5 50.0779 39.5 50.0731 39.5 50.0683C39.5 50.0635 39.5 50.0586 39.5 50.0538C39.5 50.049 39.5 50.0442 39.5 50.0394C39.5 50.0345 39.5 50.0297 39.5 50.0249C39.5 50.0201 39.5 50.0152 39.5 50.0104C39.5 50.0056 39.5 50.0008 39.5 49.996C39.5 49.9911 39.5 49.9863 39.5 49.9815C39.5 49.9767 39.5 49.9719 39.5 49.9671C39.5 49.9622 39.5 49.9574 39.5 49.9526C39.5 49.9478 39.5 49.943 39.5 49.9382C39.5 49.9333 39.5 49.9285 39.5 49.9237C39.5 49.9189 39.5 49.9141 39.5 49.9093C39.5 49.9045 39.5 49.8997 39.5 49.8948C39.5 49.89 39.5 49.8852 39.5 49.8804C39.5 49.8756 39.5 49.8708 39.5 49.866C39.5 49.8612 39.5 49.8564 39.5 49.8516C39.5 49.8468 39.5 49.8419 39.5 49.8371C39.5 49.8323 39.5 49.8275 39.5 49.8227C39.5 49.8179 39.5 49.8131 39.5 49.8083C39.5 49.8035 39.5 49.7987 39.5 49.7939C39.5 49.7891 39.5 49.7843 39.5 49.7795C39.5 49.7747 39.5 49.7699 39.5 49.7651C39.5 49.7603 39.5 49.7555 39.5 49.7507C39.5 49.7459 39.5 49.7411 39.5 49.7363C39.5 49.7315 39.5 49.7267 39.5 49.7219C39.5 49.7171 39.5 49.7123 39.5 49.7075C39.5 49.7027 39.5 49.6979 39.5 49.6931C39.5 49.6883 39.5 49.6836 39.5 49.6788C39.5 49.674 39.5 49.6692 39.5 49.6644C39.5 49.6596 39.5 49.6548 39.5 49.65C39.5 49.6452 39.5 49.6404 39.5 49.6356C39.5 49.6309 39.5 49.6261 39.5 49.6213C39.5 49.6165 39.5 49.6117 39.5 49.6069C39.5 49.6021 39.5 49.5973 39.5 49.5926C39.5 49.5878 39.5 49.583 39.5 49.5782C39.5 49.5734 39.5 49.5686 39.5 49.5639C39.5 49.5591 39.5 49.5543 39.5 49.5495C39.5 49.5447 39.5 49.5399 39.5 49.5352C39.5 49.5304 39.5 49.5256 39.5 49.5208C39.5 49.5161 39.5 49.5113 39.5 49.5065C39.5 49.5017 39.5 49.4969 39.5 49.4922C39.5 49.4874 39.5 49.4826 39.5 49.4778C39.5 49.4731 39.5 49.4683 39.5 49.4635C39.5 49.4587 39.5 49.454 39.5 49.4492C39.5 49.4444 39.5 49.4397 39.5 49.4349C39.5 49.4301 39.5 49.4253 39.5 49.4206C39.5 49.4158 39.5 49.411 39.5 49.4063C39.5 49.4015 39.5 49.3967 39.5 49.392C39.5 49.3872 39.5 49.3824 39.5 49.3777C39.5 49.3729 39.5 49.3681 39.5 49.3634C39.5 49.3586 39.5 49.3538 39.5 49.3491C39.5 49.3443 39.5 49.3395 39.5 49.3348C39.5 49.33 39.5 49.3252 39.5 49.3205C39.5 49.3157 39.5 49.311 39.5 49.3062C39.5 49.3014 39.5 49.2967 39.5 49.2919C39.5 49.2872 39.5 49.2824 39.5 49.2777C39.5 49.2729 39.5 49.2681 39.5 49.2634C39.5 49.2586 39.5 49.2539 39.5 49.2491C39.5 49.2444 39.5 49.2396 39.5 49.2349C39.5 49.2301 39.5 49.2253 39.5 49.2206C39.5 49.2158 39.5 49.2111 39.5 49.2063C39.5 49.2016 39.5 49.1968 39.5 49.1921C39.5 49.1873 39.5 49.1826 39.5 49.1778C39.5 49.1731 39.5 49.1683 39.5 49.1636C39.5 49.1589 39.5 49.1541 39.5 49.1494C39.5 49.1446 39.5 49.1399 39.5 49.1351C39.5 49.1304 39.5 49.1256 39.5 49.1209C39.5 49.1161 39.5 49.1114 39.5 49.1067C39.5 49.1019 39.5 49.0972 39.5 49.0924C39.5 49.0877 39.5 49.083 39.5 49.0782C39.5 49.0735 39.5 49.0687 39.5 49.064C39.5 49.0593 39.5 49.0545 39.5 49.0498C39.5 49.0451 39.5 49.0403 39.5 49.0356C39.5 49.0308 39.5 49.0261 39.5 49.0214C39.5 49.0166 39.5 49.0119 39.5 49.0072C39.5 49.0024 39.5 48.9977 39.5 48.993C39.5 48.9883 39.5 48.9835 39.5 48.9788C39.5 48.9741 39.5 48.9693 39.5 48.9646C39.5 48.9599 39.5 48.9551 39.5 48.9504C39.5 48.9457 39.5 48.941 39.5 48.9362C39.5 48.9315 39.5 48.9268 39.5 48.9221C39.5 48.9173 39.5 48.9126 39.5 48.9079C39.5 48.9032 39.5 48.8984 39.5 48.8937C39.5 48.889 39.5 48.8843 39.5 48.8796C39.5 48.8748 39.5 48.8701 39.5 48.8654C39.5 48.8607 39.5 48.856 39.5 48.8512C39.5 48.8465 39.5 48.8418 39.5 48.8371C39.5 48.8324 39.5 48.8277 39.5 48.8229C39.5 48.8182 39.5 48.8135 39.5 48.8088C39.5 48.8041 39.5 48.7994 39.5 48.7947C39.5 48.7899 39.5 48.7852 39.5 48.7805C39.5 48.7758 39.5 48.7711 39.5 48.7664C39.5 48.7617 39.5 48.757 39.5 48.7523C39.5 48.7475 39.5 48.7428 39.5 48.7381C39.5 48.7334 39.5 48.7287 39.5 48.724C39.5 48.7193 39.5 48.7146 39.5 48.7099C39.5 48.7052 39.5 48.7005 39.5 48.6958C39.5 48.6911 39.5 48.6864 39.5 48.6817C39.5 48.677 39.5 48.6723 39.5 48.6676C39.5 48.6629 39.5 48.6582 39.5 48.6535C39.5 48.6488 39.5 48.6441 39.5 48.6394C39.5 48.6347 39.5 48.63 39.5 48.6253C39.5 48.6206 39.5 48.6159 39.5 48.6112C39.5 48.6065 39.5 48.6018 39.5 48.5971C39.5 48.5924 39.5 48.5877 39.5 48.583C39.5 48.5783 39.5 48.5736 39.5 48.5689C39.5 48.5643 39.5 48.5596 39.5 48.5549C39.5 48.5502 39.5 48.5455 39.5 48.5408C39.5 48.5361 39.5 48.5314 39.5 48.5267C39.5 48.5221 39.5 48.5174 39.5 48.5127C39.5 48.508 39.5 48.5033 39.5 48.4986C39.5 48.4939 39.5 48.4893 39.5 48.4846C39.5 48.4799 39.5 48.4752 39.5 48.4705C39.5 48.4658 39.5 48.4612 39.5 48.4565C39.5 48.4518 39.5 48.4471 39.5 48.4424C39.5 48.4378 39.5 48.4331 39.5 48.4284C39.5 48.4237 39.5 48.4191 39.5 48.4144C39.5 48.4097 39.5 48.405 39.5 48.4003C39.5 48.3957 39.5 48.391 39.5 48.3863C39.5 48.3817 39.5 48.377 39.5 48.3723C39.5 48.3676 39.5 48.363 39.5 48.3583C39.5 48.3536 39.5 48.349 39.5 48.3443C39.5 48.3396 39.5 48.3349 39.5 48.3303C39.5 48.3256 39.5 48.3209 39.5 48.3163C39.5 48.3116 39.5 48.3069 39.5 48.3023C39.5 48.2976 39.5 48.2929 39.5 48.2883C39.5 48.2836 39.5 48.279 39.5 48.2743C39.5 48.2696 39.5 48.265 39.5 48.2603C39.5 48.2556 39.5 48.251 39.5 48.2463C39.5 48.2417 39.5 48.237 39.5 48.2323C39.5 48.2277 39.5 48.223 39.5 48.2184C39.5 48.2137 39.5 48.2091 39.5 48.2044C39.5 48.1997 39.5 48.1951 39.5 48.1904C39.5 48.1858 39.5 48.1811 39.5 48.1765C39.5 48.1718 39.5 48.1672 39.5 48.1625C39.5 48.1579 39.5 48.1532 39.5 48.1486C39.5 48.1439 39.5 48.1393 39.5 48.1346C39.5 48.13 39.5 48.1253 39.5 48.1207C39.5 48.116 39.5 48.1114 39.5 48.1067C39.5 48.1021 39.5 48.0975 39.5 48.0928C39.5 48.0882 39.5 48.0835 39.5 48.0789C39.5 48.0742 39.5 48.0696 39.5 48.0649C39.5 48.0603 39.5 48.0557 39.5 48.051C39.5 48.0464 39.5 48.0417 39.5 48.0371C39.5 48.0325 39.5 48.0278 39.5 48.0232C39.5 48.0186 39.5 48.0139 39.5 48.0093C39.5 48.0047 39.5 48 39.5 47.9954C39.5 47.9907 39.5 47.9861 39.5 47.9815C39.5 47.9768 39.5 47.9722 39.5 47.9676C39.5 47.963 39.5 47.9583 39.5 47.9537C39.5 47.9491 39.5 47.9444 39.5 47.9398C39.5 47.9352 39.5 47.9305 39.5 47.9259C39.5 47.9213 39.5 47.9167 39.5 47.912C39.5 47.9074 39.5 47.9028 39.5 47.8982C39.5 47.8935 39.5 47.8889 39.5 47.8843C39.5 47.8797 39.5 47.875 39.5 47.8704C39.5 47.8658 39.5 47.8612 39.5 47.8566C39.5 47.8519 39.5 47.8473 39.5 47.8427C39.5 47.8381 39.5 47.8335 39.5 47.8288C39.5 47.8242 39.5 47.8196 39.5 47.815C39.5 47.8104 39.5 47.8058 39.5 47.8012C39.5 47.7965 39.5 47.7919 39.5 47.7873C39.5 47.7827 39.5 47.7781 39.5 47.7735C39.5 47.7689 39.5 47.7643 39.5 47.7596C39.5 47.755 39.5 47.7504 39.5 47.7458C39.5 47.7412 39.5 47.7366 39.5 47.732C39.5 47.7274 39.5 47.7228 39.5 47.7182C39.5 47.7136 39.5 47.709 39.5 47.7044C39.5 47.6998 39.5 47.6952 39.5 47.6905C39.5 47.6859 39.5 47.6813 39.5 47.6767C39.5 47.6721 39.5 47.6675 39.5 47.6629C39.5 47.6583 39.5 47.6537 39.5 47.6491C39.5 47.6445 39.5 47.6399 39.5 47.6354C39.5 47.6308 39.5 47.6262 39.5 47.6216C39.5 47.617 39.5 47.6124 39.5 47.6078C39.5 47.6032 39.5 47.5986 39.5 47.594C39.5 47.5894 39.5 47.5848 39.5 47.5802C39.5 47.5756 39.5 47.571 39.5 47.5665C39.5 47.5619 39.5 47.5573 39.5 47.5527C39.5 47.5481 39.5 47.5435 39.5 47.5389C39.5 47.5343 39.5 47.5298 39.5 47.5252C39.5 47.5206 39.5 47.516 39.5 47.5114C39.5 47.5068 39.5 47.5022 39.5 47.4977C39.5 47.4931 39.5 47.4885 39.5 47.4839C39.5 47.4793 39.5 47.4748 39.5 47.4702C39.5 47.4656 39.5 47.461 39.5 47.4564C39.5 47.4519 39.5 47.4473 39.5 47.4427C39.5 47.4381 39.5 47.4336 39.5 47.429C39.5 47.4244 39.5 47.4198 39.5 47.4153C39.5 47.4107 39.5 47.4061 39.5 47.4015C39.5 47.397 39.5 47.3924 39.5 47.3878C39.5 47.3833 39.5 47.3787 39.5 47.3741C39.5 47.3696 39.5 47.365 39.5 47.3604C39.5 47.3559 39.5 47.3513 39.5 47.3467C39.5 47.3422 39.5 47.3376 39.5 47.333C39.5 47.3285 39.5 47.3239 39.5 47.3193C39.5 47.3148 39.5 47.3102 39.5 47.3056C39.5 47.3011 39.5 47.2965 39.5 47.292C39.5 47.2874 39.5 47.2828 39.5 47.2783C39.5 47.2737 39.5 47.2692 39.5 47.2646C39.5 47.2601 39.5 47.2555 39.5 47.2509C39.5 47.2464 39.5 47.2418 39.5 47.2373C39.5 47.2327 39.5 47.2282 39.5 47.2236C39.5 47.2191 39.5 47.2145 39.5 47.21C39.5 47.2054 39.5 47.2009 39.5 47.1963C39.5 47.1918 39.5 47.1872 39.5 47.1827C39.5 47.1781 39.5 47.1736 39.5 47.169C39.5 47.1645 39.5 47.1599 39.5 47.1554C39.5 47.1509 39.5 47.1463 39.5 47.1418C39.5 47.1372 39.5 47.1327 39.5 47.1281C39.5 47.1236 39.5 47.1191 39.5 47.1145C39.5 47.11 39.5 47.1054 39.5 47.1009C39.5 47.0964 39.5 47.0918 39.5 47.0873C39.5 47.0827 39.5 47.0782 39.5 47.0737C39.5 47.0691 39.5 47.0646 39.5 47.0601C39.5 47.0555 39.5 47.051 39.5 47.0465C39.5 47.0419 39.5 47.0374 39.5 47.0329C39.5 47.0283 39.5 47.0238 39.5 47.0193C39.5 47.0148 39.5 47.0102 39.5 47.0057C39.5 47.0012 39.5 46.9966 39.5 46.9921C39.5 46.9876 39.5 46.9831 39.5 46.9785C39.5 46.974 39.5 46.9695 39.5 46.965C39.5 46.9604 39.5 46.9559 39.5 46.9514C39.5 46.9469 39.5 46.9424 39.5 46.9378C39.5 46.9333 39.5 46.9288 39.5 46.9243C39.5 46.9198 39.5 46.9152 39.5 46.9107C39.5 46.9062 39.5 46.9017 39.5 46.8972C39.5 46.8927 39.5 46.8881 39.5 46.8836C39.5 46.8791 39.5 46.8746 39.5 46.8701C39.5 46.8656 39.5 46.8611 39.5 46.8566C39.5 46.852 39.5 46.8475 39.5 46.843C39.5 46.8385 39.5 46.834 39.5 46.8295C39.5 46.825 39.5 46.8205 39.5 46.816C39.5 46.8115 39.5 46.807 39.5 46.8025C39.5 46.798 39.5 46.7935 39.5 46.789C39.5 46.7845 39.5 46.7799 39.5 46.7754C39.5 46.7709 39.5 46.7664 39.5 46.7619C39.5 46.7574 39.5 46.7529 39.5 46.7484C39.5 46.7439 39.5 46.7394 39.5 46.735C39.5 46.7305 39.5 46.726 39.5 46.7215C39.5 46.717 39.5 46.7125 39.5 46.708C39.5 46.7035 39.5 46.699 39.5 46.6945C39.5 46.69 39.5 46.6855 39.5 46.681C39.5 46.6765 39.5 46.672 39.5 46.6676C39.5 46.6631 39.5 46.6586 39.5 46.6541C39.5 46.6496 39.5 46.6451 39.5 46.6406C39.5 46.6361 39.5 46.6317 39.5 46.6272C39.5 46.6227 39.5 46.6182 39.5 46.6137C39.5 46.6092 39.5 46.6048 39.5 46.6003C39.5 46.5958 39.5 46.5913 39.5 46.5868C39.5 46.5824 39.5 46.5779 39.5 46.5734C39.5 46.5689 39.5 46.5644 39.5 46.56C39.5 46.5555 39.5 46.551 39.5 46.5465C39.5 46.5421 39.5 46.5376 39.5 46.5331C39.5 46.5287 39.5 46.5242 39.5 46.5197C39.5 46.5152 39.5 46.5108 39.5 46.5063C39.5 46.5018 39.5 46.4974 39.5 46.4929C39.5 46.4884 39.5 46.484 39.5 46.4795C39.5 46.475 39.5 46.4706 39.5 46.4661C39.5 46.4616 39.5 46.4572 39.5 46.4527C39.5 46.4482 39.5 46.4438 39.5 46.4393C39.5 46.4348 39.5 46.4304 39.5 46.4259C39.5 46.4215 39.5 46.417 39.5 46.4125C39.5 46.4081 39.5 46.4036 39.5 46.3992C39.5 46.3947 39.5 46.3903 39.5 46.3858C39.5 46.3813 39.5 46.3769 39.5 46.3724C39.5 46.368 39.5 46.3635 39.5 46.3591C39.5 46.3546 39.5 46.3502 39.5 46.3457C39.5 46.3413 39.5 46.3368 39.5 46.3324C39.5 46.3279 39.5 46.3235 39.5 46.319C39.5 46.3146 39.5 46.3101 39.5 46.3057C39.5 46.3012 39.5 46.2968 39.5 46.2923C39.5 46.2879 39.5 46.2835 39.5 46.279C39.5 46.2746 39.5 46.2701 39.5 46.2657C39.5 46.2612 39.5 46.2568 39.5 46.2524C39.5 46.2479 39.5 46.2435 39.5 46.2391C39.5 46.2346 39.5 46.2302 39.5 46.2257C39.5 46.2213 39.5 46.2169 39.5 46.2124C39.5 46.208 39.5 46.2036 39.5 46.1991C39.5 46.1947 39.5 46.1903 39.5 46.1858C39.5 46.1814 39.5 46.177 39.5 46.1725C39.5 46.1681 39.5 46.1637 39.5 46.1593C39.5 46.1548 39.5 46.1504 39.5 46.146C39.5 46.1416 39.5 46.1371 39.5 46.1327C39.5 46.1283 39.5 46.1239 39.5 46.1194C39.5 46.115 39.5 46.1106 39.5 46.1062C39.5 46.1017 39.5 46.0973 39.5 46.0929C39.5 46.0885 39.5 46.0841 39.5 46.0796C39.5 46.0752 39.5 46.0708 39.5 46.0664C39.5 46.062 39.5 46.0576 39.5 46.0531C39.5 46.0487 39.5 46.0443 39.5 46.0399C39.5 46.0355 39.5 46.0311 39.5 46.0267C39.5 46.0223 39.5 46.0178 39.5 46.0134C39.5 46.009 39.5 46.0046 39.5 46.0002C39.5 45.9958 39.5 45.9914 39.5 45.987C39.5 45.9826 39.5 45.9782 39.5 45.9738C39.5 45.9694 39.5 45.965 39.5 45.9606C39.5 45.9561 39.5 45.9517 39.5 45.9473C39.5 45.9429 39.5 45.9385 39.5 45.9341C39.5 45.9297 39.5 45.9253 39.5 45.9209C39.5 45.9165 39.5 45.9121 39.5 45.9077C39.5 45.9034 39.5 45.899 39.5 45.8946C39.5 45.8902 39.5 45.8858 39.5 45.8814C39.5 45.877 39.5 45.8726 39.5 45.8682C39.5 45.8638 39.5 45.8594 39.5 45.855C39.5 45.8506 39.5 45.8462 39.5 45.8419C39.5 45.8375 39.5 45.8331 39.5 45.8287C39.5 45.8243 39.5 45.8199 39.5 45.8155C39.5 45.8112 39.5 45.8068 39.5 45.8024C39.5 45.798 39.5 45.7936 39.5 45.7892C39.5 45.7849 39.5 45.7805 39.5 45.7761C39.5 45.7717 39.5 45.7673 39.5 45.763C39.5 45.7586 39.5 45.7542 39.5 45.7498C39.5 45.7455 39.5 45.7411 39.5 45.7367C39.5 45.7323 39.5 45.728 39.5 45.7236C39.5 45.7192 39.5 45.7148 39.5 45.7105C39.5 45.7061 39.5 45.7017 39.5 45.6973C39.5 45.693 39.5 45.6886 39.5 45.6842C39.5 45.6799 39.5 45.6755 39.5 45.6711C39.5 45.6668 39.5 45.6624 39.5 45.658C39.5 45.6537 39.5 45.6493 39.5 45.645C39.5 45.6406 39.5 45.6362 39.5 45.6319C39.5 45.6275 39.5 45.6231 39.5 45.6188C39.5 45.6144 39.5 45.6101 39.5 45.6057C39.5 45.6013 39.5 45.597 39.5 45.5926C39.5 45.5883 39.5 45.5839 39.5 45.5796C39.5 45.5752 39.5 45.5709 39.5 45.5665C39.5 45.5622 39.5 45.5578 39.5 45.5534C39.5 45.5491 39.5 45.5447 39.5 45.5404C39.5 45.536 39.5 45.5317 39.5 45.5274C39.5 45.523 39.5 45.5187 39.5 45.5143C39.5 45.51 39.5 45.5056 39.5 45.5013C39.5 45.4969 39.5 45.4926 39.5 45.4882C39.5 45.4839 39.5 45.4796 39.5 45.4752C39.5 45.4709 39.5 45.4665 39.5 45.4622C39.5 45.4579 39.5 45.4535 39.5 45.4492C39.5 45.4448 39.5 45.4405 39.5 45.4362C39.5 45.4318 39.5 45.4275 39.5 45.4232C39.5 45.4188 39.5 45.4145 39.5 45.4102C39.5 45.4058 39.5 45.4015 39.5 45.3972C39.5 45.3928 39.5 45.3885 39.5 45.3842C39.5 45.3799 39.5 45.3755 39.5 45.3712C39.5 45.3669 39.5 45.3625 39.5 45.3582C39.5 45.3539 39.5 45.3496 39.5 45.3452C39.5 45.3409 39.5 45.3366 39.5 45.3323C39.5 45.328 39.5 45.3236 39.5 45.3193C39.5 45.315 39.5 45.3107 39.5 45.3064C39.5 45.302 39.5 45.2977 39.5 45.2934C39.5 45.2891 39.5 45.2848 39.5 45.2805C39.5 45.2761 39.5 45.2718 39.5 45.2675C39.5 45.2632 39.5 45.2589 39.5 45.2546C39.5 45.2503 39.5 45.246 39.5 45.2416C39.5 45.2373 39.5 45.233 39.5 45.2287C39.5 45.2244 39.5 45.2201 39.5 45.2158C39.5 45.2115 39.5 45.2072 39.5 45.2029C39.5 45.1986 39.5 45.1943 39.5 45.19C39.5 45.1857 39.5 45.1814 39.5 45.1771H36.5ZM27.2 35.8789C32.3366 35.8789 36.5 40.0411 36.5 45.1771H39.5C39.5 38.3836 33.9928 32.8789 27.2 32.8789V35.8789ZM3.5 45.1771C3.5 40.0411 7.66342 35.8789 12.8 35.8789V32.8789C6.00723 32.8789 0.5 38.3836 0.5 45.1771H3.5ZM50.9 47V52.4H53.9V47H50.9ZM52.4 50.9H43.4V53.9H52.4V50.9ZM43.4 39.5C47.5421 39.5 50.9 42.8579 50.9 47H53.9C53.9 41.201 49.199 36.5 43.4 36.5V39.5ZM41.6 29.3C38.452 29.3 35.9 26.748 35.9 23.6H32.9C32.9 28.4049 36.7951 32.3 41.6 32.3V29.3ZM47.3 23.6C47.3 26.748 44.748 29.3 41.6 29.3V32.3C46.4049 32.3 50.3 28.4049 50.3 23.6H47.3ZM41.6 17.9C44.748 17.9 47.3 20.452 47.3 23.6H50.3C50.3 18.7951 46.4049 14.9 41.6 14.9V17.9ZM41.6 14.9C36.7951 14.9 32.9 18.7951 32.9 23.6H35.9C35.9 20.452 38.452 17.9 41.6 17.9V14.9Z" fill="white"/>
</svg>
