<svg width="24" height="24" viewBox="0 0 24 24" fill="none" xmlns="http://www.w3.org/2000/svg">
<g clip-path="url(#clip0)">
<path d="M19.5 4.61542H17.7231L16.5194 2.49142C16.3108 2.12311 15.8585 1.84619 15.2308 1.84619H8.76923C8.11477 1.84619 7.69015 2.12311 7.48062 2.49142L6.27692 4.61542H4.5C3.90902 4.6153 3.3238 4.73161 2.77778 4.95772C2.23176 5.18382 1.73564 5.51528 1.31775 5.93317C0.899861 6.35106 0.568398 6.84718 0.342295 7.3932C0.116192 7.93922 -0.00012117 8.52444 9.47221e-08 9.11542L9.47221e-08 16.7308C-0.00012117 17.3218 0.116192 17.907 0.342295 18.453C0.568398 18.999 0.899861 19.4952 1.31775 19.9131C1.73564 20.3309 2.23176 20.6624 2.77778 20.8885C3.3238 21.1146 3.90902 21.2309 4.5 21.2308H19.5C20.091 21.2309 20.6762 21.1146 21.2222 20.8885C21.7682 20.6624 22.2644 20.3309 22.6823 19.9131C23.1001 19.4952 23.4316 18.999 23.6577 18.453C23.8838 17.907 24.0001 17.3218 24 16.7308V9.11542C24.0001 8.52444 23.8838 7.93922 23.6577 7.3932C23.4316 6.84718 23.1001 6.35106 22.6823 5.93317C22.2644 5.51528 21.7682 5.18382 21.2222 4.95772C20.6762 4.73161 20.091 4.6153 19.5 4.61542ZM12 19.3847C10.2863 19.3847 8.64278 18.7039 7.431 17.4921C6.21923 16.2803 5.53846 14.6368 5.53846 12.9231H3.69231L6.46154 9.23081L9.23077 12.9231H7.38462C7.38462 15.468 9.45508 17.5385 12 17.5385C13.1705 17.5385 14.2292 17.0862 15.0434 16.3653L16.164 17.8597C15.0006 18.8456 13.5249 19.386 12 19.3847ZM17.5385 16.6154L14.7692 12.9231H16.6154C16.6154 10.3782 14.5449 8.30773 12 8.30773C10.8295 8.30773 9.77077 8.76004 8.95662 9.48096L7.836 7.9865C8.99936 7.00067 10.4751 6.46022 12 6.46158C13.7137 6.46158 15.3572 7.14234 16.569 8.35412C17.7808 9.56589 18.4615 11.2094 18.4615 12.9231H20.3077L17.5385 16.6154Z" fill="white"/>
</g>
<defs>
<clipPath id="clip0">
<rect width="24" height="24" fill="white"/>
</clipPath>
</defs>
</svg>
