<svg width="49" height="49" viewBox="0 0 49 49" fill="none" xmlns="http://www.w3.org/2000/svg">
<g filter="url(#filter0_d)">
<circle cx="24.5" cy="23.5" r="22.5" fill="#DF2C2C"/>
</g>
<path fill-rule="evenodd" clip-rule="evenodd" d="M30.5247 19.162C30.7841 19.162 31 19.3773 31 19.6513V19.9046C31 20.172 30.7841 20.394 30.5247 20.394H19.4759C19.2159 20.394 19 20.172 19 19.9046V19.6513C19 19.3773 19.2159 19.162 19.4759 19.162H21.4197C21.8146 19.162 22.1582 18.8813 22.247 18.4853L22.3488 18.0307C22.507 17.4113 23.0277 17 23.6235 17H26.3765C26.9659 17 27.4923 17.4113 27.6447 17.998L27.7536 18.4847C27.8418 18.8813 28.1854 19.162 28.5809 19.162H30.5247ZM29.5372 28.4227C29.7402 26.5314 30.0955 22.0381 30.0955 21.9927C30.1084 21.8554 30.0637 21.7254 29.9749 21.6208C29.8796 21.5228 29.759 21.4648 29.626 21.4648H20.379C20.2455 21.4648 20.1184 21.5228 20.0302 21.6208C19.9407 21.7254 19.8966 21.8554 19.9031 21.9927C19.9043 22.0011 19.9171 22.1594 19.9384 22.424C20.0331 23.5995 20.2968 26.8734 20.4672 28.4227C20.5878 29.564 21.3367 30.2813 22.4214 30.3073C23.2584 30.3267 24.1207 30.3333 25.0025 30.3333C25.8331 30.3333 26.6766 30.3267 27.5396 30.3073C28.6619 30.288 29.4101 29.5833 29.5372 28.4227Z" fill="white"/>
<defs>
<filter id="filter0_d" x="0" y="0" width="49" height="49" filterUnits="userSpaceOnUse" color-interpolation-filters="sRGB">
<feFlood flood-opacity="0" result="BackgroundImageFix"/>
<feColorMatrix in="SourceAlpha" type="matrix" values="0 0 0 0 0 0 0 0 0 0 0 0 0 0 0 0 0 0 127 0"/>
<feOffset dy="1"/>
<feGaussianBlur stdDeviation="1"/>
<feColorMatrix type="matrix" values="0 0 0 0 0.87451 0 0 0 0 0.172549 0 0 0 0 0.172549 0 0 0 0.4 0"/>
<feBlend mode="normal" in2="BackgroundImageFix" result="effect1_dropShadow"/>
<feBlend mode="normal" in="SourceGraphic" in2="effect1_dropShadow" result="shape"/>
</filter>
</defs>
</svg>
