<svg width="16" height="16" viewBox="0 0 16 16" fill="none" xmlns="http://www.w3.org/2000/svg">
<path fill-rule="evenodd" clip-rule="evenodd" d="M10.5 4.99998C10.5 5.66302 10.2366 6.29891 9.76777 6.76775C9.29893 7.23659 8.66304 7.49998 8 7.49998C7.33696 7.49998 6.70108 7.23659 6.23224 6.76775C5.76339 6.29891 5.5 5.66302 5.5 4.99998C5.5 4.33694 5.76339 3.70106 6.23224 3.23221C6.70108 2.76337 7.33696 2.49998 8 2.49998C8.66304 2.49998 9.29893 2.76337 9.76777 3.23221C10.2366 3.70106 10.5 4.33694 10.5 4.99998ZM10.561 8.07298C11.1923 7.54662 11.6461 6.83856 11.8608 6.04512C12.0754 5.25168 12.0403 4.41139 11.7604 3.63856C11.4805 2.86574 10.9693 2.19791 10.2964 1.72593C9.62345 1.25395 8.82145 1.00073 7.9995 1.00073C7.17755 1.00073 6.37555 1.25395 5.70262 1.72593C5.02969 2.19791 4.51849 2.86574 4.23859 3.63856C3.95868 4.41139 3.92364 5.25168 4.13825 6.04512C4.35286 6.83856 4.80669 7.54662 5.438 8.07298C4.45359 8.53838 3.61427 9.26274 3.0099 10.1685C2.40553 11.0743 2.05886 12.1273 2.007 13.215C2.00218 13.411 2.07428 13.6011 2.20788 13.7445C2.34147 13.888 2.52593 13.9735 2.72177 13.9826C2.9176 13.9918 3.10923 13.9239 3.25562 13.7935C3.40201 13.6631 3.49153 13.4806 3.505 13.285C3.55952 12.1295 4.0569 11.0394 4.89391 10.241C5.73091 9.44251 6.84324 8.99706 8 8.99706C9.15676 8.99706 10.2691 9.44251 11.1061 10.241C11.9431 11.0394 12.4405 12.1295 12.495 13.285C12.4975 13.3848 12.5198 13.4832 12.5608 13.5743C12.6018 13.6654 12.6606 13.7474 12.7337 13.8154C12.8068 13.8835 12.8928 13.9363 12.9865 13.9707C13.0803 14.005 13.18 14.0204 13.2798 14.0157C13.3796 14.011 13.4774 13.9865 13.5676 13.9435C13.6577 13.9005 13.7384 13.84 13.8048 13.7654C13.8713 13.6908 13.9221 13.6037 13.9544 13.5092C13.9868 13.4146 13.9999 13.3146 13.993 13.215C13.9409 12.1273 13.5941 11.0742 12.9895 10.1684C12.385 9.26265 11.5455 8.53834 10.561 8.07298Z" fill="black" fill-opacity="0.87"/>
</svg>
