<svg width="368" height="345" viewBox="0 0 368 345" fill="none" xmlns="http://www.w3.org/2000/svg">
<path d="M349.896 169.855C296.625 250.554 271.569 345 174.948 345C78.3269 345 0 266.585 0 169.855C0 73.1244 87.3058 35.4302 174.948 -5.29094C459.615 -137.556 469.094 -10.7153 349.896 169.855Z" fill="#2B90D9"/>
<path d="M312.006 38.0122L310.503 39.8025L309.011 38L308.01 39.1936L309.502 40.9956L308 42.7859L308.994 43.9878L310.497 42.1975L311.989 44L312.99 42.8064L311.498 41.0039L313 39.2141L312.006 38.0122Z" fill="#E6E6E6"/>
<path d="M267.006 254.012L265.503 255.803L264.011 254L263.01 255.194L264.502 256.996L263 258.786L263.994 259.988L265.497 258.197L266.989 260L267.99 258.806L266.498 257.004L268 255.214L267.006 254.012Z" fill="#E6E6E6"/>
<path opacity="0.8" d="M308.709 142.859L320.862 128.808L333.016 114.758L339.877 106.826C340.257 106.387 339.671 105.702 339.291 106.141L327.138 120.192L314.984 134.242L308.123 142.174C307.743 142.613 308.329 143.298 308.709 142.859Z" fill="url(#paint0_linear)"/>
<path opacity="0.8" d="M101.491 309.897L92.7551 299.644L84.0197 289.391L79.0884 283.603C78.8155 283.282 79.2366 282.783 79.5094 283.103L88.2449 293.356L96.9803 303.609L101.912 309.397C102.184 309.718 101.763 310.217 101.491 309.897Z" fill="url(#paint1_linear)"/>
<path d="M67.5582 142.211L61.9863 145.732L65.3617 139.602C64.4059 138.84 63.2232 138.418 62.0006 138.403H61.911C61.5246 138.41 61.1383 138.382 60.7572 138.317L58.8725 139.512L59.6787 138.045C58.3434 137.577 57.1899 136.7 56.3821 135.54L53.0103 137.687L55.1388 133.815C53.168 131.449 50.5092 130 47.5817 130C44.0738 130 40.9492 132.083 38.9318 135.332C38.3336 136.305 37.4879 137.103 36.4809 137.643C35.4738 138.184 34.3413 138.449 33.1987 138.41H33.0124C29.1389 138.41 26 142.794 26 148.205C26 153.616 29.1389 158 33.0124 158C33.8635 157.997 34.7011 157.787 35.4525 157.388C36.7713 156.749 38.2132 156.403 39.6788 156.375C41.1443 156.347 42.5985 156.636 43.9412 157.223C45.0754 157.732 46.3042 157.997 47.5476 158C48.791 158.003 50.0211 157.745 51.1578 157.241C52.4893 156.665 53.9293 156.381 55.3802 156.409C56.8312 156.437 58.2592 156.775 59.5676 157.402C60.3145 157.792 61.1438 157.997 61.9863 158C65.8597 158 68.9986 153.616 68.9986 148.205C69.0295 146.118 68.5341 144.056 67.5582 142.211Z" fill="#F2F2F2"/>
<path opacity="0.03" d="M57 156.592C54.98 156.215 52.892 156.438 51.0011 157.234C49.8685 157.734 48.6415 157.993 47.4006 157.993C46.1597 157.993 44.9327 157.734 43.8001 157.234C42.4602 156.653 41.0082 156.367 39.5448 156.395C38.0815 156.423 36.6419 156.765 35.3258 157.396C34.5738 157.789 33.7368 157.996 32.8861 158C29.452 158 26.5938 154.584 26 150.08C26.6871 149.588 27.2704 148.968 27.7171 148.255C29.731 145.054 32.8503 143 36.3524 143C39.8545 143 42.9416 145.012 44.952 148.188C45.5535 149.148 46.397 149.938 47.4001 150.48C48.4032 151.023 49.5317 151.3 50.6755 151.284H50.7649C53.48 151.276 55.8481 153.436 57 156.592Z" fill="black"/>
<path d="M154.174 259.03L158.709 261.923L155.961 256.887C156.739 256.262 157.702 255.915 158.697 255.902H158.77C159.085 255.909 159.399 255.885 159.709 255.832L161.243 256.814L160.587 255.608C161.674 255.224 162.613 254.504 163.27 253.551L166.015 255.314L164.282 252.134C165.887 250.191 168.051 249 170.433 249C173.289 249 175.832 250.711 177.474 253.38C177.961 254.179 178.649 254.834 179.469 255.279C180.289 255.723 181.211 255.94 182.141 255.908H182.292C185.445 255.908 188 259.509 188 263.954C188 268.399 185.445 272 182.292 272C181.599 271.998 180.918 271.825 180.306 271.497C179.233 270.972 178.059 270.689 176.866 270.665C175.673 270.642 174.49 270.88 173.397 271.362C172.474 271.78 171.473 271.997 170.461 272C169.449 272.003 168.448 271.79 167.523 271.377C166.439 270.903 165.267 270.67 164.086 270.693C162.905 270.716 161.743 270.994 160.678 271.509C160.07 271.829 159.395 271.997 158.709 272C155.556 272 153.001 268.399 153.001 263.954C152.976 262.24 153.379 260.546 154.174 259.03Z" fill="#F2F2F2"/>
<path opacity="0.03" d="M163 270.873C164.629 270.572 166.313 270.751 167.838 271.387C168.751 271.788 169.741 271.994 170.741 271.994C171.742 271.994 172.732 271.788 173.645 271.387C174.726 270.923 175.897 270.693 177.077 270.716C178.257 270.738 179.418 271.012 180.479 271.517C181.086 271.831 181.761 271.997 182.447 272C185.216 272 187.521 269.267 188 265.664C187.446 265.27 186.976 264.774 186.615 264.204C184.991 261.643 182.476 260 179.651 260C176.827 260 174.337 261.609 172.716 264.151C172.231 264.919 171.551 265.55 170.742 265.984C169.933 266.418 169.023 266.64 168.1 266.627H168.028C165.839 266.621 163.929 268.349 163 270.873Z" fill="black"/>
<defs>
<linearGradient id="paint0_linear" x1="308" y1="124.5" x2="340" y2="124.5" gradientUnits="userSpaceOnUse">
<stop stop-color="white"/>
<stop offset="1" stop-color="white" stop-opacity="0.3"/>
</linearGradient>
<linearGradient id="paint1_linear" x1="102" y1="296.5" x2="79" y2="296.5" gradientUnits="userSpaceOnUse">
<stop stop-color="white"/>
<stop offset="1" stop-color="white" stop-opacity="0.3"/>
</linearGradient>
</defs>
</svg>
