<svg width="360" height="344" viewBox="0 0 360 344" fill="none" xmlns="http://www.w3.org/2000/svg">
<path d="M167.915 343.87C132.199 342.407 98.3086 330.196 69.7459 308.499C31.1037 279.133 5.96755 234.553 0.990341 186.442C-0.0101043 176.88 -0.285227 164.392 0.31504 156.419C3.61651 113.53 23.7254 80.2532 64.4436 50.2812C84.1273 35.7746 109.314 21.6716 149.106 2.8761L155.184 0H257.579H360V75.6867V151.373L356.924 156.217C355.223 158.892 352.021 163.862 349.82 167.268C340.166 182.153 332.213 195.675 317.731 221.762C299.348 254.913 290.669 269.293 280.34 283.674C273.311 293.488 267.384 300.602 259.855 308.196C254.178 313.898 250.751 316.926 245.324 321.038C235.194 328.707 225.54 333.879 213.96 337.84C200.154 342.558 184.872 344.551 167.915 343.87Z" fill="#2B90D9"/>
<path d="M167.915 343.87C132.199 342.407 98.3086 330.196 69.7459 308.499C31.1037 279.133 5.96755 234.553 0.990341 186.442C-0.0101043 176.88 -0.285227 164.392 0.31504 156.419C3.61651 113.53 23.7254 80.2532 64.4436 50.2812C84.1273 35.7746 109.314 21.6716 149.106 2.8761L155.184 0H257.579H360V75.6867V151.373L356.924 156.217C355.223 158.892 352.021 163.862 349.82 167.268C340.166 182.153 332.213 195.675 317.731 221.762C299.348 254.913 290.669 269.293 280.34 283.674C273.311 293.488 267.384 300.602 259.855 308.196C254.178 313.898 250.751 316.926 245.324 321.038C235.194 328.707 225.54 333.879 213.96 337.84C200.154 342.558 184.872 344.551 167.915 343.87Z" fill="url(#paint0_linear)"/>
<path d="M33.136 199.256C31.8667 199.256 30.8427 198.84 30.064 198.008C29.2853 197.187 28.896 196.099 28.896 194.744V187.544H30.368V194.808C30.368 195.747 30.6133 196.488 31.104 197.032C31.5947 197.576 32.272 197.848 33.136 197.848C34 197.848 34.6773 197.576 35.168 197.032C35.6587 196.488 35.904 195.747 35.904 194.808V187.544H37.376V194.744C37.376 196.131 36.992 197.229 36.224 198.04C35.456 198.851 34.4267 199.256 33.136 199.256ZM40.9536 199H39.4816V191.16H40.8896V192.248H40.9536C41.1776 191.864 41.519 191.544 41.9776 191.288C42.447 191.032 42.911 190.904 43.3696 190.904C43.9456 190.904 44.4523 191.037 44.8896 191.304C45.327 191.571 45.647 191.939 45.8496 192.408C46.5003 191.405 47.4016 190.904 48.5536 190.904C49.4603 190.904 50.159 191.181 50.6496 191.736C51.1403 192.291 51.3856 193.08 51.3856 194.104V199H49.9136V194.328C49.9136 193.592 49.7803 193.064 49.5136 192.744C49.247 192.413 48.799 192.248 48.1696 192.248C47.6043 192.248 47.1296 192.488 46.7456 192.968C46.3616 193.448 46.1696 194.013 46.1696 194.664V199H44.6976V194.328C44.6976 193.592 44.5643 193.064 44.2976 192.744C44.031 192.413 43.583 192.248 42.9536 192.248C42.3883 192.248 41.9136 192.488 41.5296 192.968C41.1456 193.448 40.9536 194.013 40.9536 194.664V199ZM57.2622 191.16H58.6702V192.248H58.7342C58.9582 191.864 59.2996 191.544 59.7582 191.288C60.2276 191.032 60.7129 190.904 61.2142 190.904C62.1742 190.904 62.9102 191.181 63.4222 191.736C63.9449 192.28 64.2062 193.059 64.2062 194.072V199H62.7342V194.168C62.7022 192.888 62.0569 192.248 60.7982 192.248C60.2116 192.248 59.7209 192.488 59.3262 192.968C58.9316 193.437 58.7342 194.003 58.7342 194.664V199H57.2622V191.16ZM65.8061 195.08C65.8061 193.875 66.1848 192.877 66.9421 192.088C67.7101 191.299 68.6755 190.904 69.8381 190.904C71.0008 190.904 71.9608 191.299 72.7181 192.088C73.4861 192.877 73.8701 193.875 73.8701 195.08C73.8701 196.296 73.4861 197.293 72.7181 198.072C71.9608 198.861 71.0008 199.256 69.8381 199.256C68.6755 199.256 67.7101 198.861 66.9421 198.072C66.1848 197.283 65.8061 196.285 65.8061 195.08ZM67.2781 195.08C67.2781 195.923 67.5235 196.605 68.0141 197.128C68.5048 197.651 69.1128 197.912 69.8381 197.912C70.5635 197.912 71.1715 197.651 71.6621 197.128C72.1528 196.605 72.3981 195.923 72.3981 195.08C72.3981 194.248 72.1528 193.571 71.6621 193.048C71.1608 192.515 70.5528 192.248 69.8381 192.248C69.1235 192.248 68.5155 192.515 68.0141 193.048C67.5235 193.571 67.2781 194.248 67.2781 195.08ZM79.179 199H77.707L74.539 191.16H76.139L78.443 197.24H78.475L80.811 191.16H82.379L79.179 199ZM82.9774 195.08C82.9774 193.875 83.356 192.877 84.1134 192.088C84.8814 191.299 85.8467 190.904 87.0094 190.904C88.172 190.904 89.132 191.299 89.8894 192.088C90.6574 192.877 91.0414 193.875 91.0414 195.08C91.0414 196.296 90.6574 197.293 89.8894 198.072C89.132 198.861 88.172 199.256 87.0094 199.256C85.8467 199.256 84.8814 198.861 84.1134 198.072C83.356 197.283 82.9774 196.285 82.9774 195.08ZM84.4494 195.08C84.4494 195.923 84.6947 196.605 85.1854 197.128C85.676 197.651 86.284 197.912 87.0094 197.912C87.7347 197.912 88.3427 197.651 88.8334 197.128C89.324 196.605 89.5694 195.923 89.5694 195.08C89.5694 194.248 89.324 193.571 88.8334 193.048C88.332 192.515 87.724 192.248 87.0094 192.248C86.2947 192.248 85.6867 192.515 85.1854 193.048C84.6947 193.571 84.4494 194.248 84.4494 195.08ZM98.4381 188.456C98.4381 188.744 98.3368 188.989 98.1341 189.192C97.9315 189.395 97.6861 189.496 97.3981 189.496C97.1101 189.496 96.8648 189.395 96.6621 189.192C96.4595 188.989 96.3581 188.744 96.3581 188.456C96.3581 188.168 96.4595 187.923 96.6621 187.72C96.8648 187.517 97.1101 187.416 97.3981 187.416C97.6861 187.416 97.9315 187.517 98.1341 187.72C98.3368 187.923 98.4381 188.168 98.4381 188.456ZM95.7821 202.616C95.4621 202.616 95.1741 202.563 94.9181 202.456L95.3021 201.176C95.4728 201.24 95.6168 201.272 95.7341 201.272C96.3315 201.272 96.6408 200.904 96.6621 200.168V191.16H98.1341V199.944C98.1341 201.725 97.3501 202.616 95.7821 202.616ZM103.812 199.256C102.66 199.256 101.71 198.861 100.964 198.072C100.217 197.283 99.8436 196.285 99.8436 195.08C99.8436 193.885 100.206 192.893 100.932 192.104C101.657 191.304 102.585 190.904 103.716 190.904C104.878 190.904 105.801 191.283 106.484 192.04C107.177 192.787 107.524 193.837 107.524 195.192L107.508 195.352H101.348C101.369 196.12 101.625 196.739 102.116 197.208C102.606 197.677 103.193 197.912 103.876 197.912C104.814 197.912 105.55 197.443 106.084 196.504L107.396 197.144C107.044 197.805 106.553 198.323 105.924 198.696C105.305 199.069 104.601 199.256 103.812 199.256ZM101.46 194.136H105.956C105.913 193.592 105.689 193.144 105.284 192.792C104.889 192.429 104.356 192.248 103.684 192.248C103.129 192.248 102.649 192.419 102.244 192.76C101.849 193.101 101.588 193.56 101.46 194.136ZM111.094 188.456C111.094 188.744 110.992 188.989 110.79 189.192C110.587 189.395 110.342 189.496 110.054 189.496C109.766 189.496 109.52 189.395 109.318 189.192C109.115 188.989 109.014 188.744 109.014 188.456C109.014 188.168 109.115 187.923 109.318 187.72C109.52 187.517 109.766 187.416 110.054 187.416C110.342 187.416 110.587 187.517 110.79 187.72C110.992 187.923 111.094 188.168 111.094 188.456ZM110.79 191.16V199H109.318V191.16H110.79ZM116.051 199.128C115.411 199.128 114.878 198.931 114.451 198.536C114.035 198.141 113.822 197.592 113.811 196.888V192.504H112.435V191.16H113.811V188.76H115.283V191.16H117.203V192.504H115.283V196.408C115.283 196.931 115.385 197.288 115.587 197.48C115.79 197.661 116.019 197.752 116.275 197.752C116.393 197.752 116.505 197.741 116.611 197.72C116.729 197.688 116.835 197.651 116.931 197.608L117.395 198.92C117.011 199.059 116.563 199.128 116.051 199.128ZM118.397 195.08C118.397 193.875 118.776 192.877 119.533 192.088C120.301 191.299 121.267 190.904 122.429 190.904C123.592 190.904 124.552 191.299 125.309 192.088C126.077 192.877 126.461 193.875 126.461 195.08C126.461 196.296 126.077 197.293 125.309 198.072C124.552 198.861 123.592 199.256 122.429 199.256C121.267 199.256 120.301 198.861 119.533 198.072C118.776 197.283 118.397 196.285 118.397 195.08ZM119.869 195.08C119.869 195.923 120.115 196.605 120.605 197.128C121.096 197.651 121.704 197.912 122.429 197.912C123.155 197.912 123.763 197.651 124.253 197.128C124.744 196.605 124.989 195.923 124.989 195.08C124.989 194.248 124.744 193.571 124.253 193.048C123.752 192.515 123.144 192.248 122.429 192.248C121.715 192.248 121.107 192.515 120.605 193.048C120.115 193.571 119.869 194.248 119.869 195.08ZM135.474 197.912C136.199 197.912 136.791 197.651 137.25 197.128C137.73 196.605 137.97 195.923 137.97 195.08C137.97 194.259 137.73 193.581 137.25 193.048C136.781 192.515 136.189 192.248 135.474 192.248C134.77 192.248 134.178 192.515 133.698 193.048C133.218 193.581 132.978 194.259 132.978 195.08C132.978 195.912 133.218 196.589 133.698 197.112C134.178 197.645 134.77 197.912 135.474 197.912ZM135.234 199.256C134.21 199.256 133.33 198.851 132.594 198.04C131.869 197.219 131.506 196.232 131.506 195.08C131.506 193.928 131.869 192.941 132.594 192.12C133.33 191.309 134.21 190.904 135.234 190.904C135.81 190.904 136.333 191.027 136.802 191.272C137.282 191.517 137.65 191.843 137.906 192.248H137.97L137.906 191.16V187.544H139.378V199H137.97V197.912H137.906C137.65 198.317 137.282 198.643 136.802 198.888C136.333 199.133 135.81 199.256 135.234 199.256ZM144.935 199.256C143.783 199.256 142.833 198.861 142.087 198.072C141.34 197.283 140.967 196.285 140.967 195.08C140.967 193.885 141.329 192.893 142.055 192.104C142.78 191.304 143.708 190.904 144.839 190.904C146.001 190.904 146.924 191.283 147.607 192.04C148.3 192.787 148.647 193.837 148.647 195.192L148.631 195.352H142.471C142.492 196.12 142.748 196.739 143.239 197.208C143.729 197.677 144.316 197.912 144.999 197.912C145.937 197.912 146.673 197.443 147.207 196.504L148.519 197.144C148.167 197.805 147.676 198.323 147.047 198.696C146.428 199.069 145.724 199.256 144.935 199.256ZM142.583 194.136H147.079C147.036 193.592 146.812 193.144 146.407 192.792C146.012 192.429 145.479 192.248 144.807 192.248C144.252 192.248 143.772 192.419 143.367 192.76C142.972 193.101 142.711 193.56 142.583 194.136ZM157.733 199.256C156.57 199.256 155.605 198.861 154.837 198.072C154.079 197.261 153.701 196.264 153.701 195.08C153.701 193.875 154.079 192.877 154.837 192.088C155.605 191.299 156.57 190.904 157.733 190.904C158.533 190.904 159.231 191.107 159.829 191.512C160.426 191.907 160.874 192.456 161.173 193.16L159.829 193.72C159.413 192.739 158.682 192.248 157.637 192.248C156.965 192.248 156.383 192.52 155.893 193.064C155.413 193.608 155.173 194.28 155.173 195.08C155.173 195.88 155.413 196.552 155.893 197.096C156.383 197.64 156.965 197.912 157.637 197.912C158.714 197.912 159.471 197.421 159.909 196.44L161.221 197C160.933 197.704 160.479 198.259 159.861 198.664C159.253 199.059 158.543 199.256 157.733 199.256ZM162.302 195.08C162.302 193.875 162.68 192.877 163.438 192.088C164.206 191.299 165.171 190.904 166.334 190.904C167.496 190.904 168.456 191.299 169.214 192.088C169.982 192.877 170.366 193.875 170.366 195.08C170.366 196.296 169.982 197.293 169.214 198.072C168.456 198.861 167.496 199.256 166.334 199.256C165.171 199.256 164.206 198.861 163.438 198.072C162.68 197.283 162.302 196.285 162.302 195.08ZM163.774 195.08C163.774 195.923 164.019 196.605 164.51 197.128C165 197.651 165.608 197.912 166.334 197.912C167.059 197.912 167.667 197.651 168.158 197.128C168.648 196.605 168.894 195.923 168.894 195.08C168.894 194.248 168.648 193.571 168.158 193.048C167.656 192.515 167.048 192.248 166.334 192.248C165.619 192.248 165.011 192.515 164.51 193.048C164.019 193.571 163.774 194.248 163.774 195.08ZM173.339 199H171.867V191.16H173.275V192.248H173.339C173.563 191.864 173.904 191.544 174.363 191.288C174.832 191.032 175.296 190.904 175.755 190.904C176.331 190.904 176.837 191.037 177.275 191.304C177.712 191.571 178.032 191.939 178.235 192.408C178.885 191.405 179.787 190.904 180.939 190.904C181.845 190.904 182.544 191.181 183.035 191.736C183.525 192.291 183.771 193.08 183.771 194.104V199H182.299V194.328C182.299 193.592 182.165 193.064 181.899 192.744C181.632 192.413 181.184 192.248 180.555 192.248C179.989 192.248 179.515 192.488 179.131 192.968C178.747 193.448 178.555 194.013 178.555 194.664V199H177.083V194.328C177.083 193.592 176.949 193.064 176.683 192.744C176.416 192.413 175.968 192.248 175.339 192.248C174.773 192.248 174.299 192.488 173.915 192.968C173.531 193.448 173.339 194.013 173.339 194.664V199ZM189.652 197.912C190.356 197.912 190.948 197.645 191.428 197.112C191.908 196.589 192.148 195.912 192.148 195.08C192.148 194.259 191.908 193.581 191.428 193.048C190.948 192.515 190.356 192.248 189.652 192.248C188.937 192.248 188.34 192.515 187.86 193.048C187.39 193.581 187.156 194.259 187.156 195.08C187.156 195.912 187.39 196.595 187.86 197.128C188.34 197.651 188.937 197.912 189.652 197.912ZM189.892 199.256C189.316 199.256 188.788 199.133 188.308 198.888C187.838 198.643 187.476 198.317 187.22 197.912H187.156L187.22 199V202.456H185.748V191.16H187.156V192.248H187.22C187.476 191.843 187.838 191.517 188.308 191.272C188.788 191.027 189.316 190.904 189.892 190.904C190.926 190.904 191.801 191.309 192.516 192.12C193.252 192.941 193.62 193.928 193.62 195.08C193.62 196.243 193.252 197.229 192.516 198.04C191.801 198.851 190.926 199.256 189.892 199.256ZM196.36 196.6C196.36 196.984 196.52 197.304 196.84 197.56C197.171 197.816 197.555 197.944 197.992 197.944C198.611 197.944 199.16 197.715 199.64 197.256C200.131 196.797 200.376 196.259 200.376 195.64C199.917 195.277 199.277 195.096 198.456 195.096C197.859 195.096 197.357 195.24 196.952 195.528C196.557 195.816 196.36 196.173 196.36 196.6ZM198.264 190.904C199.352 190.904 200.211 191.197 200.84 191.784C201.469 192.36 201.784 193.155 201.784 194.168V199H200.376V197.912H200.312C199.704 198.808 198.893 199.256 197.88 199.256C197.016 199.256 196.291 199 195.704 198.488C195.128 197.976 194.84 197.336 194.84 196.568C194.84 195.757 195.144 195.112 195.752 194.632C196.371 194.152 197.192 193.912 198.216 193.912C199.091 193.912 199.811 194.072 200.376 194.392V194.056C200.376 193.544 200.173 193.112 199.768 192.76C199.363 192.397 198.888 192.216 198.344 192.216C197.523 192.216 196.872 192.563 196.392 193.256L195.096 192.44C195.811 191.416 196.867 190.904 198.264 190.904ZM212.948 199.128C212.308 199.128 211.775 198.931 211.348 198.536C210.932 198.141 210.719 197.592 210.708 196.888V192.504H209.332V191.16H210.708V188.76H212.18V191.16H214.1V192.504H212.18V196.408C212.18 196.931 212.281 197.288 212.484 197.48C212.687 197.661 212.916 197.752 213.172 197.752C213.289 197.752 213.401 197.741 213.508 197.72C213.625 197.688 213.732 197.651 213.828 197.608L214.292 198.92C213.908 199.059 213.46 199.128 212.948 199.128ZM203.764 191.16H205.172V192.44H205.236C205.673 191.437 206.575 190.936 207.94 190.936L208.244 190.968V192.504L207.588 192.44C206.905 192.44 206.34 192.653 205.892 193.08C205.455 193.496 205.236 194.029 205.236 194.68V199H203.764V191.16ZM217.816 188.456C217.816 188.744 217.715 188.989 217.512 189.192C217.31 189.395 217.064 189.496 216.776 189.496C216.488 189.496 216.243 189.395 216.04 189.192C215.838 188.989 215.736 188.744 215.736 188.456C215.736 188.168 215.838 187.923 216.04 187.72C216.243 187.517 216.488 187.416 216.776 187.416C217.064 187.416 217.31 187.517 217.512 187.72C217.715 187.923 217.816 188.168 217.816 188.456ZM217.512 191.16V199H216.04V191.16H217.512ZM221.22 187.544V199H219.748V187.544H221.22ZM223.334 187.544H224.806V191.16L224.742 192.248H224.806C225.03 191.864 225.371 191.544 225.83 191.288C226.299 191.032 226.784 190.904 227.286 190.904C228.246 190.904 228.982 191.181 229.494 191.736C230.016 192.28 230.278 193.059 230.278 194.072V199H228.806V194.36C228.806 192.952 228.182 192.248 226.934 192.248C226.336 192.248 225.83 192.499 225.414 193C225.008 193.491 224.806 194.067 224.806 194.728V199H223.334V187.544ZM233.319 196.6C233.319 196.984 233.479 197.304 233.799 197.56C234.13 197.816 234.514 197.944 234.951 197.944C235.57 197.944 236.119 197.715 236.599 197.256C237.09 196.797 237.335 196.259 237.335 195.64C236.877 195.277 236.237 195.096 235.415 195.096C234.818 195.096 234.317 195.24 233.911 195.528C233.517 195.816 233.319 196.173 233.319 196.6ZM235.223 190.904C236.311 190.904 237.17 191.197 237.799 191.784C238.429 192.36 238.743 193.155 238.743 194.168V199H237.335V197.912H237.271C236.663 198.808 235.853 199.256 234.839 199.256C233.975 199.256 233.25 199 232.663 198.488C232.087 197.976 231.799 197.336 231.799 196.568C231.799 195.757 232.103 195.112 232.711 194.632C233.33 194.152 234.151 193.912 235.175 193.912C236.05 193.912 236.77 194.072 237.335 194.392V194.056C237.335 193.544 237.133 193.112 236.727 192.76C236.322 192.397 235.847 192.216 235.303 192.216C234.482 192.216 233.831 192.563 233.351 193.256L232.055 192.44C232.77 191.416 233.826 190.904 235.223 190.904ZM242.195 199H240.723V191.16H242.131V192.44H242.195C242.345 192.024 242.649 191.672 243.107 191.384C243.577 191.085 244.035 190.936 244.483 190.936C244.91 190.936 245.273 191 245.571 191.128L245.123 192.552C244.942 192.477 244.654 192.44 244.259 192.44C243.705 192.44 243.219 192.664 242.803 193.112C242.398 193.56 242.195 194.083 242.195 194.68V199ZM254.212 199.256C253.06 199.256 252.11 198.861 251.364 198.072C250.617 197.283 250.244 196.285 250.244 195.08C250.244 193.885 250.606 192.893 251.332 192.104C252.057 191.304 252.985 190.904 254.116 190.904C255.278 190.904 256.201 191.283 256.884 192.04C257.577 192.787 257.924 193.837 257.924 195.192L257.908 195.352H251.748C251.769 196.12 252.025 196.739 252.516 197.208C253.006 197.677 253.593 197.912 254.276 197.912C255.214 197.912 255.95 197.443 256.484 196.504L257.796 197.144C257.444 197.805 256.953 198.323 256.324 198.696C255.705 199.069 255.001 199.256 254.212 199.256ZM251.86 194.136H256.356C256.313 193.592 256.089 193.144 255.684 192.792C255.289 192.429 254.756 192.248 254.084 192.248C253.529 192.248 253.049 192.419 252.644 192.76C252.249 193.101 251.988 193.56 251.86 194.136ZM261.062 199H259.59V191.16H260.998V192.248H261.062C261.286 191.864 261.627 191.544 262.086 191.288C262.555 191.032 263.019 190.904 263.478 190.904C264.054 190.904 264.56 191.037 264.998 191.304C265.435 191.571 265.755 191.939 265.958 192.408C266.608 191.405 267.51 190.904 268.662 190.904C269.568 190.904 270.267 191.181 270.758 191.736C271.248 192.291 271.494 193.08 271.494 194.104V199H270.022V194.328C270.022 193.592 269.888 193.064 269.622 192.744C269.355 192.413 268.907 192.248 268.278 192.248C267.712 192.248 267.238 192.488 266.854 192.968C266.47 193.448 266.278 194.013 266.278 194.664V199H264.806V194.328C264.806 193.592 264.672 193.064 264.406 192.744C264.139 192.413 263.691 192.248 263.062 192.248C262.496 192.248 262.022 192.488 261.638 192.968C261.254 193.448 261.062 194.013 261.062 194.664V199ZM273.087 195.08C273.087 193.875 273.465 192.877 274.223 192.088C274.991 191.299 275.956 190.904 277.119 190.904C278.281 190.904 279.241 191.299 279.999 192.088C280.767 192.877 281.151 193.875 281.151 195.08C281.151 196.296 280.767 197.293 279.999 198.072C279.241 198.861 278.281 199.256 277.119 199.256C275.956 199.256 274.991 198.861 274.223 198.072C273.465 197.283 273.087 196.285 273.087 195.08ZM274.559 195.08C274.559 195.923 274.804 196.605 275.295 197.128C275.785 197.651 276.393 197.912 277.119 197.912C277.844 197.912 278.452 197.651 278.943 197.128C279.433 196.605 279.679 195.923 279.679 195.08C279.679 194.248 279.433 193.571 278.943 193.048C278.441 192.515 277.833 192.248 277.119 192.248C276.404 192.248 275.796 192.515 275.295 193.048C274.804 193.571 274.559 194.248 274.559 195.08ZM288.056 201.256C288.056 201.683 287.901 202.045 287.592 202.344C287.283 202.643 286.899 202.792 286.44 202.792C286.109 202.792 285.805 202.691 285.528 202.488C285.251 202.296 285.053 202.04 284.936 201.72L285.768 201.352C285.875 201.715 286.099 201.896 286.44 201.896C286.632 201.896 286.787 201.832 286.904 201.704C287.032 201.587 287.096 201.437 287.096 201.256C287.096 201.064 287.032 200.904 286.904 200.776C286.787 200.648 286.632 200.584 286.44 200.584C286.227 200.584 286.051 200.669 285.912 200.84L285.16 200.488L285.64 199.192C284.659 199.011 283.864 198.547 283.256 197.8C282.659 197.043 282.36 196.136 282.36 195.08C282.36 193.875 282.739 192.877 283.496 192.088C284.264 191.299 285.229 190.904 286.392 190.904C287.192 190.904 287.891 191.107 288.488 191.512C289.085 191.907 289.533 192.456 289.832 193.16L288.488 193.72C288.072 192.739 287.341 192.248 286.296 192.248C285.624 192.248 285.043 192.52 284.552 193.064C284.072 193.608 283.832 194.28 283.832 195.08C283.832 195.88 284.072 196.552 284.552 197.096C285.043 197.64 285.624 197.912 286.296 197.912C287.373 197.912 288.131 197.421 288.568 196.44L289.88 197C289.603 197.683 289.171 198.227 288.584 198.632C287.997 199.027 287.304 199.235 286.504 199.256L286.28 199.768L286.6 199.736C287.005 199.736 287.347 199.88 287.624 200.168C287.912 200.456 288.056 200.819 288.056 201.256ZM290.961 195.08C290.961 193.875 291.34 192.877 292.097 192.088C292.865 191.299 293.83 190.904 294.993 190.904C296.156 190.904 297.116 191.299 297.873 192.088C298.641 192.877 299.025 193.875 299.025 195.08C299.025 196.296 298.641 197.293 297.873 198.072C297.116 198.861 296.156 199.256 294.993 199.256C293.83 199.256 292.865 198.861 292.097 198.072C291.34 197.283 290.961 196.285 290.961 195.08ZM292.433 195.08C292.433 195.923 292.678 196.605 293.169 197.128C293.66 197.651 294.268 197.912 294.993 197.912C295.718 197.912 296.326 197.651 296.817 197.128C297.308 196.605 297.553 195.923 297.553 195.08C297.553 194.248 297.308 193.571 296.817 193.048C296.316 192.515 295.708 192.248 294.993 192.248C294.278 192.248 293.67 192.515 293.169 193.048C292.678 193.571 292.433 194.248 292.433 195.08ZM295.905 189.48C295.649 189.48 295.292 189.363 294.833 189.128C294.385 188.883 294.124 188.76 294.049 188.76C293.718 188.76 293.542 188.947 293.521 189.32H292.305C292.305 188.755 292.476 188.301 292.817 187.96C293.169 187.608 293.59 187.432 294.081 187.432C294.39 187.432 294.822 187.592 295.377 187.912C295.697 188.072 295.884 188.152 295.937 188.152C296.268 188.152 296.444 187.965 296.465 187.592H297.681C297.681 188.157 297.505 188.616 297.153 188.968C296.812 189.309 296.396 189.48 295.905 189.48ZM304.202 199.256C303.05 199.256 302.101 198.861 301.354 198.072C300.608 197.283 300.234 196.285 300.234 195.08C300.234 193.885 300.597 192.893 301.322 192.104C302.048 191.304 302.976 190.904 304.106 190.904C305.269 190.904 306.192 191.283 306.874 192.04C307.568 192.787 307.914 193.837 307.914 195.192L307.898 195.352H301.738C301.76 196.12 302.016 196.739 302.506 197.208C302.997 197.677 303.584 197.912 304.266 197.912C305.205 197.912 305.941 197.443 306.474 196.504L307.786 197.144C307.434 197.805 306.944 198.323 306.314 198.696C305.696 199.069 304.992 199.256 304.202 199.256ZM301.85 194.136H306.346C306.304 193.592 306.08 193.144 305.674 192.792C305.28 192.429 304.746 192.248 304.074 192.248C303.52 192.248 303.04 192.419 302.634 192.76C302.24 193.101 301.978 193.56 301.85 194.136ZM315.659 196.824C315.659 197.507 315.36 198.083 314.763 198.552C314.165 199.021 313.413 199.256 312.507 199.256C311.717 199.256 311.024 199.053 310.427 198.648C309.829 198.232 309.403 197.688 309.147 197.016L310.459 196.456C310.651 196.925 310.928 197.293 311.291 197.56C311.664 197.816 312.069 197.944 312.507 197.944C312.976 197.944 313.365 197.843 313.675 197.64C313.995 197.437 314.155 197.197 314.155 196.92C314.155 196.419 313.771 196.051 313.003 195.816L311.659 195.48C310.133 195.096 309.371 194.36 309.371 193.272C309.371 192.557 309.659 191.987 310.235 191.56C310.821 191.123 311.568 190.904 312.475 190.904C313.168 190.904 313.792 191.069 314.347 191.4C314.912 191.731 315.307 192.173 315.531 192.728L314.219 193.272C314.069 192.941 313.824 192.685 313.483 192.504C313.152 192.312 312.779 192.216 312.363 192.216C311.979 192.216 311.632 192.312 311.323 192.504C311.024 192.696 310.875 192.931 310.875 193.208C310.875 193.656 311.296 193.976 312.139 194.168L313.323 194.472C314.88 194.856 315.659 195.64 315.659 196.824Z" fill="white"/>
<path d="M267.006 250.012L265.503 251.803L264.011 250L263.01 251.194L264.502 252.996L263 254.786L263.994 255.988L265.497 254.197L266.989 256L267.99 254.806L266.498 253.004L268 251.214L267.006 250.012Z" fill="#E6E6E6"/>
<path opacity="0.8" d="M308.709 138.859L320.862 124.808L333.016 110.758L339.877 102.826C340.257 102.387 339.671 101.702 339.291 102.141L327.138 116.192L314.984 130.242L308.123 138.174C307.743 138.613 308.329 139.298 308.709 138.859Z" fill="url(#paint1_linear)"/>
<path opacity="0.8" d="M101.491 305.897L92.7551 295.644L84.0197 285.391L79.0884 279.603C78.8155 279.282 79.2366 278.783 79.5094 279.103L88.2449 289.356L96.9803 299.609L101.912 305.397C102.184 305.718 101.763 306.217 101.491 305.897Z" fill="url(#paint2_linear)"/>
<path d="M67.5582 138.211L61.9863 141.732L65.3617 135.602C64.4059 134.84 63.2232 134.418 62.0006 134.403H61.911C61.5246 134.41 61.1383 134.382 60.7572 134.317L58.8725 135.512L59.6787 134.045C58.3434 133.577 57.1899 132.7 56.3821 131.54L53.0103 133.687L55.1388 129.815C53.168 127.449 50.5092 126 47.5817 126C44.0738 126 40.9492 128.083 38.9318 131.332C38.3336 132.305 37.4879 133.103 36.4809 133.643C35.4738 134.184 34.3413 134.449 33.1987 134.41H33.0124C29.1389 134.41 26 138.794 26 144.205C26 149.616 29.1389 154 33.0124 154C33.8635 153.997 34.7011 153.787 35.4525 153.388C36.7713 152.749 38.2132 152.403 39.6788 152.375C41.1443 152.347 42.5985 152.636 43.9412 153.223C45.0754 153.732 46.3042 153.997 47.5476 154C48.791 154.003 50.0211 153.745 51.1578 153.241C52.4893 152.665 53.9293 152.381 55.3802 152.409C56.8312 152.437 58.2592 152.775 59.5676 153.402C60.3145 153.792 61.1438 153.997 61.9863 154C65.8597 154 68.9986 149.616 68.9986 144.205C69.0295 142.118 68.5341 140.056 67.5582 138.211Z" fill="#F2F2F2"/>
<path opacity="0.03" d="M57 152.592C54.98 152.215 52.892 152.438 51.0011 153.234C49.8685 153.734 48.6415 153.993 47.4006 153.993C46.1597 153.993 44.9327 153.734 43.8001 153.234C42.4602 152.653 41.0082 152.367 39.5448 152.395C38.0815 152.423 36.6419 152.765 35.3258 153.396C34.5738 153.789 33.7368 153.996 32.8861 154C29.452 154 26.5938 150.584 26 146.08C26.6871 145.588 27.2704 144.968 27.7171 144.255C29.731 141.054 32.8503 139 36.3524 139C39.8545 139 42.9416 141.012 44.952 144.188C45.5535 145.148 46.397 145.938 47.4001 146.48C48.4032 147.023 49.5317 147.3 50.6755 147.284H50.7649C53.48 147.276 55.8481 149.436 57 152.592Z" fill="black"/>
<path d="M154.174 255.03L158.709 257.923L155.961 252.887C156.739 252.262 157.702 251.915 158.697 251.902H158.77C159.085 251.909 159.399 251.885 159.709 251.832L161.243 252.814L160.587 251.608C161.674 251.224 162.613 250.504 163.27 249.551L166.015 251.314L164.282 248.134C165.887 246.191 168.051 245 170.433 245C173.289 245 175.832 246.711 177.474 249.38C177.961 250.179 178.649 250.834 179.469 251.279C180.289 251.723 181.211 251.94 182.141 251.908H182.292C185.445 251.908 188 255.509 188 259.954C188 264.399 185.445 268 182.292 268C181.599 267.998 180.918 267.825 180.306 267.497C179.233 266.972 178.059 266.689 176.866 266.665C175.673 266.642 174.49 266.88 173.397 267.362C172.474 267.78 171.473 267.997 170.461 268C169.449 268.003 168.448 267.79 167.523 267.377C166.439 266.903 165.267 266.67 164.086 266.693C162.905 266.716 161.743 266.994 160.678 267.509C160.07 267.829 159.395 267.997 158.709 268C155.556 268 153.001 264.399 153.001 259.954C152.976 258.24 153.379 256.546 154.174 255.03Z" fill="#F2F2F2"/>
<path opacity="0.03" d="M163 266.873C164.629 266.572 166.313 266.751 167.838 267.387C168.751 267.788 169.741 267.994 170.741 267.994C171.742 267.994 172.732 267.788 173.645 267.387C174.726 266.923 175.897 266.693 177.077 266.716C178.257 266.738 179.418 267.012 180.479 267.517C181.086 267.831 181.761 267.997 182.447 268C185.216 268 187.521 265.267 188 261.664C187.446 261.27 186.976 260.774 186.615 260.204C184.991 257.643 182.476 256 179.651 256C176.827 256 174.337 257.609 172.716 260.151C172.231 260.919 171.551 261.55 170.742 261.984C169.933 262.418 169.023 262.64 168.1 262.627H168.028C165.839 262.621 163.929 264.349 163 266.873Z" fill="black"/>
<path d="M272.006 54.0122L270.503 55.8025L269.011 54L268.01 55.1936L269.502 56.9956L268 58.7859L268.994 59.9878L270.497 58.1975L271.989 60L272.99 58.8064L271.498 57.0039L273 55.2141L272.006 54.0122Z" fill="#E6E6E6"/>
<defs>
<linearGradient id="paint0_linear" x1="180" y1="0" x2="180" y2="344" gradientUnits="userSpaceOnUse">
<stop stop-color="#2B90D9"/>
<stop offset="1" stop-color="#53C4E8"/>
</linearGradient>
<linearGradient id="paint1_linear" x1="308" y1="120.5" x2="340" y2="120.5" gradientUnits="userSpaceOnUse">
<stop stop-color="white"/>
<stop offset="1" stop-color="white" stop-opacity="0.3"/>
</linearGradient>
<linearGradient id="paint2_linear" x1="102" y1="292.5" x2="79" y2="292.5" gradientUnits="userSpaceOnUse">
<stop stop-color="white"/>
<stop offset="1" stop-color="white" stop-opacity="0.3"/>
</linearGradient>
</defs>
</svg>
