<svg width="73" height="80" viewBox="0 0 73 80" fill="none" xmlns="http://www.w3.org/2000/svg">
<g filter="url(#filter0_dd)">
<circle cx="33" cy="24" r="16" fill="#2B90D9"/>
</g>
<path d="M36.3125 19.4109V18.2031C36.3125 18.0984 36.1922 18.0406 36.1109 18.1047L29.0672 23.6063C29.0073 23.6528 28.9589 23.7124 28.9256 23.7805C28.8923 23.8486 28.875 23.9234 28.875 23.9992C28.875 24.075 28.8923 24.1499 28.9256 24.218C28.9589 24.2861 29.0073 24.3457 29.0672 24.3922L36.1109 29.8938C36.1937 29.9578 36.3125 29.9 36.3125 29.7953V28.5875C36.3125 28.5109 36.2766 28.4375 36.2172 28.3906L30.5922 24L36.2172 19.6078C36.2766 19.5609 36.3125 19.4875 36.3125 19.4109Z" fill="white"/>
<defs>
<filter id="filter0_dd" x="-7" y="0" width="80" height="80" filterUnits="userSpaceOnUse" color-interpolation-filters="sRGB">
<feFlood flood-opacity="0" result="BackgroundImageFix"/>
<feColorMatrix in="SourceAlpha" type="matrix" values="0 0 0 0 0 0 0 0 0 0 0 0 0 0 0 0 0 0 127 0"/>
<feOffset dy="2"/>
<feGaussianBlur stdDeviation="3"/>
<feColorMatrix type="matrix" values="0 0 0 0 0 0 0 0 0 0 0 0 0 0 0 0 0 0 0.04 0"/>
<feBlend mode="normal" in2="BackgroundImageFix" result="effect1_dropShadow"/>
<feColorMatrix in="SourceAlpha" type="matrix" values="0 0 0 0 0 0 0 0 0 0 0 0 0 0 0 0 0 0 127 0"/>
<feOffset dy="16"/>
<feGaussianBlur stdDeviation="12"/>
<feColorMatrix type="matrix" values="0 0 0 0 0 0 0 0 0 0 0 0 0 0 0 0 0 0 0.06 0"/>
<feBlend mode="normal" in2="effect1_dropShadow" result="effect2_dropShadow"/>
<feBlend mode="normal" in="SourceGraphic" in2="effect2_dropShadow" result="shape"/>
</filter>
</defs>
</svg>
