<svg width="375" height="39" viewBox="0 0 375 39" fill="none" xmlns="http://www.w3.org/2000/svg">
<path d="M0 38.4531C0 37.811 3.5 34.4579 6.625 32.1037C27.925 16.1232 67.625 6.06402 121.75 2.97256C137.825 2.0689 150 1.90244 188.375 2.14024C206.925 2.23537 207.35 2.23537 235.625 1.07012C258.275 0.142683 263.425 0 275.625 0C298.175 0 312.4 1.30792 326.75 4.66097C345.175 8.96524 359.375 16.2183 371.45 27.4665L375 30.7957V34.9098V39H187.5H0V38.4531Z" fill="#2B90D9"/>
<path d="M0 38.4531C0 37.811 3.5 34.4579 6.625 32.1037C27.925 16.1232 67.625 6.06402 121.75 2.97256C137.825 2.0689 150 1.90244 188.375 2.14024C206.925 2.23537 207.35 2.23537 235.625 1.07012C258.275 0.142683 263.425 0 275.625 0C298.175 0 312.4 1.30792 326.75 4.66097C345.175 8.96524 359.375 16.2183 371.45 27.4665L375 30.7957V34.9098V39H187.5H0V38.4531Z" fill="url(#paint0_linear)"/>
<defs>
<linearGradient id="paint0_linear" x1="187.5" y1="0" x2="187.5" y2="39" gradientUnits="userSpaceOnUse">
<stop stop-color="#2B90D9"/>
<stop offset="1" stop-color="#53C4E8"/>
</linearGradient>
</defs>
</svg>
