<svg width="42" height="27" viewBox="0 0 42 27" fill="none" xmlns="http://www.w3.org/2000/svg">
<path d="M1.40829 11.7745L6.85061 15.1702L3.55372 9.25881C4.48728 8.52437 5.64242 8.11759 6.83662 8.10275H6.92412C7.30157 8.11003 7.67888 8.0823 8.05107 8.01993L9.89202 9.17254L9.10454 7.75766C10.4087 7.3063 11.5354 6.46102 12.3244 5.34202L15.6178 7.41257L13.5389 3.67868C15.4638 1.39762 18.0608 0 20.9202 0C24.3466 0 27.3985 2.00843 29.3689 5.14186C29.9532 6.0802 30.7792 6.84915 31.7629 7.37046C32.7465 7.89176 33.8526 8.14682 34.9687 8.10965H35.1507C38.9341 8.10965 42 12.337 42 17.5548C42 22.7726 38.9341 27 35.1507 27C34.3194 26.9974 33.5013 26.7948 32.7673 26.4099C31.4792 25.7937 30.0708 25.4604 28.6393 25.433C27.2079 25.4056 25.7875 25.6847 24.4761 26.2511C23.3682 26.7418 22.168 26.997 20.9535 27C19.7391 27.0029 18.5375 26.7537 17.4273 26.2684C16.1267 25.7126 14.7202 25.4388 13.303 25.4656C11.8858 25.4924 10.491 25.8191 9.21304 26.4237C8.48354 26.799 7.67347 26.9967 6.85061 27C3.06723 27 0.00132751 22.7726 0.00132751 17.5548C-0.02882 15.5422 0.455017 13.5544 1.40829 11.7745Z" fill="#F2F2F2"/>
<path opacity="0.03" d="M11 25.6856C13.02 25.3337 15.108 25.5424 16.9989 26.2852C18.1315 26.7522 19.3585 26.9935 20.5994 26.9935C21.8403 26.9935 23.0673 26.7522 24.1999 26.2852C25.5398 25.743 26.9918 25.4757 28.4552 25.5019C29.9185 25.5281 31.3581 25.847 32.6742 26.4367C33.4262 26.8031 34.2632 26.9963 35.1139 27C38.548 27 41.4062 23.8113 42 19.608C41.3129 19.1485 40.7296 18.57 40.2829 17.9049C38.269 14.9172 35.1497 13 31.6476 13C28.1455 13 25.0584 14.8776 23.048 17.8424C22.4465 18.7383 21.603 19.4755 20.5999 19.9818C19.5968 20.4881 18.4683 20.7463 17.3245 20.7313H17.2351C14.52 20.7247 12.1519 22.7407 11 25.6856Z" fill="black"/>
</svg>
