<svg width="33" height="21" viewBox="0 0 33 21" fill="none" xmlns="http://www.w3.org/2000/svg">
<path d="M31.8935 9.15796L27.6174 11.7991L30.2078 7.2013C29.4743 6.63007 28.5667 6.31368 27.6284 6.30214H27.5596C27.263 6.3078 26.9666 6.28624 26.6742 6.23773L25.2277 7.1342L25.8464 6.03373C24.8217 5.68268 23.9364 5.02524 23.3165 4.1549L20.7288 5.76533L22.3623 2.86119C20.8498 1.08704 18.8094 0 16.5627 0C13.8706 0 11.4726 1.56211 9.92443 3.99923C9.46532 4.72905 8.81632 5.32712 8.04346 5.73258C7.27061 6.13804 6.4015 6.33641 5.52457 6.30751H5.38158C2.40893 6.30751 0 9.59546 0 13.6537C0 17.712 2.40893 21 5.38158 21C6.03477 20.998 6.67759 20.8404 7.25427 20.541C8.26638 20.0618 9.37295 19.8026 10.4977 19.7812C11.6224 19.7599 12.7384 19.977 13.7688 20.4175C14.6392 20.7992 15.5823 20.9977 16.5365 21C17.4907 21.0023 18.4348 20.8084 19.3071 20.431C20.329 19.9987 21.4341 19.7858 22.5476 19.8066C23.6611 19.8274 24.757 20.0816 25.7612 20.5517C26.3344 20.8437 26.9708 20.9974 27.6174 21C30.59 21 32.999 17.712 32.999 13.6537C33.0226 12.0884 32.6425 10.5423 31.8935 9.15796Z" fill="#F2F2F2"/>
<path opacity="0.03" d="M24 19.9673C22.4361 19.6908 20.8196 19.8547 19.3557 20.4384C18.4788 20.8053 17.5289 20.9949 16.5682 20.9949C15.6075 20.9949 14.6576 20.8053 13.7808 20.4384C12.7434 20.0124 11.6192 19.8024 10.4863 19.8229C9.35341 19.8435 8.23885 20.0941 7.21994 20.5574C6.63781 20.8453 5.98977 20.9971 5.33118 21C2.67251 21 0.459728 18.4946 0 15.192C0.531971 14.831 0.983504 14.3764 1.32933 13.8539C2.88853 11.5064 5.30349 10 8.01477 10C10.7261 10 13.1161 11.4753 14.6725 13.8047C15.1382 14.5087 15.7912 15.0879 16.5678 15.4857C17.3444 15.8835 18.2181 16.0864 19.1036 16.0746H19.1729C21.2749 16.0694 23.1082 17.6534 24 19.9673Z" fill="black"/>
</svg>
