<svg width="18" height="12" viewBox="0 0 18 12" fill="none" xmlns="http://www.w3.org/2000/svg">
<path d="M17.3964 5.23312L15.064 6.74233L16.477 4.11503C16.0769 3.78861 15.5818 3.60782 15.07 3.60122H15.0325C14.8708 3.60446 14.7091 3.59213 14.5495 3.56441L13.7606 4.07668L14.0981 3.44785C13.5391 3.24724 13.0562 2.87157 12.7181 2.37423L11.3066 3.29447L12.1976 1.63497C11.3726 0.621166 10.2597 0 9.03421 0C7.56576 0 6.2578 0.892636 5.41332 2.28527C5.1629 2.70231 4.8089 3.04407 4.38734 3.27576C3.96579 3.50745 3.49173 3.62081 3.0134 3.60429H2.93541C1.31396 3.60429 0 5.48312 0 7.80214C0 10.1212 1.31396 12 2.93541 12C3.29169 11.9988 3.64232 11.9088 3.95688 11.7377C4.50893 11.4639 5.11252 11.3157 5.72599 11.3036C6.33947 11.2914 6.94823 11.4154 7.51026 11.6672C7.98505 11.8853 8.49942 11.9987 9.01991 12C9.5404 12.0013 10.0553 11.8905 10.5312 11.6748C11.0886 11.4278 11.6913 11.3061 12.2987 11.3181C12.9061 11.33 13.5038 11.4752 14.0516 11.7439C14.3642 11.9107 14.7114 11.9985 15.064 12C16.6855 12 17.9994 10.1212 17.9994 7.80214C18.0124 6.90764 17.805 6.02419 17.3964 5.23312V5.23312Z" fill="#F2F2F2"/>
<path opacity="0.03" d="M14 11.4367C13.0877 11.2859 12.1448 11.3753 11.2908 11.6936C10.7793 11.8938 10.2252 11.9972 9.66479 11.9972C9.10437 11.9972 8.55027 11.8938 8.03878 11.6936C7.43363 11.4613 6.77788 11.3467 6.11702 11.358C5.45616 11.3692 4.806 11.5059 4.21163 11.7586C3.87205 11.9156 3.49403 11.9984 3.10986 12C1.55897 12 0.268175 10.6334 0 8.832C0.310316 8.63507 0.573711 8.38715 0.775443 8.10212C1.68497 6.82165 3.0937 6 4.67528 6C6.25687 6 7.65105 6.80471 8.55897 8.07529C8.83062 8.45929 9.21154 8.7752 9.66456 8.99219C10.1176 9.20919 10.6272 9.31986 11.1438 9.31341H11.1842C12.4103 9.31059 13.4798 10.1746 14 11.4367Z" fill="black"/>
</svg>
