<svg width="16" height="16" viewBox="0 0 16 16" fill="none" xmlns="http://www.w3.org/2000/svg">
<path fill-rule="evenodd" clip-rule="evenodd" d="M1.67901 7.932C2.09101 7.311 2.92101 6.182 4.04501 5.215C5.17501 4.242 6.52701 3.5 8.00001 3.5C9.47301 3.5 10.824 4.242 11.955 5.215C13.079 6.182 13.909 7.311 14.321 7.932C14.3349 7.95195 14.3424 7.97569 14.3424 8C14.3424 8.02431 14.3349 8.04805 14.321 8.068C13.909 8.689 13.079 9.818 11.955 10.785C10.825 11.758 9.47301 12.5 8.00001 12.5C6.52701 12.5 5.17601 11.758 4.04501 10.785C2.92001 9.818 2.09001 8.69 1.67901 8.068C1.66511 8.04805 1.65767 8.02431 1.65767 8C1.65767 7.97569 1.66511 7.95195 1.67901 7.932ZM8.00001 2C6.01901 2 4.33001 2.992 3.06701 4.078C1.79701 5.169 0.880009 6.423 0.430009 7.1C0.25231 7.36615 0.157471 7.67898 0.157471 7.999C0.157471 8.31902 0.25231 8.63185 0.430009 8.898C0.880009 9.576 1.79701 10.83 3.06701 11.922C4.32901 13.008 6.01901 14 8.00001 14C9.98101 14 11.67 13.008 12.933 11.922C14.203 10.831 15.12 9.577 15.57 8.899C15.7477 8.63285 15.8425 8.32002 15.8425 8C15.8425 7.67998 15.7477 7.36715 15.57 7.101C15.12 6.423 14.203 5.169 12.933 4.078C11.671 2.992 9.98101 2 8.00001 2ZM8.00001 10C8.53044 10 9.03915 9.78929 9.41422 9.41421C9.78929 9.03914 10 8.53043 10 8C10 7.46957 9.78929 6.96086 9.41422 6.58579C9.03915 6.21071 8.53044 6 8.00001 6C7.46958 6 6.96087 6.21071 6.58579 6.58579C6.21072 6.96086 6.00001 7.46957 6.00001 8C6.00001 8.53043 6.21072 9.03914 6.58579 9.41421C6.96087 9.78929 7.46958 10 8.00001 10Z" fill="black" fill-opacity="0.3"/>
</svg>
