<svg width="16" height="16" viewBox="0 0 16 16" fill="none" xmlns="http://www.w3.org/2000/svg">
<g clip-path="url(#clip0)">
<path fill-rule="evenodd" clip-rule="evenodd" d="M0.143011 2.31C0.259756 2.14908 0.435617 2.0411 0.631943 2.00978C0.82827 1.97847 1.029 2.02638 1.19001 2.143L15.69 12.643C15.7728 12.6995 15.8435 12.7721 15.8978 12.8564C15.9521 12.9407 15.9889 13.0351 16.0061 13.1339C16.0233 13.2326 16.0205 13.3339 15.9979 13.4316C15.9753 13.5293 15.9333 13.6214 15.8744 13.7026C15.8156 13.7838 15.7411 13.8524 15.6552 13.9043C15.5694 13.9562 15.4741 13.9903 15.3748 14.0047C15.2756 14.0191 15.1745 14.0134 15.0775 13.9881C14.9804 13.9627 14.8895 13.9181 14.81 13.857L12.562 12.229C11.346 13.19 9.79201 14 8.00001 14C6.01901 14 4.33001 13.008 3.06701 11.922C1.79701 10.832 0.88001 9.577 0.430011 8.9C0.252398 8.63401 0.157604 8.32134 0.157604 8.0015C0.157604 7.68166 0.252398 7.36899 0.430011 7.103C0.78301 6.57 1.42501 5.683 2.29801 4.798L0.310011 3.357C0.149091 3.24025 0.0411074 3.06439 0.00979263 2.86807C-0.0215221 2.67174 0.0263941 2.47101 0.143011 2.31ZM3.52901 5.688C2.83722 6.37076 2.21731 7.1227 1.67901 7.932C1.66494 7.95191 1.65727 7.97563 1.65701 8C1.65701 8.021 1.66301 8.045 1.67901 8.068C2.09101 8.689 2.92101 9.818 4.04501 10.785C5.17501 11.758 6.52701 12.5 8.00001 12.5C9.19501 12.5 10.31 12.012 11.29 11.309L9.06301 9.695C8.72537 9.90708 8.33205 10.0134 7.93355 10.0003C7.53505 9.98721 7.14955 9.85531 6.82656 9.62153C6.50357 9.38775 6.25782 9.06277 6.12088 8.68831C5.98394 8.31384 5.96204 7.907 6.05801 7.52L3.52801 5.688H3.52901ZM8.00001 3.5C7.48401 3.5 6.98301 3.59 6.50101 3.751C6.40688 3.78486 6.30693 3.79955 6.20704 3.79421C6.10715 3.78886 6.00934 3.76358 5.91937 3.71987C5.82939 3.67615 5.74907 3.61488 5.68313 3.53965C5.61719 3.46443 5.56697 3.37677 5.53542 3.28185C5.50386 3.18692 5.49162 3.08664 5.4994 2.98691C5.50719 2.88718 5.53484 2.79002 5.58074 2.70114C5.62665 2.61226 5.68986 2.53346 5.76667 2.46938C5.84349 2.40529 5.93234 2.35723 6.02801 2.328C6.6634 2.11323 7.32931 2.00247 8.00001 2C9.98101 2 11.67 2.992 12.933 4.078C14.203 5.169 15.12 6.423 15.57 7.101C15.7477 7.36715 15.8425 7.67998 15.8425 8C15.8425 8.32002 15.7477 8.63285 15.57 8.899C15.46 9.065 15.322 9.264 15.16 9.486C15.1018 9.56545 15.0285 9.63265 14.9442 9.68376C14.86 9.73488 14.7666 9.7689 14.6692 9.7839C14.5718 9.7989 14.4725 9.79457 14.3768 9.77117C14.2811 9.74776 14.191 9.70574 14.1115 9.6475C14.0321 9.58926 13.9649 9.51594 13.9137 9.43173C13.8626 9.34752 13.8286 9.25406 13.8136 9.1567C13.7986 9.05934 13.8029 8.95997 13.8263 8.86428C13.8497 8.76859 13.8918 8.67845 13.95 8.599C14.098 8.398 14.222 8.217 14.321 8.069C14.3351 8.04895 14.3427 8.02502 14.3427 8.0005C14.3427 7.97598 14.3351 7.95205 14.321 7.932C13.909 7.311 13.079 6.182 11.955 5.215C10.825 4.242 9.47301 3.5 8.00001 3.5Z" fill="black" fill-opacity="0.3"/>
</g>
<defs>
<clipPath id="clip0">
<rect width="16" height="16" fill="white"/>
</clipPath>
</defs>
</svg>
