<svg width="24" height="18" viewBox="0 0 24 18" fill="none" xmlns="http://www.w3.org/2000/svg">
<path d="M0.799999 9L0.33576 8.8143C0.288079 8.93351 0.288079 9.06649 0.33576 9.18569L0.799999 9ZM23.2 9L23.6642 9.1857C23.7119 9.06649 23.7119 8.93351 23.6642 8.8143L23.2 9ZM12 16.5C8.18596 16.5 5.5111 14.5983 3.77163 12.6655C2.90155 11.6988 2.27186 10.7303 1.86001 10.0035C1.65436 9.64059 1.50381 9.33932 1.40539 9.13054C1.35619 9.02619 1.32008 8.94507 1.29667 8.89104C1.28496 8.86403 1.27644 8.84381 1.27105 8.83085C1.26835 8.82438 1.26644 8.81972 1.26531 8.81694C1.26474 8.81555 1.26437 8.81463 1.26419 8.81419C1.2641 8.81397 1.26406 8.81387 1.26407 8.81389C1.26407 8.8139 1.26412 8.814 1.26412 8.814C1.26417 8.81414 1.26424 8.8143 0.799999 9C0.33576 9.18569 0.335851 9.18592 0.335954 9.18618C0.336004 9.1863 0.33612 9.18659 0.336221 9.18684C0.336424 9.18735 0.336677 9.18797 0.336979 9.18872C0.337583 9.19022 0.338386 9.1922 0.339388 9.19465C0.341392 9.19957 0.344192 9.20638 0.347796 9.21504C0.355003 9.23236 0.365425 9.25706 0.379111 9.28864C0.406481 9.35181 0.446929 9.44256 0.50086 9.55696C0.608684 9.78568 0.77063 10.1094 0.989984 10.4965C1.42813 11.2697 2.09843 12.3012 3.02834 13.3345C4.88886 15.4017 7.81398 17.5 12 17.5V16.5ZM0.799999 9C1.26424 9.18569 1.26417 9.18586 1.26412 9.18599C1.26412 9.186 1.26407 9.1861 1.26407 9.18611C1.26406 9.18613 1.2641 9.18603 1.26419 9.18581C1.26437 9.18537 1.26474 9.18445 1.26531 9.18306C1.26644 9.18028 1.26835 9.17562 1.27105 9.16914C1.27644 9.15619 1.28496 9.13597 1.29667 9.10896C1.32008 9.05493 1.35619 8.97381 1.40539 8.86946C1.50381 8.66068 1.65436 8.35941 1.86001 7.9965C2.27186 7.2697 2.90155 6.30125 3.77163 5.33448C5.5111 3.40173 8.18596 1.5 12 1.5V0.5C7.81398 0.5 4.88886 2.59827 3.02834 4.66552C2.09843 5.69875 1.42813 6.73029 0.989984 7.50349C0.77063 7.89059 0.608684 8.21432 0.50086 8.44304C0.446929 8.55744 0.406481 8.64819 0.379111 8.71135C0.365425 8.74294 0.355003 8.76764 0.347796 8.78495C0.344192 8.79361 0.341392 8.80043 0.339388 8.80534C0.338386 8.8078 0.337583 8.80978 0.336979 8.81128C0.336677 8.81202 0.336424 8.81265 0.336221 8.81316C0.33612 8.81341 0.336004 8.8137 0.335954 8.81382C0.335851 8.81408 0.33576 8.8143 0.799999 9ZM12 1.5C15.814 1.5 18.4889 3.40173 20.2283 5.33448C21.0984 6.30125 21.7281 7.26971 22.14 7.99651C22.3456 8.35941 22.4962 8.66068 22.5946 8.86946C22.6438 8.97381 22.6799 9.05493 22.7033 9.10896C22.715 9.13597 22.7236 9.15619 22.7289 9.16915C22.7316 9.17562 22.7336 9.18028 22.7347 9.18306C22.7353 9.18445 22.7356 9.18537 22.7358 9.18581C22.7359 9.18603 22.7359 9.18613 22.7359 9.18611C22.7359 9.1861 22.7359 9.186 22.7359 9.186C22.7358 9.18586 22.7358 9.1857 23.2 9C23.6642 8.8143 23.6641 8.81408 23.664 8.81382C23.664 8.81369 23.6639 8.81341 23.6638 8.81315C23.6636 8.81265 23.6633 8.81202 23.663 8.81127C23.6624 8.80978 23.6616 8.8078 23.6606 8.80534C23.6586 8.80043 23.6558 8.79361 23.6522 8.78495C23.645 8.76763 23.6346 8.74293 23.6209 8.71135C23.5935 8.64819 23.5531 8.55744 23.4991 8.44304C23.3913 8.21432 23.2294 7.89059 23.01 7.50349C22.5719 6.73029 21.9015 5.69875 20.9716 4.66552C19.1111 2.59827 16.186 0.5 12 0.5V1.5ZM23.2 9C22.7358 8.8143 22.7358 8.81414 22.7359 8.814C22.7359 8.814 22.7359 8.81389 22.7359 8.81388C22.7359 8.81386 22.7359 8.81397 22.7358 8.81419C22.7356 8.81463 22.7353 8.81555 22.7347 8.81694C22.7336 8.81972 22.7316 8.82437 22.7289 8.83085C22.7236 8.8438 22.715 8.86403 22.7033 8.89104C22.6799 8.94506 22.6438 9.02619 22.5946 9.13054C22.4962 9.33932 22.3456 9.64059 22.14 10.0035C21.7281 10.7303 21.0984 11.6988 20.2283 12.6655C18.4889 14.5983 15.814 16.5 12 16.5V17.5C16.186 17.5 19.1111 15.4017 20.9716 13.3345C21.9015 12.3012 22.5719 11.2697 23.01 10.4965C23.2294 10.1094 23.3913 9.78568 23.4991 9.55696C23.5531 9.44256 23.5935 9.35181 23.6209 9.28865C23.6346 9.25706 23.645 9.23236 23.6522 9.21505C23.6558 9.20639 23.6586 9.19957 23.6606 9.19466C23.6616 9.1922 23.6624 9.19022 23.663 9.18873C23.6633 9.18798 23.6636 9.18735 23.6638 9.18684C23.6639 9.18659 23.664 9.18631 23.664 9.18618C23.6641 9.18592 23.6642 9.1857 23.2 9ZM12 11.7C10.5088 11.7 9.3 10.4912 9.3 9H8.3C8.3 11.0435 9.95654 12.7 12 12.7V11.7ZM14.7 9C14.7 10.4912 13.4912 11.7 12 11.7V12.7C14.0435 12.7 15.7 11.0435 15.7 9H14.7ZM12 6.3C13.4912 6.3 14.7 7.50883 14.7 9H15.7C15.7 6.95655 14.0435 5.3 12 5.3V6.3ZM12 5.3C9.95654 5.3 8.3 6.95655 8.3 9H9.3C9.3 7.50883 10.5088 6.3 12 6.3V5.3Z" fill="black"/>
</svg>
