<svg width="24" height="13" viewBox="0 0 24 13" fill="none" xmlns="http://www.w3.org/2000/svg">
<path d="M12 7.7C8.18595 7.7 5.51109 5.79827 3.77162 3.86552C2.90154 2.89875 2.27185 1.93029 1.86 1.20349C1.65435 0.840589 1.5038 0.539319 1.40538 0.330538C1.35618 0.226188 1.32007 0.145064 1.29666 0.0910382C1.28495 0.0640291 1.27643 0.0438052 1.27104 0.0308512C1.26834 0.0243746 1.26643 0.0197166 1.2653 0.016938C1.26473 0.0155487 1.26436 0.0146294 1.26418 0.0141876C1.26409 0.0139668 1.26405 0.0138653 1.26406 0.0138842C1.26406 0.0138935 1.2641 0.0139984 1.26411 0.0140029C1.26416 0.0141376 1.26423 0.0143028 0.799988 0.199997C0.335749 0.385691 0.33584 0.385917 0.335942 0.386174C0.335993 0.3863 0.336108 0.386588 0.33621 0.38684C0.336413 0.387345 0.336666 0.387973 0.336968 0.388721C0.337572 0.390217 0.338375 0.392197 0.339377 0.394653C0.34138 0.399564 0.344181 0.406381 0.347785 0.415041C0.354992 0.432361 0.365413 0.457059 0.3791 0.488643C0.40647 0.551805 0.446918 0.642556 0.500848 0.756955C0.608673 0.985675 0.770618 1.30941 0.989972 1.6965C1.42812 2.4697 2.09842 3.50124 3.02833 4.53448C4.88884 6.60173 7.81397 8.7 12 8.7V7.7ZM23.2 0.199997C22.7358 0.0143004 22.7358 0.0141352 22.7359 0.0140004C22.7359 0.013996 22.7359 0.013891 22.7359 0.0138817C22.7359 0.0138628 22.7359 0.0139643 22.7358 0.0141852C22.7356 0.014627 22.7352 0.0155463 22.7347 0.0169356C22.7335 0.0197142 22.7316 0.0243722 22.7289 0.0308488C22.7235 0.0438028 22.715 0.0640267 22.7033 0.0910358C22.6799 0.145062 22.6438 0.226186 22.5946 0.330536C22.4962 0.539317 22.3456 0.840587 22.14 1.20349C21.7281 1.93029 21.0984 2.89875 20.2283 3.86551C18.4888 5.79827 15.814 7.7 12 7.7V8.7C16.186 8.7 19.1111 6.60173 20.9716 4.53448C21.9015 3.50124 22.5718 2.4697 23.01 1.6965C23.2294 1.30941 23.3913 0.985677 23.4991 0.756958C23.5531 0.642558 23.5935 0.551807 23.6209 0.488646C23.6346 0.457061 23.645 0.432363 23.6522 0.415044C23.6558 0.406383 23.6586 0.399567 23.6606 0.394655C23.6616 0.392199 23.6624 0.390219 23.663 0.388723C23.6633 0.387975 23.6636 0.387348 23.6638 0.386843C23.6639 0.38659 23.664 0.386303 23.664 0.386176C23.6641 0.38592 23.6642 0.385694 23.2 0.199997ZM12.5 12.2L12.5 8.19999L11.5 8.2L11.5 12.2L12.5 12.2ZM1.95354 9.35355L5.15354 6.15355L4.44643 5.44644L1.24643 8.64644L1.95354 9.35355ZM18.8464 6.15355L22.0464 9.35355L22.7535 8.64644L19.5535 5.44644L18.8464 6.15355Z" fill="black"/>
</svg>
