<svg width="432" height="93" viewBox="0 0 432 93" fill="none" xmlns="http://www.w3.org/2000/svg">
<path d="M279.946 91.9223C278.836 90.8678 219.842 89.3738 174.166 89.198C118.074 89.1102 104.67 88.495 74.2767 84.804C47.981 81.6404 25.9541 77.1585 8.11067 71.3584L0.426877 68.8978L0.170751 34.4489L0 0H216H432V28.4731V56.9461L427.987 60.4613C415.437 71.1827 395.972 80.9373 377.787 85.5071C358.577 90.4284 338.599 92.2738 306.071 92.2738C291.899 92.2738 280.117 92.0981 279.946 91.9223Z" fill="#2B90D9"/>
<path d="M279.946 91.9223C278.836 90.8678 219.842 89.3738 174.166 89.198C118.074 89.1102 104.67 88.495 74.2767 84.804C47.981 81.6404 25.9541 77.1585 8.11067 71.3584L0.426877 68.8978L0.170751 34.4489L0 0H216H432V28.4731V56.9461L427.987 60.4613C415.437 71.1827 395.972 80.9373 377.787 85.5071C358.577 90.4284 338.599 92.2738 306.071 92.2738C291.899 92.2738 280.117 92.0981 279.946 91.9223Z" fill="url(#paint0_linear)"/>
<defs>
<linearGradient id="paint0_linear" x1="216" y1="0" x2="216" y2="92.2738" gradientUnits="userSpaceOnUse">
<stop stop-color="#2B90D9"/>
<stop offset="1" stop-color="#53C4E8"/>
</linearGradient>
</defs>
</svg>
