<svg width="422" height="449" viewBox="0 0 422 449" fill="none" xmlns="http://www.w3.org/2000/svg">
<path d="M105.078 448.988C81.6429 448.539 54.4099 447.742 48.8676 447.369C47.686 447.294 42.5095 447.095 37.3892 446.946C29.5963 446.721 16.0641 445.974 2.92587 445.078L0.140667 444.879L0.0562667 222.452L0 0H211H422V223.772V447.568L419.44 447.369C418.005 447.294 408.412 447.07 398.087 446.921C387.734 446.746 374.483 446.497 368.575 446.373C350.935 445.9 293.374 445.725 277.592 446.074C258.489 446.497 243.747 446.871 229.624 447.344C191.025 448.664 180.307 448.888 143.452 448.963C124.771 449.012 107.497 449.012 105.106 448.963L105.078 448.988Z" fill="#2B90D9"/>
<path d="M105.078 448.988C81.6429 448.539 54.4099 447.742 48.8676 447.369C47.686 447.294 42.5095 447.095 37.3892 446.946C29.5963 446.721 16.0641 445.974 2.92587 445.078L0.140667 444.879L0.0562667 222.452L0 0H211H422V223.772V447.568L419.44 447.369C418.005 447.294 408.412 447.07 398.087 446.921C387.734 446.746 374.483 446.497 368.575 446.373C350.935 445.9 293.374 445.725 277.592 446.074C258.489 446.497 243.747 446.871 229.624 447.344C191.025 448.664 180.307 448.888 143.452 448.963C124.771 449.012 107.497 449.012 105.106 448.963L105.078 448.988Z" fill="url(#paint0_linear)"/>
<defs>
<linearGradient id="paint0_linear" x1="211" y1="0" x2="211" y2="449" gradientUnits="userSpaceOnUse">
<stop stop-color="#2B90D9"/>
<stop offset="1" stop-color="#53C4E8"/>
</linearGradient>
</defs>
</svg>
