<svg width="119" height="85" viewBox="0 0 119 85" fill="none" xmlns="http://www.w3.org/2000/svg">
<path d="M39.7284 74.6702C36.6846 74.6702 34.1574 73.637 32.1468 71.5706C30.1642 69.4483 29.1728 66.8373 29.1728 63.7377C29.1728 60.5822 30.1642 57.9712 32.1468 55.9048C34.1574 53.8384 36.6846 52.8052 39.7284 52.8052C41.8227 52.8052 43.6518 53.3357 45.2156 54.3969C46.7793 55.4301 47.9522 56.8682 48.7341 58.7112L45.2156 60.1773C44.1265 57.6082 42.2137 56.3237 39.477 56.3237C37.7178 56.3237 36.1959 57.0358 34.9114 58.4599C33.6547 59.8841 33.0264 61.6433 33.0264 63.7377C33.0264 65.832 33.6547 67.5913 34.9114 69.0154C36.1959 70.4396 37.7178 71.1517 39.477 71.1517C42.2974 71.1517 44.2801 69.8671 45.425 67.2981L48.8597 68.7641C48.1058 70.6072 46.919 72.0592 45.2993 73.1204C43.7076 74.1536 41.8506 74.6702 39.7284 74.6702ZM51.6904 63.7377C51.6904 60.5822 52.6817 57.9712 54.6643 55.9048C56.6749 53.8384 59.2021 52.8052 62.2459 52.8052C65.2897 52.8052 67.8029 53.8384 69.7856 55.9048C71.7961 57.9712 72.8014 60.5822 72.8014 63.7377C72.8014 66.9211 71.7961 69.5321 69.7856 71.5706C67.8029 73.637 65.2897 74.6702 62.2459 74.6702C59.2021 74.6702 56.6749 73.637 54.6643 71.5706C52.6817 69.5041 51.6904 66.8932 51.6904 63.7377ZM55.544 63.7377C55.544 65.9437 56.1862 67.7309 57.4708 69.0992C58.7553 70.4675 60.347 71.1517 62.2459 71.1517C64.1448 71.1517 65.7365 70.4675 67.021 69.0992C68.3056 67.7309 68.9478 65.9437 68.9478 63.7377C68.9478 61.5596 68.3056 59.7863 67.021 58.418C65.7086 57.0218 64.1168 56.3237 62.2459 56.3237C60.3749 56.3237 58.7832 57.0218 57.4708 58.418C56.1862 59.7863 55.544 61.5596 55.544 63.7377ZM86.3548 71.1517C88.2537 71.1517 89.8035 70.4675 91.0043 69.0992C92.2609 67.7309 92.8892 65.9437 92.8892 63.7377C92.8892 61.5875 92.2609 59.8143 91.0043 58.418C89.7756 57.0218 88.2258 56.3237 86.3548 56.3237C84.5118 56.3237 82.962 57.0218 81.7054 58.418C80.4487 59.8143 79.8204 61.5875 79.8204 63.7377C79.8204 65.9158 80.4487 67.689 81.7054 69.0573C82.962 70.4536 84.5118 71.1517 86.3548 71.1517ZM85.7265 74.6702C83.0457 74.6702 80.742 73.6091 78.8152 71.4868C76.9163 69.3366 75.9668 66.7535 75.9668 63.7377C75.9668 60.7218 76.9163 58.1388 78.8152 55.9886C80.742 53.8663 83.0457 52.8052 85.7265 52.8052C87.2344 52.8052 88.6027 53.1263 89.8314 53.7686C91.088 54.4108 92.0514 55.2625 92.7216 56.3237H92.8892L92.7216 53.4754V44.0089H96.5752V74H92.8892V71.1517H92.7216C92.0514 72.2128 91.088 73.0645 89.8314 73.7068C88.6027 74.3491 87.2344 74.6702 85.7265 74.6702ZM117.615 68.3034C117.615 70.0905 116.833 71.5985 115.269 72.8272C113.705 74.0558 111.736 74.6702 109.363 74.6702C107.296 74.6702 105.481 74.1396 103.918 73.0785C102.354 71.9894 101.237 70.5653 100.567 68.806L104.001 67.34C104.504 68.5687 105.23 69.5321 106.179 70.2302C107.157 70.9004 108.218 71.2355 109.363 71.2355C110.592 71.2355 111.611 70.9702 112.421 70.4396C113.258 69.909 113.677 69.2807 113.677 68.5547C113.677 67.2422 112.672 66.2788 110.661 65.6645L107.143 64.7849C103.15 63.7796 101.153 61.8528 101.153 59.0045C101.153 57.1335 101.907 55.6395 103.415 54.5225C104.951 53.3776 106.906 52.8052 109.279 52.8052C111.094 52.8052 112.728 53.238 114.18 54.1037C115.66 54.9693 116.693 56.1282 117.28 57.5803L113.845 59.0045C113.454 58.1388 112.812 57.4686 111.918 56.9939C111.052 56.4912 110.075 56.2399 108.986 56.2399C107.981 56.2399 107.073 56.4912 106.263 56.9939C105.481 57.4965 105.09 58.1109 105.09 58.8369C105.09 60.0097 106.193 60.8475 108.399 61.3501L111.499 62.146C115.576 63.1513 117.615 65.2037 117.615 68.3034Z" fill="white"/>
<g clip-path="url(#clip0)">
<path d="M45.5512 5.22159L45.3332 6.08231L40.4096 25.3408C40.2287 26.0487 39.3868 26.3457 38.8017 25.9082L20.5448 12.2578C19.8594 11.7455 20.0657 10.6689 20.8917 10.446L43.5961 4.32014L44.4159 4.10088C45.0982 3.9187 45.7246 4.53693 45.5512 5.22159Z" fill="white"/>
<path d="M31.8956 20.726L33.9503 22.264L28.2043 25.315L27.9496 17.7744L43.2476 6.2337L31.8956 20.726Z" fill="#2B90D9"/>
<path d="M31.8956 20.726L28.2043 25.3149L33.9503 22.264L31.8956 20.726Z" fill="#2B90D9"/>
</g>
<circle cx="22.5" cy="30.5" r="2" stroke="white"/>
<circle cx="17.5" cy="35.5" r="2" stroke="white"/>
<path d="M23.9766 42.5156H9.02344C8.54497 42.5162 8.08625 42.7065 7.74792 43.0448C7.40959 43.3831 7.21928 43.8418 7.21875 44.3203V72.6797C7.21928 73.1582 7.40959 73.6169 7.74792 73.9552C8.08625 74.2935 8.54497 74.4838 9.02344 74.4844H23.9766C24.455 74.4838 24.9138 74.2935 25.2521 73.9552C25.5904 73.6169 25.7807 73.1582 25.7812 72.6797V44.3203C25.7807 43.8418 25.5904 43.3831 25.2521 43.0448C24.9138 42.7065 24.455 42.5162 23.9766 42.5156ZM18.9331 43.5469L18.6753 44.5781H14.3247L14.0669 43.5469H18.9331ZM24.75 72.6797C24.7498 72.8848 24.6683 73.0814 24.5233 73.2264C24.3783 73.3714 24.1816 73.453 23.9766 73.4531H9.02344C8.81836 73.453 8.62173 73.3714 8.47672 73.2264C8.33171 73.0814 8.25017 72.8848 8.25 72.6797V44.3203C8.25017 44.1152 8.33171 43.9186 8.47672 43.7736C8.62173 43.6286 8.81836 43.547 9.02344 43.5469H13.0034L13.4217 45.2188C13.4496 45.3303 13.514 45.4294 13.6046 45.5001C13.6952 45.5709 13.8069 45.6094 13.9219 45.6094H19.0781C19.1931 45.6094 19.3048 45.5709 19.3954 45.5001C19.486 45.4294 19.5504 45.3303 19.5783 45.2188L19.9966 43.5469H23.9766C24.1816 43.547 24.3783 43.6286 24.5233 43.7736C24.6683 43.9186 24.7498 44.1152 24.75 44.3203V72.6797Z" fill="white"/>
<path d="M18.0469 71.9062H14.9531C14.8164 71.9062 14.6852 71.9606 14.5885 72.0573C14.4918 72.154 14.4375 72.2851 14.4375 72.4219C14.4375 72.5586 14.4918 72.6898 14.5885 72.7865C14.6852 72.8832 14.8164 72.9375 14.9531 72.9375H18.0469C18.1836 72.9375 18.3148 72.8832 18.4115 72.7865C18.5082 72.6898 18.5625 72.5586 18.5625 72.4219C18.5625 72.2851 18.5082 72.154 18.4115 72.0573C18.3148 71.9606 18.1836 71.9062 18.0469 71.9062Z" fill="white"/>
<path d="M10.3125 53.8594C10.4493 53.8594 10.5804 53.8051 10.6771 53.7084C10.7738 53.6117 10.8281 53.4805 10.8281 53.3438V52.8281H11.3438C11.4805 52.8281 11.6117 52.7738 11.7084 52.6771C11.8051 52.5804 11.8594 52.4493 11.8594 52.3125C11.8594 52.1757 11.8051 52.0446 11.7084 51.9479C11.6117 51.8512 11.4805 51.7969 11.3438 51.7969H10.3125C10.1757 51.7969 10.0446 51.8512 9.9479 51.9479C9.8512 52.0446 9.79688 52.1757 9.79688 52.3125V53.3438C9.79688 53.4805 9.8512 53.6117 9.9479 53.7084C10.0446 53.8051 10.1757 53.8594 10.3125 53.8594Z" fill="white"/>
<path d="M11.3438 64.1719H10.8281V63.6562C10.8281 63.5195 10.7738 63.3883 10.6771 63.2916C10.5804 63.1949 10.4493 63.1406 10.3125 63.1406C10.1757 63.1406 10.0446 63.1949 9.9479 63.2916C9.8512 63.3883 9.79688 63.5195 9.79688 63.6562V64.6875C9.79688 64.8243 9.8512 64.9554 9.9479 65.0521C10.0446 65.1488 10.1757 65.2031 10.3125 65.2031H11.3438C11.4805 65.2031 11.6117 65.1488 11.7084 65.0521C11.8051 64.9554 11.8594 64.8243 11.8594 64.6875C11.8594 64.5507 11.8051 64.4196 11.7084 64.3229C11.6117 64.2262 11.4805 64.1719 11.3438 64.1719Z" fill="white"/>
<path d="M22.6875 63.1406C22.5507 63.1406 22.4196 63.1949 22.3229 63.2916C22.2262 63.3883 22.1719 63.5195 22.1719 63.6562V64.1719H21.6562C21.5195 64.1719 21.3883 64.2262 21.2916 64.3229C21.1949 64.4196 21.1406 64.5507 21.1406 64.6875C21.1406 64.8243 21.1949 64.9554 21.2916 65.0521C21.3883 65.1488 21.5195 65.2031 21.6562 65.2031H22.6875C22.8243 65.2031 22.9554 65.1488 23.0521 65.0521C23.1488 64.9554 23.2031 64.8243 23.2031 64.6875V63.6562C23.2031 63.5195 23.1488 63.3883 23.0521 63.2916C22.9554 63.1949 22.8243 63.1406 22.6875 63.1406Z" fill="white"/>
<path d="M22.6875 51.7969H21.6562C21.5195 51.7969 21.3883 51.8512 21.2916 51.9479C21.1949 52.0446 21.1406 52.1757 21.1406 52.3125C21.1406 52.4493 21.1949 52.5804 21.2916 52.6771C21.3883 52.7738 21.5195 52.8281 21.6562 52.8281H22.1719V53.3438C22.1719 53.4805 22.2262 53.6117 22.3229 53.7084C22.4196 53.8051 22.5507 53.8594 22.6875 53.8594C22.8243 53.8594 22.9554 53.8051 23.0521 53.7084C23.1488 53.6117 23.2031 53.4805 23.2031 53.3438V52.3125C23.2031 52.1757 23.1488 52.0446 23.0521 51.9479C22.9554 51.8512 22.8243 51.7969 22.6875 51.7969Z" fill="white"/>
<path d="M11.3438 53.8594V56.9531C11.3438 57.0899 11.3981 57.221 11.4948 57.3177C11.5915 57.4144 11.7226 57.4688 11.8594 57.4688H14.9531C15.0899 57.4688 15.221 57.4144 15.3177 57.3177C15.4144 57.221 15.4688 57.0899 15.4688 56.9531V53.8594C15.4688 53.7226 15.4144 53.5915 15.3177 53.4948C15.221 53.3981 15.0899 53.3438 14.9531 53.3438H11.8594C11.7226 53.3438 11.5915 53.3981 11.4948 53.4948C11.3981 53.5915 11.3438 53.7226 11.3438 53.8594ZM12.375 54.375H14.4375V56.4375H12.375V54.375Z" fill="white"/>
<path d="M15.4688 63.1406V60.0469C15.4688 59.9101 15.4144 59.779 15.3177 59.6823C15.221 59.5856 15.0899 59.5312 14.9531 59.5312H11.8594C11.7226 59.5312 11.5915 59.5856 11.4948 59.6823C11.3981 59.779 11.3438 59.9101 11.3438 60.0469V63.1406C11.3438 63.2774 11.3981 63.4085 11.4948 63.5052C11.5915 63.6019 11.7226 63.6562 11.8594 63.6562H14.9531C15.0899 63.6562 15.221 63.6019 15.3177 63.5052C15.4144 63.4085 15.4688 63.2774 15.4688 63.1406ZM14.4375 62.625H12.375V60.5625H14.4375V62.625Z" fill="white"/>
<path d="M18.0469 57.4688H21.1406C21.2774 57.4688 21.4085 57.4144 21.5052 57.3177C21.6019 57.221 21.6562 57.0899 21.6562 56.9531V53.8594C21.6562 53.7226 21.6019 53.5915 21.5052 53.4948C21.4085 53.3981 21.2774 53.3438 21.1406 53.3438H18.0469C17.9101 53.3438 17.779 53.3981 17.6823 53.4948C17.5856 53.5915 17.5312 53.7226 17.5312 53.8594V56.9531C17.5312 57.0899 17.5856 57.221 17.6823 57.3177C17.779 57.4144 17.9101 57.4688 18.0469 57.4688ZM18.5625 54.375H20.625V56.4375H18.5625V54.375Z" fill="white"/>
<path d="M21.6562 63.1406V61.5938C21.6562 61.457 21.6019 61.3258 21.5052 61.2291C21.4085 61.1324 21.2774 61.0781 21.1406 61.0781H19.5938C19.457 61.0781 19.3258 61.1324 19.2291 61.2291C19.1324 61.3258 19.0781 61.457 19.0781 61.5938V63.1406C19.0781 63.2774 19.1324 63.4085 19.2291 63.5052C19.3258 63.6019 19.457 63.6562 19.5938 63.6562H21.1406C21.2774 63.6562 21.4085 63.6019 21.5052 63.5052C21.6019 63.4085 21.6562 63.2774 21.6562 63.1406ZM20.625 62.625H20.1094V62.1094H20.625V62.625Z" fill="white"/>
<path d="M18.0469 60.5625H19.5938C19.7305 60.5625 19.8617 60.5082 19.9584 60.4115C20.0551 60.3148 20.1094 60.1836 20.1094 60.0469V58.5C20.1094 58.3632 20.0551 58.2321 19.9584 58.1354C19.8617 58.0387 19.7305 57.9844 19.5938 57.9844H18.0469C17.9101 57.9844 17.779 58.0387 17.6823 58.1354C17.5856 58.2321 17.5312 58.3632 17.5312 58.5V60.0469C17.5312 60.1836 17.5856 60.3148 17.6823 60.4115C17.779 60.5082 17.9101 60.5625 18.0469 60.5625ZM18.5625 59.0156H19.0781V59.5312H18.5625V59.0156Z" fill="white"/>
<path d="M16.5 63.6562C16.6368 63.6562 16.7679 63.6019 16.8646 63.5052C16.9613 63.4085 17.0156 63.2774 17.0156 63.1406V58.5C17.0156 58.3632 16.9613 58.2321 16.8646 58.1354C16.7679 58.0387 16.6368 57.9844 16.5 57.9844H13.9219C13.7851 57.9844 13.654 58.0387 13.5573 58.1354C13.4606 58.2321 13.4062 58.3632 13.4062 58.5C13.4062 58.6368 13.4606 58.7679 13.5573 58.8646C13.654 58.9613 13.7851 59.0156 13.9219 59.0156H15.9844V63.1406C15.9844 63.2774 16.0387 63.4085 16.1354 63.5052C16.2321 63.6019 16.3632 63.6562 16.5 63.6562Z" fill="white"/>
<path d="M16.5 54.8906C16.6368 54.8906 16.7679 54.8363 16.8646 54.7396C16.9613 54.6429 17.0156 54.5118 17.0156 54.375V53.8594C17.0156 53.7226 16.9613 53.5915 16.8646 53.4948C16.7679 53.3981 16.6368 53.3438 16.5 53.3438C16.3632 53.3438 16.2321 53.3981 16.1354 53.4948C16.0387 53.5915 15.9844 53.7226 15.9844 53.8594V54.375C15.9844 54.5118 16.0387 54.6429 16.1354 54.7396C16.2321 54.8363 16.3632 54.8906 16.5 54.8906Z" fill="white"/>
<path d="M16.5 57.4688C16.6368 57.4688 16.7679 57.4144 16.8646 57.3177C16.9613 57.221 17.0156 57.0899 17.0156 56.9531V55.9219C17.0156 55.7851 16.9613 55.654 16.8646 55.5573C16.7679 55.4606 16.6368 55.4062 16.5 55.4062C16.3632 55.4062 16.2321 55.4606 16.1354 55.5573C16.0387 55.654 15.9844 55.7851 15.9844 55.9219V56.9531C15.9844 57.0899 16.0387 57.221 16.1354 57.3177C16.2321 57.4144 16.3632 57.4688 16.5 57.4688Z" fill="white"/>
<path d="M18.0469 61.0781C17.9101 61.0781 17.779 61.1324 17.6823 61.2291C17.5856 61.3258 17.5312 61.457 17.5312 61.5938V63.1406C17.5312 63.2774 17.5856 63.4085 17.6823 63.5052C17.779 63.6019 17.9101 63.6562 18.0469 63.6562C18.1836 63.6562 18.3148 63.6019 18.4115 63.5052C18.5082 63.4085 18.5625 63.2774 18.5625 63.1406V61.5938C18.5625 61.457 18.5082 61.3258 18.4115 61.2291C18.3148 61.1324 18.1836 61.0781 18.0469 61.0781Z" fill="white"/>
<path d="M11.8594 57.9844C11.7226 57.9844 11.5915 58.0387 11.4948 58.1354C11.3981 58.2321 11.3438 58.3632 11.3438 58.5C11.3438 58.6368 11.3981 58.7679 11.4948 58.8646C11.5915 58.9613 11.7226 59.0156 11.8594 59.0156H12.375C12.5118 59.0156 12.6429 58.9613 12.7396 58.8646C12.8363 58.7679 12.8906 58.6368 12.8906 58.5C12.8906 58.3632 12.8363 58.2321 12.7396 58.1354C12.6429 58.0387 12.5118 57.9844 12.375 57.9844H11.8594Z" fill="white"/>
<path d="M21.1406 57.9844C21.0039 57.9844 20.8727 58.0387 20.776 58.1354C20.6793 58.2321 20.625 58.3632 20.625 58.5V60.0469C20.625 60.1836 20.6793 60.3148 20.776 60.4115C20.8727 60.5082 21.0039 60.5625 21.1406 60.5625C21.2774 60.5625 21.4085 60.5082 21.5052 60.4115C21.6019 60.3148 21.6562 60.1836 21.6562 60.0469V58.5C21.6562 58.3632 21.6019 58.2321 21.5052 58.1354C21.4085 58.0387 21.2774 57.9844 21.1406 57.9844Z" fill="white"/>
<defs>
<clipPath id="clip0">
<rect width="24" height="24" fill="white" transform="translate(22.1013) rotate(9.83954)"/>
</clipPath>
</defs>
</svg>
