<svg width="347" height="213" viewBox="0 0 347 213" fill="none" xmlns="http://www.w3.org/2000/svg">
<path d="M15.97 0H347V92.35C330.12 116.82 314.59 142.44 294.51 164.5C283.61 176.4 271.3 187.18 257.28 195.27C237.23 207.13 213.84 212.41 190.7 213H181.31C143.08 212.01 104.76 201.32 72.67 180.29C47.61 164.11 26.34 141.51 13.43 114.48C4.94 97.13 0.45 77.92 0 58.63V51.35C0.71 33.23 6.1 15.25 15.97 0Z" fill="#2B90D9"/>
<path d="M15.97 0H347V92.35C330.12 116.82 314.59 142.44 294.51 164.5C283.61 176.4 271.3 187.18 257.28 195.27C237.23 207.13 213.84 212.41 190.7 213H181.31C143.08 212.01 104.76 201.32 72.67 180.29C47.61 164.11 26.34 141.51 13.43 114.48C4.94 97.13 0.45 77.92 0 58.63V51.35C0.71 33.23 6.1 15.25 15.97 0Z" fill="url(#paint0_linear)"/>
<path d="M34.136 126.129C32.8667 126.129 31.8427 125.713 31.064 124.881C30.2853 124.06 29.896 122.972 29.896 121.617V114.417H31.368V121.681C31.368 122.62 31.6133 123.361 32.104 123.905C32.5947 124.449 33.272 124.721 34.136 124.721C35 124.721 35.6773 124.449 36.168 123.905C36.6587 123.361 36.904 122.62 36.904 121.681V114.417H38.376V121.617C38.376 123.004 37.992 124.103 37.224 124.913C36.456 125.724 35.4267 126.129 34.136 126.129ZM41.9536 125.873H40.4816V118.033H41.8896V119.121H41.9536C42.1776 118.737 42.519 118.417 42.9776 118.161C43.447 117.905 43.911 117.777 44.3696 117.777C44.9456 117.777 45.4523 117.911 45.8896 118.177C46.327 118.444 46.647 118.812 46.8496 119.281C47.5003 118.279 48.4016 117.777 49.5536 117.777C50.4603 117.777 51.159 118.055 51.6496 118.609C52.1403 119.164 52.3856 119.953 52.3856 120.977V125.873H50.9136V121.201C50.9136 120.465 50.7803 119.937 50.5136 119.617C50.247 119.287 49.799 119.121 49.1696 119.121C48.6043 119.121 48.1296 119.361 47.7456 119.841C47.3616 120.321 47.1696 120.887 47.1696 121.537V125.873H45.6976V121.201C45.6976 120.465 45.5643 119.937 45.2976 119.617C45.031 119.287 44.583 119.121 43.9536 119.121C43.3883 119.121 42.9136 119.361 42.5296 119.841C42.1456 120.321 41.9536 120.887 41.9536 121.537V125.873ZM58.2622 118.033H59.6702V119.121H59.7342C59.9582 118.737 60.2996 118.417 60.7582 118.161C61.2276 117.905 61.7129 117.777 62.2142 117.777C63.1742 117.777 63.9102 118.055 64.4222 118.609C64.9449 119.153 65.2062 119.932 65.2062 120.945V125.873H63.7342V121.041C63.7022 119.761 63.0569 119.121 61.7982 119.121C61.2116 119.121 60.7209 119.361 60.3262 119.841C59.9316 120.311 59.7342 120.876 59.7342 121.537V125.873H58.2622V118.033ZM66.8061 121.953C66.8061 120.748 67.1848 119.751 67.9421 118.961C68.7101 118.172 69.6755 117.777 70.8381 117.777C72.0008 117.777 72.9608 118.172 73.7181 118.961C74.4861 119.751 74.8701 120.748 74.8701 121.953C74.8701 123.169 74.4861 124.167 73.7181 124.945C72.9608 125.735 72.0008 126.129 70.8381 126.129C69.6755 126.129 68.7101 125.735 67.9421 124.945C67.1848 124.156 66.8061 123.159 66.8061 121.953ZM68.2781 121.953C68.2781 122.796 68.5235 123.479 69.0141 124.001C69.5048 124.524 70.1128 124.785 70.8381 124.785C71.5635 124.785 72.1715 124.524 72.6621 124.001C73.1528 123.479 73.3981 122.796 73.3981 121.953C73.3981 121.121 73.1528 120.444 72.6621 119.921C72.1608 119.388 71.5528 119.121 70.8381 119.121C70.1235 119.121 69.5155 119.388 69.0141 119.921C68.5235 120.444 68.2781 121.121 68.2781 121.953ZM80.179 125.873H78.707L75.539 118.033H77.139L79.443 124.113H79.475L81.811 118.033H83.379L80.179 125.873ZM83.9774 121.953C83.9774 120.748 84.356 119.751 85.1134 118.961C85.8814 118.172 86.8467 117.777 88.0094 117.777C89.172 117.777 90.132 118.172 90.8894 118.961C91.6574 119.751 92.0414 120.748 92.0414 121.953C92.0414 123.169 91.6574 124.167 90.8894 124.945C90.132 125.735 89.172 126.129 88.0094 126.129C86.8467 126.129 85.8814 125.735 85.1134 124.945C84.356 124.156 83.9774 123.159 83.9774 121.953ZM85.4494 121.953C85.4494 122.796 85.6947 123.479 86.1854 124.001C86.676 124.524 87.284 124.785 88.0094 124.785C88.7347 124.785 89.3427 124.524 89.8334 124.001C90.324 123.479 90.5694 122.796 90.5694 121.953C90.5694 121.121 90.324 120.444 89.8334 119.921C89.332 119.388 88.724 119.121 88.0094 119.121C87.2947 119.121 86.6867 119.388 86.1854 119.921C85.6947 120.444 85.4494 121.121 85.4494 121.953ZM99.4381 115.329C99.4381 115.617 99.3368 115.863 99.1341 116.065C98.9315 116.268 98.6861 116.369 98.3981 116.369C98.1101 116.369 97.8648 116.268 97.6621 116.065C97.4595 115.863 97.3581 115.617 97.3581 115.329C97.3581 115.041 97.4595 114.796 97.6621 114.593C97.8648 114.391 98.1101 114.289 98.3981 114.289C98.6861 114.289 98.9315 114.391 99.1341 114.593C99.3368 114.796 99.4381 115.041 99.4381 115.329ZM96.7821 129.489C96.4621 129.489 96.1741 129.436 95.9181 129.329L96.3021 128.049C96.4728 128.113 96.6168 128.145 96.7341 128.145C97.3315 128.145 97.6408 127.777 97.6621 127.041V118.033H99.1341V126.817C99.1341 128.599 98.3501 129.489 96.7821 129.489ZM104.812 126.129C103.66 126.129 102.71 125.735 101.964 124.945C101.217 124.156 100.844 123.159 100.844 121.953C100.844 120.759 101.206 119.767 101.932 118.977C102.657 118.177 103.585 117.777 104.716 117.777C105.878 117.777 106.801 118.156 107.484 118.913C108.177 119.66 108.524 120.711 108.524 122.065L108.508 122.225H102.348C102.369 122.993 102.625 123.612 103.116 124.081C103.606 124.551 104.193 124.785 104.876 124.785C105.814 124.785 106.55 124.316 107.084 123.377L108.396 124.017C108.044 124.679 107.553 125.196 106.924 125.569C106.305 125.943 105.601 126.129 104.812 126.129ZM102.46 121.009H106.956C106.913 120.465 106.689 120.017 106.284 119.665C105.889 119.303 105.356 119.121 104.684 119.121C104.129 119.121 103.649 119.292 103.244 119.633C102.849 119.975 102.588 120.433 102.46 121.009ZM112.094 115.329C112.094 115.617 111.992 115.863 111.79 116.065C111.587 116.268 111.342 116.369 111.054 116.369C110.766 116.369 110.52 116.268 110.318 116.065C110.115 115.863 110.014 115.617 110.014 115.329C110.014 115.041 110.115 114.796 110.318 114.593C110.52 114.391 110.766 114.289 111.054 114.289C111.342 114.289 111.587 114.391 111.79 114.593C111.992 114.796 112.094 115.041 112.094 115.329ZM111.79 118.033V125.873H110.318V118.033H111.79ZM117.051 126.001C116.411 126.001 115.878 125.804 115.451 125.409C115.035 125.015 114.822 124.465 114.811 123.761V119.377H113.435V118.033H114.811V115.633H116.283V118.033H118.203V119.377H116.283V123.281C116.283 123.804 116.385 124.161 116.587 124.353C116.79 124.535 117.019 124.625 117.275 124.625C117.393 124.625 117.505 124.615 117.611 124.593C117.729 124.561 117.835 124.524 117.931 124.481L118.395 125.793C118.011 125.932 117.563 126.001 117.051 126.001ZM119.397 121.953C119.397 120.748 119.776 119.751 120.533 118.961C121.301 118.172 122.267 117.777 123.429 117.777C124.592 117.777 125.552 118.172 126.309 118.961C127.077 119.751 127.461 120.748 127.461 121.953C127.461 123.169 127.077 124.167 126.309 124.945C125.552 125.735 124.592 126.129 123.429 126.129C122.267 126.129 121.301 125.735 120.533 124.945C119.776 124.156 119.397 123.159 119.397 121.953ZM120.869 121.953C120.869 122.796 121.115 123.479 121.605 124.001C122.096 124.524 122.704 124.785 123.429 124.785C124.155 124.785 124.763 124.524 125.253 124.001C125.744 123.479 125.989 122.796 125.989 121.953C125.989 121.121 125.744 120.444 125.253 119.921C124.752 119.388 124.144 119.121 123.429 119.121C122.715 119.121 122.107 119.388 121.605 119.921C121.115 120.444 120.869 121.121 120.869 121.953ZM136.474 124.785C137.199 124.785 137.791 124.524 138.25 124.001C138.73 123.479 138.97 122.796 138.97 121.953C138.97 121.132 138.73 120.455 138.25 119.921C137.781 119.388 137.189 119.121 136.474 119.121C135.77 119.121 135.178 119.388 134.698 119.921C134.218 120.455 133.978 121.132 133.978 121.953C133.978 122.785 134.218 123.463 134.698 123.985C135.178 124.519 135.77 124.785 136.474 124.785ZM136.234 126.129C135.21 126.129 134.33 125.724 133.594 124.913C132.869 124.092 132.506 123.105 132.506 121.953C132.506 120.801 132.869 119.815 133.594 118.993C134.33 118.183 135.21 117.777 136.234 117.777C136.81 117.777 137.333 117.9 137.802 118.145C138.282 118.391 138.65 118.716 138.906 119.121H138.97L138.906 118.033V114.417H140.378V125.873H138.97V124.785H138.906C138.65 125.191 138.282 125.516 137.802 125.761C137.333 126.007 136.81 126.129 136.234 126.129ZM145.935 126.129C144.783 126.129 143.833 125.735 143.087 124.945C142.34 124.156 141.967 123.159 141.967 121.953C141.967 120.759 142.329 119.767 143.055 118.977C143.78 118.177 144.708 117.777 145.839 117.777C147.001 117.777 147.924 118.156 148.607 118.913C149.3 119.66 149.647 120.711 149.647 122.065L149.631 122.225H143.471C143.492 122.993 143.748 123.612 144.239 124.081C144.729 124.551 145.316 124.785 145.999 124.785C146.937 124.785 147.673 124.316 148.207 123.377L149.519 124.017C149.167 124.679 148.676 125.196 148.047 125.569C147.428 125.943 146.724 126.129 145.935 126.129ZM143.583 121.009H148.079C148.036 120.465 147.812 120.017 147.407 119.665C147.012 119.303 146.479 119.121 145.807 119.121C145.252 119.121 144.772 119.292 144.367 119.633C143.972 119.975 143.711 120.433 143.583 121.009ZM158.733 126.129C157.57 126.129 156.605 125.735 155.837 124.945C155.079 124.135 154.701 123.137 154.701 121.953C154.701 120.748 155.079 119.751 155.837 118.961C156.605 118.172 157.57 117.777 158.733 117.777C159.533 117.777 160.231 117.98 160.829 118.385C161.426 118.78 161.874 119.329 162.173 120.033L160.829 120.593C160.413 119.612 159.682 119.121 158.637 119.121C157.965 119.121 157.383 119.393 156.893 119.937C156.413 120.481 156.173 121.153 156.173 121.953C156.173 122.753 156.413 123.425 156.893 123.969C157.383 124.513 157.965 124.785 158.637 124.785C159.714 124.785 160.471 124.295 160.909 123.313L162.221 123.873C161.933 124.577 161.479 125.132 160.861 125.537C160.253 125.932 159.543 126.129 158.733 126.129ZM163.302 121.953C163.302 120.748 163.68 119.751 164.438 118.961C165.206 118.172 166.171 117.777 167.334 117.777C168.496 117.777 169.456 118.172 170.214 118.961C170.982 119.751 171.366 120.748 171.366 121.953C171.366 123.169 170.982 124.167 170.214 124.945C169.456 125.735 168.496 126.129 167.334 126.129C166.171 126.129 165.206 125.735 164.438 124.945C163.68 124.156 163.302 123.159 163.302 121.953ZM164.774 121.953C164.774 122.796 165.019 123.479 165.51 124.001C166 124.524 166.608 124.785 167.334 124.785C168.059 124.785 168.667 124.524 169.158 124.001C169.648 123.479 169.894 122.796 169.894 121.953C169.894 121.121 169.648 120.444 169.158 119.921C168.656 119.388 168.048 119.121 167.334 119.121C166.619 119.121 166.011 119.388 165.51 119.921C165.019 120.444 164.774 121.121 164.774 121.953ZM174.339 125.873H172.867V118.033H174.275V119.121H174.339C174.563 118.737 174.904 118.417 175.363 118.161C175.832 117.905 176.296 117.777 176.755 117.777C177.331 117.777 177.837 117.911 178.275 118.177C178.712 118.444 179.032 118.812 179.235 119.281C179.885 118.279 180.787 117.777 181.939 117.777C182.845 117.777 183.544 118.055 184.035 118.609C184.525 119.164 184.771 119.953 184.771 120.977V125.873H183.299V121.201C183.299 120.465 183.165 119.937 182.899 119.617C182.632 119.287 182.184 119.121 181.555 119.121C180.989 119.121 180.515 119.361 180.131 119.841C179.747 120.321 179.555 120.887 179.555 121.537V125.873H178.083V121.201C178.083 120.465 177.949 119.937 177.683 119.617C177.416 119.287 176.968 119.121 176.339 119.121C175.773 119.121 175.299 119.361 174.915 119.841C174.531 120.321 174.339 120.887 174.339 121.537V125.873ZM190.652 124.785C191.356 124.785 191.948 124.519 192.428 123.985C192.908 123.463 193.148 122.785 193.148 121.953C193.148 121.132 192.908 120.455 192.428 119.921C191.948 119.388 191.356 119.121 190.652 119.121C189.937 119.121 189.34 119.388 188.86 119.921C188.39 120.455 188.156 121.132 188.156 121.953C188.156 122.785 188.39 123.468 188.86 124.001C189.34 124.524 189.937 124.785 190.652 124.785ZM190.892 126.129C190.316 126.129 189.788 126.007 189.308 125.761C188.838 125.516 188.476 125.191 188.22 124.785H188.156L188.22 125.873V129.329H186.748V118.033H188.156V119.121H188.22C188.476 118.716 188.838 118.391 189.308 118.145C189.788 117.9 190.316 117.777 190.892 117.777C191.926 117.777 192.801 118.183 193.516 118.993C194.252 119.815 194.62 120.801 194.62 121.953C194.62 123.116 194.252 124.103 193.516 124.913C192.801 125.724 191.926 126.129 190.892 126.129ZM197.36 123.473C197.36 123.857 197.52 124.177 197.84 124.433C198.171 124.689 198.555 124.817 198.992 124.817C199.611 124.817 200.16 124.588 200.64 124.129C201.131 123.671 201.376 123.132 201.376 122.513C200.917 122.151 200.277 121.969 199.456 121.969C198.859 121.969 198.357 122.113 197.952 122.401C197.557 122.689 197.36 123.047 197.36 123.473ZM199.264 117.777C200.352 117.777 201.211 118.071 201.84 118.657C202.469 119.233 202.784 120.028 202.784 121.041V125.873H201.376V124.785H201.312C200.704 125.681 199.893 126.129 198.88 126.129C198.016 126.129 197.291 125.873 196.704 125.361C196.128 124.849 195.84 124.209 195.84 123.441C195.84 122.631 196.144 121.985 196.752 121.505C197.371 121.025 198.192 120.785 199.216 120.785C200.091 120.785 200.811 120.945 201.376 121.265V120.929C201.376 120.417 201.173 119.985 200.768 119.633C200.363 119.271 199.888 119.089 199.344 119.089C198.523 119.089 197.872 119.436 197.392 120.129L196.096 119.313C196.811 118.289 197.867 117.777 199.264 117.777ZM213.948 126.001C213.308 126.001 212.775 125.804 212.348 125.409C211.932 125.015 211.719 124.465 211.708 123.761V119.377H210.332V118.033H211.708V115.633H213.18V118.033H215.1V119.377H213.18V123.281C213.18 123.804 213.281 124.161 213.484 124.353C213.687 124.535 213.916 124.625 214.172 124.625C214.289 124.625 214.401 124.615 214.508 124.593C214.625 124.561 214.732 124.524 214.828 124.481L215.292 125.793C214.908 125.932 214.46 126.001 213.948 126.001ZM204.764 118.033H206.172V119.313H206.236C206.673 118.311 207.575 117.809 208.94 117.809L209.244 117.841V119.377L208.588 119.313C207.905 119.313 207.34 119.527 206.892 119.953C206.455 120.369 206.236 120.903 206.236 121.553V125.873H204.764V118.033ZM218.816 115.329C218.816 115.617 218.715 115.863 218.512 116.065C218.31 116.268 218.064 116.369 217.776 116.369C217.488 116.369 217.243 116.268 217.04 116.065C216.838 115.863 216.736 115.617 216.736 115.329C216.736 115.041 216.838 114.796 217.04 114.593C217.243 114.391 217.488 114.289 217.776 114.289C218.064 114.289 218.31 114.391 218.512 114.593C218.715 114.796 218.816 115.041 218.816 115.329ZM218.512 118.033V125.873H217.04V118.033H218.512ZM222.22 114.417V125.873H220.748V114.417H222.22ZM224.334 114.417H225.806V118.033L225.742 119.121H225.806C226.03 118.737 226.371 118.417 226.83 118.161C227.299 117.905 227.784 117.777 228.286 117.777C229.246 117.777 229.982 118.055 230.494 118.609C231.016 119.153 231.278 119.932 231.278 120.945V125.873H229.806V121.233C229.806 119.825 229.182 119.121 227.934 119.121C227.336 119.121 226.83 119.372 226.414 119.873C226.008 120.364 225.806 120.94 225.806 121.601V125.873H224.334V114.417ZM234.319 123.473C234.319 123.857 234.479 124.177 234.799 124.433C235.13 124.689 235.514 124.817 235.951 124.817C236.57 124.817 237.119 124.588 237.599 124.129C238.09 123.671 238.335 123.132 238.335 122.513C237.877 122.151 237.237 121.969 236.415 121.969C235.818 121.969 235.317 122.113 234.911 122.401C234.517 122.689 234.319 123.047 234.319 123.473ZM236.223 117.777C237.311 117.777 238.17 118.071 238.799 118.657C239.429 119.233 239.743 120.028 239.743 121.041V125.873H238.335V124.785H238.271C237.663 125.681 236.853 126.129 235.839 126.129C234.975 126.129 234.25 125.873 233.663 125.361C233.087 124.849 232.799 124.209 232.799 123.441C232.799 122.631 233.103 121.985 233.711 121.505C234.33 121.025 235.151 120.785 236.175 120.785C237.05 120.785 237.77 120.945 238.335 121.265V120.929C238.335 120.417 238.133 119.985 237.727 119.633C237.322 119.271 236.847 119.089 236.303 119.089C235.482 119.089 234.831 119.436 234.351 120.129L233.055 119.313C233.77 118.289 234.826 117.777 236.223 117.777ZM243.195 125.873H241.723V118.033H243.131V119.313H243.195C243.345 118.897 243.649 118.545 244.107 118.257C244.577 117.959 245.035 117.809 245.483 117.809C245.91 117.809 246.273 117.873 246.571 118.001L246.123 119.425C245.942 119.351 245.654 119.313 245.259 119.313C244.705 119.313 244.219 119.537 243.803 119.985C243.398 120.433 243.195 120.956 243.195 121.553V125.873ZM255.212 126.129C254.06 126.129 253.11 125.735 252.364 124.945C251.617 124.156 251.244 123.159 251.244 121.953C251.244 120.759 251.606 119.767 252.332 118.977C253.057 118.177 253.985 117.777 255.116 117.777C256.278 117.777 257.201 118.156 257.884 118.913C258.577 119.66 258.924 120.711 258.924 122.065L258.908 122.225H252.748C252.769 122.993 253.025 123.612 253.516 124.081C254.006 124.551 254.593 124.785 255.276 124.785C256.214 124.785 256.95 124.316 257.484 123.377L258.796 124.017C258.444 124.679 257.953 125.196 257.324 125.569C256.705 125.943 256.001 126.129 255.212 126.129ZM252.86 121.009H257.356C257.313 120.465 257.089 120.017 256.684 119.665C256.289 119.303 255.756 119.121 255.084 119.121C254.529 119.121 254.049 119.292 253.644 119.633C253.249 119.975 252.988 120.433 252.86 121.009ZM262.062 125.873H260.59V118.033H261.998V119.121H262.062C262.286 118.737 262.627 118.417 263.086 118.161C263.555 117.905 264.019 117.777 264.478 117.777C265.054 117.777 265.56 117.911 265.998 118.177C266.435 118.444 266.755 118.812 266.958 119.281C267.608 118.279 268.51 117.777 269.662 117.777C270.568 117.777 271.267 118.055 271.758 118.609C272.248 119.164 272.494 119.953 272.494 120.977V125.873H271.022V121.201C271.022 120.465 270.888 119.937 270.622 119.617C270.355 119.287 269.907 119.121 269.278 119.121C268.712 119.121 268.238 119.361 267.854 119.841C267.47 120.321 267.278 120.887 267.278 121.537V125.873H265.806V121.201C265.806 120.465 265.672 119.937 265.406 119.617C265.139 119.287 264.691 119.121 264.062 119.121C263.496 119.121 263.022 119.361 262.638 119.841C262.254 120.321 262.062 120.887 262.062 121.537V125.873ZM274.087 121.953C274.087 120.748 274.465 119.751 275.223 118.961C275.991 118.172 276.956 117.777 278.119 117.777C279.281 117.777 280.241 118.172 280.999 118.961C281.767 119.751 282.151 120.748 282.151 121.953C282.151 123.169 281.767 124.167 280.999 124.945C280.241 125.735 279.281 126.129 278.119 126.129C276.956 126.129 275.991 125.735 275.223 124.945C274.465 124.156 274.087 123.159 274.087 121.953ZM275.559 121.953C275.559 122.796 275.804 123.479 276.295 124.001C276.785 124.524 277.393 124.785 278.119 124.785C278.844 124.785 279.452 124.524 279.943 124.001C280.433 123.479 280.679 122.796 280.679 121.953C280.679 121.121 280.433 120.444 279.943 119.921C279.441 119.388 278.833 119.121 278.119 119.121C277.404 119.121 276.796 119.388 276.295 119.921C275.804 120.444 275.559 121.121 275.559 121.953ZM289.056 128.129C289.056 128.556 288.901 128.919 288.592 129.217C288.283 129.516 287.899 129.665 287.44 129.665C287.109 129.665 286.805 129.564 286.528 129.361C286.251 129.169 286.053 128.913 285.936 128.593L286.768 128.225C286.875 128.588 287.099 128.769 287.44 128.769C287.632 128.769 287.787 128.705 287.904 128.577C288.032 128.46 288.096 128.311 288.096 128.129C288.096 127.937 288.032 127.777 287.904 127.649C287.787 127.521 287.632 127.457 287.44 127.457C287.227 127.457 287.051 127.543 286.912 127.713L286.16 127.361L286.64 126.065C285.659 125.884 284.864 125.42 284.256 124.673C283.659 123.916 283.36 123.009 283.36 121.953C283.36 120.748 283.739 119.751 284.496 118.961C285.264 118.172 286.229 117.777 287.392 117.777C288.192 117.777 288.891 117.98 289.488 118.385C290.085 118.78 290.533 119.329 290.832 120.033L289.488 120.593C289.072 119.612 288.341 119.121 287.296 119.121C286.624 119.121 286.043 119.393 285.552 119.937C285.072 120.481 284.832 121.153 284.832 121.953C284.832 122.753 285.072 123.425 285.552 123.969C286.043 124.513 286.624 124.785 287.296 124.785C288.373 124.785 289.131 124.295 289.568 123.313L290.88 123.873C290.603 124.556 290.171 125.1 289.584 125.505C288.997 125.9 288.304 126.108 287.504 126.129L287.28 126.641L287.6 126.609C288.005 126.609 288.347 126.753 288.624 127.041C288.912 127.329 289.056 127.692 289.056 128.129ZM291.961 121.953C291.961 120.748 292.34 119.751 293.097 118.961C293.865 118.172 294.83 117.777 295.993 117.777C297.156 117.777 298.116 118.172 298.873 118.961C299.641 119.751 300.025 120.748 300.025 121.953C300.025 123.169 299.641 124.167 298.873 124.945C298.116 125.735 297.156 126.129 295.993 126.129C294.83 126.129 293.865 125.735 293.097 124.945C292.34 124.156 291.961 123.159 291.961 121.953ZM293.433 121.953C293.433 122.796 293.678 123.479 294.169 124.001C294.66 124.524 295.268 124.785 295.993 124.785C296.718 124.785 297.326 124.524 297.817 124.001C298.308 123.479 298.553 122.796 298.553 121.953C298.553 121.121 298.308 120.444 297.817 119.921C297.316 119.388 296.708 119.121 295.993 119.121C295.278 119.121 294.67 119.388 294.169 119.921C293.678 120.444 293.433 121.121 293.433 121.953ZM296.905 116.353C296.649 116.353 296.292 116.236 295.833 116.001C295.385 115.756 295.124 115.633 295.049 115.633C294.718 115.633 294.542 115.82 294.521 116.193H293.305C293.305 115.628 293.476 115.175 293.817 114.833C294.169 114.481 294.59 114.305 295.081 114.305C295.39 114.305 295.822 114.465 296.377 114.785C296.697 114.945 296.884 115.025 296.937 115.025C297.268 115.025 297.444 114.839 297.465 114.465H298.681C298.681 115.031 298.505 115.489 298.153 115.841C297.812 116.183 297.396 116.353 296.905 116.353ZM305.202 126.129C304.05 126.129 303.101 125.735 302.354 124.945C301.608 124.156 301.234 123.159 301.234 121.953C301.234 120.759 301.597 119.767 302.322 118.977C303.048 118.177 303.976 117.777 305.106 117.777C306.269 117.777 307.192 118.156 307.874 118.913C308.568 119.66 308.914 120.711 308.914 122.065L308.898 122.225H302.738C302.76 122.993 303.016 123.612 303.506 124.081C303.997 124.551 304.584 124.785 305.266 124.785C306.205 124.785 306.941 124.316 307.474 123.377L308.786 124.017C308.434 124.679 307.944 125.196 307.314 125.569C306.696 125.943 305.992 126.129 305.202 126.129ZM302.85 121.009H307.346C307.304 120.465 307.08 120.017 306.674 119.665C306.28 119.303 305.746 119.121 305.074 119.121C304.52 119.121 304.04 119.292 303.634 119.633C303.24 119.975 302.978 120.433 302.85 121.009ZM316.659 123.697C316.659 124.38 316.36 124.956 315.763 125.425C315.165 125.895 314.413 126.129 313.507 126.129C312.717 126.129 312.024 125.927 311.427 125.521C310.829 125.105 310.403 124.561 310.147 123.889L311.459 123.329C311.651 123.799 311.928 124.167 312.291 124.433C312.664 124.689 313.069 124.817 313.507 124.817C313.976 124.817 314.365 124.716 314.675 124.513C314.995 124.311 315.155 124.071 315.155 123.793C315.155 123.292 314.771 122.924 314.003 122.689L312.659 122.353C311.133 121.969 310.371 121.233 310.371 120.145C310.371 119.431 310.659 118.86 311.235 118.433C311.821 117.996 312.568 117.777 313.475 117.777C314.168 117.777 314.792 117.943 315.347 118.273C315.912 118.604 316.307 119.047 316.531 119.601L315.219 120.145C315.069 119.815 314.824 119.559 314.483 119.377C314.152 119.185 313.779 119.089 313.363 119.089C312.979 119.089 312.632 119.185 312.323 119.377C312.024 119.569 311.875 119.804 311.875 120.081C311.875 120.529 312.296 120.849 313.139 121.041L314.323 121.345C315.88 121.729 316.659 122.513 316.659 123.697Z" fill="white"/>
<path d="M237.656 168.53L236.319 170.124L234.991 168.519L234.099 169.582L235.427 171.186L234.09 172.779L234.975 173.849L236.312 172.255L237.641 173.86L238.532 172.798L237.204 171.193L238.541 169.6L237.656 168.53Z" fill="#E6E6E6"/>
<path opacity="0.8" d="M274.775 69.5951L285.592 57.089L296.41 44.5829L302.517 37.523C302.855 37.1324 302.333 36.523 301.996 36.9136L291.178 49.4197L280.36 61.9258L274.253 68.9857C273.916 69.3763 274.437 69.9857 274.775 69.5951Z" fill="url(#paint1_linear)"/>
<path opacity="0.8" d="M90.3344 184.94L82.5592 175.814L74.784 166.688L70.3947 161.536C70.1519 161.251 70.5267 160.807 70.7695 161.092L78.5447 170.218L86.3199 179.344L90.7092 184.496C90.952 184.781 90.5773 185.225 90.3344 184.94Z" fill="url(#paint2_linear)"/>
<path d="M60.1321 69.0182L55.1727 72.1526L58.177 66.6961C57.3263 66.0181 56.2737 65.6427 55.1854 65.629H55.1057C54.7617 65.6357 54.4179 65.6101 54.0787 65.5525L52.4011 66.6164L53.1187 65.3104C51.9303 64.8938 50.9035 64.1136 50.1845 63.0807L47.1834 64.9919L49.0778 61.5454C47.3237 59.4398 44.9572 58.1498 42.3515 58.1498C39.2291 58.1498 36.448 60.0036 34.6524 62.8959C34.12 63.7621 33.3672 64.4718 32.4709 64.953C31.5745 65.4342 30.5665 65.6696 29.5495 65.6353H29.3836C25.936 65.6353 23.1421 69.5374 23.1421 74.3536C23.1421 79.1699 25.936 83.0719 29.3836 83.0719C30.1412 83.0695 30.8867 82.8825 31.5556 82.5272C32.7294 81.9585 34.0128 81.6509 35.3173 81.6256C36.6217 81.6003 37.9161 81.8579 39.1111 82.3807C40.1207 82.8337 41.2144 83.0692 42.3211 83.0719C43.4278 83.0747 44.5227 82.8446 45.5345 82.3966C46.7196 81.8836 48.0013 81.6309 49.2928 81.6557C50.5842 81.6804 51.8553 81.982 53.0199 82.54C53.6846 82.8865 54.4228 83.0689 55.1727 83.0719C58.6203 83.0719 61.4142 79.1699 61.4142 74.3536C61.4417 72.4959 61.0008 70.6611 60.1321 69.0182Z" fill="#F2F2F2"/>
<path opacity="0.03" d="M50.7344 81.8185C48.9365 81.4828 47.078 81.6819 45.3949 82.3902C44.3868 82.8356 43.2947 83.0658 42.1902 83.0658C41.0857 83.0658 39.9936 82.8356 38.9855 82.3902C37.7929 81.8732 36.5005 81.6183 35.198 81.6433C33.8955 81.6682 32.6141 81.9724 31.4427 82.5347C30.7734 82.8841 30.0284 83.0684 29.2712 83.0719C26.2146 83.0719 23.6706 80.031 23.142 76.0225C23.7536 75.5843 24.2727 75.0326 24.6703 74.3984C26.4629 71.5491 29.2394 69.7208 32.3565 69.7208C35.4736 69.7208 38.2214 71.5114 40.0108 74.3387C40.5462 75.1932 41.2969 75.8961 42.1898 76.379C43.0826 76.8618 44.0871 77.1081 45.1052 77.0937H45.1847C47.6014 77.0875 49.7092 79.01 50.7344 81.8185Z" fill="black"/>
<path d="M137.226 172.997L141.263 175.571L138.818 171.089C139.51 170.532 140.367 170.224 141.253 170.213H141.318C141.598 170.218 141.877 170.197 142.154 170.15L143.519 171.024L142.935 169.951C143.902 169.609 144.738 168.968 145.323 168.119L147.766 169.689L146.224 166.858C147.652 165.129 149.578 164.069 151.699 164.069C154.24 164.069 156.504 165.592 157.966 167.968C158.399 168.679 159.012 169.262 159.741 169.657C160.471 170.053 161.291 170.246 162.119 170.218H162.254C165.06 170.218 167.335 173.423 167.335 177.379C167.335 181.335 165.06 184.541 162.254 184.541C161.638 184.539 161.031 184.385 160.486 184.093C159.531 183.626 158.486 183.373 157.425 183.353C156.363 183.332 155.309 183.544 154.336 183.973C153.515 184.345 152.625 184.538 151.724 184.541C150.823 184.543 149.932 184.354 149.108 183.986C148.144 183.565 147.1 183.357 146.049 183.377C144.998 183.398 143.963 183.645 143.015 184.104C142.474 184.388 141.873 184.538 141.263 184.541C138.457 184.541 136.183 181.335 136.183 177.379C136.16 175.853 136.519 174.346 137.226 172.997Z" fill="#F2F2F2"/>
<path opacity="0.03" d="M145.083 183.538C146.533 183.27 148.031 183.429 149.389 183.995C150.202 184.352 151.082 184.536 151.973 184.536C152.864 184.536 153.745 184.352 154.558 183.995C155.519 183.582 156.562 183.378 157.612 183.398C158.662 183.418 159.696 183.661 160.64 184.111C161.18 184.391 161.781 184.538 162.392 184.541C164.857 184.541 166.908 182.108 167.335 178.901C166.841 178.551 166.423 178.109 166.102 177.602C164.656 175.323 162.417 173.86 159.904 173.86C157.39 173.86 155.174 175.292 153.731 177.554C153.299 178.238 152.693 178.8 151.973 179.186C151.253 179.573 150.443 179.77 149.622 179.758H149.558C147.609 179.753 145.909 181.291 145.083 183.538Z" fill="black"/>
<defs>
<linearGradient id="paint0_linear" x1="173.5" y1="0" x2="173.5" y2="213" gradientUnits="userSpaceOnUse">
<stop stop-color="#2B90D9"/>
<stop offset="1" stop-color="#53C4E8"/>
</linearGradient>
<linearGradient id="paint1_linear" x1="274.144" y1="53.2543" x2="302.626" y2="53.2543" gradientUnits="userSpaceOnUse">
<stop stop-color="white"/>
<stop offset="1" stop-color="white" stop-opacity="0.3"/>
</linearGradient>
<linearGradient id="paint2_linear" x1="90.7878" y1="173.016" x2="70.3161" y2="173.016" gradientUnits="userSpaceOnUse">
<stop stop-color="white"/>
<stop offset="1" stop-color="white" stop-opacity="0.3"/>
</linearGradient>
</defs>
</svg>
