<svg width="16" height="16" viewBox="0 0 16 16" fill="none" xmlns="http://www.w3.org/2000/svg">
<path fill-rule="evenodd" clip-rule="evenodd" d="M13.3333 3.66679C13.3334 4.13543 13.1923 4.59323 12.9285 4.98057C12.6647 5.36791 12.2904 5.66683 11.8543 5.83841C11.4182 6.00998 10.9405 6.04627 10.4835 5.94253C10.0265 5.83879 9.61129 5.59984 9.292 5.25679L5.884 7.27079C6.04003 7.7445 6.04003 8.25575 5.884 8.72946L9.292 10.7435C9.6844 10.3227 10.2184 10.0618 10.7914 10.0108C11.3645 9.95973 11.9362 10.1222 12.3968 10.467C12.8573 10.8118 13.1743 11.3146 13.2867 11.8788C13.3992 12.443 13.2992 13.0289 13.006 13.5239C12.7129 14.0189 12.2472 14.3882 11.6983 14.5608C11.1495 14.7334 10.5563 14.6971 10.0325 14.4589C9.50883 14.2208 9.09156 13.7976 8.86086 13.2705C8.63017 12.7435 8.60232 12.1498 8.78267 11.6035L5.37467 9.59013C5.05536 9.93307 4.6402 10.1719 4.18323 10.2756C3.72626 10.3793 3.24866 10.343 2.81261 10.1714C2.37657 9.99987 2.00228 9.70099 1.73848 9.31371C1.47469 8.92644 1.3336 8.46871 1.3336 8.00012C1.3336 7.53154 1.47469 7.07381 1.73848 6.68654C2.00228 6.29926 2.37657 6.00038 2.81261 5.82882C3.24866 5.65725 3.72626 5.62094 4.18323 5.72463C4.6402 5.82831 5.05536 6.06718 5.37467 6.41012L8.78267 4.39612V4.39679C8.67761 4.07618 8.64334 3.73659 8.68221 3.40145C8.72107 3.06631 8.83215 2.74359 9.0078 2.45553C9.18344 2.16746 9.41946 1.92092 9.69959 1.73289C9.97972 1.54485 10.2973 1.41981 10.6304 1.36637C10.9636 1.31293 11.3043 1.33237 11.6292 1.42335C11.9541 1.51432 12.2554 1.67468 12.5123 1.89335C12.7692 2.11202 12.9757 2.3838 13.1174 2.68997C13.2592 2.99614 13.3328 3.32941 13.3333 3.66679ZM12.3333 3.66679C12.3333 4.02041 12.1929 4.35955 11.9428 4.6096C11.6928 4.85965 11.3536 5.00012 11 5.00012C10.6464 5.00012 10.3072 4.85965 10.0572 4.6096C9.80715 4.35955 9.66667 4.02041 9.66667 3.66679C9.66667 3.31317 9.80715 2.97403 10.0572 2.72398C10.3072 2.47393 10.6464 2.33346 11 2.33346C11.3536 2.33346 11.6928 2.47393 11.9428 2.72398C12.1929 2.97403 12.3333 3.31317 12.3333 3.66679ZM3.66667 9.33346C4.02029 9.33346 4.35943 9.19298 4.60948 8.94293C4.85953 8.69288 5 8.35375 5 8.00012C5 7.6465 4.85953 7.30736 4.60948 7.05732C4.35943 6.80727 4.02029 6.66679 3.66667 6.66679C3.31305 6.66679 2.97391 6.80727 2.72386 7.05732C2.47381 7.30736 2.33334 7.6465 2.33334 8.00012C2.33334 8.35375 2.47381 8.69288 2.72386 8.94293C2.97391 9.19298 3.31305 9.33346 3.66667 9.33346ZM12.3333 12.3335C12.3333 12.6871 12.1929 13.0262 11.9428 13.2763C11.6928 13.5263 11.3536 13.6668 11 13.6668C10.6464 13.6668 10.3072 13.5263 10.0572 13.2763C9.80715 13.0262 9.66667 12.6871 9.66667 12.3335C9.66667 11.9798 9.80715 11.6407 10.0572 11.3906C10.3072 11.1406 10.6464 11.0001 11 11.0001C11.3536 11.0001 11.6928 11.1406 11.9428 11.3906C12.1929 11.6407 12.3333 11.9798 12.3333 12.3335Z" fill="white"/>
</svg>
