<svg width="16" height="16" viewBox="0 0 16 16" fill="none" xmlns="http://www.w3.org/2000/svg">
<path d="M3.31333 7.35301C3.26421 7.30723 3.2248 7.25203 3.19748 7.1907C3.17015 7.12937 3.15545 7.06316 3.15427 6.99602C3.15309 6.92889 3.16543 6.8622 3.19058 6.79994C3.21573 6.73768 3.25316 6.68113 3.30064 6.63365C3.34812 6.58617 3.40467 6.54874 3.46693 6.52359C3.52919 6.49845 3.59588 6.4861 3.66301 6.48728C3.73015 6.48846 3.79636 6.50316 3.85769 6.53049C3.91902 6.55782 3.97422 6.59722 4.02 6.64634L7.33333 9.95967V1.83301C7.33333 1.7004 7.38601 1.57322 7.47978 1.47945C7.57355 1.38569 7.70072 1.33301 7.83333 1.33301C7.96594 1.33301 8.09312 1.38569 8.18688 1.47945C8.28065 1.57322 8.33333 1.7004 8.33333 1.83301V9.95967L11.6467 6.64634C11.6924 6.59722 11.7476 6.55782 11.809 6.53049C11.8703 6.50316 11.9365 6.48846 12.0036 6.48728C12.0708 6.4861 12.1375 6.49845 12.1997 6.52359C12.262 6.54874 12.3185 6.58617 12.366 6.63365C12.4135 6.68113 12.4509 6.73768 12.4761 6.79994C12.5012 6.8622 12.5136 6.92889 12.5124 6.99602C12.5112 7.06316 12.4965 7.12937 12.4692 7.1907C12.4419 7.25203 12.4025 7.30723 12.3533 7.35301L8.18666 11.5197C8.09291 11.6133 7.96583 11.6659 7.83333 11.6659C7.70083 11.6659 7.57375 11.6133 7.48 11.5197L3.31333 7.35301ZM3.16666 13.6663C3.03406 13.6663 2.90688 13.719 2.81311 13.8128C2.71934 13.9066 2.66666 14.0337 2.66666 14.1663C2.66666 14.299 2.71934 14.4261 2.81311 14.5199C2.90688 14.6137 3.03406 14.6663 3.16666 14.6663H12.8333C12.9659 14.6663 13.0931 14.6137 13.1869 14.5199C13.2807 14.4261 13.3333 14.299 13.3333 14.1663C13.3333 14.0337 13.2807 13.9066 13.1869 13.8128C13.0931 13.719 12.9659 13.6663 12.8333 13.6663H3.16666Z" fill="white"/>
</svg>
