<svg width="16" height="16" viewBox="0 0 16 16" fill="none" xmlns="http://www.w3.org/2000/svg">
<path fill-rule="evenodd" clip-rule="evenodd" d="M4.49067 2.66699C3.10467 2.66699 1.66667 3.92033 1.66667 5.67633C1.66667 7.74766 3.216 9.64966 4.90733 11.0897C5.85347 11.889 6.87261 12.5977 7.95133 13.2063L8 13.2337L8.04867 13.207C8.22933 13.105 8.48933 12.9537 8.802 12.7577C9.42867 12.3657 10.262 11.797 11.0927 11.0897C12.784 9.64966 14.3333 7.74766 14.3333 5.67633C14.3333 3.92033 12.8953 2.66699 11.5093 2.66699C10.1053 2.66699 8.97533 3.59299 8.474 5.09566C8.44066 5.19497 8.37697 5.2813 8.29192 5.34246C8.20687 5.40362 8.10476 5.43652 8 5.43652C7.89524 5.43652 7.79313 5.40362 7.70808 5.34246C7.62303 5.2813 7.55934 5.19497 7.526 5.09566C7.02467 3.59299 5.894 2.66699 4.49067 2.66699ZM8 13.8023L8.22867 14.247C8.15793 14.2834 8.07954 14.3023 8 14.3023C7.92046 14.3023 7.84207 14.2834 7.77133 14.247L8 13.8023ZM0.666668 5.67566C0.666668 3.36899 2.55267 1.66699 4.49067 1.66699C6.02 1.66699 7.254 2.48433 8 3.73699C8.74667 2.48433 9.98 1.66699 11.5093 1.66699C13.4467 1.66699 15.3333 3.36833 15.3333 5.67633C15.3333 8.22166 13.466 10.383 11.7407 11.851C10.6619 12.7622 9.49293 13.561 8.252 14.235L8.23533 14.2437L8.23067 14.2457L8.22933 14.2463L8 13.8023L7.77133 14.247L7.76933 14.2457L7.76467 14.2437L7.748 14.235C7.38093 14.0368 7.0203 13.8269 6.66667 13.6057C5.82325 13.0792 5.01873 12.4928 4.25933 11.851C2.53333 10.3823 0.666668 8.22166 0.666668 5.67633V5.67566Z" fill="white"/>
</svg>
