<svg id="Capa_1" enable-background="new 0 0 512 512" height="512" viewBox="0 0 512 512" width="512" xmlns="http://www.w3.org/2000/svg"><g><path d="m316.184 150.5-40.16 7.24 10.097-37.24v-60.312c0-33.188 27-60.188 60.188-60.188s60.188 27 60.188 60.188c-.001 49.798-40.514 90.312-90.313 90.312zm-.063-30h.062c33.257 0 60.312-27.056 60.312-60.312 0-16.646-13.542-30.188-30.188-30.188s-30.188 13.542-30.188 30.188v60.312z" fill="#e43135"/><path d="m105.504 60.188c0-33.188 27-60.188 60.187-60.188s60.188 27 60.188 60.188v60.312l10.097 37.24-40.16-7.24c-49.799 0-90.312-40.514-90.312-90.312zm90.375 0c0-16.646-13.542-30.188-30.188-30.188s-30.187 13.542-30.187 30.188c0 33.256 27.056 60.312 60.312 60.312h.062v-60.312z" fill="#fd6b53"/><path d="m436.73 190.32v321.68h-150.61l-30.12-15-30.12 15h-150.61v-321.68z" fill="#28e7ef"/><path d="m436.73 190.32v321.68h-150.61l-30.12-15v-306.68z" fill="#1cace7"/><path d="m286.12 120.42v30.12l-10.1 7.2h-40.04l-10.1-7.2v-30.12c0-16.63 13.48-30.12 30.12-30.12s30.12 13.49 30.12 30.12z" fill="#e43135"/><path d="m286.12 120.42v30.12l-10.1 7.2h-20.02v-67.44c16.64 0 30.12 13.49 30.12 30.12z" fill="#b12629"/><path d="m466.85 150.54v60.25h-421.7v-60.25h180.73l10.1 7.2h40.04l10.1-7.2z" fill="#feb556"/><path d="m466.85 150.54v60.25h-210.85v-53.05h20.02l10.1-7.2z" fill="#fd9126"/><path d="m225.88 150.54h60.24v361.46h-60.24z" fill="#fd6b53"/><path d="m256 150.54h30.12v361.46h-30.12z" fill="#e43135"/></g></svg>